<svg xmlns="http://www.w3.org/2000/svg" xmlns:xlink="http://www.w3.org/1999/xlink" width="169.754" height="124" viewBox="0 0 169.754 124"><defs><style>.a{fill:url(#a);}.b{fill:#fafafa;}.c{fill:#e0e0e0;}.d{fill:#fff;}.e{fill:#2d62fc;}</style><linearGradient id="a" x1="0.5" y1="1" x2="0.5" gradientUnits="objectBoundingBox"><stop offset="0.01" stop-color="gray" stop-opacity="0.251"/><stop offset="0.54" stop-color="gray" stop-opacity="0.122"/><stop offset="1" stop-color="gray" stop-opacity="0.102"/></linearGradient></defs><g transform="translate(-0.05)"><path class="a" d="M589.489,290.82H505.2a15.065,15.065,0,0,0-14.992,15.136v52.39a7.084,7.084,0,0,0,7.05,7.119h53.527A26.491,26.491,0,0,0,568.3,383.917l-3.178-18.451h24.369a7.084,7.084,0,0,0,7.05-7.119V297.939A7.084,7.084,0,0,0,589.489,290.82Z" transform="translate(-426.736 -259.917)"/><path class="b" d="M594.227,299.86H512.412a14.552,14.552,0,0,0-14.552,14.552v50.367a6.837,6.837,0,0,0,6.837,6.837h51.959a25.571,25.571,0,0,0,17,17.738l-3.092-17.732h23.658a6.837,6.837,0,0,0,6.837-6.837V306.7A6.837,6.837,0,0,0,594.227,299.86Z" transform="translate(-432.891 -267.191)"/><rect class="c" width="42.289" height="5.286" transform="translate(97.868 45.744)"/><rect class="c" width="15.859" height="5.286" transform="translate(124.06 55.504)"/><rect class="c" width="31.273" height="5.286" transform="translate(108.404 65.262)"/><rect class="c" width="38.352" height="5.286" transform="translate(101.086 75.022)"/><rect class="c" width="20.221" height="5.286" transform="translate(118.977 84.78)"/><path class="a" d="M172.549,132.63h91.7a7.059,7.059,0,0,1,7.009,7.109v60.332a7.059,7.059,0,0,1-7.009,7.109H211.035a26.417,26.417,0,0,1-17.412,18.428l3.161-18.428H172.559a7.059,7.059,0,0,1-7.009-7.109V139.735A7.044,7.044,0,0,1,172.549,132.63Z" transform="translate(-165.5 -132.63)"/><path class="d" d="M178.607,142.1h89.518a6.837,6.837,0,0,1,6.837,6.837v58.081a6.837,6.837,0,0,1-6.837,6.837H216.178a25.571,25.571,0,0,1-17,17.738l3.085-17.738h-23.66a6.837,6.837,0,0,1-6.837-6.837V148.943A6.837,6.837,0,0,1,178.607,142.1Z" transform="translate(-170.505 -140.25)"/><rect class="e" width="42.289" height="5.286" transform="translate(31.719 13.013)"/><rect class="e" width="15.859" height="5.286" transform="translate(31.959 22.771)"/><rect class="e" width="31.273" height="5.286" transform="translate(32.2 32.529)"/><rect class="e" width="38.352" height="5.286" transform="translate(32.44 42.289)"/><rect class="e" width="20.221" height="5.286" transform="translate(32.68 52.047)"/></g></svg>