<svg xmlns="http://www.w3.org/2000/svg" width="43.206" height="43.964" viewBox="0 0 43.206 43.964"><defs><style>.a{fill:#dae4ea;}.b{fill:#b9c1cb;}.c{fill:#909ba5;}.d{fill:#189afe;}.e{fill:#2d62fc;}.f{fill:#c6d0da;}.g{fill:#e7ecf1;}.h{fill:#223a80;}.i{fill:#f6f9f9;}</style></defs><g transform="translate(-4.41)"><g transform="translate(12.543 1.935)"><path class="a" d="M242.768,22.536h2.272v3.452h-2.272Z" transform="translate(-230.434 -22.536)"/><path class="a" d="M99.124,22.536H101.4v3.452H99.124Z" transform="translate(-99.124 -22.536)"/><path class="a" d="M386.412,22.536h2.272v3.452h-2.272Z" transform="translate(-361.744 -22.536)"/></g><path class="b" d="M182.543,429.46l.885-5.267-5.267.885Z" transform="translate(-158.831 -387.769)"/><path class="b" d="M273.382,429.46l-.885-5.267,5.267.885Z" transform="translate(-245.067 -387.769)"/><path class="a" d="M229.2,328.392v15.334a.431.431,0,0,0,.431.431h3.74a.431.431,0,0,0,.431-.431V328.392Z" transform="translate(-205.489 -300.194)"/><path class="c" d="M47.211,81.094H4.815a.405.405,0,0,1-.405-.405V57.543a.405.405,0,0,1,.405-.405h42.4a.405.405,0,0,1,.405.405V80.689A.405.405,0,0,1,47.211,81.094Z" transform="translate(0 -52.232)"/><path class="d" d="M69.19,103.012H31.218a.345.345,0,0,1-.345-.345V83.946a.345.345,0,0,1,.345-.345H69.19a.345.345,0,0,1,.345.345v18.721A.345.345,0,0,1,69.19,103.012Z" transform="translate(-24.191 -76.423)"/><path class="e" d="M69.19,83.6H66v9.822a7.82,7.82,0,0,1-7.82,7.82h-27.3v1.424a.345.345,0,0,0,.345.345H69.19a.345.345,0,0,0,.345-.345V83.946A.345.345,0,0,0,69.19,83.6Z" transform="translate(-24.191 -76.423)"/><path class="c" d="M225.022,2.416H218.9a.137.137,0,0,1-.132-.175L219.388.1a.138.138,0,0,1,.132-.1H224.4a.137.137,0,0,1,.132.1l.617,2.142A.137.137,0,0,1,225.022,2.416Z" transform="translate(-195.949)"/><path class="c" d="M81.379,2.416H75.26a.137.137,0,0,1-.132-.175L75.745.1a.137.137,0,0,1,.132-.1h4.885a.137.137,0,0,1,.132.1l.617,2.142A.137.137,0,0,1,81.379,2.416Z" transform="translate(-64.641)"/><path class="c" d="M362.547,2.416h6.119a.137.137,0,0,0,.132-.175L368.181.1a.137.137,0,0,0-.132-.1h-4.885a.137.137,0,0,0-.132.1l-.617,2.142A.137.137,0,0,0,362.547,2.416Z" transform="translate(-327.26)"/><path class="f" d="M232.034,336.126v2.454a1.756,1.756,0,0,1-1.756,1.756H229.2v1.769h4.6v-5.979h-1.769Z" transform="translate(-205.489 -307.264)"/><path class="f" d="M232.034,437.625a1.756,1.756,0,0,1-1.756,1.756H229.2v1.338a.431.431,0,0,0,.431.431h3.74a.431.431,0,0,0,.431-.431v-6.224h-1.769v3.13Z" transform="translate(-205.489 -397.187)"/><path class="g" d="M216.391,133.186a13.536,13.536,0,0,1,5.771,1.8l1.338.778,1.071-4.7-1.071-4.7-1.338.778a13.535,13.535,0,0,1-5.771,1.8H215.8l-1.257,2.122,1.257,2.122h.589Z" transform="translate(-192.092 -115.516)"/><path class="c" d="M151.186,159.522l-1.83-.374a.384.384,0,0,1-.307-.376V155.8a.384.384,0,0,1,.307-.376l1.83-.374.936,2.234Z" transform="translate(-132.218 -141.739)"/><path class="h" d="M184,203.2l-1.011-3.772-1.668-.864-1.491.864,1.39,5.187a.859.859,0,0,1,.027.16l.058.8a.348.348,0,0,0,.437.311l2.9-.778a.348.348,0,0,0,.157-.581l-.1-.1A2.738,2.738,0,0,1,184,203.2Z" transform="translate(-160.356 -181.514)"/><path class="h" d="M334.237,160.844l-1.867.622-1.071-2.033,1.071-2.033,1.867.622a.4.4,0,0,1,.27.375v2.072A.4.4,0,0,1,334.237,160.844Z" transform="translate(-298.82 -143.885)"/><path class="g" d="M248.937,432.479a.663.663,0,0,1-.663-.663v-4.383a.663.663,0,0,1,1.327,0v4.383A.663.663,0,0,1,248.937,432.479Z" transform="translate(-222.924 -390.125)"/><path class="g" d="M79.036,369H43.808a.663.663,0,0,0,0,1.327h.851v1.918a.663.663,0,0,0,1.327,0v-1.918h3.273v1.918a.663.663,0,0,0,1.327,0v-1.918h3.273v1.918a.663.663,0,0,0,1.327,0v-1.918h3.273v1.918a.663.663,0,0,0,1.327,0v-1.918h3.273v1.918a.663.663,0,0,0,1.327,0v-1.918h3.273v1.918a.663.663,0,0,0,1.327,0v-1.918h3.273v1.918a.663.663,0,0,0,1.327,0v-1.918h3.273v1.918a.663.663,0,0,0,1.327,0v-1.918h.851a.663.663,0,0,0,0-1.327Z" transform="translate(-35.409 -337.312)"/><path class="i" d="M85.895,408.227H51.075a.2.2,0,0,1-.2-.2v-2.06a.2.2,0,0,1,.2-.2h34.82a.2.2,0,0,1,.2.2v2.06A.2.2,0,0,1,85.895,408.227Z" transform="translate(-42.472 -370.919)"/><path class="i" d="M319.9,121.672a1.071,1.071,0,0,1-1.071-1.071V110.427a1.071,1.071,0,1,1,2.142,0V120.6a1.071,1.071,0,0,1-1.071,1.071Z" transform="translate(-287.419 -99.966)"/><path class="h" d="M174.065,158.255h4.5a.123.123,0,0,0,.123-.123v-4.486a.123.123,0,0,0-.123-.123h-4.5a.123.123,0,0,0-.123.123v4.486A.123.123,0,0,0,174.065,158.255Z" transform="translate(-154.975 -140.341)"/></g></svg>