<svg xmlns="http://www.w3.org/2000/svg" width="43.893" height="14.293" viewBox="0 0 43.893 14.293"><defs><style>.a{fill:#2d62fc;}</style></defs><path class="a" d="M28.547,168.614a15.1,15.1,0,0,1-2.2-.806,9.574,9.574,0,0,1-4.386-3.7,9.641,9.641,0,0,1-4.386,3.7,15.1,15.1,0,0,1-2.2.818,14.454,14.454,0,0,1-8.143.031,10.317,10.317,0,0,1-6.473-5.686A12.993,12.993,0,0,1,.05,161.06a.921.921,0,0,1,1.658-.776c1.318,1.616,2.415,2.167,3.385,2.079a5.8,5.8,0,0,0,3.057-1.846c.245-.233.627-.615,1.016-1,.764-.764,1.6-1.6,2.48-2.338,2.831-2.392,5.621-2.675,7.718-1.758a5.782,5.782,0,0,1,2.594,2.224,5.781,5.781,0,0,1,2.6-2.224c2.1-.9,4.887-.634,7.718,1.758.875.737,1.7,1.563,2.48,2.338.382.382.764.764,1.02,1a5.7,5.7,0,0,0,3.057,1.846c1.009.088,2.067-.462,3.385-2.079a.921.921,0,0,1,1.639.783,12.992,12.992,0,0,1-.707,1.91,10.317,10.317,0,0,1-6.473,5.674,14.454,14.454,0,0,1-8.143-.031" transform="translate(0 -154.933)"/></svg>