<svg xmlns="http://www.w3.org/2000/svg" xmlns:xlink="http://www.w3.org/1999/xlink" width="272.719" height="210.699" viewBox="0 0 272.719 210.699"><defs><style>.a{fill:#f5f7ff;}.b{clip-path:url(#a);}.c{fill:#543c32;}.d,.n{fill:#f0c7b1;}.e{fill:#ffe4d6;}.f{fill:#e1ac8f;}.g{fill:none;}.g,.n{stroke:#c27b55;stroke-width:1.213px;}.h{fill:url(#b);}.i{fill:#864025;}.j{fill:#773015;}.k{fill:#672208;}.l{fill:#955238;}.m{fill:#581900;}.o{fill:#c27b55;}.p{fill:#e8b9a0;}.q{fill:url(#c);}.r{fill:url(#d);}.s{fill:#7b5c33;}.ad,.t{opacity:0.7;}.t{fill:url(#e);}.ae,.at,.u{opacity:0.4;}.u{fill:url(#f);}.v{opacity:0.9;}.af,.ag,.w,.x{opacity:0.5;}.w{fill:url(#g);}.x{fill:url(#h);}.ah,.y{opacity:0.75;}.y{fill:url(#i);}.z{fill:url(#j);}.aa{fill:url(#k);}.ab{fill:#0f190c;}.ac{fill:url(#l);}.ad{fill:url(#m);}.ae{fill:url(#n);}.af{fill:url(#o);}.ag{fill:url(#p);}.ah{fill:url(#q);}.ai{fill:url(#r);}.aj{fill:url(#s);}.ak{fill:url(#t);}.al{fill:url(#u);}.am{fill:#2a232b;}.an{fill:#fff5ef;}.an,.as{opacity:0.2;}.ao{fill:#452c22;}.ap{fill:#26130b;}.aq{fill:#504543;}.ar{fill:#634e45;}.as,.at{fill:#fff;}.au{fill:#26120b;}.av{fill:#351d15;}</style><clipPath id="a"><path class="a" d="M6165.838,1743.613c15.662,19.4,84.12,36.417,146.992,24.416,50.869-9.71,97.368-44.66,113.905-65.108,18.154-22.448,3.07-50.35-21.55-81.386-24.6-31.01-59.353-64.831-92.355-59.683-27.264,4.252-49.45,14.242-86.2,59.683S6149.265,1723.088,6165.838,1743.613Z" transform="translate(-5392.024 155.671)"/></clipPath><linearGradient id="b" x1="0.5" y1="0.979" x2="0.5" y2="-0.007" gradientUnits="objectBoundingBox"><stop offset="0" stop-color="#e1ac8f" stop-opacity="0.8"/><stop offset="0.7" stop-color="#c27b55"/></linearGradient><linearGradient id="c" x1="0.455" y1="0.946" x2="0.455" y2="-0.01" gradientUnits="objectBoundingBox"><stop offset="0.1" stop-color="#e8b9a0"/><stop offset="1" stop-color="#e1ac8f"/></linearGradient><radialGradient id="d" cx="0.479" cy="0.521" r="1.234" gradientTransform="matrix(-0.437, 0.039, 0.014, 0.838, 3.465, 0.003)" gradientUnits="objectBoundingBox"><stop offset="0" stop-color="#fff"/><stop offset="0.544" stop-color="#fdfefe"/><stop offset="0.74" stop-color="#f6f8f9"/><stop offset="0.879" stop-color="#eaeff2"/><stop offset="0.992" stop-color="#d9e3e8"/><stop offset="1" stop-color="#d8e2e7"/></radialGradient><radialGradient id="e" cx="0.499" cy="0.5" r="0.497" gradientTransform="matrix(0.974, -0.247, 0.249, 0.969, 11.108, -14.828)" gradientUnits="objectBoundingBox"><stop offset="0" stop-color="#fff"/><stop offset="1" stop-color="#fff" stop-opacity="0"/></radialGradient><radialGradient id="f" cx="0.487" cy="0.499" r="0.497" gradientTransform="matrix(1.006, 0.011, -0.011, 1, -0.206, 0.608)" xlink:href="#e"/><linearGradient id="g" x1="26.728" y1="0.86" x2="27.205" y2="0.291" gradientTransform="matrix(1, 0, 0, 1, 0, 0)" xlink:href="#e"/><linearGradient id="h" x1="21.685" y1="0.207" x2="21.383" y2="0.641" gradientTransform="matrix(1, 0, 0, 1, 0, 0)" xlink:href="#e"/><linearGradient id="i" x1="11.261" y1="0.178" x2="10.911" y2="0.655" gradientTransform="matrix(1, 0, 0, 1, 0, 0)" xlink:href="#e"/><radialGradient id="j" cx="0.503" cy="0.48" fx="0.8995758891105652" fy="0.4375346899032593" r="0.672" gradientTransform="matrix(0.736, 0.178, 0.099, -0.737, 0.452, 0.444)" gradientUnits="objectBoundingBox"><stop offset="0" stop-color="#e1ac8f"/><stop offset="0.7" stop-color="#e1ac8f" stop-opacity="0.302"/><stop offset="1" stop-color="#f0c7b1" stop-opacity="0"/></radialGradient><radialGradient id="k" cx="0.424" cy="1.377" r="1.605" gradientTransform="matrix(0.432, -0.129, 0.048, 0.852, 0.374, 0.125)" gradientUnits="objectBoundingBox"><stop offset="0.95" stop-opacity="0"/><stop offset="1" stop-opacity="0.2"/></radialGradient><radialGradient id="l" cx="0.521" cy="0.521" r="1.234" gradientTransform="matrix(0.436, 0.069, -0.025, 0.837, 0.297, 0.062)" xlink:href="#d"/><radialGradient id="m" cx="0.499" cy="0.5" r="0.497" gradientTransform="matrix(0.974, -0.247, 0.249, 0.969, 10.994, -15.913)" xlink:href="#e"/><radialGradient id="n" cx="0.487" cy="0.499" r="0.497" gradientTransform="matrix(1.007, 0.011, -0.011, 1, -0.172, 0.657)" xlink:href="#e"/><linearGradient id="o" x1="0.197" y1="0.86" x2="0.675" y2="0.291" gradientTransform="matrix(1, 0, 0, 1, 0, 0)" xlink:href="#e"/><linearGradient id="p" x1="0.704" y1="0.207" x2="0.402" y2="0.641" gradientTransform="matrix(1, 0, 0, 1, 0, 0)" xlink:href="#e"/><linearGradient id="q" x1="0.736" y1="0.178" x2="0.386" y2="0.655" gradientTransform="matrix(1, 0, 0, 1, 0, 0)" xlink:href="#e"/><radialGradient id="r" cx="0.497" cy="0.48" fx="0.8937360048294067" fy="0.43758806586265564" r="0.671" gradientTransform="matrix(-0.74, 0.138, -0.077, -0.742, 0.906, 0.709)" xlink:href="#j"/><radialGradient id="s" cx="0.576" cy="1.377" r="1.605" gradientTransform="matrix(-0.435, -0.084, -0.031, 0.856, -1.717, -0.064)" xlink:href="#k"/><radialGradient id="t" cx="0.5" cy="0.5" r="0.5" gradientTransform="translate(0)" gradientUnits="objectBoundingBox"><stop offset="0" stop-color="#ffe4d6" stop-opacity="0.502"/><stop offset="0.9" stop-color="#f0c7b1" stop-opacity="0"/></radialGradient><radialGradient id="u" cx="0.5" cy="0.5" r="0.493" gradientTransform="matrix(1, 0, 0, 1, 0, 0)" xlink:href="#t"/></defs><g class="b" transform="translate(-770 -1717)"><g transform="translate(825.485 1737.219)"><g transform="translate(20 50.362)"><g transform="translate(65.021 63.144)"><path class="c" d="M81.131,81.131H80.47V80.47h.661Z" transform="translate(-80.47 -80.47)"/></g><g transform="translate(-0.792 78.026)"><path class="d" d="M129.257,150.112c-1.453-3.139-5.421-7.791-9.829-9.076-5.45-1.589-17.751-3.511-22.312-4.579-3.656-.857-11.021-7.47-13.6-9.69a2.794,2.794,0,0,1-.851-1.826c-.092-7.186,2.775-26.275,2.775-26.275H46.852s2.867,19.089,2.773,26.275a2.789,2.789,0,0,1-.85,1.826c-2.581,2.22-9.945,8.833-13.6,9.69-4.562,1.068-16.864,3.055-22.312,4.645-4.41,1.285-8.377,5.871-9.829,9.01C.579,155.408,0,164.994,0,173.262H132.289C132.289,164.995,131.709,155.409,129.257,150.112Z" transform="translate(0 -98.666)"/><path class="e" d="M105.273,145.722c16.1,2.343,22.877,5.76,25,33.549h2.017c0-8.268-.58-17.854-3.031-23.151-1.453-3.139-5.421-7.791-9.829-9.076-5.45-1.589-17.751-3.511-22.312-4.579-3.656-.857-12.066-7.983-14.316-10.815,2.222,3.111,8.461,10.322,13.926,12.21A42.885,42.885,0,0,0,105.273,145.722Zm-69.71-1.861c5.466-1.888,11.7-9.1,13.926-12.21-2.249,2.831-10.659,9.957-14.316,10.815-4.561,1.068-16.863,3.055-22.312,4.645-4.409,1.285-8.377,5.871-9.829,9.01C.581,161.417,0,171,0,179.27H2.018c2.109-27.611,8.913-31.209,25-33.549A42.855,42.855,0,0,0,35.563,143.861Z" transform="translate(0 -104.673)"/><path class="f" d="M69.77,155.963s-3.356-1.064-4.685-1.574c-6.911-2.652-29.365-4.37-29.365-4.37s23.649.939,28.868,1.838c-.3-3.153-2-13.232-2-13.232S66,149.748,66.832,152.554C67.278,154.054,69.77,155.963,69.77,155.963Zm7.143-.888c-.059.048-.126.111-.2.177A1.5,1.5,0,0,0,76.913,155.075Zm-7.143.888s1.914,1.979,2.875,2c1.263.034,3.193-1.918,4.069-2.715a7.931,7.931,0,0,1-3.512.95C72.322,156.236,69.77,155.963,69.77,155.963Zm13.9-4.973c-1.022.164-2.9.522-2.9.522l1.513-9.849c-.427,2.031-2.959,10.723-5.371,13.413,1.263-1.069,4.073-1.582,5.506-1.789,6.771-.982,6.768-.981,27.16-3.268C109.579,150.019,90.351,149.917,83.673,150.99Z" transform="translate(-6.506 -105.944)"/><path class="g" d="M129.257,150.112c-1.453-3.139-5.421-7.791-9.829-9.076-5.45-1.589-17.751-3.511-22.312-4.579-3.656-.857-11.021-7.47-13.6-9.69a2.794,2.794,0,0,1-.851-1.826c-.092-7.186,2.775-26.275,2.775-26.275H46.852s2.867,19.089,2.773,26.275a2.789,2.789,0,0,1-.85,1.826c-2.581,2.22-9.945,8.833-13.6,9.69-4.562,1.068-16.864,3.055-22.312,4.645-4.41,1.285-8.377,5.871-9.829,9.01C.579,155.408,0,164.994,0,173.262H132.289C132.289,164.995,131.709,155.409,129.257,150.112Z" transform="translate(0 -98.666)"/></g><g transform="translate(47.563 84.158)"><path class="h" d="M76.927,133.016c5.413,0,11.159-3.27,16.006-7.061A181.324,181.324,0,0,1,94.687,107.3a146.262,146.262,0,0,0-35.563-.1c.783,5.927,1.736,14.027,1.767,18.534C65.747,129.643,71.5,133.016,76.927,133.016Z" transform="translate(-59.124 -106.163)"/></g><g transform="translate(-4.351 95.407)"><path class="i" d="M-3.888,177.058c.974-7.148-.138-7.79,2.723-21.838.812-4.884,1.759-8.81,5.385-7.016,2.676-3.974,10.261-4.343,37.927-13.664v-.171a16.885,16.885,0,0,0,2.05-6.546c.253-3.6,1.8-6.323,3.713-7.675-4.462,15.666,15.308,9.891,16.012,20.576.056.842-.644,6.713-.538,7.255a32.431,32.431,0,0,1,6.852-.427c-2.6-10.08-.36-11.16,4.858-13.122,6.326-2.375,8.515-4.742,7.944-13.69,3.023,2.718,1,6.416,4.745,11.6,23.977,8.7,33.085,11.154,37.678,14.226,3.956-2.988,6.414,1.753,11.438,30.495C89.393,177.462,35.188,177.4-3.888,177.058Z" transform="translate(4.267 -119.959)"/><path class="j" d="M71.259,156.882a37.689,37.689,0,0,0,2.232-3.641c3.813-1.419,12.154,1.326,22.5-6.731C88.374,158.453,74.583,149.938,71.259,156.882ZM56.705,145.071c5.79,6.626,15.629,9.083,17.709,7.068C74.412,152.186,62.991,151.7,56.705,145.071Z" transform="translate(-6.769 -124.499)"/><path class="k" d="M59.373,120.845s.466,4.593.542,7.765C58.526,125.514,58.242,124.687,59.373,120.845Z" transform="translate(-7.128 -120.086)"/><path class="l" d="M2.454,150.3c-3.162,9.1-3.426,18.913-5.344,26.763-.458,0-.544.194-1,.19.974-7.148-.138-8.172,2.723-22.22.812-4.884,1.759-8.81,5.385-7.016,2.676-3.974,10.261-4.343,37.927-13.664v-.171a16.885,16.885,0,0,0,2.05-6.546c.228-3.244,1.734-6.238,3.473-7.491-3.926,4.268-1.269,12.134-5.352,15.2C34.417,140.26,11.587,146.133,2.454,150.3Zm123.006-3.738c-4.592-3.072-13.7-5.522-37.678-14.226-3.742-5.182-1.722-8.88-4.745-11.6.042.662-.012.405,0,1,1.429-.284,1.783,10.463,4.923,12.034,12.567,5.953,29.938,11.454,39.37,14.97,4.389,6.628,5.4,17.835,8.864,28.321l.7-.006C131.874,148.317,129.417,143.577,125.46,146.564Zm-42.832-17.22c-4.848,8.465-14.318,3.084-13.389,13.1C71.051,132.764,79.44,138.245,82.629,129.344ZM63.7,143.784c1.738-10.908-10.264-9.118-15.632-15.409C51.422,135.26,62.495,133.156,63.7,143.784Z" transform="translate(4.267 -119.959)"/><path class="m" d="M128.942,146.136a2.624,2.624,0,0,0-3.578-.019c-4.718-3.146-17.353-6.281-37.458-14.293a14.875,14.875,0,0,1-2.295-5.3c-.518-2.218-.2-4.688-2.773-6.507-.5,6.142-.272,11.07-6.29,13.43-5.926,2.369-9.73,2.476-6.825,13.732a33.576,33.576,0,0,0-6.163.372c-.038-.2.679-5.8.607-6.887-.671-10.17-18.861-6.366-16.49-18.223a5.591,5.591,0,0,0,.124-2.52c-2.427,1.27-3.53,4.018-3.867,6.29-.368,2.572.211,3.209-2.2,8.023,0,.007-.007.014-.007.02-.112.033-.231.073-.351.112-27.406,9.122-34.942,9.779-37.358,13.374-3.923-1.945-4.933,3.387-5.6,7.375-2.909,14.285-1.721,14.779-2.778,22.231.661,0,72.535.635,140.861.007.238,0,.47-.007.7-.007C137,176.453,132.966,150.064,128.942,146.136Zm-52-11.747c6.533-2.656,6.288-6.386,6.2-13.074,2.273,1.005.6,5.9,4.493,10.924a13.982,13.982,0,0,1-2.8,8.9c-3.645,4.035-9.736,6.163-14.7,6.039C68.451,136.494,70.587,136.992,76.94,134.389Zm-32.524-7.375c.041-1.8,1.429-5.466,3.241-6.681-5.77,15.263,14.834,10.245,15.7,21.113.018.3-.251,5.512-.258,5.847-10.652-1.254-15.659-3.674-20.928-12.692l.04-.079c.007.007.007,0,.007,0C43.886,131.177,44.2,130.418,44.417,127.014ZM-3.829,176.92c.95-3.426.909-9.861,2.672-18.937,1.045-5.19,1.077-11.473,4.948-9.941.013,0,.02.007.026.007,2.326,5.616,7.286,20.835,7.494,21.5.1.3,1.372,5.456,1.693,6.542-1.4-11.238-7.6-26.28-8.592-27.873,2.68-2.745,2.047-1.538,23.759-8.4,4.7-1.485,12.838-4.7,13.407-5.028,6.075,13.133,18.883,12.637,21.384,12.912-7.289,2.247-3.128,20.669-2.494,27.093-.108-5.223-2.292-19.387.827-24.368a4.1,4.1,0,0,1,2.077-1.574c4.594-1.738,10.137,1.952,19.81-4.855,3.147-2.988,4.716-4.888,4.716-11.6,15.894,7.5,31.063,11.077,37.114,14.353-.009.054-.033.274-.033.278-1.021,8.763.822-.773-2.91,18.976-.972,5.649-.269,3.748-.747,8.784.98-5.193-.044-2.484,1.4-8.678,3.033-12.791,2.552-15.178,2.752-19.44,2.2-1.585,3.378.141,4.233,2.619,3.2,9.72,5.28,22.577,6.674,27.622C92.84,176.515,39.716,176.536-3.829,176.92ZM70.542,155.9c-2.142.833-4.833.624-7.213.286A32.519,32.519,0,0,1,70.542,155.9Z" transform="translate(4.351 -119.917)"/></g><g transform="translate(20.497 -14.657)"><g transform="translate(0 62.257)"><path class="n" d="M34.95,66.984c-.982-1.628-4.185-6.085-6.635-5.46-1.992.511-1.966,3.288-2.121,4.931-.225,2.41-.307,6.609.347,8.313a22.98,22.98,0,0,0,3.855,6c1.521,1.478,3.949,6.19,4.248,6.679a3.261,3.261,0,0,0,2.861,1.791,4.836,4.836,0,0,0,3.946-2.967C42.311,81.254,37.506,71.221,34.95,66.984Z" transform="translate(-26.031 -61.464)"/><path class="o" d="M34.169,77.492a4.86,4.86,0,0,1,.1-1.607,5.672,5.672,0,0,0,.12-1.443,23.94,23.94,0,0,0-1.968-5.432c-.809-1.638-2.116-3.7-3.756-4.233a1.26,1.26,0,0,0-1.382.31c-.19.2-.233.427-.171.454s.2-.164.408-.343c.168-.147-.336-.026,0,0a28.278,28.278,0,0,0-.271,6.709,14.46,14.46,0,0,0,.835,3.715,5.1,5.1,0,0,0,.106.69c.663,2.917,4.973,6.732,5.975,7.818.185.2.38.319.427.271s-.067-.247-.251-.448c-.991-1.079-5.272-4.882-5.913-7.7-.679-2.986,2.588-7.413,3.108-8.349.265.44.491.862.664,1.214.137.276.287.6.443.949-.306.488-3.385,4.053-2.6,6.906.29,1.052,2.528,2.409,3.394,2.78a1.736,1.736,0,0,1,.863.864c.241.413.022,1.474.814,1.812a1.109,1.109,0,0,0,.436.1.8.8,0,0,0,.518-.188c.013.179.013.409.006.622-.008.276.031.4.1.408s.139-.115.148-.388a3.852,3.852,0,0,0-.051-.955,6.838,6.838,0,0,0-1.294-1.956A6.713,6.713,0,0,1,34.169,77.492Zm-6.106-2.586c-1.553-4.579.849-8.75,1.2-9.379a6.608,6.608,0,0,1,2.131,2.14C31.074,68.218,28.128,71.826,28.064,74.906Zm7.146,7.3c-.717-.306-.467-1.312-.7-1.709a1.98,1.98,0,0,0-.978-.966,2.573,2.573,0,0,1-.386-.22c-1.774-4.018.194-5.774.687-6.134a8.834,8.834,0,0,1,.315,1.3,5.693,5.693,0,0,1-.12,1.368,4.954,4.954,0,0,0-.1,1.709,7.058,7.058,0,0,0,.854,2.678,7.216,7.216,0,0,1,1.228,1.816A.615.615,0,0,1,35.209,82.2Z" transform="translate(-26.223 -62.053)"/></g><g transform="translate(74.014 62.257)"><path class="n" d="M123.13,66.984c.983-1.628,4.186-6.085,6.635-5.46,1.992.511,1.966,3.288,2.121,4.931.225,2.41.306,6.609-.347,8.313a23,23,0,0,1-3.855,6c-1.521,1.478-3.949,6.19-4.248,6.679a3.261,3.261,0,0,1-2.861,1.791,4.838,4.838,0,0,1-3.946-2.967C115.769,81.254,120.574,71.221,123.13,66.984Z" transform="translate(-116.527 -61.464)"/><path class="o" d="M124.506,80.073a6.838,6.838,0,0,0-1.294,1.956,3.852,3.852,0,0,0-.052.955c.009.273.08.394.149.388s.106-.132.1-.408c-.007-.213-.008-.443.005-.622a.8.8,0,0,0,.518.188,1.112,1.112,0,0,0,.437-.1c.79-.338.572-1.4.813-1.812a1.733,1.733,0,0,1,.863-.864c.866-.371,3.1-1.727,3.394-2.78.783-2.853-2.3-6.419-2.6-6.906.155-.35.306-.673.442-.949.175-.352.4-.775.665-1.214.521.937,3.787,5.363,3.108,8.349-.641,2.814-4.922,6.616-5.913,7.7-.185.2-.3.4-.252.448s.243-.07.427-.271c1-1.087,5.312-4.9,5.975-7.818a5,5,0,0,0,.107-.69,14.518,14.518,0,0,0,.835-3.715,28.278,28.278,0,0,0-.271-6.709c.336-.026-.168-.147,0,0,.206.179.346.37.408.343s.019-.258-.171-.454a1.262,1.262,0,0,0-1.382-.31c-1.64.532-2.948,2.595-3.757,4.233a23.937,23.937,0,0,0-1.968,5.432,5.672,5.672,0,0,0,.12,1.443,4.879,4.879,0,0,1,.1,1.607A6.718,6.718,0,0,1,124.506,80.073Zm3.582-12.405a6.621,6.621,0,0,1,2.131-2.14c.349.628,2.75,4.8,1.2,9.379C131.352,71.826,128.407,68.218,128.088,67.667Zm-4.622,14.38a7.2,7.2,0,0,1,1.228-1.816,7.07,7.07,0,0,0,.854-2.678,4.985,4.985,0,0,0-.1-1.709,5.664,5.664,0,0,1-.12-1.368,8.742,8.742,0,0,1,.314-1.3c.493.359,2.461,2.116.687,6.134a2.482,2.482,0,0,1-.386.22,1.986,1.986,0,0,0-.978.966c-.232.4.019,1.4-.7,1.709A.611.611,0,0,1,123.466,82.048Z" transform="translate(-117.734 -62.053)"/></g><g transform="translate(4.507 12.561)"><g transform="translate(0 0)"><path class="d" d="M110.772,51.724h0c-.007.03-8.068,26.636-10.5,34.672a11.354,11.354,0,0,1-2.352,4.224C93.7,95.378,82.193,107.194,71.9,107.194c-10.483,0-22.219-12.6-26.265-17.339a10.779,10.779,0,0,1-2.1-3.813C41.155,78.4,32.874,51.879,32.867,51.849h0a41.289,41.289,0,0,1-1.324-10.341C31.507,19,49.5.736,71.739.7s40.291,18.174,40.324,40.678A41.266,41.266,0,0,1,110.772,51.724Z" transform="translate(-31.542 -0.701)"/><path class="p" d="M93.167,8.3c9.465,7.365,15.657,19.484,15.676,33.21a44.62,44.62,0,0,1-1.188,10.346h0c-.006.03-7.423,26.636-9.662,34.671a11.655,11.655,0,0,1-2.164,4.223C91.946,95.5,81.362,107.321,71.9,107.321c-9.645,0-20.441-12.6-24.163-17.34a11.091,11.091,0,0,1-1.93-3.813c-2.195-7.641-9.813-34.163-9.82-34.193h0a44.713,44.713,0,0,1-1.218-10.341C34.745,27.858,40.947,15.68,50.449,8.29a40.816,40.816,0,0,0-18.907,34.6,41.285,41.285,0,0,0,1.324,10.341h0c.007.03,8.288,26.552,10.674,34.193a10.8,10.8,0,0,0,2.1,3.813c4.045,4.742,15.781,17.339,26.265,17.339,10.29,0,21.794-11.815,26.011-16.574a11.349,11.349,0,0,0,2.352-4.224c2.435-8.035,10.5-34.641,10.5-34.672h0a41.271,41.271,0,0,0,1.291-10.346A40.809,40.809,0,0,0,93.167,8.3Z" transform="translate(-31.542 -2.083)"/><path class="g" d="M110.772,51.724h0c-.007.03-8.068,26.636-10.5,34.672a11.354,11.354,0,0,1-2.352,4.224C93.7,95.378,82.193,107.194,71.9,107.194c-10.483,0-22.219-12.6-26.265-17.339a10.779,10.779,0,0,1-2.1-3.813C41.155,78.4,32.874,51.879,32.867,51.849h0a41.289,41.289,0,0,1-1.324-10.341C31.507,19,49.5.736,71.739.7s40.291,18.174,40.324,40.678A41.266,41.266,0,0,1,110.772,51.724Z" transform="translate(-31.542 -0.701)"/></g></g><g transform="translate(34.273 99.412)"><path class="q" d="M77.823,112.576l5.488-.137C82.675,115.4,78.258,114.972,77.823,112.576Z" transform="translate(-69.737 -107.904)"/><path class="o" d="M76.1,111.754a.181.181,0,1,1,.053-.358,18.2,18.2,0,0,0,5.211-.142.182.182,0,1,1,.086.353A17.9,17.9,0,0,1,76.1,111.754Zm2.474-2.361a17.278,17.278,0,0,1-2.926-.513,12.392,12.392,0,0,0-3.251.069c-1.109.1-3.527-.009-4.21-.441a.534.534,0,0,1,.12-.958c.406-.146,1.039.156,1.449.23,1.9.341,2.9-.022,4.565-.078,2.547-.077,2.818.993,6,.351,3.416-.691,4.955-.168,7.406-.906.336-.1.736-.37,1.088-.189a.534.534,0,0,1-.032.968c-2.253.993-4.745.592-7.246,1.009A18.252,18.252,0,0,1,78.573,109.392Z" transform="translate(-67.936 -106.894)"/></g><g transform="translate(14.516 52.508)"><g transform="translate(4.253 11.15)"><path class="r" d="M59.675,63.353C62.709,63.8,64.92,65.66,66.8,68.6c0,0,.009,0,.012.005,0,.018.014.035.017.053.169.666-.54,1.2-1.425,1.613-3.156.4-6.19.985-9.389.575-6.4-.821-6.519-3.644-6.83-4.385a5.332,5.332,0,0,1-.206-1.636A10.75,10.75,0,0,1,52.852,63.5,24.281,24.281,0,0,1,59.675,63.353Z" transform="translate(-48.979 -63.178)"/></g><g transform="translate(9.339 11.071)"><path class="s" d="M62.932,67.051a3.969,3.969,0,0,1-7.937,0h0a3.969,3.969,0,1,1,7.937,0Z" transform="translate(-54.995 -63.082)"/><path class="t" d="M58.52,63.135l-.047.006c.019.089.038.179.056.269C58.525,63.319,58.523,63.227,58.52,63.135Zm.009.274a9.756,9.756,0,0,0,.342,2.887A9.713,9.713,0,0,0,58.529,63.409Zm.343,2.887c-.028.11-.071.186-.138.211a.28.28,0,0,1-.243-.068.212.212,0,0,1-.271.3.283.283,0,0,1,.1.233c-.018.069-.089.12-.194.16.105.042.176.093.192.162a.282.282,0,0,1-.1.233.272.272,0,0,1,.245.054.279.279,0,0,1,.023.251.272.272,0,0,1,.241-.066c.067.025.11.1.136.212.054-.1.113-.165.185-.172s.143.039.218.124a.276.276,0,0,1,.084-.238.273.273,0,0,1,.251.009.213.213,0,0,1,.191-.359c-.093-.065-.15-.132-.149-.2s.056-.138.15-.2a.313.313,0,0,0-.439-.353.275.275,0,0,1-.083-.238.271.271,0,0,1-.218.122C58.984,66.46,58.924,66.4,58.871,66.3Zm.4.05a9.685,9.685,0,0,0,1.038-2.715A9.737,9.737,0,0,0,59.273,66.346Zm1.038-2.715c.04-.081.08-.163.118-.245-.014,0-.028-.011-.042-.017C60.362,63.457,60.336,63.545,60.311,63.631Zm-.7,2.946a9.721,9.721,0,0,0,2.181-1.921A9.718,9.718,0,0,0,59.607,66.578Zm2.181-1.921.2-.149c-.009-.012-.02-.022-.028-.032C61.9,64.534,61.847,64.6,61.788,64.656Zm-1.994,2.281a9.773,9.773,0,0,0,2.826-.689A9.766,9.766,0,0,0,59.794,66.937Zm2.826-.688.223-.034c0-.013-.006-.025-.009-.038Zm-2.826,1.093a9.676,9.676,0,0,0,2.819.7A9.737,9.737,0,0,0,59.793,67.343Zm2.82.7.189.065a.3.3,0,0,0,.008-.033ZM59.6,67.7a9.809,9.809,0,0,0,2.171,1.934A9.7,9.7,0,0,0,59.6,67.7Zm2.172,1.933.118.125.02-.021C61.866,69.7,61.819,69.669,61.774,69.635Zm-2.506-1.7a9.734,9.734,0,0,0,1.023,2.721A9.691,9.691,0,0,0,59.269,67.931Zm1.023,2.721c.014.05.028.1.042.151l.026-.009C60.338,70.747,60.315,70.7,60.292,70.653Zm-1.426-2.674a9.758,9.758,0,0,0-.358,2.885A9.732,9.732,0,0,0,58.866,67.979Zm-.358,2.885c-.011.05-.021.1-.031.151l.026,0C58.5,70.967,58.506,70.914,58.507,70.864Zm-.019-3.03a9.708,9.708,0,0,0-1.659,2.388A9.755,9.755,0,0,0,58.488,67.834Zm-1.659,2.388-.107.128.025.016C56.774,70.317,56.8,70.269,56.829,70.221ZM58.22,67.53a9.714,9.714,0,0,0-2.578,1.342A9.724,9.724,0,0,0,58.22,67.53Zm-2.579,1.343-.174.073a.27.27,0,0,0,.015.026C55.536,68.94,55.589,68.906,55.641,68.873Zm2.482-1.738a9.766,9.766,0,0,0-2.907-.007A9.733,9.733,0,0,0,58.123,67.135Zm-2.907-.007L55,67.109a.348.348,0,0,0,0,.037Zm3-.386a9.727,9.727,0,0,0-2.567-1.357A9.73,9.73,0,0,0,58.22,66.742Zm-2.567-1.357-.208-.133c-.006.013-.013.025-.019.036Zm2.838,1.054a9.777,9.777,0,0,0-1.644-2.4A9.7,9.7,0,0,0,58.491,66.439Zm-1.644-2.4c-.044-.076-.087-.153-.132-.231l-.037.026C56.734,63.906,56.792,63.975,56.847,64.043Z" transform="translate(-54.996 -63.092)"/><path class="u" d="M59.572,63.15l-.046-.007c0,.091-.011.183-.016.274C59.53,63.329,59.551,63.239,59.572,63.15Zm-.063.267a9.725,9.725,0,0,0-.416,2.877A9.733,9.733,0,0,0,59.509,63.417Zm-.417,2.877c-.056.1-.116.161-.187.168s-.143-.042-.216-.129a.212.212,0,0,1-.339.222.212.212,0,0,1-.2.355c.091.067.146.135.144.206s-.059.137-.153.2a.314.314,0,0,0,.431.362.276.276,0,0,1,.077.24c.077-.083.151-.13.223-.118s.128.075.179.177c.03-.11.075-.185.143-.208a.274.274,0,0,1,.24.073.213.213,0,0,1,.278-.3c-.073-.087-.111-.166-.091-.235s.09-.119.2-.157c-.106-.042-.174-.1-.19-.165a.164.164,0,1,0-.143-.289.276.276,0,0,1-.019-.251.272.272,0,0,1-.243.062C59.159,66.481,59.118,66.405,59.092,66.294Zm.376.153a9.731,9.731,0,0,0,1.705-2.353A9.705,9.705,0,0,0,59.468,66.447Zm1.705-2.354c.059-.067.119-.136.177-.206l-.036-.028C61.267,63.938,61.22,64.017,61.173,64.093Zm-1.442,2.664a9.744,9.744,0,0,0,2.6-1.292A9.7,9.7,0,0,0,59.731,66.756Zm2.6-1.292.234-.091c-.007-.014-.014-.026-.019-.039C62.479,65.377,62.408,65.421,62.335,65.464Zm-2.516,1.689a9.781,9.781,0,0,0,2.907.067A9.723,9.723,0,0,0,59.819,67.152Zm2.907.066.224.024c0-.013,0-.026,0-.038Zm-3.012.325a9.652,9.652,0,0,0,2.541,1.408A9.72,9.72,0,0,0,59.713,67.544Zm2.541,1.408c.055.038.11.075.165.111l.017-.03Zm-2.818-1.111a9.8,9.8,0,0,0,1.6,2.43A9.673,9.673,0,0,0,59.436,67.842Zm1.6,2.428c.028.05.055.1.083.151l.024-.016Zm-1.978-2.293a9.759,9.759,0,0,0,.284,2.892A9.729,9.729,0,0,0,59.054,67.977Zm.284,2.892c0,.052,0,.1,0,.157l.027,0C59.358,70.973,59.348,70.92,59.338,70.869Zm-.685-2.951a9.734,9.734,0,0,0-1.093,2.693A9.726,9.726,0,0,0,58.653,67.918Zm-1.093,2.693c-.023.045-.046.091-.069.138l.024.01Zm.765-2.932a9.735,9.735,0,0,0-2.22,1.877A9.718,9.718,0,0,0,58.324,67.68ZM56.1,69.557l-.136.1c.007.007.013.013.019.021C56.026,69.635,56.066,69.6,56.1,69.557Zm2.04-2.24a9.751,9.751,0,0,0-2.838.63A9.712,9.712,0,0,0,58.145,67.316Zm-2.838.631c-.061.009-.124.016-.187.026a.211.211,0,0,0,.009.029C55.188,67.985,55.247,67.965,55.306,67.948Zm2.847-1.036a9.738,9.738,0,0,0-2.806-.76A9.734,9.734,0,0,0,58.153,66.911Zm-2.806-.76-.2-.074c0,.013-.007.024-.01.036Zm3,.4a9.735,9.735,0,0,0-2.129-1.975A9.666,9.666,0,0,0,58.35,66.556Zm-2.13-1.974-.166-.182-.028.03C56.091,64.48,56.157,64.53,56.22,64.581Zm2.469,1.752a9.742,9.742,0,0,0-.968-2.74A9.693,9.693,0,0,0,58.689,66.334Zm-.968-2.74c-.022-.085-.044-.171-.067-.257l-.042.015Z" transform="translate(-55.017 -63.093)"/><path class="s" d="M61.057,67.588A1.557,1.557,0,1,1,59.5,66.031,1.556,1.556,0,0,1,61.057,67.588Z" transform="translate(-55.532 -63.619)"/><path class="v" d="M61.057,67.588A1.557,1.557,0,1,1,59.5,66.031,1.556,1.556,0,0,1,61.057,67.588Z" transform="translate(-55.532 -63.619)"/><path class="w" d="M57.128,70.132a.648.648,0,1,1-.177.9.649.649,0,0,1,.177-.9Z" transform="translate(-55.331 -64.346)"/><path class="x" d="M61,67.4c-.166.247-.641.219-1.062-.063s-.628-.713-.463-.96h0c.165-.247.641-.219,1.062.064s.629.712.464.96Z" transform="translate(-55.8 -63.652)"/><path class="y" d="M62.966,66.329a1.581,1.581,0,0,1-2.166.077c-.82-.534-1.18-1.435-.8-2.013a1.582,1.582,0,0,1,2.166-.077c.82.535,1.179,1.437.8,2.013Z" transform="translate(-55.878 -63.238)"/></g><path class="d" d="M44.427,64.309c2.132,7.484,4.944,15.42,11.7,15.656s14.641-4.788,14.744-14.709c.114-11.09-6.928-15.465-13.681-15.7S41.249,53.151,44.427,64.309Zm3.812-.326a5.332,5.332,0,0,1-.206-1.636,11.288,11.288,0,0,1,3.87-1.26,23.968,23.968,0,0,1,6.824-.218c3.034.449,5.246,2.307,7.126,5.252,0,0,.009,0,.012.005,0,.018.014.035.017.053.169.666-.54,1.2-1.425,1.613-3.156.4-6.19.985-9.389.575C48.665,67.547,48.55,64.724,48.239,63.983Z" transform="translate(-43.779 -49.545)"/><path class="z" d="M57.892,73.278c6.122.927,11.8-1.991,12.69-6.521s-3.355-8.954-9.478-9.882S49.3,58.867,48.415,63.4,51.769,72.349,57.892,73.278Zm-9.037-9.627a12.922,12.922,0,0,1,3.87-1.26,23.968,23.968,0,0,1,6.824-.218c3.034.449,5.246,2.307,7.126,5.252,0,0,.009,0,.012.005,0,.018.014.035.017.053.169.666-.54,1.2-1.425,1.613-3.156.4-6.19.985-9.389.575-6.4-.821-6.519-3.644-6.83-4.385A5.374,5.374,0,0,1,48.856,63.651Z" transform="translate(-44.602 -50.849)"/><path class="aa" d="M49.186,66.47a5.332,5.332,0,0,1-.206-1.636,12.139,12.139,0,0,1,3.87-1.26,23.968,23.968,0,0,1,6.824-.218c3.034.449,5.246,2.307,7.126,5.252,0,0,.009,0,.012.005,0,.018.014.035.017.053.169.666-.54,1.2-1.425,1.613-3.156.4-6.19.985-9.389.575C49.612,70.034,49.5,67.211,49.186,66.47Z" transform="translate(-44.726 -52.032)"/><path class="o" d="M59.381,61.218a17.124,17.124,0,0,1,6.27,2.609,18.188,18.188,0,0,0,1.668.96,6.015,6.015,0,0,1-1.527-.669A10.187,10.187,0,0,1,67.1,65.662a13.673,13.673,0,0,0-7.514-4.2A20.691,20.691,0,0,0,48.84,62.814C52.027,61.02,56.676,60.776,59.381,61.218Z" transform="translate(-44.7 -51.636)"/><path class="ab" d="M66.759,68.364c-1.883-2.871-4.1-4.684-7.131-5.124-3.2-.466-7.455-.146-9.944,1.219-.2.112-1.063.826-.927.077.578-.772,2.859-1.669,3.964-1.937C65.12,59.595,67.47,69.407,66.759,68.364ZM48.992,66.092c-.474,1.365.569,4.4,6.71,4.963a31.215,31.215,0,0,0,9.68-1.067c-3.161.39-6.2.958-9.405.555C48.713,69.63,49.535,66.212,48.992,66.092Z" transform="translate(-44.683 -51.818)"/></g><g transform="translate(47.838 52.508)"><g transform="translate(4.963 11.15)"><path class="ac" d="M97.769,63.353c-3.033.449-5.246,2.307-7.126,5.252,0,0-.008,0-.012.005,0,.018-.013.035-.017.053-.169.666.539,1.2,1.425,1.613,3.156.4,6.19.985,9.389.575,6.4-.821,6.519-3.644,6.829-4.385a5.333,5.333,0,0,0,.206-1.636,10.746,10.746,0,0,0-3.872-1.326A24.279,24.279,0,0,0,97.769,63.353Z" transform="translate(-90.59 -63.178)"/></g><g transform="translate(10.08 11.072)"><g transform="translate(0)"><path class="s" d="M104.987,67.051a3.969,3.969,0,1,1-7.937,0h0a3.969,3.969,0,1,1,7.937,0Z" transform="translate(-97.049 -63.082)"/><path class="ad" d="M100.575,63.135l-.047.006c.019.089.038.179.056.269C100.58,63.319,100.578,63.227,100.575,63.135Zm.009.274a9.705,9.705,0,0,0,.343,2.887A9.743,9.743,0,0,0,100.583,63.409Zm.342,2.887c-.028.11-.071.186-.137.211a.278.278,0,0,1-.243-.068.275.275,0,0,1-.024.25.271.271,0,0,1-.246.052.285.285,0,0,1,.1.233c-.019.069-.089.12-.194.16.1.042.175.093.192.162a.28.28,0,0,1-.1.233.271.271,0,0,1,.245.054.279.279,0,0,1,.023.251.273.273,0,0,1,.241-.066c.067.025.11.1.136.212.053-.1.114-.165.185-.172s.144.039.218.124a.276.276,0,0,1,.085-.238.273.273,0,0,1,.251.009.284.284,0,0,1-.037-.249.28.28,0,0,1,.228-.11c-.093-.065-.151-.132-.149-.2s.056-.138.15-.2a.314.314,0,0,0-.44-.353.277.277,0,0,1-.083-.238.27.27,0,0,1-.218.122C101.038,66.46,100.978,66.4,100.925,66.3Zm.4.05a9.669,9.669,0,0,0,1.038-2.715A9.773,9.773,0,0,0,101.327,66.346Zm1.038-2.715c.04-.081.08-.163.118-.245-.014,0-.028-.011-.042-.017C102.416,63.457,102.391,63.545,102.365,63.631Zm-.7,2.946a9.705,9.705,0,0,0,2.181-1.921A9.726,9.726,0,0,0,101.662,66.578Zm2.181-1.921.2-.149c-.01-.012-.02-.022-.028-.032C103.959,64.534,103.9,64.6,103.844,64.656Zm-1.994,2.281a9.77,9.77,0,0,0,2.825-.689A9.754,9.754,0,0,0,101.849,66.937Zm2.825-.688.223-.034-.009-.038Zm-2.826,1.093a9.682,9.682,0,0,0,2.82.7A9.745,9.745,0,0,0,101.848,67.343Zm2.82.7c.063.022.126.044.189.065,0-.011.006-.022.009-.033Zm-3.01-.344a9.793,9.793,0,0,0,2.171,1.934A9.686,9.686,0,0,0,101.658,67.7Zm2.172,1.933.118.125c.007-.008.013-.014.021-.021C103.921,69.7,103.873,69.669,103.829,69.635Zm-2.5-1.7a9.712,9.712,0,0,0,1.023,2.721A9.734,9.734,0,0,0,101.324,67.931Zm1.023,2.721c.014.05.028.1.042.151l.026-.009Zm-1.427-2.674a9.757,9.757,0,0,0-.358,2.885A9.732,9.732,0,0,0,100.921,67.979Zm-.358,2.885c-.011.05-.021.1-.031.151l.026,0C100.558,70.967,100.561,70.914,100.562,70.864Zm-.02-3.03a9.708,9.708,0,0,0-1.659,2.388A9.736,9.736,0,0,0,100.542,67.834Zm-1.659,2.388c-.034.042-.071.086-.106.128a.257.257,0,0,1,.024.016C98.829,70.317,98.857,70.269,98.883,70.221Zm1.391-2.691A9.712,9.712,0,0,0,97.7,68.872,9.706,9.706,0,0,0,100.274,67.53ZM97.7,68.873l-.174.073a.179.179,0,0,0,.015.026Zm2.482-1.738a9.772,9.772,0,0,0-2.908-.007A9.737,9.737,0,0,0,100.179,67.135Zm-2.908-.007-.213-.019a.232.232,0,0,0,0,.037Zm3-.386a9.735,9.735,0,0,0-2.568-1.357A9.721,9.721,0,0,0,100.276,66.742Zm-2.568-1.357-.208-.133-.019.036C97.557,65.321,97.635,65.353,97.708,65.386Zm2.838,1.054a9.777,9.777,0,0,0-1.644-2.4A9.7,9.7,0,0,0,100.546,66.439Zm-1.644-2.4c-.044-.076-.088-.153-.131-.231l-.038.026C98.789,63.906,98.847,63.975,98.9,64.043Z" transform="translate(-97.051 -63.092)"/><path class="ae" d="M101.627,63.15l-.046-.007-.016.274C101.584,63.329,101.606,63.239,101.627,63.15Zm-.063.267a9.732,9.732,0,0,0-.417,2.877A9.7,9.7,0,0,0,101.564,63.417Zm-.417,2.877c-.056.1-.117.161-.187.168s-.143-.042-.216-.129a.212.212,0,0,1-.339.222.281.281,0,0,1,.032.25.278.278,0,0,1-.229.1c.091.067.146.135.144.206s-.059.137-.152.2a.314.314,0,0,0,.432.362.274.274,0,0,1,.076.24c.077-.083.151-.13.223-.118s.128.075.179.177c.03-.11.075-.185.143-.208a.274.274,0,0,1,.24.073.281.281,0,0,1,.03-.25.278.278,0,0,1,.248-.048c-.073-.087-.111-.166-.091-.235s.09-.119.2-.157c-.105-.042-.174-.1-.19-.165a.282.282,0,0,1,.1-.231.314.314,0,0,0-.506-.247C101.214,66.481,101.172,66.405,101.147,66.294Zm.376.153a9.731,9.731,0,0,0,1.705-2.353A9.705,9.705,0,0,0,101.523,66.447Zm1.705-2.354c.059-.067.119-.136.178-.206-.013-.009-.024-.019-.037-.028C103.322,63.938,103.275,64.017,103.228,64.093Zm-1.442,2.664a9.754,9.754,0,0,0,2.6-1.292A9.7,9.7,0,0,0,101.786,66.756Zm2.6-1.292.234-.091c-.007-.014-.014-.026-.019-.039C104.534,65.377,104.462,65.421,104.39,65.464Zm-2.516,1.689a9.785,9.785,0,0,0,2.908.067A9.727,9.727,0,0,0,101.873,67.152Zm2.907.066.224.024c0-.013,0-.026,0-.038Zm-3.012.325a9.664,9.664,0,0,0,2.541,1.408A9.72,9.72,0,0,0,101.768,67.544Zm2.541,1.408c.054.038.11.075.165.111a.218.218,0,0,0,.016-.03Zm-2.818-1.111a9.777,9.777,0,0,0,1.6,2.43A9.676,9.676,0,0,0,101.491,67.842Zm1.6,2.428c.027.05.054.1.082.151l.024-.016C103.159,70.36,103.122,70.314,103.088,70.27Zm-1.979-2.293a9.759,9.759,0,0,0,.284,2.892A9.729,9.729,0,0,0,101.109,67.977Zm.284,2.892c0,.052,0,.1,0,.157l.026,0C101.412,70.973,101.4,70.92,101.393,70.869Zm-.686-2.951a9.755,9.755,0,0,0-1.093,2.693A9.7,9.7,0,0,0,100.707,67.918Zm-1.093,2.693c-.023.045-.046.091-.069.138l.023.01C99.584,70.71,99.6,70.659,99.614,70.611Zm.765-2.932a9.735,9.735,0,0,0-2.22,1.877A9.725,9.725,0,0,0,100.379,67.68Zm-2.22,1.877-.136.1c.007.007.013.013.019.021C98.081,69.635,98.121,69.6,98.159,69.557Zm2.04-2.24a9.748,9.748,0,0,0-2.838.63A9.706,9.706,0,0,0,100.2,67.316Zm-2.838.631c-.062.009-.124.016-.187.026,0,.01.005.02.009.029C97.243,67.985,97.3,67.965,97.362,67.948Zm2.846-1.036a9.738,9.738,0,0,0-2.806-.76A9.734,9.734,0,0,0,100.208,66.911Zm-2.806-.76-.2-.074q-.006.019-.01.036Zm3,.4a9.744,9.744,0,0,0-2.13-1.975A9.68,9.68,0,0,0,100.4,66.556Zm-2.13-1.974-.166-.182-.028.03C98.146,64.48,98.212,64.53,98.275,64.581Zm2.469,1.752a9.742,9.742,0,0,0-.968-2.74A9.714,9.714,0,0,0,100.744,66.334Zm-.968-2.74c-.022-.085-.044-.171-.067-.257l-.042.015Z" transform="translate(-97.072 -63.093)"/><path class="s" d="M103.112,67.588a1.557,1.557,0,1,1-1.556-1.557A1.556,1.556,0,0,1,103.112,67.588Z" transform="translate(-97.586 -63.619)"/><path class="v" d="M103.112,67.588a1.557,1.557,0,1,1-1.556-1.557A1.556,1.556,0,0,1,103.112,67.588Z" transform="translate(-97.586 -63.619)"/><path class="af" d="M99.183,70.132a.648.648,0,1,1-.177.9.648.648,0,0,1,.177-.9Z" transform="translate(-97.386 -64.346)"/><path class="ag" d="M103.053,67.4c-.166.247-.641.219-1.062-.063s-.628-.713-.463-.96h0c.165-.247.641-.219,1.062.064s.628.712.462.96Z" transform="translate(-97.855 -63.652)"/><path class="ah" d="M105.022,66.329a1.582,1.582,0,0,1-2.167.077c-.82-.534-1.18-1.435-.8-2.013a1.582,1.582,0,0,1,2.166-.077c.82.535,1.179,1.437.8,2.013Z" transform="translate(-97.933 -63.238)"/></g></g><path class="d" d="M98.205,49.555c-6.754.235-13.8,4.61-13.682,15.7.1,9.922,7.99,14.945,14.744,14.709s10.707-11.458,11.7-15.656C113.63,53.018,104.958,49.32,98.205,49.555Zm2.118,18.813c-3.2.409-6.233-.173-9.389-.575-.886-.409-1.594-.946-1.425-1.613,0-.018.013-.035.017-.053,0,0,.009,0,.012-.005,1.88-2.945,4.093-4.8,7.126-5.252a23.972,23.972,0,0,1,6.825.218,11.259,11.259,0,0,1,3.87,1.26,5.315,5.315,0,0,1-.206,1.636C106.842,64.724,106.726,67.547,100.323,68.368Z" transform="translate(-84.522 -49.545)"/><path class="ai" d="M108.021,63.4c-.886-4.531-6.567-7.449-12.69-6.523s-10.364,5.352-9.477,9.882,6.568,7.448,12.69,6.521S108.907,67.927,108.021,63.4Zm-.647,1.889c-.311.741-.427,3.564-6.829,4.385-3.2.409-6.233-.173-9.389-.575-.886-.409-1.594-.946-1.425-1.613,0-.018.013-.035.017-.053,0,0,.009,0,.012-.005,1.88-2.945,4.093-4.8,7.126-5.252a23.972,23.972,0,0,1,6.825.218,12.9,12.9,0,0,1,3.87,1.26A5.336,5.336,0,0,1,107.374,65.287Z" transform="translate(-84.743 -50.848)"/><path class="aj" d="M108.258,66.47a5.333,5.333,0,0,0,.206-1.636,12.139,12.139,0,0,0-3.87-1.26,23.973,23.973,0,0,0-6.825-.218c-3.033.449-5.246,2.307-7.126,5.252,0,0-.008,0-.012.005,0,.018-.013.035-.017.053-.169.666.539,1.2,1.425,1.613,3.156.4,6.19.985,9.389.575C107.832,70.034,107.948,67.211,108.258,66.47Z" transform="translate(-85.627 -52.032)"/><path class="o" d="M97.928,61.218a17.114,17.114,0,0,0-6.27,2.609,18.279,18.279,0,0,1-1.667.96,6.015,6.015,0,0,0,1.527-.669,10.189,10.189,0,0,0-1.311,1.544,13.673,13.673,0,0,1,7.513-4.2,20.694,20.694,0,0,1,10.75,1.351C105.282,61.02,100.633,60.776,97.928,61.218Z" transform="translate(-85.518 -51.636)"/><path class="ab" d="M104.665,62.6c1.106.268,3.386,1.165,3.965,1.937.136.749-.724.034-.927-.077-2.49-1.365-6.747-1.685-9.943-1.219-3.035.44-5.249,2.254-7.131,5.124C89.918,69.407,92.267,59.595,104.665,62.6Zm-3.254,7.942c-3.2.4-6.243-.165-9.405-.555a31.205,31.205,0,0,0,9.679,1.067c6.141-.562,7.184-3.6,6.71-4.963C107.852,66.212,108.675,69.63,101.412,70.543Z" transform="translate(-85.613 -51.818)"/></g><g transform="translate(17.735 22.9)"><path class="ak" d="M101.954,86.14a27.12,27.12,0,1,1-27.162-27.1A27.1,27.1,0,0,1,101.954,86.14Z" transform="translate(-47.715 -21.666)"/><path class="al" d="M100.155,38.148a24.8,24.8,0,1,1-24.8-24.8A24.8,24.8,0,0,1,100.155,38.148Z" transform="translate(-48.231 -13.343)"/></g><g transform="translate(13.866 55.579)"><path class="am" d="M42.984,59.313c6.444-10,24.137,3.405,25.147-.788.2-.841-.269-1.333-1.035-1.648C58.087,53.235,46.163,50.175,42.984,59.313Z" transform="translate(-42.984 -53.3)"/></g><g transform="translate(50.652 55.579)"><path class="am" d="M113.155,59.313c-6.444-10-24.137,3.405-25.147-.788-.2-.841.269-1.333,1.035-1.648C98.052,53.235,109.976,50.175,113.155,59.313Z" transform="translate(-87.962 -53.3)"/></g><g transform="translate(38.927 68.871)"><path class="f" d="M73.677,93.171C73.1,94.536,77.6,96.01,79.312,96.1c1.852.1,7.042-1.918,6.162-3.3-.925-1.452-4.394-.189-5.891-.189S74.455,91.349,73.677,93.171Z" transform="translate(-73.626 -73.658)"/><path class="o" d="M80.971,94.418c-.152-.5,1.241-1.048,1.757-1.12.728-.106,2.222.53,2.089,1.053-.122.462-1.421-.353-1.892-.284S81.115,94.888,80.971,94.418Zm-4.553-.163c.64,0,1.59.412,1.765.049.208-.433-1.415-.966-1.892-.908-.394.046-1.808.87-1.613,1.216C74.859,94.93,75.574,94.254,76.418,94.254Z" transform="translate(-73.814 -73.874)"/><path class="an" d="M80.653,86.749a1.443,1.443,0,0,0,1.185-1.475c.133-3.974-.632-15.764-1.185-15.723-.516.039-1.5,11.666-1.288,15.723A1.482,1.482,0,0,0,80.653,86.749Z" transform="translate(-74.666 -69.551)"/></g><g transform="translate(7.748 69.255)"><g transform="translate(0 0)"><path class="c" d="M106.2,71.45c-2.031,1.158-3.506,1.951-4.736,2.811-7.494,4.994-8.255,16.682-9.551,27.695-3.936-6.939-3.327-8.123-8.506-9.174-6.356-1.389-8.473-2-10.795,1.072-1.8-1.826-2.454-2.8-6.8-1.852-7.739,1.528-8.123,1.329-10.431,6.284-.165.39-1.872,3.3-2.07,3.678-.377-2.633.033-2.719-1.045-8.519-1.138-6-1.621-10.729-4.59-15.418-2.871-3.989-9.115-6.978-12.171-8,0,5.034.483,12.554.575,13.52,1.158,11.813,5.768,30.254,14,38,6.879,6.211,14.539,5.788,22.562,5.788,4.134,0,11.946.284,16.7-2.024,6.462-2.5,10.94-9.558,13.493-16,4.445-10.868,6.886-21.742,6.886-39.283A21.021,21.021,0,0,0,106.2,71.45Zm-30.949,39.3a5.877,5.877,0,0,1,.423-1.3,47.428,47.428,0,0,1,4.306-6.211,28.416,28.416,0,0,1-14.585.179c1.257,1.5,4.227,5.384,4.577,7.335-4.67-2.031-10.788-2.95-10.153-7.964.337-3.664,4.544-3.83,7.316-4.008,11.1-.212,17.8-.767,18.276,4.008C86.012,107.789,80.006,108.729,75.25,110.753Z" transform="translate(-35.504 -70.021)"/><path class="ao" d="M109.718,70.021c0,17.541-2.441,28.416-6.886,39.283-2.553,6.442-7.031,13.5-13.493,16-4.756,2.308-12.567,2.024-16.7,2.024-8.023,0-15.683.423-22.562-5.788-8.228-7.746-12.839-26.187-14-38-.093-.972-.575-8.486-.575-13.52.655.218,1.462.536,2.342.926,4.379,19.757,5.49,47.148,27.49,54.913a39.176,39.176,0,0,0-2.646-3.969l5.953,3.969a27.164,27.164,0,0,0-.648-3.228,26.863,26.863,0,0,0,5.146,2.93,15.884,15.884,0,0,0-.661-2.7l3.459,2.282,5.272-4.577s-1.654,3.473-2.315,4.8c2.381-.642,6.27-3.506,6.27-3.506a15.81,15.81,0,0,0-.648,2.679c19.321-10.868,19.354-33.866,22.231-53.385C107.284,70.9,107.985,70.676,109.718,70.021Zm-44.323,33.4c.185.218.4.489.648.8a11.971,11.971,0,0,0,13.1.053,10.4,10.4,0,0,1,.84-1.032A28.517,28.517,0,0,1,65.394,103.417ZM73.1,123.763a6.757,6.757,0,0,1-.741-1.693c0-.007-.2-.82-.2-.82-.013-.06-.251-1.687-.205-1.687-.033-.893-.159-2.07-.225-2.738C71.222,121.323,71.936,122.4,73.1,123.763Zm2.394-16.86a1.144,1.144,0,0,1-.02.179c-.205.952-1.773,2.877-1.918,4.055C73.5,109.178,75.4,107.565,75.495,106.9Zm13.738-2.381c.939,2.156.185,3.664-.827,5.788C89.233,107.313,89.676,106.559,89.233,104.522Zm-3.638-6.449c.959,1.449,1.31,1.713,2.48,6.118C86.984,101.777,86.872,101.1,85.595,98.073Zm.992-1.819c1.31,1.078,2.209,2.057,3.142,5.622A23.364,23.364,0,0,0,86.587,96.254Zm-11.41,25.466c.364-3.929,1.528-6.132,4.134-9.095A33.488,33.488,0,0,0,75.177,121.719Zm4.134-1.488c1.409-2.189,2.95-5.662,5.788-6.449a6.711,6.711,0,0,0-2.434,2.163s-.5.589-1.244,1.68A21.625,21.625,0,0,1,79.311,120.231Zm2.811,2.811c1.6-2.5,1.495-3.248,3.142-4.8C83.73,120.37,83.829,121.316,82.122,123.042Zm-1.158-8.1c.833-2.659,2.136-5.067,4.8-6.449C83.743,110.045,82.182,112.691,80.965,114.94Zm-6.78,1.806c-.635-1.925-.238-3.618.165-5.616C74.238,113.709,73.94,115.052,74.185,116.745ZM93.7,113.451a12.2,12.2,0,0,1-5.953,4.63A33.749,33.749,0,0,0,93.7,113.451Zm2.811-7.772c-1.019,4.835-4.762,7.871-9.095,10.252a45.3,45.3,0,0,0,6.264-5.874A17.678,17.678,0,0,0,96.509,105.679Zm-3.969,4.134a16.361,16.361,0,0,1,2.977-10.252A53.489,53.489,0,0,0,92.54,109.813Zm8.1-17.032c-.033,1.759.013,5.047-4.63,11.41.013-.033,3.188-6.985,3.148-6.985A22.231,22.231,0,0,0,100.643,92.781Zm-5.126,3.473c-.1-3.658.833-4.352,2.315-8.433C97.084,91.7,96.132,92.365,95.517,96.254Zm7.937-16.7c-.774,4.617-1.68,5.768-4.8,12.567C99.975,86.478,101.357,85.009,103.454,79.552ZM56.816,110.31c-1.065-2.176-1.733-3.552-.827-5.788A5.469,5.469,0,0,0,56,107.439C56,107.446,56.816,110.31,56.816,110.31Zm.331-6.118c.992-4.16,1.832-5.113,2.48-6.118C57.887,102.081,58.707,100.838,57.146,104.191Zm-1.654-2.315c.761-3.135,1.66-4.346,3.142-5.622A23.4,23.4,0,0,0,55.493,101.876ZM65.91,112.625a14.234,14.234,0,0,1,4.134,9.095A32.867,32.867,0,0,0,65.91,112.625Zm-5.788,1.158a5.007,5.007,0,0,1,2.771,1.878,22.614,22.614,0,0,1,2.388,3.552c.337.589.628,1.019.628,1.019-.853-.873-3.373-4.28-3.36-4.28A6.548,6.548,0,0,0,60.123,113.782Zm-.827,4.465c1.8,1.7,1.627,2.513,3.142,4.8C60.784,121.376,60.764,120.291,59.3,118.247Zm.165-9.756a6.66,6.66,0,0,1,2.454,1.938s.3.4.589.8a12.094,12.094,0,0,1,1.753,3.711,35.634,35.634,0,0,0-2.09-3.479c-.284-.39-.575-.774-.575-.774A9.939,9.939,0,0,0,59.461,108.491Zm11.41,2.646a6.767,6.767,0,0,1-.165,4.3A15.6,15.6,0,0,0,70.871,111.136Zm-.331-3.969a4.648,4.648,0,0,1,1.9,2.58,9.552,9.552,0,0,1,.245,5.212C72.737,113.981,72.591,109.364,70.541,107.168ZM57.477,118.082a12.345,12.345,0,0,1-5.953-4.63A34.9,34.9,0,0,0,57.477,118.082Zm.331-2.15c-4.306-2.388-8-5.325-9.095-10.252a14.507,14.507,0,0,0,2.824,4.385A61.268,61.268,0,0,0,57.808,115.932Zm-8.1-16.371a16.529,16.529,0,0,1,2.976,10.252A53.447,53.447,0,0,0,49.705,99.561Zm-.5,4.63c-2.553-3.42-4.511-7.084-4.63-11.41C45.406,96.439,46.828,98.767,49.209,104.191ZM47.39,87.82c1.6,4.306,2.414,5,2.315,8.433C49.2,92.49,48.137,91.994,47.39,87.82Zm-.827,4.3c-2.507-5.457-3.942-7.468-4.8-12.567C44.089,85.6,45.313,86.775,46.563,92.12Z" transform="translate(-35.504 -70.021)"/><path class="ap" d="M106.2,71.45c-2.031,1.158-3.506,1.951-4.736,2.811-7.494,4.994-8.255,16.682-9.551,27.695-3.936-6.939-3.327-8.123-8.506-9.174-6.356-1.389-8.473-2-10.795,1.072-1.8-1.826-2.454-2.8-6.8-1.852-7.739,1.528-8.123,1.329-10.431,6.284-.165.39-1.872,3.3-2.07,3.678-.377-2.633.033-2.719-1.045-8.519-1.138-6-1.621-10.729-4.59-15.418-2.871-3.989-9.115-6.978-12.171-8,0,5.034.483,12.554.575,13.52,1.158,11.813,5.768,30.254,14,38,6.879,6.211,14.539,5.788,22.562,5.788,4.134,0,11.946.284,16.7-2.024,6.462-2.5,10.94-9.558,13.493-16,4.445-10.868,6.886-21.742,6.886-39.283A21.021,21.021,0,0,0,106.2,71.45Zm-9.287,46.493c-3.148,4.8-10.246,7.944-13.2,8.116-1.025.112-5.88.972-17.1.5-1.931-.013-7.474-.582-10.352-2.09-11.2-4.676-16.338-23.528-18.633-35.513a166.99,166.99,0,0,1-1.931-18.673c4.392,1.918,9.717,5.265,12.151,9.584,2.11,4.041,2.606,8.8,3.757,13.765,1.462,6.429.734,4.445,1.554,8.632.026.106.046.212.073.311,6.105-9.5,3.062-8.056,12.7-10.041,2.983-.728,4.63-.873,6.687,1.587,2.56-3.029,4.154-2.163,10.676-.794,5.166,1.144,3.922,1.925,8.156,8.367.165.251.5.787.556.886.377-1.508.562-3.949.992-6.264.126-.661,2.269-10.841,3.036-13.136,2.017-6.37,5.192-8.063,10.365-11.383a20.943,20.943,0,0,1,3.148-1.521C108.587,85.73,106.047,105.243,96.912,117.943ZM79.232,98.3c-3.234-.053-3.85.265-12.085-.02-2.5.04-4.994.079-6.608,1.654-1.931,1.766-2.937,6.978,3.817,9.28,2.176.688,5.384,1.68,5.913,1.9,0-2.143-3.783-6.793-4.385-7.474,6.079,1.521,11.536.661,13.619-.179-.926,1.005-4.551,5.556-4.551,7.653,5.788-1.931,9.095-2.414,10.576-5.378C86.931,103.192,86.2,98.185,79.232,98.3ZM75.25,110.753a5.877,5.877,0,0,1,.423-1.3,47.428,47.428,0,0,1,4.306-6.211,28.416,28.416,0,0,1-14.585.179c1.257,1.5,4.227,5.384,4.577,7.335-4.67-2.031-10.788-2.95-10.153-7.964.337-3.664,4.544-3.83,7.316-4.008,11.1-.212,17.8-.767,18.276,4.008C86.012,107.789,80.006,108.729,75.25,110.753Z" transform="translate(-35.504 -70.021)"/></g></g><g transform="translate(44.855 23.979)"><path class="aq" d="M80.874,14.663Z" transform="translate(-80.874 -14.663)"/></g><g transform="translate(0.044)"><path class="c" d="M105.971,62.582c-3.018-8.225.474-20.839-5.427-30.172-2.688-4.473-5.025-7.546-4.6-12.75l-.243-.082c-.57.894-1.319,1.865-1.816,2.487.282-.722.743-1.827,1.16-2.661l-.22-.144a9.924,9.924,0,0,1-5.2,3.638,28.143,28.143,0,0,0,5.653-5.685l-.179-.188c-7.487,4.817-15.983,4.883-23.479,4.942-6.765.05-10.966-.1-15.844-2.937-3.52,1.167-6.291,1.018-9.337-1.081-9.534,18.485-5.3,9.232-11,43.5a23.655,23.655,0,0,1-5.055-11.421,22.91,22.91,0,0,1-.284-4.772l-.042-.043c-2.945-6.462-4.334-10.142-3.635-22.96.519-5.318,1.675-9.31,5.01-13.492A20.8,20.8,0,0,1,31.258,2a65.084,65.084,0,0,1-3.416-7.653c2.439,1.867,2.641,1.975,4.676,2.617A17.357,17.357,0,0,1,34.1-6.249a21.363,21.363,0,0,0,.8,3.919c.151.036.868.231,1.1.292A10.385,10.385,0,0,1,35.757-4.1a9.929,9.929,0,0,0,1.793,2.4c1.213.255.922.217,1.286.217a18.029,18.029,0,0,1-3.259-8.939A19.418,19.418,0,0,0,44.9-8.266c8.294,0,16.78-6.226,28.554-6.226,10.2,0,19.03,5.661,22.941,12.106a12.888,12.888,0,0,1,.525-4.748s.069,2.451.069,4.36l.262.024a12.593,12.593,0,0,1,2.7-5.8c-1.269,3.412-.786,1.59-2.205,5.756l.23.124a9.84,9.84,0,0,1,3.981-3.216,31.927,31.927,0,0,0-3.652,3.73l.2.171c.963-.873,1.965-1.2,2.984-.405-1.641-.6-2.61.449-3.736,1.769C102.138.1,104.513,2.626,107.592,6c7.085,8.17,8.951,16.147,5.108,27.454,1.611,3.481,1.363,11.327-2.232,17.651C110.466,54.818,107.928,59.4,105.971,62.582Z" transform="translate(-26.115 14.627)"/><path class="ao" d="M45.989,17.607q.356.331.71.664c-.085-.056-.171-.108-.257-.167-9.534,18.485-5.3,9.232-11,43.5A23.655,23.655,0,0,1,30.39,50.182a22.91,22.91,0,0,1-.284-4.772l-.042-.043C27.12,38.9,25.73,35.225,26.43,22.407c.519-5.318,1.675-9.31,5.01-13.492a20.8,20.8,0,0,1-.194-6.644c.395.578.809,1.141,1.232,1.7a10.733,10.733,0,0,1,.084,4.8c-6.31,19.5-2.646,28.442,1.323,42.332-1.63-10.537-4.724-23.934,3.717-31.749-3.606,8.662-2.61,12.59-1.732,18.52C36.476,29.983,39.305,22.651,45.989,17.607Zm61.6-11.45c-.249-.273-.491-.537-.732-.8-.253.169-.512.323-.767.487,9.893,20.281.393,18.333,2.657,27.39,2.645,6.614-.783,10.584-.783,17.2,0-9.922-.45-16.826-5.927-24.589-1.849-2.621-2.369-11.524-3.615-15.924-15.347,9.425-38.081,11.4-61.95-7.652,11.245,3.969,34.163.893,42.03-4.178C69.537-.28,50.816-.183,42.4-3.648c20.174-1.568,19.93-8.043,37.128-9.26C71.256-16,53.2-8.111,44.9-8.111a19.414,19.414,0,0,1-9.327-2.163,18.026,18.026,0,0,0,3.259,8.939c-.364,0-.073.038-1.286-.217a9.9,9.9,0,0,1-1.793-2.4,10.337,10.337,0,0,0,.233,2.067c-.23-.062-.948-.256-1.1-.292a21.364,21.364,0,0,1-.8-3.919,17.4,17.4,0,0,0-1.579,3.218c-2.036-.642-2.237-.75-4.676-2.617A65.035,65.035,0,0,0,31.258,2.16c0,.036-.006.073-.011.11,4.17,6.108,10.033,10.895,15.453,16,2.946,1.934,5.661,2.048,9.081.914,4.877,2.835,9.08,2.988,15.844,2.937,7.5-.058,15.992-.124,23.479-4.942l.179.188a28.143,28.143,0,0,1-5.653,5.685,9.929,9.929,0,0,0,5.2-3.638l.22.144c-.417.835-.877,1.939-1.16,2.661.5-.622,1.245-1.593,1.816-2.487l.243.082c-.427,5.2,1.909,8.277,4.6,12.75,5.9,9.332,2.41,21.947,5.427,30.172,1.957-3.185,4.5-7.763,4.5-11.477,3.595-6.324,3.843-14.17,2.232-17.651C116.542,22.3,114.676,14.327,107.591,6.157Zm.485,16.965c-.218-6.3-4.387-14.3-4.387-14.3C101.74,5.385,100,3.743,97.076,3.076c8.219.409,11.447,12.686,11.092,19.1C108.134,22.77,108.076,23.122,108.076,23.122ZM89.385-3.478A20.006,20.006,0,0,1,94.21,1.753C83.2-18.017,61.579-3.056,54.744-3.539,61.693-2.1,77.4-12.264,89.385-3.478Zm5.6,8.593c-13.2,10.946-33.363,6.309-49.852,1.141C61.551,13.777,82.458,17.847,94.982,5.115ZM43.058,17.021c-4.325,2.265-6.36,7.97-6.548,11.741C37.318,25.508,39.741,19.539,43.058,17.021ZM37.6,13.879c-6.19,3.77-7.391,12.416-6.78,19.678C31.472,26.849,32.682,18.1,37.6,13.879Zm44.611-8.2a68.858,68.858,0,0,1-7.059.79c-1.76.1-8.623.217-14.81-.032a50.258,50.258,0,0,0,14.88,1.353c5.362-.194,10.16-1.255,14.136-4.5A19.431,19.431,0,0,1,82.213,5.681ZM104.4,23.239s-.169-.292-.389-.729c-.6-1.01-1.287-3.758-3.928-12.393,1.962,16,5.171,13.085,6.608,21.353C106.693,28.5,106.486,26.972,104.4,23.239Z" transform="translate(-26.115 14.469)"/><path class="ar" d="M109.8,43.025a11.811,11.811,0,0,0,.17-2.388c.2-4.13-2.266-7.593-.763-12.559,1.226-3.607,1.935-4.172,1.4-10.451a15.625,15.625,0,0,0-.729-3.967,14.421,14.421,0,0,1,1.141,3.925c1.116,6.312.177,7.271-1.006,10.76C108.43,33.616,111.464,35.941,109.8,43.025ZM99.033,10.363c.739,20.088,4.813,15.422,8.412,27.617C105,23.6,102.741,35.521,99.033,10.363ZM37.383,20.6c-6.079,7.648-5.465,13.162-3.969,24.473C33.279,33.628,31.884,29.283,37.383,20.6ZM33.019,9.677c-3.488,10.794-4.252,15.666-2.578,27.308C30.131,25.313,30.205,22.736,33.019,9.677Zm13.348,8.55C40,22.8,36.672,31.176,36.477,38.308,37.457,31.492,41.115,22.894,46.367,18.227Zm44.253-4c-7.971,2.935-20.946,3.721-30.418.874-7.382-2.153-18.909-9.388-25.11-13.937,5.621,4.475,15.525,11.117,22.44,13.742A50.65,50.65,0,0,0,84.7,16.392a45.046,45.046,0,0,0,14.329-6.028A50.731,50.731,0,0,1,90.62,14.227ZM73.394-9.709C81.442-11.22,90.929-6.033,95.921.1,90.7-7.386,82.139-11.111,77.029-11.2c-8.386-.146-17.062,7.04-34.024,7.661C58.954-2.836,66.621-8.612,73.394-9.709Zm6.321,8.486C68.279,2.84,59.449,3.812,47.432,4.452,59.843,5.216,68.715,4.012,79.715-1.223ZM91.732,1.094c-7.052,3.325-10.14,3.87-24.7,4.756C76.161,6.219,84.687,5.744,91.732,1.094ZM68.391,11.2c7.04.818,19.373-.069,25.546-6.474-7.454,6.28-21.245,6.055-32,5.628C66.052,11,65.31,10.892,68.391,11.2ZM98.566,5.06c5.046,1.858,6.276,10.711,8.268,17.859C105.943,16.583,104.421,6.435,98.566,5.06Z" transform="translate(-26.723 14.027)"/><path class="ap" d="M107.658,5.88C104.782,2.725,102.2-.053,97.981-.748c1.385-1.629,2.359-2.235,4.134-1.224-1.052-1.238-2.26-1.472-3.724-.146.841-1.26,2.294-2.289,4.167-4.253a10.554,10.554,0,0,0-4.709,3.585c1.511-4.434.86-2.069,2.461-6.449A12.922,12.922,0,0,0,97.1-2.805c0-3.9-.122-3.4-.046-5.106a11.142,11.142,0,0,0-.813,5.02,21.867,21.867,0,0,0-5.987-6.185c-16.572-12.1-33.1-.963-42.055.384-3.631.613-9.071.224-12.8-2.011a17.848,17.848,0,0,0,3.168,9.049l-.972-.205c-1.335-1.61-1.464-1.558-1.958-2.864A7.817,7.817,0,0,0,35.8-2.249c-.329-.086-.633-.177-.833-.225a23.176,23.176,0,0,1-.814-4.16,16.2,16.2,0,0,0-1.746,3.406c-1.984-.627-2.126-.727-4.915-2.864A77.049,77.049,0,0,0,31.09,2a21.029,21.029,0,0,0,.179,6.694c-3.324,4.175-4.478,8.166-5,13.52-.689,12.606.573,16.279,3.658,23.031.007.007.007.02.013.026a23.315,23.315,0,0,0,.291,4.749,23.884,23.884,0,0,0,5.232,11.674c.013.013.02.033.033.046,2.246-13.472,2.014-13.8,2.494-17.125,2.363-17.007,2.26-14.467,8.473-26.5,2.522,1.738,5.315,2.349,9.273,1.032,2.872,1.669,5.8,2.943,13.93,2.943,8.05-.1,17.314.273,25.479-4.981a26.516,26.516,0,0,1-6.257,6.072A9.819,9.819,0,0,0,94.9,19.314a33.652,33.652,0,0,0-1.435,3.413,35.193,35.193,0,0,0,2.322-3.109C95.354,24.873,97.7,27.95,100.4,32.45c5.924,9.368,2.322,22.172,5.51,30.4,2.044-3.3,4.657-7.994,4.657-11.741,3.446-6.01,3.94-13.964,2.242-17.694C116.262,23.077,115.565,15,107.658,5.88ZM35.7-4.3c.323.919.394.9,1.647,2.388-.622-.129-1.035-.22-1.409-.3A10.036,10.036,0,0,1,35.7-4.3Zm-1.66-1.759a16.667,16.667,0,0,0,.655,3.512,16.04,16.04,0,0,1-1.852-.529A19.483,19.483,0,0,1,34.039-6.059Zm1.138,66.29C32.388,55.2,31.656,53.49,30.884,48.4c-.075-.586-.312-2.279-.324-3.089-4.015-9.181-5.524-26.614.8-36.207V9.094s.264-.413.741-1.005a24.574,24.574,0,0,1-.291-4.815c.489.873,1.045,1.667,1.541,2.427,0,0,.39.517.39.529A51.287,51.287,0,0,0,46.256,17.971C38.183,31.05,38.684,26.632,35.177,60.231Zm77.812-31.014a42.571,42.571,0,0,1-1.018,4.623c1.839,4.675-.17,13.5-2.025,17.449-.811,4.692-1.683,5.636-3.975,10.312-1.638-7.276,1.709-20.187-4.471-29.818-4.008-6.644-5.726-7.514-4.782-15.723,0,0,.04-.446.053-.562-8.353,5.107-17.579,5.684-29.745,5.424-3.517,0-8.268-.442-11.231-2.275-6.007,1.709-8.235-.95-13.235-4.855C37.159,9.2,33.491,5.2,28.966-4.246c2.542,2.062,7.631,3.1,10.841,3.638a19.236,19.236,0,0,1-4.015-9.26c2.3,1.535,7.818,3.045,12.68,2.507C57.424-8.2,69.958-17.394,85.36-10.424,92.507-7.271,96.133-2.834,96.982-.5c.007,0,.013.007.026.007a.707.707,0,0,0,.125.026,1.511,1.511,0,0,0,.238.06c4.614,1.538,4.923,1.825,9.393,7.038C109.276,9.709,115.323,15.862,112.989,29.216Z" transform="translate(-26.085 14.657)"/></g><g transform="translate(9.8 57.557)"><path class="as" d="M102.694,76.694c-1.561,1.455-4.121,2.011-8.969,2.011-6.469,0-10.7-.721-13.5-6.29-2.176-4.326-3.056-8.969-2-10.57,1.462-2.209,5.669-3.711,10.365-4.154C96.748,61.567,102.476,69.339,102.694,76.694ZM55.328,57.558c-5.053.139-9.981,1.554-12.085,4.663-1.442,2.123-1.118,8.3-.146,11.2,1.323,3.962,3.354,5.278,10.861,5.278,6.469,0,10.7-.721,13.5-6.29.278-.556.536-1.118.774-1.68A25.514,25.514,0,0,0,55.328,57.558Z" transform="translate(-38.787 -56.053)"/><path class="at" d="M107.5,73.431A7.523,7.523,0,0,1,105.6,76.7c-.218-7.355-5.946-15.127-14.109-19.01,6.2-.589,13.222.655,15.855,4.538C108.792,64.35,108.468,70.521,107.5,73.431ZM72.373,61.843c-1.845-2.8-8.083-4.452-14.135-4.28A25.48,25.48,0,0,1,71.149,70.739C72.743,66.943,73.292,63.239,72.373,61.843Z" transform="translate(-41.696 -56.052)"/><path class="au" d="M107.324,58.843c-6.734-3.611-23.9-4.637-30.1.1-.529.311-2.8-.351-4.16-.351-1.29,0-3.585.695-4.16.351-6.191-4.736-23.362-3.711-30.1-.1-.966.523-1.072,2.983-.232,3.36a1.327,1.327,0,0,1,.966,1.31,33.619,33.619,0,0,0,1.263,9.875c.575,1.713,1.614,4.9,6.145,5.688,3.856.668,10.868.979,14.512-.112C68.074,76.993,70.885,67.032,71,63.639l.007.013c.265-1.191,3.85-1.191,4.121,0l.007-.013c.112,3.393,2.93,13.355,9.538,15.326,3.645,1.091,10.656.781,14.512.112,4.531-.787,5.569-3.975,6.145-5.688a33.836,33.836,0,0,0,1.27-9.875,1.335,1.335,0,0,1,.966-1.31C108.4,61.827,108.29,59.366,107.324,58.843ZM60.772,77.2c-3.347,1-9.472,1.065-13.037.443-3-.523-4.26-2.156-5.093-4.65-.979-2.91-1.237-8.936.106-10.914,4.471-6.6,22.4-5.325,25.664-.384C69.866,63.91,67.042,75.327,60.772,77.2ZM103.494,73c-.833,2.494-2.1,4.127-5.093,4.65-3.565.622-9.69.556-13.037-.443-6.27-1.872-9.095-13.288-7.64-15.5,3.261-4.941,21.193-6.218,25.664.384C104.731,64.056,104.473,70.088,103.494,73Z" transform="translate(-38.013 -55.724)"/><path class="av" d="M85.532,77.166a28.124,28.124,0,0,0,7.177.84c-8.295.807-10.18-2.249-11.324-3.413-2.328-2.375-3.764-5.92-3.869-11.013C77.536,67.6,80.36,75.624,85.532,77.166ZM69.069,58.91c-6.191-4.736-23.362-3.717-30.1-.1C54.345,54.5,63.275,56.727,69.069,58.91ZM47.9,77.615c-3-.523-4.26-2.156-5.093-4.65-.873-2.6-1.171-7.686-.265-10.153-1.21,2.791-.741,8.2.172,10.914,1.058,3.175,3,4.749,11.469,4.273A35.323,35.323,0,0,1,47.9,77.615Zm60.383-17a2.187,2.187,0,0,0-.794-1.806c-6.6-3.545-23.243-4.59-29.719-.165C86.472,55.159,99.019,54.67,108.279,60.616Z" transform="translate(-38.188 -55.718)"/></g></g></g></g></g></svg>