<svg xmlns="http://www.w3.org/2000/svg" xmlns:xlink="http://www.w3.org/1999/xlink" width="272.719" height="210.699" viewBox="0 0 272.719 210.699"><defs><style>.a{fill:#f5f7ff;}.b{clip-path:url(#a);}.ar,.c{fill:#2a232b;}.d{fill:#1b141c;}.e{fill:#3a353a;}.f,.n{fill:#f6e4e2;}.aq,.g{fill:#fff;}.h{fill:#e7c1bd;}.i,.q{fill:none;}.i,.n,.q{stroke:#c8837c;}.j{fill:url(#b);}.k{fill:#09aac5;}.l{fill:#009cb6;}.m{fill:#008197;}.n,.q{stroke-width:1.088px;}.o{fill:#c8837c;}.p{fill:#eed2cf;}.r{fill:url(#c);}.s{fill:#f771a9;stroke:#e85391;stroke-width:0.544px;}.t{fill:#c92066;}.u{fill:#ff8ebd;}.v{fill:#ffa8cc;}.w{fill:url(#d);}.x{fill:#4e60a3;}.y{fill:url(#e);}.z{fill:url(#f);}.aa{opacity:0.9;}.ab,.ac,.aj,.ak{opacity:0.5;}.ab{fill:url(#g);}.ac{fill:url(#h);}.ad,.al{opacity:0.75;}.ad{fill:url(#i);}.ae{fill:url(#j);}.af{fill:url(#k);}.ag{fill:url(#l);}.ah{fill:url(#m);}.ai{fill:url(#n);}.aj{fill:url(#o);}.ak{fill:url(#p);}.al{fill:url(#q);}.am{fill:url(#r);}.an{fill:url(#s);}.ao{fill:url(#t);}.ap{fill:url(#u);}.aq{opacity:0.2;}.ar{opacity:0.1;}.as{fill:#0c080c;}.at{fill:#26120b;}</style><clipPath id="a"><path class="a" d="M6165.838,1743.613c15.662,19.4,84.12,36.417,146.992,24.416,50.869-9.71,97.368-44.66,113.905-65.108,18.154-22.448,3.07-50.35-21.55-81.386-24.6-31.01-59.353-64.831-92.355-59.683-27.264,4.252-49.45,14.242-86.2,59.683S6149.265,1723.088,6165.838,1743.613Z" transform="translate(-6062.024 -154.329)"/></clipPath><linearGradient id="b" x1="0.502" y1="1" x2="0.502" gradientUnits="objectBoundingBox"><stop offset="0" stop-color="#e7c1bd" stop-opacity="0.8"/><stop offset="0.7" stop-color="#c8837c"/></linearGradient><linearGradient id="c" x1="0.496" y1="0.98" x2="0.496" y2="0.049" gradientUnits="objectBoundingBox"><stop offset="0.1" stop-color="#eed2cf"/><stop offset="1" stop-color="#e7c1bd"/></linearGradient><radialGradient id="d" cx="0.464" cy="0.477" r="1.374" gradientTransform="matrix(-0.44, 0.104, 0.046, 0.995, 3.87, -0.279)" gradientUnits="objectBoundingBox"><stop offset="0" stop-color="#fff"/><stop offset="0.316" stop-color="#fcfdfd"/><stop offset="0.505" stop-color="#f4f7f8"/><stop offset="0.661" stop-color="#e5ecef"/><stop offset="0.76" stop-color="#d8e2e7"/></radialGradient><radialGradient id="e" cx="0.499" cy="0.5" r="0.497" gradientTransform="matrix(0.974, -0.247, 0.249, 0.969, 7.418, -10.242)" gradientUnits="objectBoundingBox"><stop offset="0" stop-color="#fff" stop-opacity="0.8"/><stop offset="1" stop-color="#fff" stop-opacity="0"/></radialGradient><radialGradient id="f" cx="0.487" cy="0.498" r="0.497" gradientTransform="matrix(1.006, 0.011, -0.011, 1, -0.133, 0.417)" xlink:href="#e"/><linearGradient id="g" x1="18.92" y1="0.86" x2="19.398" y2="0.291" gradientUnits="objectBoundingBox"><stop offset="0" stop-color="#fff"/><stop offset="1" stop-color="#fff" stop-opacity="0"/></linearGradient><linearGradient id="h" x1="15.024" y1="0.349" x2="14.454" y2="1.036" xlink:href="#g"/><linearGradient id="i" x1="7.857" y1="0.164" x2="7.286" y2="0.82" xlink:href="#g"/><radialGradient id="j" cx="0.502" cy="0.48" fx="0.8512100577354431" fy="0.4816127419471741" r="0.623" gradientTransform="matrix(0.795, 0.021, 0.013, -0.8, 0.373, 0.826)" gradientUnits="objectBoundingBox"><stop offset="0" stop-color="#e7c1bd"/><stop offset="0.7" stop-color="#e7c1bd" stop-opacity="0.302"/><stop offset="1" stop-color="#f6e4e2" stop-opacity="0"/></radialGradient><radialGradient id="k" cx="0.316" cy="2.878" r="2.774" gradientTransform="translate(0.162) scale(0.443 1)" gradientUnits="objectBoundingBox"><stop offset="0.95" stop-opacity="0"/><stop offset="1" stop-opacity="0.302"/></radialGradient><radialGradient id="l" cx="0.536" cy="0.477" r="1.374" gradientTransform="matrix(0.44, 0.104, -0.046, 0.995, 0.376, -0.064)" xlink:href="#d"/><radialGradient id="m" cx="0.499" cy="0.5" r="0.497" gradientTransform="matrix(0.974, -0.247, 0.249, 0.969, 7.306, -11.275)" xlink:href="#e"/><radialGradient id="n" cx="0.487" cy="0.498" r="0.497" gradientTransform="matrix(1.006, 0.011, -0.011, 1, -0.103, 0.463)" xlink:href="#e"/><linearGradient id="o" x1="0.198" y1="0.86" x2="0.675" y2="0.291" xlink:href="#g"/><linearGradient id="p" x1="0.784" y1="0.349" x2="0.215" y2="1.036" xlink:href="#g"/><linearGradient id="q" x1="0.714" y1="0.164" x2="0.143" y2="0.82" xlink:href="#g"/><radialGradient id="r" cx="0.498" cy="0.48" fx="0.8462631106376648" r="0.623" gradientTransform="matrix(-0.795, 0.021, -0.013, -0.8, 0.899, 0.854)" xlink:href="#j"/><radialGradient id="s" cx="0.684" cy="2.878" r="2.774" gradientTransform="matrix(-0.443, 0, 0, 1, -2.56, 0)" xlink:href="#k"/><radialGradient id="t" cx="0.502" cy="0.499" r="0.496" gradientTransform="translate(0)" gradientUnits="objectBoundingBox"><stop offset="0" stop-color="#fff" stop-opacity="0.502"/><stop offset="0.9" stop-color="#f6e4e2" stop-opacity="0"/></radialGradient><radialGradient id="u" cx="0.5" cy="0.514" r="0.514" gradientTransform="matrix(1, 0, 0, 1, 0, 0)" xlink:href="#t"/></defs><g class="b" transform="translate(-100 -1407)"><g transform="translate(175.202 1468.667)"><g transform="translate(-9.317 -8.618)"><g transform="translate(0 99.737)"><path class="c" d="M12.213,194.205a7.135,7.135,0,0,1-4.877-1.641,2.688,2.688,0,0,0,.582.058c2.314,0,6.133-2.163,7.589-4.952a7.88,7.88,0,0,0-1.214-4.621c-2.222-3.912-5.911-5-9.817-6.158-3.25-.961-6.609-1.954-9.05-4.73-6.671-7.1-6.167-15.59,1.5-25.232-.062-.46-.1-.718-.131-.98-2.591-4.989-3.051-9.5-1.376-13.458,2.155-5.086,7.807-9.114,16.345-11.649l.052-.015,0-.054a6.684,6.684,0,0,1,1.8-4.808,10.21,10.21,0,0,1,7.259-3.3l.119-.006-.068-.1c-1.934-2.825-2.317-5.822-1.049-8.226a5.536,5.536,0,0,1,4.728-3.078,4.189,4.189,0,0,1,2.975,1.237,3.683,3.683,0,0,1,.4.442,4.388,4.388,0,0,1,.792,3.3c-.251-2.589-1.924-3.532-3.5-3.532a4.691,4.691,0,0,0-4.349,2.976c-.428,1.212-.6,3.687,3.085,6.655l.1-.09a5.913,5.913,0,0,1-1.19-4.818,6.309,6.309,0,0,1,3.51-3.753c-1.409,2.134-.651,4.922.879,6.636,1.587,1.781,4.7,2.762,8.768,2.762,6.373,0,13.109-2.328,15.335-5.3,1.935-2.591,1.748-6.7,1.5-8.224,2.125,2.046,3.313,5.835,3.264,10.445a35.729,35.729,0,0,1-12.391,25.668,92.44,92.44,0,0,1-11.106,7.882c-1.158.739-2.316,1.478-3.463,2.231C14.8,155.2,18.386,163.21,22.178,171.685c.456,1.019.928,2.075,1.36,3.119,3.674,4.757,2.935,8.822,1.671,11.4-2.462,5.009-8.54,8-13,8Z" transform="translate(9.31 -99.358)"/><path class="d" d="M8.67,136.113A29.318,29.318,0,0,1,11.9,131.68c8.355-9.461,26.372-9.456,34.716-14.793,3.01-1.871,8.815-7.96,3.572-2.611-5.1,5.105-11.391,6.933-24.214,10.281-13.166,3.419-15.9,10.074-17.325,11.5C8.662,135.621,8.664,135.443,8.67,136.113Zm19.83-3.4c12.419-7.062,18.523-3.1,27.083-18.879.884-1.678,1.4-2.707,1.291-2.507-9.553,19.105-16.967,11.411-34.351,24.93-.74.572-3.332,2.6-3.168,3.525C19.356,139.786,18.67,138.339,28.5,132.717ZM40.745,116.39a26.826,26.826,0,0,0,9.214-3.839c-13.836,7.192-33.989-.42-35.486,11.56C16.512,114.708,27.866,119.644,40.745,116.39Zm-30.6,54.48a56.131,56.131,0,0,1,5.326,7.5c.675,1.366,1.109,2.191,1.029,2.025-.1-.156-.492-1.2-1.178-2.667C11.62,170.408-2.17,156.01,8.7,145.48.95,152.387,3.962,162.608,10.142,170.87ZM25.2,110.712a5.846,5.846,0,0,0,3.331,2.556c2.431.785-3.912-.814-3.312-5.262a8.088,8.088,0,0,1,.767-2.487C24.863,107.39,24.425,108.781,25.2,110.712Z" transform="translate(8.298 -99.813)"/><path class="e" d="M15.606,131.242c-9.423,3.9-29.956,29.329-14.178,39.679l1.139.809c11.1,6.577,9.242,5.432,13.6,10.246-3.234-3.616-7.8-5.615-12.143-7.468a25.668,25.668,0,0,1-5.48-2.961,14.594,14.594,0,0,1-6-8.882C-10.224,153.017,5.571,134.827,15.606,131.242Zm-3.473,19.041a22.968,22.968,0,0,0,.112,14.827c1.2,2.577-.478-5.273-.387-6.627.433-6.092,3.038-11.159,6.932-15.827,5.68-7.559,13.572-9.475,23.249-14.638C29.677,133.272,17,134.825,12.134,150.283Zm35.234-36.364a25.516,25.516,0,0,1-3.735,1.971C30.21,120.679,10.71,118.841,6.1,137.227l.38-1.135a19.037,19.037,0,0,1,3.776-6.533c5.408-5.94,14.135-7.021,19.513-8.241a102.75,102.75,0,0,0,10.16-2.663c7.848-2.695,11.786-7.369,12.83-10.149.081-.192.145-.336.2-.446A16.2,16.2,0,0,1,47.368,113.919Zm5.583-5.86c.168-.315.164-.359,0,0Zm-21.744,7.555c6.269.169,12.469-.21,18.438-4.293,3.512-2.357,4.857-5.561,4.491-8.75a5.664,5.664,0,0,0-.07-.651,10.23,10.23,0,0,1-.487,3.776,8.283,8.283,0,0,1-2.063,3.228,3.808,3.808,0,0,0,.416-1.676,6.289,6.289,0,0,1-.426.662c-2.226,2.972-8.962,5.3-15.335,5.3-4.067,0-7.18-.98-8.768-2.762-1.529-1.714-2.287-4.5-.879-6.636-.231.122-.45.247-.66.376-.659,2.382-.981,4.528.349,6.072a11.762,11.762,0,0,0,6.82,3.754c-4.016.187-7.7.17-10.056.433-9.43.93-9.49,5.467-10.028,7.248C15.19,115.153,19.063,115.2,31.207,115.614ZM20.182,105.567c1.073-2.683,3.864-3.644,6.654-3.579a4.121,4.121,0,0,0-2.13-.589,5.536,5.536,0,0,0-4.728,3.078c-1.267,2.4-.884,5.4,1.049,8.226l.068.1-.119.006a10.21,10.21,0,0,0-7.259,3.3,6.683,6.683,0,0,0-1.8,4.808l0,.054-.052.015c-8.539,2.535-14.191,6.564-16.345,11.649-1.436,3.39-1.3,7.194.4,11.355C-5.8,133.413.27,125.207,12.208,122.024c-.338-1.043,1.127-3.829,2.612-5.735.87-1.116,4.691-4.021,8.042-2.681A8.619,8.619,0,0,1,20.182,105.567Z" transform="translate(9.2 -99.499)"/><path d="M52.782,99.342c.307,1.527.5,5.761-1.448,8.37-3.721,4.968-19.476,7.61-24,2.533-1.652-1.852-2.27-4.705-.717-6.775-4.434,2.218-4.837,5.452-2.587,8.793-9.512-7.668,4.684-13.99,4.684-5.355a4.83,4.83,0,0,0-.684-4,.035.035,0,0,0-.02-.027,3.632,3.632,0,0,0-.4-.449c-4.139-4.044-12.132,2.3-6.755,10.152-5.912.314-9.4,4.611-9.121,8.176-13.671,4.06-21.615,12.511-15.018,25.165.036.268.07.53.147.945-6.773,8.524-8.975,17.356-1.494,25.319,5.3,6.03,14.749,3.641,18.858,10.876a8,8,0,0,1,1.213,4.558c-1.726,3.306-6.562,5.5-8.364,4.778,6.432,6.406,26.415-4.829,16.513-17.639-3.9-9.446-10.5-18.381,5.636-28.951,4.946-3.25,10.093-6.219,14.576-10.119C57.406,123.866,58.893,104.883,52.782,99.342ZM11.755,120.935a6.05,6.05,0,0,0,.174.925c-11.1,4.873-16.118,14.226-15.286,23.416C-8.989,133.231-.97,124.932,11.755,120.935Zm-14.7,25.627a.143.143,0,0,1,.027.041s-.013.007-.013.013A.127.127,0,0,1-2.942,146.562Zm50.416-15.829C37.063,142.6,16.76,147.2,18.289,161.393c.809,7.385,6.791,14.942,7.606,18.3,2.127,8.795-12.038,17.866-18.383,12.941,2.971.32,6.393-1.972,8-4.664a7.9,7.9,0,0,0-1.293-5.4c-3.808-6.506-11.4-5.1-17.089-9.677a16.306,16.306,0,0,1-5.482-8.042c-2.374-8.173,3.546-15.262,5.6-18.362l-.268-.529c-1.169-9.252,5.409-20.55,15.173-24.112A5.828,5.828,0,0,1,12,120.682c-.039-4.28,5.056-8,9.047-8-4.885-8.195,2.523-13.513,6.373-10.106a2.551,2.551,0,0,1,.389.389.043.043,0,0,1,.027.034,4.139,4.139,0,0,1,.9,2.7,3.9,3.9,0,0,0-1.36-2.494c-2.061-2.992-13.406,2.7-2.366,10.046-2.812-3.748-2.941-7.232,1.32-9.53a5.685,5.685,0,0,0,.757,6.58c3.938,4.733,15.4,3.3,20.608.678,3.735-1.885,6.273-4.621,5.314-11.212C59.408,107.18,53.944,123.371,47.474,130.733Z" transform="translate(9.317 -99.342)"/></g><g transform="translate(10.531 93.577)"><path class="f" d="M128.065,141c-4.026-6.808-9.03-8.024-13.154-9.339-4.237-1.351-12.965-2.13-17.725-3.083-4.6-.92-15.516-3.88-15.641-9.039-.129-5.406,2.876-26.867,2.876-26.867H49.754s3.007,21.461,2.878,26.867c-.123,5.16-11.044,8.119-15.642,9.039-4.761.953-13.487,1.732-17.725,3.083-4.126,1.316-9.13,2.531-13.157,9.339-2.442,4.128-4.026,10.812-4.026,18.184H132.094C132.093,151.814,130.512,145.13,128.065,141Z" transform="translate(-2.082 -92.674)"/><path class="g" d="M81.565,121.756c1.672,7.324,12.174,9.18,17.621,10.27,14.683,2.935,22.633,3.441,28.346,13.094,1.945,3.295,3.658,10.632,4,16.186,1.23.2.356-11.682-3.442-18.09-6.529-11.039-19.494-10.143-30.879-12.422-4.6-.92-15.516-3.88-15.641-9.039Zm-28.739,0c-.125,5.16-11.044,8.119-15.641,9.039-11.385,2.279-24.35,1.383-30.879,12.421-3.8,6.409-4.672,18.285-3.442,18.09.337-5.555,2.05-12.892,4-16.186,5.712-9.654,13.663-10.16,28.346-13.094,5.447-1.09,15.949-2.947,17.621-10.27Z" transform="translate(-2.102 -94.889)"/><path class="h" d="M37.146,137.474s19.194.2,22.432,1.263c1.551.508,5.611,3.775,5.611,3.775s-4.394-2.124-5.8-2.518C56.114,139.08,37.146,137.474,37.146,137.474ZM69.708,144.5c1.376-.027,5.286-2.546,5.286-2.546a31.663,31.663,0,0,1-4.92,1.448,24.8,24.8,0,0,1-4.266-.83S68.58,144.523,69.708,144.5Zm11.536-4.853c4.524-1.218,19.962-2.165,19.962-2.165s-15.944-.346-20.447,1.156c-1.509.5-5.068,3.458-5.068,3.458A50.457,50.457,0,0,1,81.244,139.648Z" transform="translate(-4.753 -96.084)"/><path class="i" d="M128.065,141c-6.528-11.038-19.517-10.148-30.879-12.422-4.6-.92-15.516-3.88-15.641-9.039-.129-5.406,2.876-26.867,2.876-26.867H49.754s3.007,21.461,2.878,26.867c-.123,5.16-11.044,8.119-15.642,9.039-4.761.953-13.487,1.732-17.725,3.083-4.126,1.316-9.13,2.531-13.157,9.339-2.442,4.128-4.026,10.812-4.026,18.184H132.094C132.093,151.814,130.512,145.13,128.065,141Z" transform="translate(-2.082 -92.674)"/></g><g transform="translate(59.543 99.34)"><path class="j" d="M71.23,122.313c3.758-.006,9.067-2.431,14.051-5.682.325-4.584,1.177-11.621,1.848-16.82a137.661,137.661,0,0,0-31.994.068c.667,5.162,1.507,12.107,1.836,16.672C62.02,119.849,67.425,122.319,71.23,122.313Z" transform="translate(-55.135 -98.912)"/></g><g transform="translate(8.608 125.909)"><path class="k" d="M69.331,163.8c-12.286,0-24.6-.361-36.856-1.192-10.189-.691-20.358-1.624-30.544-2.354-.265.377-.227-.626-.24-.832-.042-.683-.07-1.367-.072-2.051A18.536,18.536,0,0,1,2,153.253a28.647,28.647,0,0,1,1.221-3.581,7.371,7.371,0,0,0-1.34-.843,17.787,17.787,0,0,1,1.74-2.4c-1.177-.755-2.377-1.517-3.516-2.329,1.578-1.887,3.754-3.024,5.438-4.779-.687-.444-1.36-.911-2-1.421-.167-.133-.331-.268-.5-.4-.267-.221-.05-.292.145-.509q.427-.5.888-.974a22.831,22.831,0,0,1,3.77-3.1,29.855,29.855,0,0,1,9.763-4.091q1.319-.3,2.659-.5a2.144,2.144,0,0,1,.905-.05,7.042,7.042,0,0,1,1.063.529q2.128,1.026,4.317,1.916a93.357,93.357,0,0,0,9.512,3.263,99.376,99.376,0,0,0,42.708,2.652,111.978,111.978,0,0,0,20.766-5.441q2.789-1.016,5.508-2.218,1.018-.451,2.024-.931a2.713,2.713,0,0,1,1.348-.282,19.36,19.36,0,0,1,3.154.095,15.941,15.941,0,0,1,3.163.9,35.127,35.127,0,0,1,10.95,6.294c-.289.307-.583.612-.887.9a20.676,20.676,0,0,1,3.392,3.432c.589.722,1.135,1.472,1.687,2.222.215.294.033,1.343.045,1.724a16.761,16.761,0,0,0,1.364,5.706,19.191,19.191,0,0,1,1.18,4.075,21.246,21.246,0,0,1-.165,5.653c-.083.747-.143,1.5-.207,2.244-.015.172-.029.343-.048.515-.592,0-1.185.024-1.776.036-3.305.06-6.611.13-9.915.231-8.969.271-17.922.843-26.9,1.074-4.629.119-9.258.23-13.882.486C76.165,163.538,72.761,163.8,69.331,163.8Z" transform="translate(-0.008 -127.677)"/><path class="l" d="M51.676,138.2c-.868,1.275-1.658,2.6-2.421,3.939.192-1.4.332-2.8.464-4.213C50.37,138.03,51.019,138.122,51.676,138.2Zm-9.04-1.612c-1.149,2.48-2.382,4.932-3.35,7.469a77.563,77.563,0,0,0,3.86-7.354c1.976.438,3.986.822,6.015,1.139-.192,1.727-.311,3.467-.411,5.2-.637,1.128-1.26,2.261-1.9,3.378a33.42,33.42,0,0,0-3.794,9.9c-1.089-.1-1.99-.216-2.48-.292a15.568,15.568,0,0,1-5.194-1.454c.775-2.855,1.492-5.728,2-8.642.6-3.4.882-6.868,1.6-10.24Q40.782,136.186,42.636,136.591Zm-13.691-4.162a63.221,63.221,0,0,0-6.063,6.863,64.73,64.73,0,0,1,3.88-7.754C27.479,131.843,28.2,132.144,28.945,132.429Zm96.749,4.672c.008.007.019.018.033.033a42.432,42.432,0,0,1,4.034,4.645v.013a18.892,18.892,0,0,1-2.746,2.307c-.452-.535-.915-1.064-1.38-1.607-.968-1.127-1.778-2.4-2.779-3.5-.053-.058-.107-.123-.159-.18-.093-.1-.184-.191-.279-.28.486-.458.956-.924,1.428-1.39.078-.075.151-.152.224-.228.227-.218.445-.441.664-.663C125.044,136.5,125.362,136.789,125.694,137.1ZM116,148.183a51.417,51.417,0,0,0,3.449,4.212,34.469,34.469,0,0,0-3.106,1.912c-.988-1.224-2.182-2.568-4.086-4.863.1-.051.2-.1.3-.153,1.127-.6,1.9-1.248,2.919-1.911a8.868,8.868,0,0,0,.5.771A.07.07,0,0,0,116,148.183ZM109.415,130.8a65.687,65.687,0,0,1,9.353,11.373q1.205-1.145,2.488-2.222c.394-.329.8-.652,1.216-.963-4.39-4.342-8.929-8.414-14.894-9.921C108.107,129.553,108.712,130.118,109.415,130.8Zm-10.189,1.426c4.114,4.957,10.315,10.209,12.656,12.81-2.707-3.767-8.272-8.794-12.205-12.981,1.553-.593,3.073-1.23,4.573-1.917,4.077,5.16,9.5,12.8,12.057,16.453-.33.165-.63.326-.916.49l-.058.039c-.943.568-1.738,1.2-3.151,1.982-.048.025-.1.051-.146.077s-.086.044-.126.064a12.142,12.142,0,0,1-3.118,1.075c-.53.108-1.067.224-1.6.371-2.275-3.008-4.059-6.385-6.174-9.5-1.353-2-2.931-3.875-4.193-5.92-.359-.586-.709-1.2-1.094-1.8C96.913,133.08,98.082,132.665,99.227,132.225Zm-19.552,5.2A71.163,71.163,0,0,1,83.483,148.1a46.559,46.559,0,0,0-1.135-4.945,47.381,47.381,0,0,0-2.228-5.8c1.856-.339,3.681-.7,5.464-1.1,1.613,1.8,2.87,4.077,6.461,8.818a83.213,83.213,0,0,1,5.186,7.309,10.8,10.8,0,0,1-2.449.974c-12.48,3.677-7.752,2.332-13.41,3.378-.1.017-.233.038-.379.057a87.014,87.014,0,0,0-2.3-8.546A74.562,74.562,0,0,0,74.907,138.2Q77.331,137.843,79.675,137.426Zm-8.563,1.242a68.392,68.392,0,0,1,2.7,9.846c.426,2.192.791,4.391,1.175,6.582.166.95.32,1.913.531,2.862-3.3.548-6.852.052-9.068.02.047-1.53.034-1.881.127-2.78.205-2.039.324-4.1.537-6.143a56.823,56.823,0,0,0,.45-6.4,27.237,27.237,0,0,1,.093-3.74C68.817,138.861,69.972,138.776,71.112,138.668Zm-6.441.338c-.883,2.856-1.832,5.7-2.661,8.571q-.02-4.3-.259-8.591C62.727,139.012,63.7,139.019,64.671,139.006Zm-5.659-.121c-.265,3.493-.663,6.966-.888,10.464a54.988,54.988,0,0,0,1.053-10.45c.784.037,1.566.07,2.349.08q-.131,5.067.053,10.139v.007a32.911,32.911,0,0,0-1.234,8.374,47.469,47.469,0,0,1-5.7.605,34.108,34.108,0,0,1-6.852-.237c.1-.338.212-.674.324-1.014.027-.082.06-.172.086-.254a78.174,78.174,0,0,1,3.733-9.03c2.429-4.8,3.563-7.264,4.451-8.865C57.261,138.784,58.137,138.84,59.012,138.885Zm-24.071-4.347c-.564,2.007-1.187,4.933-2.958,10.3-.763,2.3-1.486,4.589-2.1,6.934a8.787,8.787,0,0,0-.252,1.727c-1.333-.523-2.64-1.09-3.947-1.675-.816-.389-1.5-.728-2.069-1.02-.034-.019-.073-.039-.107-.058-.643-.33-1.147-.611-1.559-.827,1.472-2.1,3.118-4.474,4.537-6.551,2.156-3.142,4.013-6.487,6.322-9.52C33.509,134.079,34.218,134.316,34.941,134.538ZM22.651,151.58a27.294,27.294,0,0,0-3.2,5.639c-1.639-.529-3.291-1.026-4.922-1.58.112-.2.225-.389.338-.588q.2-.342.4-.707a.208.208,0,0,1,.027-.056,44.018,44.018,0,0,1,2.455-4.252,18.774,18.774,0,0,0,2.786,1.072l.485.133c.046-.07.1-.14.146-.21.218-.306.437-.625.663-.95.3.191.629.4.968.605.133.083.279.179.451.273-.16.153-.318.312-.463.478C22.736,151.483,22.7,151.535,22.651,151.58Zm1.186-21.369a31.952,31.952,0,0,0-4.111,7.584c1.406-2.525,2.991-4.939,4.438-7.431.743.357,1.506.7,2.283,1.033a46.146,46.146,0,0,0-4.6,9.17,61.937,61.937,0,0,0-4.889,6.986c-2.4-.81-5.89-2.041-6.354-2.214a26.512,26.512,0,0,1-3.748-1.694,1.847,1.847,0,0,0-.174-.089c-.643-.35-1.226-.688-1.677-.974.737-.714,1.479-1.416,2.236-2.1.113-.108.231-.216.35-.318a76.843,76.843,0,0,1,14.852-10.65C22.9,129.753,23.36,129.983,23.837,130.212ZM2.208,145.385c-.08-.051-.166-.109-.246-.159-.551-.355-1.1-.7-1.632-1.014a22.989,22.989,0,0,1,3.012-2.626.421.421,0,0,0,.067-.057,17.28,17.28,0,0,0,2.281-1.95c.312.192.63.382.942.567-.7.683-1.393,1.4-2.076,2.136a2.32,2.32,0,0,0-.166.179c.133.115.272.222.411.325a5.139,5.139,0,0,0,.643.421c.324.172.643.357.956.548a16.259,16.259,0,0,0-2.727,2.633C3.2,146.055,2.7,145.719,2.208,145.385Zm-.1,3.538c.471-.677,1.042-1.454,1.671-2.225.047-.052.086-.1.126-.153a18.713,18.713,0,0,1,2.681-2.683A20.974,20.974,0,0,0,8.674,145c1.169.517,2.356.975,3.569,1.4a47.687,47.687,0,0,0,4.569,1.4c-.225.389-.443.777-.656,1.173-.025.039-.046.076-.066.114.079.052.159.109.239.161a12.412,12.412,0,0,0,1.24.706,26.607,26.607,0,0,0-2.514,4.263c-2.447-.784-4.895-1.587-7.256-2.574-1.261-.555-2.52-1.083-3.742-1.72-.066-.031-.3-.153-.623-.32a13.3,13.3,0,0,0,.344-1.917,14.581,14.581,0,0,1-.517,1.829C2.931,149.329,2.519,149.126,2.108,148.923Z" transform="translate(-0.025 -127.778)"/><path class="m" d="M130.147,145.241a21.967,21.967,0,0,1-.172-3.25v-.357a.007.007,0,0,1,.007-.007.583.583,0,0,1,0-.153.577.577,0,0,0-.073.057c-.047-.064-.094-.127-.14-.2A32.305,32.305,0,0,0,126,136.886a.219.219,0,0,1,.06-.032.247.247,0,0,0-.068.026c-.372-.35-.737-.663-1.093-.938.191-.184.377-.376.549-.567.119-.115.227-.222.332-.338-.08-.07-.16-.133-.238-.2a32.888,32.888,0,0,0-7.734-4.928c-5.379-2.248-6.176-2.275-8.868-2.224-.393,0-.824.014-1.314.014-.2.1-.4.2-.61.292-.113.052-.225.108-.338.166s-.212.1-.325.146c-.656.306-1.326.605-2.016.906-.193.076-.379.158-.572.241-1.491.631-3.057,1.251-4.715,1.843-.134.05-.265.1-.4.147q-1.661.593-3.443,1.159c-.1.038-.211.07-.318.1-.6.192-1.214.377-1.838.561l-.259.077c-.55.166-1.116.324-1.685.485-.213.063-.432.12-.651.178-1.068.293-2.171.579-3.3.86-.7.171-1.4.338-2.106.5-.064.013-.131.031-.2.045q-2.559.562-5.147,1.005c-.141.026-.282.045-.42.07-1.611.263-3.237.49-4.863.675-.078.009-.157.02-.238.025-1.094.123-2.193.223-3.3.314-.065.005-.126.013-.191.013-.95.07-1.9.127-2.853.172-.047,0-.086.006-.131.006-.869.04-1.732.064-2.6.07a.3.3,0,0,1-.12,0c-.253.008-.5.014-.757.014-.869.006-1.724,0-2.579-.02h-.12q-1.213-.026-2.394-.082a.355.355,0,0,1-.08-.006c-.69-.026-1.373-.07-2.055-.117-.073,0-.147-.006-.22-.013h-.006c-1.427-.1-2.825-.221-4.2-.382-.081-.006-.166-.012-.246-.025-.854-.1-1.7-.2-2.541-.319-.18-.025-.358-.051-.537-.078-1.989-.292-3.92-.63-5.771-1.005-.158-.032-.325-.07-.483-.1-1.327-.273-2.608-.572-3.855-.885-.092-.025-.186-.044-.278-.07-1.181-.3-2.328-.612-3.429-.937-.1-.025-.193-.056-.292-.082-.63-.184-1.247-.376-1.851-.567-.1-.031-.2-.064-.292-.1-1.094-.35-2.149-.708-3.15-1.07-.113-.044-.225-.082-.338-.127-.842-.3-1.659-.618-2.434-.924l-.279-.115c-.836-.337-1.625-.675-2.375-1-.092-.044-.185-.084-.271-.123-.4-.178-.777-.356-1.147-.529-.113-.049-.227-.1-.332-.157q-.736-.348-1.393-.683l-.218-.116c-.273.033-.545.07-.81.116-7.5,1.109-13.531,4.467-17.121,8.685-.126.14-.245.281-.35.421.119.109.251.216.385.324a23.486,23.486,0,0,0,2.262,1.645A22.88,22.88,0,0,1,3.1,141.25a.432.432,0,0,0-.119-.052c-.027,0,.007.052.053.1A16.848,16.848,0,0,0,.1,143.991L0,144.1c.06.039.119.082.186.129.471.3,1.022.675,1.606,1.064a2.59,2.59,0,0,0,.225.146c.484.332.994.669,1.5.994a21.872,21.872,0,0,0-1.44,1.951c-.074.109-.139.216-.206.318a1.37,1.37,0,0,0-.086.141c.066.039.132.083.2.115.411.248.816.5,1.16.708-.251.681-.524,1.356-.769,2.053-.981,2.618-.915,5.727-.7,8.577a.594.594,0,0,0,.014.109H2a.423.423,0,0,1-.006-.087c11.934.838,32.312,2.812,46.517,3.159,35.134.848,17.71.108,43.651-.522,22.739-.562,15.9-.952,39.678-1.365.087-.007.18-.007.273-.007a.941.941,0,0,1,.013-.133c.113-1.236.192-2.479.378-3.715C133.443,151.442,130.638,148.638,130.147,145.241Zm-4.477-8.246c.008.007.019.018.033.033a42.432,42.432,0,0,1,4.034,4.645v.013a18.892,18.892,0,0,1-2.746,2.307c-.452-.535-.915-1.064-1.38-1.607-.968-1.127-1.778-2.4-2.779-3.5-.053-.058-.107-.123-.159-.18-.093-.1-.184-.191-.279-.28.486-.458.956-.924,1.428-1.39.078-.075.151-.152.224-.228.227-.218.445-.441.664-.663C125.019,136.4,125.337,136.682,125.669,136.995Zm-3.53,11.444a29.453,29.453,0,0,1,2.734,2.85c-1.247,1.072-2.388,2.179-3.835,2.517-.4-.5-.828-1-1.253-1.5-.048-.051-.086-.1-.127-.146-1.314-1.524-2.626-2.977-3.508-4.1-.007-.007-.014-.013-.014-.018-.239-.3-.443-.58-.608-.823.271-.179.563-.364.887-.548l.764,1.091a.588.588,0,0,0,.073.108c.126-.052.252-.1.373-.135.013-.005.033-.005.044-.011a13.267,13.267,0,0,0,3.444-1.586,1.225,1.225,0,0,0,.133-.092c-.028-.043-.049-.082-.074-.119-.808-1.346-1.578-2.576-2.328-3.717q1.286-1.08,2.568-2.174c.41-.336.828-.681,1.252-1.019.991,1.212,1.8,2.6,2.827,3.773.4.452.8.9,1.186,1.344.014.013.02.026.034.033.345.393.684.783,1.008,1.184-1.79,1.109-3.731,1.938-5.572,2.989a.248.248,0,0,1-.072.046A.215.215,0,0,0,122.139,148.439Zm-6.168-.362a51.417,51.417,0,0,0,3.449,4.212,34.469,34.469,0,0,0-3.106,1.912c-.988-1.224-2.182-2.568-4.086-4.863.1-.051.2-.1.3-.153,1.127-.6,1.9-1.248,2.919-1.911a8.868,8.868,0,0,0,.5.771A.07.07,0,0,0,115.972,148.077Zm-7.716-20.022c3.3.146,7.535.611,16.9,7.116-.2.167-.4.346-.591.536a1.39,1.39,0,0,0-.193.186c-.239.222-.47.459-.688.7a2.785,2.785,0,0,0-.2.218,14.791,14.791,0,0,0-1.209,1.517.713.713,0,0,0-.1.147c.024.025.052.056.078.081.087.1.167.184.245.281-.438.324-.86.663-1.273,1.008q-1.282,1.078-2.488,2.222a65.689,65.689,0,0,0-9.353-11.373c-.875-.848-1.6-1.523-2.214-2.078C107.541,128.431,107.9,128.244,108.256,128.055Zm-1.446.745c1.844,1.975,4.5,4.589,7.237,7.958,1.492,1.842,2.933,3.735,4.346,5.647.024.039.05.076.076.115q1.285,1.739,2.549,3.492a28.688,28.688,0,0,1-3.465,1.606,2.383,2.383,0,0,0-.126-.237c-.152-.274-.337-.593-.556-.95a1.3,1.3,0,0,0-.1-.165,150.669,150.669,0,0,0-11.96-16.506C105.485,129.449,106.148,129.13,106.811,128.8ZM99.2,132.119c4.114,4.957,10.315,10.209,12.656,12.81-2.707-3.767-8.272-8.794-12.205-12.981,1.553-.593,3.073-1.23,4.573-1.917,4.077,5.16,9.5,12.8,12.057,16.453-.33.165-.63.326-.916.49l-.058.039c-.943.568-1.738,1.2-3.151,1.982-.048.025-.1.051-.146.077s-.086.044-.126.064a12.142,12.142,0,0,1-3.118,1.075c-.53.108-1.067.224-1.6.371-2.275-3.008-4.059-6.385-6.174-9.5-1.353-2-2.931-3.875-4.193-5.92-.359-.586-.709-1.2-1.094-1.8C96.888,132.974,98.056,132.559,99.2,132.119Zm-3.878,1.364c.417.8.8,1.612,1.214,2.358,1.121,2.027,2.7,3.9,4.006,5.824a83.687,83.687,0,0,0,6.36,8.992.435.435,0,0,0,.073.083c.086-.019.179-.038.271-.051a13.21,13.21,0,0,0,4.843-1.28c1.088,1.46,2.5,3.3,3.894,5.014a.949.949,0,0,0,.072.1c.241.3.476.594.71.881a21.878,21.878,0,0,1-6.069,1.376c-.678-.875-1.433-1.677-2.177-2.486-.922-.995-1.877-1.988-2.712-3.059-.238-.318-.471-.636-.7-.967a.663.663,0,0,1-.04-.065c-.054.013-.106.033-.16.051-.391.128-.777.275-1.154.428-2.806-4.7-8.492-13.951-8.789-14.459-.444-.745-.883-1.491-1.367-2.192C94.183,133.854,94.751,133.675,95.324,133.484ZM91,134.789c2.321,3.384,4.417,6.908,6.514,10.42a77.355,77.355,0,0,0-5.877-10.6q.823-.229,1.641-.478c.443.746.826,1.53,1.224,2.307.663,1.305,5.866,9.9,6.774,11.254.729,1.045,1.493,2.064,2.242,3.089-1.817.753-3.541,1.7-5.366,2.455-.147-.338-.3-.662-.464-.981a1.277,1.277,0,0,0-.1-.192,45.262,45.262,0,0,0-5.009-7.5c-3.362-4.427-4.914-6.772-6.72-8.492C87.6,135.683,89.311,135.255,91,134.789ZM79.65,137.32a71.164,71.164,0,0,1,3.808,10.674,46.559,46.559,0,0,0-1.135-4.945,47.383,47.383,0,0,0-2.228-5.8c1.856-.339,3.681-.7,5.464-1.1,1.613,1.8,2.87,4.077,6.461,8.818a83.213,83.213,0,0,1,5.186,7.309,10.8,10.8,0,0,1-2.449.974c-12.48,3.677-7.752,2.332-13.41,3.378-.1.017-.233.038-.379.057a87.014,87.014,0,0,0-2.3-8.546,74.562,74.562,0,0,0-3.787-10.043Q77.306,137.736,79.65,137.32Zm-5.221.84c.034,0,.072-.011.107-.018,2.2,6.149,4.185,12.35,5.91,18.628a.319.319,0,0,1,.035.108c.171.605.337,1.216.5,1.829a17.968,17.968,0,0,1-4.657.427c-.033,0-.14-.006-.292-.006-.072-.4-.139-.809-.192-1.218-.007-.037-.007-.076-.014-.114-.131-1.052-.218-2.11-.338-3.148-.237-2.212-.624-4.416-1.08-6.6a40.486,40.486,0,0,0-3.019-9.521C72.413,138.429,73.427,138.307,74.428,138.16Zm-3.341.4a68.392,68.392,0,0,1,2.7,9.846c.426,2.192.791,4.391,1.175,6.582.166.95.32,1.913.531,2.862-3.3.548-6.852.052-9.068.02.047-1.53.034-1.881.127-2.78.205-2.039.324-4.1.537-6.143a56.823,56.823,0,0,0,.45-6.4,27.237,27.237,0,0,1,.093-3.74C68.792,138.754,69.946,138.67,71.087,138.561Zm-3.691.257a28.311,28.311,0,0,0-.416,4.435c-.133,2.3-.5,4.593-.69,6.887a61.979,61.979,0,0,0-.338,6.845c0,.044.013.389.026.88v.05c.014.319.028.689.041,1.084-1.785.14-3.581.039-5.373.005.047-.5.092-1.006.146-1.535.007-.056.007-.108.013-.166a52.045,52.045,0,0,1,.856-5.8c.092-.458.206-.93.324-1.42v-.014c.086-.33.173-.669.265-1.019.915-3.384,1.871-6.742,2.613-10.156Q66.138,138.884,67.4,138.818Zm-2.75.082c-.883,2.856-1.832,5.7-2.661,8.571q-.02-4.3-.259-8.591C62.7,138.906,63.677,138.913,64.646,138.9Zm-5.659-.121c-.265,3.493-.663,6.966-.888,10.464a54.988,54.988,0,0,0,1.053-10.45c.784.037,1.566.07,2.349.08q-.131,5.067.053,10.139v.007a32.911,32.911,0,0,0-1.234,8.374,47.469,47.469,0,0,1-5.7.605,34.108,34.108,0,0,1-6.852-.237c.1-.338.212-.674.324-1.014.027-.082.06-.172.086-.254a78.174,78.174,0,0,1,3.733-9.03c2.429-4.8,3.563-7.264,4.451-8.865C57.236,138.678,58.112,138.734,58.987,138.779Zm-2.964-.2a90.665,90.665,0,0,0-4.975,9.016,43.538,43.538,0,0,0-3.436,8.9c-1.426-.014-2.952-.115-4.253-.237a48.723,48.723,0,0,1,4.187-9.839c.4-.688.755-1.325,1.08-1.912l.324-.579c1.473-2.69,2.249-4.321,3.052-5.773C53.336,138.314,54.677,138.461,56.023,138.576Zm-4.372-.48c-.868,1.275-1.658,2.6-2.421,3.939.192-1.4.332-2.8.464-4.213C50.345,137.924,50.994,138.016,51.651,138.1Zm-9.04-1.612c-1.149,2.48-2.382,4.932-3.35,7.469a77.562,77.562,0,0,0,3.86-7.354c1.976.438,3.986.822,6.015,1.139-.192,1.727-.311,3.467-.411,5.2-.637,1.128-1.26,2.261-1.9,3.378a33.42,33.42,0,0,0-3.794,9.9c-1.089-.1-1.99-.216-2.48-.292a15.568,15.568,0,0,1-5.194-1.454c.775-2.855,1.492-5.728,2-8.642.6-3.4.882-6.868,1.6-10.24Q40.757,136.08,42.611,136.485Zm-3.994-.98c-.948,3.325-1.347,6.78-1.963,10.209-.511,2.855-1.114,5.7-1.691,8.545a.967.967,0,0,0-.027.134c-.107.516-.212,1.032-.312,1.548-.663-.2-1.334-.4-2-.6-.04-.012-1.372-.382-2.667-.74.046-.344.086-.63.119-.892.007-.044.013-.089.019-.133.213-1.478.491-2.339,2.555-8.634a51.369,51.369,0,0,0,2.069-7.381c.172-1.007.319-2.026.53-3.027C36.349,134.873,37.476,135.2,38.618,135.5Zm-3.7-1.073c-.564,2.007-1.187,4.933-2.958,10.3-.763,2.3-1.486,4.589-2.1,6.934a8.787,8.787,0,0,0-.252,1.727c-1.333-.523-2.64-1.09-3.947-1.675-.816-.389-1.5-.728-2.069-1.02-.034-.019-.073-.039-.107-.058-.643-.33-1.147-.611-1.559-.827,1.472-2.1,3.118-4.474,4.537-6.551,2.156-3.142,4.013-6.487,6.322-9.52C33.483,133.973,34.193,134.21,34.916,134.432Zm-12.29,17.042a27.294,27.294,0,0,0-3.2,5.639c-1.639-.529-3.291-1.026-4.922-1.58.112-.2.225-.389.338-.588q.2-.342.4-.707a.208.208,0,0,1,.027-.056,44.017,44.017,0,0,1,2.455-4.252A18.774,18.774,0,0,0,20.51,151l.485.133c.046-.07.1-.14.146-.21.218-.306.437-.625.663-.95.3.191.629.4.968.605.133.083.279.179.451.273-.16.153-.318.312-.463.478C22.711,151.377,22.672,151.429,22.626,151.474Zm9.809-17.858a98.636,98.636,0,0,0-6.606,9.248c-.995,1.447-2.753,4.086-4.4,6.678a.948.948,0,0,1-.092.146c-.233.371-.458.734-.684,1.09a24.654,24.654,0,0,1-2.787-1.037c-.059-.026-.113-.052-.172-.076-.463-.21-.9-.427-1.3-.657.258-.407.531-.815.8-1.223.047-.063.093-.133.146-.2,1.147-1.689,2.382-3.34,3.648-4.959.292-.377.59-.753.89-1.128.491-.625.994-1.243,1.5-1.86,3.689-4.519,4.491-5.628,5.937-7.158Q30.834,133.069,32.435,133.616Zm-3.515-1.293a63.219,63.219,0,0,0-6.063,6.863,64.729,64.729,0,0,1,3.88-7.754C27.454,131.737,28.177,132.038,28.92,132.323Zm-5.108-2.218A31.952,31.952,0,0,0,19.7,137.69c1.406-2.525,2.991-4.939,4.438-7.431.743.357,1.506.7,2.283,1.033a46.146,46.146,0,0,0-4.6,9.17,61.937,61.937,0,0,0-4.889,6.986c-2.4-.81-5.89-2.041-6.354-2.214a26.512,26.512,0,0,1-3.748-1.694,1.847,1.847,0,0,0-.174-.089c-.643-.35-1.226-.688-1.677-.974.737-.714,1.479-1.416,2.236-2.1.113-.108.231-.216.35-.318a76.843,76.843,0,0,1,14.852-10.65C22.87,129.646,23.335,129.877,23.812,130.105ZM3.569,137.249c3.528-3.753,9.187-7.181,16.96-8.843q.747.42,1.533.821A55.984,55.984,0,0,0,6.991,139.666c-.292-.21-.6-.428-.915-.651-.066-.044-.139-.1-.206-.141C5.061,138.3,4.245,137.728,3.569,137.249ZM3,141.232c.019.013.04.033.06.045l-.014.013A.156.156,0,0,0,3,141.232Zm-.816,4.047c-.08-.051-.166-.109-.246-.159-.551-.355-1.1-.7-1.632-1.014a22.989,22.989,0,0,1,3.012-2.626.421.421,0,0,0,.067-.057,17.28,17.28,0,0,0,2.281-1.95c.312.192.63.382.942.567-.7.683-1.393,1.4-2.076,2.136a2.32,2.32,0,0,0-.166.179c.133.115.272.222.411.325a5.139,5.139,0,0,0,.643.421c.324.172.643.357.956.548a16.259,16.259,0,0,0-2.727,2.633C3.171,145.949,2.679,145.612,2.183,145.279Zm-.1,3.538c.471-.677,1.042-1.454,1.671-2.225.047-.052.086-.1.126-.153a18.713,18.713,0,0,1,2.681-2.683,20.974,20.974,0,0,0,2.088,1.14c1.169.517,2.356.975,3.569,1.4a47.687,47.687,0,0,0,4.569,1.4c-.225.389-.443.777-.656,1.173-.025.039-.046.076-.066.114.079.052.159.109.239.161a12.412,12.412,0,0,0,1.24.706A26.607,26.607,0,0,0,15.03,154.1c-2.447-.784-4.895-1.587-7.256-2.574-1.261-.555-2.52-1.083-3.742-1.72-.066-.031-.3-.153-.623-.32a13.3,13.3,0,0,0,.344-1.917,14.581,14.581,0,0,1-.517,1.829C2.906,149.223,2.494,149.019,2.083,148.817Zm119.207,12.61c-2.415.025-5.42.147-8.994.281-4.6.179-10.161.381-16.629.472-4.077.056-8.662.26-13.868.463-6.242.237-13.391.472-21.669.434-4.158-.012-8.6-.1-13.359-.287-5.578-.223-11.588-.579-18.068-1.135-4.656-.394-7.966-.642-10.434-.8-6.243-.385-12.2-.285-16.277-.542v-.007a41.991,41.991,0,0,1,.04-4.556,28.308,28.308,0,0,1,1.307-5.971c.4.243.67.414.7.427a27.423,27.423,0,0,0,3.781,1.785,49.569,49.569,0,0,0,7.176,2.187q-.169.344-.337.688c-.019.038-.146.285-.3.611-.02.032-.04.07-.06.109a1.492,1.492,0,0,0,.139.063c.836.357,1.685.669,2.567.95.789.216,1.578.433,2.368.637a1.361,1.361,0,0,0,.179.044.868.868,0,0,0,.068-.108,47.766,47.766,0,0,1,3.23-5.664.875.875,0,0,1,.113-.14,4.127,4.127,0,0,1,.391-.446c.37.21.815.44,1.319.682.007,0,.014.007.026.007a38.634,38.634,0,0,0,4.9,1.943c-.02.312-.027.625-.04.936,0,.07-.007.147-.007.225.12.045.246.088.372.127,1.525.5,3.09.917,4.656,1.319l.292.078c.019-.064.04-.135.06-.206q.189-.689.377-1.389c.863.586,1.95,1.2,5.168,1.7.8.12,1.625.235,2.453.318.1.013.2.019.292.032a27.853,27.853,0,0,0,4.312.1c-.08.312-.146.625-.22.937-.006.031-.013.064-.019.1.139.013.285.04.432.057.875.141,1.751.344,2.633.466a32.069,32.069,0,0,0,9.956-.771c-.013.484-.013.956-.019,1.414v.064c.112.013.232.018.344.025a26.189,26.189,0,0,0,5.386.07c.119-.013.239-.031.365-.05v-.14c.019-.384.032-.72.032-1.008.523.057,1.054.165,1.566.242a23.365,23.365,0,0,0,7.532-.223c.081.383.176.765.281,1.141.019.064.033.122.05.178l.215.014c.245.018.424.031.471.038a13.437,13.437,0,0,0,4.5-.422l.306-.082a2.077,2.077,0,0,0-.034-.21c-.086-.58-.186-1.159-.306-1.8.246-.019.459-.025.6-.039,5.479-.542,2.705-.1,8.033-1.46a27.235,27.235,0,0,0,7.687-2.861c.179.294.346.587.517.88a.743.743,0,0,0,.054.1c.105-.032.205-.07.312-.1a56.216,56.216,0,0,0,5.412-2.428c.073-.031.153-.07.225-.1q.548-.258,1.115-.5a24.451,24.451,0,0,0,3.3,4.188,27.864,27.864,0,0,1,2.1,2.3c.047.065.093.128.133.192l.324-.019a16.365,16.365,0,0,0,6.056-1.459c.114-.056.227-.115.34-.172-.028-.04-.054-.077-.08-.109-.234-.312-.464-.62-.717-.925,1.576-.885,1.906-1.166,3.138-1.886.444.5.876.976,1.28,1.409a.675.675,0,0,0,.105.12,2.036,2.036,0,0,0,.206-.031c1.466-.306,2.614-1.44,3.8-2.555.04-.031.073-.07.113-.108a.639.639,0,0,0-.067-.082,18.278,18.278,0,0,0-2.772-2.784,33.6,33.6,0,0,0,5.578-2.951c.072-.05.145-.109.219-.166-.021-.025-.042-.058-.06-.084-.293-.388-.6-.77-.921-1.153a12.861,12.861,0,0,0,2.679-2.173,17.625,17.625,0,0,0-.055,3.638c.419,3.7,2.827,4.724,2.264,12.433-.087,1.173-.073,2.34-.08,3.5C128.328,161.427,124.806,161.389,121.29,161.427Z" transform="translate(0 -127.671)"/></g><g transform="translate(13.638)"><g transform="translate(17.163 59.668)"><path class="n" d="M33.328,60.539c-.922-1.55-3.778-5.359-6.688-4.425-1.842.591-2.207,2.523-2.5,4.229a22.2,22.2,0,0,0,.931,8.379A21.581,21.581,0,0,0,28.6,74.437c1.427,1.407,3.2,5.893,3.481,6.358a2.692,2.692,0,0,0,2.762,1.7c1.912-.153,3.072-1.167,3.924-1.34C40.869,80.735,35.728,64.574,33.328,60.539Z" transform="translate(-24.023 -55.969)"/><path class="o" d="M31.513,70.049a5.053,5.053,0,0,1,.1-1.583,5.811,5.811,0,0,0,.113-1.421,24.288,24.288,0,0,0-1.848-5.351c-.759-1.613-1.986-3.645-3.526-4.169a1.148,1.148,0,0,0-1.3.306c-.178.194-.218.42-.16.447s.191-.161.383-.338a.9.9,0,0,1,.7-.243,28.02,28.02,0,0,0-.5,6.852,9.728,9.728,0,0,0,1.2,3.659,5.334,5.334,0,0,0,.1.68c.623,2.873,3.331,6.141,4.274,7.21.174.2.356.315.4.267s-.063-.244-.237-.442C30.285,74.859,27.6,71.6,27,68.832c-.638-2.941,1.553-7.3,2.043-8.224.249.433.46.849.623,1.2.127.272.269.59.415.935-.288.481-2.3,3.993-1.567,6.8a5.216,5.216,0,0,0,2.31,2.738,1.669,1.669,0,0,1,.81.852,2.393,2.393,0,0,0,1.225,1.2.986.986,0,0,0,.409.1.729.729,0,0,0,.486-.185c.012.178.011.4.006.615-.008.271.028.494.092.5s.131-.21.139-.481a3.932,3.932,0,0,0-.048-.94A6.758,6.758,0,0,0,32.728,72,6.507,6.507,0,0,1,31.513,70.049ZM26.656,67.5a12.2,12.2,0,0,1,.767-9.023A8.6,8.6,0,0,1,28.9,60.372C28.607,60.914,26.717,64.468,26.656,67.5Zm6.294,6.6a2.172,2.172,0,0,1-1.116-1.094,1.9,1.9,0,0,0-.917-.952,2.356,2.356,0,0,1-.363-.216c-1.666-3.958.182-5.688.645-6.043a9.049,9.049,0,0,1,.294,1.283,5.8,5.8,0,0,1-.112,1.348,5.15,5.15,0,0,0-.092,1.683,6.592,6.592,0,0,0,1.263,2.049A7.168,7.168,0,0,1,33.7,73.948.558.558,0,0,1,32.95,74.1Z" transform="translate(-24.087 -56.081)"/></g><g transform="translate(91.397 59.668)"><path class="n" d="M110.308,60.539c.923-1.55,3.779-5.359,6.688-4.425,1.843.591,2.207,2.523,2.5,4.229a22.2,22.2,0,0,1-.931,8.379,21.55,21.55,0,0,1-3.529,5.714c-1.427,1.407-3.2,5.893-3.48,6.358a2.69,2.69,0,0,1-2.762,1.7c-1.913-.153-3.072-1.167-3.925-1.34C102.768,80.735,107.909,64.574,110.308,60.539Z" transform="translate(-104.378 -55.969)"/><path class="o" d="M111.412,72A6.756,6.756,0,0,0,110.2,73.93a3.9,3.9,0,0,0-.048.94c.008.271.076.486.139.481s.1-.229.092-.5c-.005-.21-.005-.436.007-.615a.729.729,0,0,0,.486.185.978.978,0,0,0,.408-.1,2.4,2.4,0,0,0,1.225-1.2,1.674,1.674,0,0,1,.81-.852,5.213,5.213,0,0,0,2.31-2.738c.734-2.811-1.279-6.323-1.567-6.8.145-.344.288-.662.415-.935.164-.347.375-.763.623-1.2.489.923,2.681,5.283,2.043,8.224-.6,2.772-3.284,6.027-4.215,7.09-.173.2-.28.394-.236.442s.227-.07.4-.267c.942-1.07,3.652-4.337,4.275-7.21a5.455,5.455,0,0,0,.1-.68,9.715,9.715,0,0,0,1.2-3.659,28.089,28.089,0,0,0-.5-6.852.9.9,0,0,1,.7.243c.192.177.326.365.383.338s.018-.253-.16-.447a1.149,1.149,0,0,0-1.3-.306c-1.541.524-2.768,2.556-3.526,4.169a24.338,24.338,0,0,0-1.848,5.351,5.75,5.75,0,0,0,.114,1.421,5.05,5.05,0,0,1,.094,1.583A6.438,6.438,0,0,1,111.412,72Zm3.825-11.633a8.622,8.622,0,0,1,1.482-1.893,12.208,12.208,0,0,1,.767,9.023C117.423,64.468,115.535,60.914,115.236,60.371Zm-4.8,13.578a7.149,7.149,0,0,1,1.153-1.789,6.6,6.6,0,0,0,1.263-2.049,5.188,5.188,0,0,0-.092-1.683,5.762,5.762,0,0,1-.111-1.348,8.855,8.855,0,0,1,.294-1.283c.463.355,2.311,2.085.647,6.043a2.392,2.392,0,0,1-.364.216,1.91,1.91,0,0,0-.917.952,2.17,2.17,0,0,1-1.116,1.094A.561.561,0,0,1,110.435,73.949Z" transform="translate(-104.817 -56.081)"/></g><g transform="translate(21.106 8.543)"><g transform="translate(0 0)"><path class="f" d="M108.567,51.491h0c-.008.036-7.182,29.737-12.679,38.166-4.324,6.631-18.876,17.116-26.7,17.128S46.777,96.358,42.434,89.741c-5.523-8.412-12.791-38.09-12.8-38.126h0a40.791,40.791,0,1,1,78.933-.123Z" transform="translate(-28.292 -0.629)"/><path class="p" d="M86.439,4.8A40.574,40.574,0,0,1,106.568,50.95h0c-.008.036-7.275,29.714-12.8,38.126-3.985,6.072-16.456,16.835-24.684,16.835S48.385,95.148,44.4,89.076c-5.523-8.412-12.791-38.09-12.8-38.126h0A40.579,40.579,0,0,1,51.728,4.8,40.579,40.579,0,0,0,29.634,51.932h0c.008.036,7.275,29.714,12.8,38.126,2.959,4.509,10.67,10.786,17.759,14.329q-.532-.227-1.072-.481c3.624,1.927,7.147,3.192,9.86,3.2.033,0,.069,0,.1,0s.069,0,.1,0c2.714,0,6.236-1.269,9.861-3.2-.361.17-.718.329-1.073.481,7.088-3.543,14.8-9.821,17.76-14.33,5.524-8.412,12.791-38.09,12.8-38.126h0A40.579,40.579,0,0,0,86.439,4.8Z" transform="translate(-28.292 -0.947)"/><path class="q" d="M108.567,51.491h0c-.008.036-7.182,29.737-12.679,38.166-4.324,6.631-18.876,17.116-26.7,17.128S46.777,96.358,42.434,89.741c-5.523-8.412-12.791-38.09-12.8-38.126h0a40.791,40.791,0,1,1,78.933-.123Z" transform="translate(-28.292 -0.629)"/></g></g><g transform="translate(51.248 93.634)"><path class="r" d="M72.044,102.11c-2.787,0-4.864-2.88-4.864-2.88,4.866,2.225,10,0,10,0S74.49,102.11,72.044,102.11Z" transform="translate(-61.396 -93.23)"/><path class="g" d="M79.98,95.628c0,.419-5.209,2.316-8.215,2.4-2.8.075-8.265-1.8-8.265-2.4s4.317-1.044,8.531-1.044S79.98,95.031,79.98,95.628Z" transform="translate(-61.115 -92.876)"/><path class="s" d="M68.623,92.746c.663-.088,1.828.609,3.233.609,1.033,0,2.3-.715,3.091-.609,1.695.229,2.585,1.261,7.031,1.655a23.37,23.37,0,0,1-2.731.771c-1.823.145-4.835-.113-7.564-.121-3.053-.013-5.992.288-7.839.2A16.1,16.1,0,0,1,61.2,94.49C64.91,94.316,66.683,93,68.623,92.746ZM61.2,94.733s3.025,2.371,4.191,3.19a10.331,10.331,0,0,0,6.349,2.384,11.206,11.206,0,0,0,5.681-2c1.326-.844,4.554-3.661,4.554-3.661a13.177,13.177,0,0,0-2.731.77,23.21,23.21,0,0,1-7.488,1.824,25.012,25.012,0,0,1-7.915-1.744C62.507,95.047,61.2,94.733,61.2,94.733Z" transform="translate(-60.94 -92.735)"/><path class="t" d="M82.106,94.695c-.307.444-1.434.479-1.935.655-.736.257-1.449.574-2.184.834a21.173,21.173,0,0,1-5.613,1.327c-3.576.235-7.1-1.212-10.452-2.285a3.079,3.079,0,0,1-.911-.3c-.218-.164-.01-.515.225-.47.7.133,1.4.49,2.1.666a9.277,9.277,0,0,0,2.568.076c1.067-.04,2.134-.1,3.2-.139,1.962-.073,3.915-.036,5.876.04a16.849,16.849,0,0,0,5.3-.222c.461-.133.924-.267,1.372-.44.166-.064.676-.077.443.259C81.987,94.866,82.132,94.657,82.106,94.695Zm-4.827.8c-2.289.009-4.572-.192-6.862-.145-1.256.025-2.51.093-3.764.147-.379.016-1.089-.1-1.414.137s.792.541.888.571a16.458,16.458,0,0,0,6.905.9,20.392,20.392,0,0,0,3.366-.757,4.475,4.475,0,0,0,1.332-.5c.384-.282-.272-.356-.45-.356C76.571,95.5,78.018,95.5,77.279,95.5Z" transform="translate(-60.919 -92.862)"/><path class="u" d="M71.882,99.692c-2.791,0-5-1.611-7.127-3.217a19.934,19.934,0,0,0,14.622-.232C77.226,98,74.773,99.665,71.882,99.692ZM67.66,94.56c3.731-.176,7.44.153,11.163.031a36.818,36.818,0,0,0-3.694-1.127c-.973-.1-2,.615-3,.615-1.094,0-2.086-.615-3.144-.615a30.189,30.189,0,0,0-3.941,1.187q1.311-.022,2.62-.092C68.912,94.5,66.708,94.6,67.66,94.56Z" transform="translate(-61.211 -92.79)"/><path class="v" d="M69.012,98.677a17.038,17.038,0,0,0,3.342.352,14.809,14.809,0,0,0,3.081-.377,7.759,7.759,0,0,1-3.119.765A7.875,7.875,0,0,1,69.012,98.677Z" transform="translate(-61.535 -93.186)"/></g><g transform="translate(31.648 50.182)"><g transform="translate(4.818 12.207)"><path class="w" d="M44.939,61.132c-.339-1.531,3.479-2.663,8.518-2.045s8.537,3.7,8.077,5.257c-.255.862-7.13,2.175-9.552,1.908C49.527,65.98,45.758,64.829,44.939,61.132Z" transform="translate(-44.918 -58.915)"/></g><g transform="translate(7.385 10.052)"><path class="x" d="M59.633,62.642a5.7,5.7,0,1,1-11.393,0h0a5.7,5.7,0,1,1,11.393,0Z" transform="translate(-48.24 -56.945)"/><path class="y" d="M53.3,57.014l-.068.008c.027.128.054.257.08.385C53.307,57.277,53.3,57.144,53.3,57.014Zm.012.392A14.021,14.021,0,0,0,53.8,61.55,13.9,13.9,0,0,0,53.311,57.406Zm.492,4.145c-.041.158-.1.266-.2.3a.4.4,0,0,1-.349-.1.3.3,0,0,1-.387.434.4.4,0,0,1,.138.335c-.026.1-.127.173-.278.23.151.059.252.133.275.233a.4.4,0,0,1-.137.334.393.393,0,0,1,.352.077.4.4,0,0,1,.034.36.393.393,0,0,1,.347-.1c.1.036.157.145.2.3.076-.144.163-.237.265-.247s.206.056.312.179a.306.306,0,0,1,.481-.33.4.4,0,0,1-.052-.358.4.4,0,0,1,.326-.157c-.133-.094-.215-.19-.213-.292s.08-.2.215-.291a.449.449,0,0,0-.631-.507.4.4,0,0,1-.119-.342.386.386,0,0,1-.314.176C53.965,61.785,53.878,61.7,53.8,61.551Zm.576.071a13.907,13.907,0,0,0,1.49-3.9A13.965,13.965,0,0,0,54.38,61.622Zm1.49-3.9c.057-.115.115-.233.17-.351l-.06-.025C55.943,57.476,55.906,57.6,55.869,57.726ZM54.86,61.953a13.941,13.941,0,0,0,3.13-2.758A14,14,0,0,0,54.86,61.953Zm3.13-2.757c.1-.071.192-.143.29-.213-.014-.017-.029-.031-.04-.047C58.157,59.021,58.075,59.11,57.991,59.2Zm-2.862,3.275a14.026,14.026,0,0,0,4.056-.988A13.947,13.947,0,0,0,55.128,62.471Zm4.056-.988c.1-.015.213-.032.32-.049,0-.017-.009-.036-.013-.054Zm-4.057,1.57a13.917,13.917,0,0,0,4.046,1.009A13.93,13.93,0,0,0,55.127,63.053Zm4.046,1.009c.09.031.182.064.271.092,0-.016.009-.031.012-.048C59.364,64.093,59.268,64.078,59.173,64.062Zm-4.32-.493a14.081,14.081,0,0,0,3.116,2.776A13.913,13.913,0,0,0,54.853,63.568Zm3.117,2.774.17.18a.312.312,0,0,1,.029-.031C58.1,66.441,58.034,66.391,57.97,66.342Zm-3.6-2.444A13.966,13.966,0,0,0,55.843,67.8,13.924,13.924,0,0,0,54.374,63.9ZM55.843,67.8c.02.071.042.144.06.217a.355.355,0,0,1,.037-.013C55.908,67.939,55.875,67.87,55.843,67.8ZM53.8,63.966a14.009,14.009,0,0,0-.515,4.14A13.909,13.909,0,0,0,53.8,63.966Zm-.514,4.14c-.015.071-.029.143-.044.216l.037,0C53.276,68.255,53.279,68.178,53.281,68.106Zm-.028-4.349a13.943,13.943,0,0,0-2.381,3.427A13.982,13.982,0,0,0,53.253,63.757Zm-2.38,3.427c-.05.06-.1.124-.153.184.012.008.023.013.036.023C50.794,67.322,50.834,67.253,50.873,67.185Zm2-3.863a13.951,13.951,0,0,0-3.7,1.927A13.939,13.939,0,0,0,52.868,63.321Zm-3.7,1.929c-.082.034-.166.068-.249.1a.375.375,0,0,0,.022.038C49.017,65.346,49.093,65.3,49.168,65.25Zm3.562-2.5a14.007,14.007,0,0,0-4.173-.011A13.971,13.971,0,0,0,52.73,62.755Zm-4.172-.011-.306-.027a.477.477,0,0,0,0,.054C48.354,62.76,48.457,62.751,48.557,62.744Zm4.313-.554a13.972,13.972,0,0,0-3.685-1.947A13.924,13.924,0,0,0,52.87,62.19Zm-3.685-1.947-.3-.191c-.009.017-.017.036-.027.052C48.968,60.151,49.079,60.2,49.185,60.243Zm4.073,1.513a14,14,0,0,0-2.36-3.439A13.97,13.97,0,0,0,53.257,61.756ZM50.9,58.316c-.064-.109-.126-.22-.188-.331l-.053.036C50.737,58.12,50.82,58.219,50.9,58.316Z" transform="translate(-48.241 -56.951)"/><path class="z" d="M54.79,57.033l-.067-.009c-.007.131-.015.263-.023.393C54.729,57.289,54.76,57.16,54.79,57.033Zm-.09.383a13.992,13.992,0,0,0-.6,4.13A13.918,13.918,0,0,0,54.7,57.416Zm-.6,4.13c-.08.142-.168.231-.269.241s-.205-.061-.311-.185a.3.3,0,0,1-.487.318.3.3,0,0,1-.281.509c.13.1.209.194.206.3s-.084.2-.219.287a.4.4,0,0,1,.32.166.4.4,0,0,1-.061.357.3.3,0,0,1,.47.342c.111-.119.218-.186.32-.17s.184.107.256.254c.043-.158.107-.265.205-.3a.4.4,0,0,1,.345.105.307.307,0,0,1,.4-.428c-.105-.125-.16-.239-.131-.338s.129-.171.283-.225c-.151-.061-.249-.138-.273-.237a.4.4,0,0,1,.146-.332.306.306,0,0,1-.377-.444.391.391,0,0,1-.349.088C54.2,61.814,54.137,61.7,54.1,61.546Zm.539.219a13.942,13.942,0,0,0,2.447-3.378A13.933,13.933,0,0,0,54.641,61.765Zm2.447-3.379c.084-.1.171-.2.255-.295-.018-.013-.035-.027-.052-.04Q57.189,58.221,57.088,58.386Zm-2.069,3.823a13.955,13.955,0,0,0,3.738-1.854A13.977,13.977,0,0,0,55.019,62.209Zm3.737-1.854.336-.131c-.009-.019-.019-.038-.027-.056Zm-3.612,2.423a14.031,14.031,0,0,0,4.173.1A13.977,13.977,0,0,0,55.144,62.778Zm4.173.1c.106.013.214.024.322.036l0-.056Zm-4.324.467a13.893,13.893,0,0,0,3.647,2.022A13.946,13.946,0,0,0,54.993,63.34Zm3.647,2.021c.078.054.158.108.237.16.009-.014.016-.028.023-.042C58.815,65.441,58.726,65.4,58.64,65.361Zm-4.045-1.594a14.058,14.058,0,0,0,2.291,3.488A13.9,13.9,0,0,0,54.595,63.767Zm2.292,3.486c.04.071.078.145.118.218l.036-.023Zm-2.84-3.292a13.994,13.994,0,0,0,.407,4.152A13.942,13.942,0,0,0,54.047,63.961Zm.407,4.152c0,.074,0,.15,0,.226a.262.262,0,0,1,.039,0C54.482,68.261,54.468,68.186,54.454,68.113Zm-.984-4.236A14,14,0,0,0,51.9,67.743,13.91,13.91,0,0,0,53.47,63.877ZM51.9,67.743c-.034.064-.066.131-.1.2l.034.014C51.857,67.885,51.88,67.813,51.9,67.743ZM53,63.535a13.949,13.949,0,0,0-3.187,2.695A13.966,13.966,0,0,0,53,63.535ZM49.813,66.23l-.194.138c.009.011.018.019.027.03C49.7,66.341,49.758,66.285,49.813,66.23Zm2.928-3.216a13.965,13.965,0,0,0-4.073.9A13.944,13.944,0,0,0,52.74,63.014Zm-4.073.905c-.088.012-.178.023-.268.036q.005.021.012.042C48.5,63.973,48.583,63.945,48.667,63.919Zm4.087-1.488a13.992,13.992,0,0,0-4.028-1.09A13.988,13.988,0,0,0,52.754,62.431Zm-4.028-1.09-.29-.106a.491.491,0,0,0-.014.052C48.525,61.3,48.628,61.322,48.726,61.341Zm4.309.581a13.957,13.957,0,0,0-3.057-2.835A13.925,13.925,0,0,0,53.035,61.922Zm-3.057-2.834-.238-.262-.041.044C49.794,58.942,49.888,59.015,49.979,59.088ZM53.522,61.6a14.015,14.015,0,0,0-1.389-3.933A13.945,13.945,0,0,0,53.522,61.6ZM52.133,57.67c-.033-.122-.064-.245-.1-.369l-.06.021C52.028,57.438,52.082,57.555,52.133,57.67Z" transform="translate(-48.252 -56.951)"/><path class="x" d="M56.456,62.927a2.234,2.234,0,1,1-2.234-2.234A2.233,2.233,0,0,1,56.456,62.927Z" transform="translate(-48.526 -57.231)"/><path class="aa" d="M56.456,62.927a2.234,2.234,0,1,1-2.234-2.234A2.233,2.233,0,0,1,56.456,62.927Z" transform="translate(-48.526 -57.231)"/><path class="ab" d="M51,65.922a.931.931,0,1,1-.254,1.293A.932.932,0,0,1,51,65.922Z" transform="translate(-48.419 -57.617)"/><path class="ac" d="M56.131,62.634c-.239.355-.92.314-1.525-.091s-.9-1.023-.664-1.377h0c.237-.355.919-.314,1.524.092s.9,1.021.665,1.377Z" transform="translate(-48.668 -57.248)"/><path class="ad" d="M58.884,61.465c-.54.829-1.933.878-3.11.111s-1.694-2.061-1.154-2.889,1.933-.878,3.11-.111,1.692,2.062,1.154,2.889Z" transform="translate(-48.71 -57.028)"/></g><path class="f" d="M40.261,62.455c0,9.253,5.4,16.753,12.063,16.753s12.063-7.5,12.063-16.753S58.985,45.7,52.324,45.7,40.261,53.2,40.261,62.455Zm4.324-2.33c-.339-1.531,3.479-2.663,8.518-2.045s8.537,3.7,8.077,5.257c-.255.862-7.13,2.175-9.552,1.908C49.173,64.974,45.4,63.823,44.585,60.125Z" transform="translate(-39.745 -45.701)"/><path class="ae" d="M51.987,65.752c2.422.267,9.3-1.046,9.552-1.908.46-1.555-3.039-4.638-8.077-5.257-4.329-.531-7.749.231-8.415,1.426.6-4.289,5.16-7.638,10.714-7.663,5.972-.025,10.822,3.8,10.838,8.555s-4.815,8.62-10.786,8.646S44.991,65.748,44.974,61c0-.07.011-.139.013-.21C45.879,64.358,49.568,65.484,51.987,65.752Z" transform="translate(-40.104 -46.208)"/><path class="af" d="M44.939,61.132c-.339-1.531,3.479-2.663,8.518-2.045s8.537,3.7,8.077,5.257c-.255.862-7.13,2.175-9.552,1.908C49.527,65.98,45.758,64.829,44.939,61.132Z" transform="translate(-40.1 -46.708)"/><path class="o" d="M45.229,57.5a14.068,14.068,0,0,1,9.274-.674,15.064,15.064,0,0,1,4.733,1.768A13.192,13.192,0,0,1,62.588,61.4a11.922,11.922,0,0,0-3.1-2.862,16.485,16.485,0,0,0-4.935-1.954A13.341,13.341,0,0,0,45.229,57.5Z" transform="translate(-40.124 -46.497)"/><path d="M41.437,58.626a5.973,5.973,0,0,0,2.409.416,12.663,12.663,0,0,1-.735-1.075,3.854,3.854,0,0,0,2.112.021,18.213,18.213,0,0,1,3.656-.714,26.691,26.691,0,0,1,4.514.284c2.261.407,6.021,1.763,7.826,4.814.171.383.943.617.943.617s-.684-.144-.77.028c-.189.376.87,1.351,1,1.472-.108-.1-.864-.761-1.154-.648-.041.015-.092.26-.1.323.2-1.626-3.242-4.521-8.077-5.1-5.04-.6-8.858.5-8.518,1.982.819,3.584,4.588,4.7,7.043,4.963a27.948,27.948,0,0,0,7.824-1.03l.678-.212a27.135,27.135,0,0,1-6.545,1.61c-.5.047-1.5.07-2,.057-3.987-.106-6.809-2.13-7.86-4.865a.838.838,0,0,0-.562-.466A31.5,31.5,0,0,1,39.7,59.893c1.555.242,2.334.452,3.555.04A4.276,4.276,0,0,1,41.437,58.626Z" transform="translate(-39.703 -46.582)"/></g><g transform="translate(65.828 50.182)"><g transform="translate(5.02 12.207)"><path class="ag" d="M98.771,61.132c.339-1.531-3.479-2.663-8.518-2.045s-8.537,3.7-8.077,5.257c.255.862,7.13,2.175,9.552,1.908C94.183,65.98,97.952,64.829,98.771,61.132Z" transform="translate(-82.135 -58.915)"/></g><g transform="translate(7.718 10.052)"><path class="x" d="M95.9,62.642a5.7,5.7,0,1,1-11.393,0h0a5.7,5.7,0,1,1,11.393,0Z" transform="translate(-84.511 -56.945)"/><path class="ah" d="M89.57,57.014l-.068.008c.027.128.054.257.08.385C89.578,57.277,89.575,57.144,89.57,57.014Zm.012.392a14.021,14.021,0,0,0,.491,4.144A13.9,13.9,0,0,0,89.582,57.406Zm.492,4.145c-.041.158-.1.266-.2.3a.4.4,0,0,1-.349-.1.3.3,0,0,1-.387.434.4.4,0,0,1,.138.335c-.026.1-.127.173-.278.23.151.059.252.133.275.233a.4.4,0,0,1-.137.334.393.393,0,0,1,.352.077.4.4,0,0,1,.034.36.393.393,0,0,1,.347-.1c.1.036.157.145.2.3.076-.144.163-.237.265-.247s.206.056.312.179a.306.306,0,0,1,.481-.33.4.4,0,0,1-.052-.358.4.4,0,0,1,.326-.157c-.133-.094-.215-.19-.213-.292s.08-.2.215-.291a.449.449,0,0,0-.631-.507.4.4,0,0,1-.119-.342.386.386,0,0,1-.314.176C90.236,61.785,90.149,61.7,90.074,61.551Zm.576.071a13.907,13.907,0,0,0,1.49-3.9A13.966,13.966,0,0,0,90.651,61.622Zm1.49-3.9c.057-.115.115-.233.17-.351l-.06-.025C92.213,57.476,92.177,57.6,92.14,57.726Zm-1.009,4.227a13.941,13.941,0,0,0,3.13-2.758A14,14,0,0,0,91.131,61.953Zm3.13-2.757c.1-.071.192-.143.29-.213-.014-.017-.029-.031-.04-.047C94.428,59.021,94.346,59.11,94.261,59.2ZM91.4,62.471a14.026,14.026,0,0,0,4.056-.988A13.947,13.947,0,0,0,91.4,62.471Zm4.056-.988c.1-.015.213-.032.32-.049,0-.017-.009-.036-.013-.054ZM91.4,63.053a13.917,13.917,0,0,0,4.046,1.009A13.93,13.93,0,0,0,91.4,63.053Zm4.046,1.009c.09.031.182.064.271.092,0-.016.009-.031.012-.048C95.635,64.093,95.539,64.078,95.444,64.062Zm-4.32-.493a14.082,14.082,0,0,0,3.116,2.776A13.912,13.912,0,0,0,91.124,63.568Zm3.117,2.774.17.18a.312.312,0,0,1,.029-.031C94.373,66.441,94.3,66.391,94.241,66.342Zm-3.6-2.444A13.966,13.966,0,0,0,92.114,67.8,13.923,13.923,0,0,0,90.645,63.9ZM92.114,67.8c.02.071.042.144.06.217a.356.356,0,0,1,.037-.013C92.179,67.939,92.146,67.87,92.114,67.8Zm-2.048-3.837a14.009,14.009,0,0,0-.515,4.14A13.909,13.909,0,0,0,90.066,63.966Zm-.514,4.14c-.015.071-.029.143-.044.216l.037,0C89.547,68.255,89.55,68.178,89.552,68.106Zm-.028-4.349a13.943,13.943,0,0,0-2.381,3.427A13.982,13.982,0,0,0,89.524,63.757Zm-2.38,3.427c-.05.06-.1.124-.153.184.012.008.023.013.036.023C87.065,67.322,87.1,67.253,87.144,67.185Zm2-3.863a13.951,13.951,0,0,0-3.7,1.927A13.939,13.939,0,0,0,89.139,63.321Zm-3.7,1.929c-.082.034-.166.068-.249.1a.374.374,0,0,0,.022.038C85.288,65.346,85.364,65.3,85.439,65.25ZM89,62.755a14.007,14.007,0,0,0-4.173-.011A13.971,13.971,0,0,0,89,62.755Zm-4.172-.011-.306-.027a.478.478,0,0,0,0,.054C84.625,62.76,84.728,62.751,84.828,62.744Zm4.313-.554a13.972,13.972,0,0,0-3.685-1.947A13.924,13.924,0,0,0,89.141,62.19Zm-3.685-1.947-.3-.191c-.009.017-.017.036-.027.052C85.239,60.151,85.35,60.2,85.455,60.243Zm4.073,1.513a14,14,0,0,0-2.36-3.439A13.97,13.97,0,0,0,89.528,61.756Zm-2.359-3.439c-.064-.109-.126-.22-.188-.331l-.053.036C87.008,58.12,87.091,58.219,87.169,58.316Z" transform="translate(-84.512 -56.951)"/><path class="ai" d="M91.061,57.033l-.067-.009c-.007.131-.015.263-.023.393C91,57.289,91.031,57.16,91.061,57.033Zm-.09.383a13.992,13.992,0,0,0-.6,4.13A13.919,13.919,0,0,0,90.97,57.416Zm-.6,4.13c-.08.142-.168.231-.269.241s-.205-.061-.311-.185a.3.3,0,0,1-.487.318.3.3,0,0,1-.281.509c.13.1.209.194.206.3s-.084.2-.219.287a.4.4,0,0,1,.32.166.4.4,0,0,1-.061.357.3.3,0,0,1,.47.342c.111-.119.218-.186.32-.17s.184.107.256.254c.043-.158.107-.265.205-.3a.4.4,0,0,1,.345.105.307.307,0,0,1,.4-.428c-.105-.125-.16-.239-.131-.338s.129-.171.283-.225c-.151-.061-.249-.138-.273-.237a.4.4,0,0,1,.146-.332.306.306,0,0,1-.377-.444.391.391,0,0,1-.349.088C90.468,61.814,90.408,61.7,90.373,61.546Zm.539.219a13.943,13.943,0,0,0,2.447-3.378A13.933,13.933,0,0,0,90.912,61.765Zm2.447-3.379c.084-.1.171-.2.255-.295-.018-.013-.035-.027-.052-.04Q93.46,58.221,93.359,58.386ZM91.29,62.209a13.954,13.954,0,0,0,3.738-1.854A13.977,13.977,0,0,0,91.29,62.209Zm3.737-1.854.336-.131c-.009-.019-.019-.038-.027-.056Zm-3.612,2.423a14.031,14.031,0,0,0,4.173.1A13.977,13.977,0,0,0,91.415,62.778Zm4.173.1c.106.013.214.024.322.036l0-.056Zm-4.324.467a13.893,13.893,0,0,0,3.647,2.022A13.947,13.947,0,0,0,91.264,63.34Zm3.647,2.021c.078.054.158.108.237.16.009-.014.016-.028.023-.042C95.086,65.441,95,65.4,94.911,65.361Zm-4.045-1.594a14.058,14.058,0,0,0,2.291,3.488A13.9,13.9,0,0,0,90.866,63.767Zm2.292,3.486c.04.071.078.145.118.218l.036-.023Zm-2.84-3.292a14,14,0,0,0,.407,4.152A13.942,13.942,0,0,0,90.317,63.961Zm.407,4.152c0,.074,0,.15,0,.226a.262.262,0,0,1,.039,0C90.753,68.261,90.739,68.186,90.725,68.113Zm-.984-4.236a14,14,0,0,0-1.569,3.866A13.91,13.91,0,0,0,89.74,63.877Zm-1.569,3.866c-.034.064-.066.131-.1.2l.034.014C88.128,67.885,88.151,67.813,88.172,67.743Zm1.1-4.208a13.949,13.949,0,0,0-3.187,2.695A13.966,13.966,0,0,0,89.271,63.535ZM86.083,66.23l-.194.138c.009.011.018.019.027.03C85.971,66.341,86.028,66.285,86.083,66.23Zm2.928-3.216a13.965,13.965,0,0,0-4.073.9A13.944,13.944,0,0,0,89.011,63.014Zm-4.073.905c-.088.012-.178.023-.268.036q.005.021.012.042C84.768,63.973,84.854,63.945,84.938,63.919Zm4.087-1.488A13.992,13.992,0,0,0,85,61.341,13.988,13.988,0,0,0,89.025,62.431ZM85,61.341l-.29-.106a.489.489,0,0,0-.014.052C84.8,61.3,84.9,61.322,85,61.341Zm4.309.581a13.957,13.957,0,0,0-3.057-2.835A13.925,13.925,0,0,0,89.306,61.922ZM86.25,59.088l-.238-.262-.041.044C86.065,58.942,86.159,59.015,86.25,59.088ZM89.793,61.6A14.015,14.015,0,0,0,88.4,57.67,13.945,13.945,0,0,0,89.793,61.6ZM88.4,57.67c-.033-.122-.064-.245-.1-.369l-.06.021C88.3,57.438,88.353,57.555,88.4,57.67Z" transform="translate(-84.523 -56.951)"/><path class="x" d="M92.727,62.927a2.234,2.234,0,1,1-2.234-2.234A2.233,2.233,0,0,1,92.727,62.927Z" transform="translate(-84.797 -57.231)"/><path class="aa" d="M92.727,62.927a2.234,2.234,0,1,1-2.234-2.234A2.233,2.233,0,0,1,92.727,62.927Z" transform="translate(-84.797 -57.231)"/><path class="aj" d="M87.27,65.922a.931.931,0,1,1-.254,1.293.932.932,0,0,1,.254-1.293Z" transform="translate(-84.69 -57.617)"/><path class="ak" d="M92.4,62.634c-.239.355-.92.314-1.525-.091s-.9-1.023-.664-1.377h0c.237-.355.919-.314,1.524.092s.9,1.021.665,1.377Z" transform="translate(-84.939 -57.248)"/><path class="al" d="M95.155,61.465c-.54.829-1.933.878-3.11.111s-1.694-2.061-1.154-2.889,1.933-.878,3.11-.111,1.692,2.062,1.154,2.889Z" transform="translate(-84.981 -57.028)"/></g><path class="f" d="M90.771,45.7c-6.661,0-12.063,7.5-12.063,16.754s5.4,16.753,12.063,16.753,12.063-7.5,12.063-16.753S97.432,45.7,90.771,45.7Zm.7,19.544c-2.422.267-9.3-1.046-9.552-1.908-.46-1.555,3.039-4.638,8.077-5.257s8.858.514,8.518,2.045C97.691,63.823,93.922,64.974,91.466,65.245Z" transform="translate(-76.854 -45.701)"/><path class="am" d="M91.314,65.752c-2.422.267-9.3-1.046-9.552-1.908-.46-1.555,3.039-4.638,8.077-5.257,4.329-.531,7.749.231,8.415,1.426-.6-4.289-5.16-7.638-10.714-7.663-5.972-.025-10.822,3.8-10.838,8.555s4.815,8.62,10.786,8.646S98.31,65.748,98.326,61c0-.07-.011-.139-.013-.21C97.421,64.358,93.733,65.484,91.314,65.752Z" transform="translate(-76.701 -46.208)"/><path class="an" d="M98.771,61.132c.339-1.531-3.479-2.663-8.518-2.045s-8.537,3.7-8.077,5.257c.255.862,7.13,2.175,9.552,1.908C94.183,65.98,97.952,64.829,98.771,61.132Z" transform="translate(-77.115 -46.708)"/><path class="o" d="M98.423,57.5a14.068,14.068,0,0,0-9.274-.674,15.064,15.064,0,0,0-4.733,1.768A13.192,13.192,0,0,0,81.064,61.4a11.922,11.922,0,0,1,3.1-2.862A16.485,16.485,0,0,1,89.1,56.586,13.341,13.341,0,0,1,98.423,57.5Z" transform="translate(-77.034 -46.497)"/><path d="M101.776,58.626a5.973,5.973,0,0,1-2.409.416,12.663,12.663,0,0,0,.735-1.075,3.854,3.854,0,0,1-2.112.021,18.213,18.213,0,0,0-3.656-.714,26.691,26.691,0,0,0-4.514.284c-2.261.407-6.021,1.763-7.826,4.814-.171.383-.943.617-.943.617s.684-.144.77.028c.189.376-.87,1.351-1,1.472.108-.1.864-.761,1.154-.648.041.015.092.26.1.323-.2-1.626,3.242-4.521,8.077-5.1,5.04-.6,8.858.5,8.518,1.982-.819,3.584-4.588,4.7-7.043,4.963a27.948,27.948,0,0,1-7.824-1.03l-.678-.212a27.135,27.135,0,0,0,6.545,1.61c.5.047,1.5.07,2,.057,3.987-.106,6.809-2.13,7.86-4.865a.838.838,0,0,1,.562-.466,31.5,31.5,0,0,0,3.415-1.214c-1.555.242-2.334.452-3.555.04A4.276,4.276,0,0,0,101.776,58.626Z" transform="translate(-77.015 -46.582)"/></g><g transform="translate(34.867 22.035)"><path class="ao" d="M97.249,79.752A27.031,27.031,0,1,1,70.177,52.763,27.029,27.029,0,0,1,97.249,79.752Z" transform="translate(-43.188 -18.092)"/><path class="ap" d="M94.064,38.689A23.456,23.456,0,1,1,70.608,15.233,23.457,23.457,0,0,1,94.064,38.689Z" transform="translate(-43.49 -15.233)"/></g><g transform="translate(30.854 52.862)"><path class="c" d="M53.086,49.989c-2.965-.318-14.242,2.489-14.242,2.489s11.251-4.517,15.921-3.8c3.477.535,9.648,3.4,8.515,4.918C62.368,54.819,59.526,50.68,53.086,49.989Z" transform="translate(-38.844 -48.602)"/></g><g transform="translate(68.368 53.085)"><path class="c" d="M79.589,53.438c-1.148-1.536,5.088-4.229,9.078-4.56,4.77-.4,15.356,2.738,15.356,2.738S93.368,49.854,90.368,50.2C83.789,50.971,80.513,54.674,79.589,53.438Z" transform="translate(-79.451 -48.843)"/></g><g transform="translate(56.768 69.17)"><path class="h" d="M66.939,84.229c-.5,1.383,3.37,2.874,4.837,2.966,1.591.1,6.048-1.943,5.292-3.345-.794-1.472-3.773-.192-5.058-.192S67.605,82.382,66.939,84.229Z" transform="translate(-66.894 -67.541)"/><path class="o" d="M73.649,84.948c-.163-.35.8-.893,1.171-1,.521-.151,1.679.159,1.634.557-.04.349-1.074-.113-1.411-.015S73.8,85.277,73.649,84.948Zm-4.686-.321c.473,0,1.175.306,1.3.038.153-.321-1.045-.714-1.4-.67-.291.035-1.334.642-1.191.9C67.811,85.129,68.34,84.627,68.963,84.627Z" transform="translate(-66.953 -67.599)"/><path class="aq" d="M72.315,81.1a1.475,1.475,0,0,0,1.326-1.273c.505-3.736-.349-13.568-1.326-13.568-.915,0-1.681,10.069-1.444,13.568A1.481,1.481,0,0,0,72.315,81.1" transform="translate(-67.194 -66.255)"/></g><path class="ar" d="M111.386,30.9C107.687,7.593,36.554-14.556,32,20.662,31.4,32.816,24.685,70.2,24.023,76.983,28.056,64.385,37.715,73.317,50,43.571c3.284-7.951,7.917-26.751,20.984-28.014,6.342-.6,11.221,2.592,13.057,8.524,5.808-2.958,5.913,9.339,6.732,15.771,1.08,8.386.026,12.33,4.98,18.436.042.108.905,1.069.913,1.078,7.7,8.458,15.412,8.139,17.417,16.583C114.87,79.255,110.219,30.574,111.386,30.9Z" transform="translate(-6.861 7.788)"/><path class="c" d="M7.607,44.962c-.054.348-.094.7-.121,1.059-2.468,4.5-.127,11.441,4.825,12.78a13.171,13.171,0,0,0,6.829,3.022C8.728,63.771,2.786,53.116,7.607,44.962Zm87.329,55.5c1.255,7.594-5.548,8.295-11.735,12.906l-.091-.1c2.386-2.782,5.923-3.225,8.2-5.758,3.693-4.113-.173-9.674.957-13.771,1.961-7.269,14.474-7.216,14.474-16.455-.059-7.64-6.824-7.2-9.168-17.422a23.364,23.364,0,0,0,9.458,6.267c1.383,1.862,3.605,6.9,1.4,9.888l-.089-.048a7.547,7.547,0,0,0-1.1-6.359,8.276,8.276,0,0,0-3.488-2.594c4.342,5.574,4.12,10.2,4.117,10.251,0,12.148-16.424,7.765-13.334,21.328.265,1.157.31,1.4.4,1.869ZM19.264,61.772c-.483.126-.986.227-1.529.317C4.78,73.975,23.219,91.883,31.668,79.567l-.1-.088a4.877,4.877,0,0,1-3.253,1.343h0c-3.336,0-6.1-3.906-5.169-7.226,1.846-6.66,11.165-8.992,15.223-14.723a63.33,63.33,0,0,0,6.3-12.689l-.121-.056C38.473,57.045,28.667,62.954,19.264,61.772Zm17.875-.83c-1.738,4.487-11.817,9.3-9.032,15.526l.127-.04a6.041,6.041,0,0,1,1.3-4.588c3.792-5.52,9.662-5.384,10.894-15.37l-.126-.04A15.556,15.556,0,0,1,37.139,60.941Zm76.854,10.542a10.106,10.106,0,0,1,2.043,3.664l.131-.017c.21-5.287-4.566-7.434-8.995-8.953.663.984,8.947,6.91,3.867,14.562-4.294,6.4-13.992,6.692-16.424,14.94.128,1.747.718,3.483.9,5.528,1.25,2.349.964,3.717.64,4.542l.118.062c1.775-2.672.563-4.335-.026-5.9-3.272-8.97,7.948-11.761,14.352-17.549C115.59,77.366,115.3,73.749,113.993,71.483Zm2.537-13.329a6.912,6.912,0,0,0,6.673-5.493l-.121-.051c-2.668,3.8-6.289,2.96-7.368,2.177a13.112,13.112,0,0,0,5.024-9.276,21.525,21.525,0,0,0-4.152-14.45c.455-2.958-.5-3.693-2.156-5.2l-.1.088c1.86,2.7-1.29,6.972-4.989,1.37a6.308,6.308,0,0,0,3.035,2.51C108.444,5.066,92.537-3.5,83.54-.31,53.481-20.447,25,1.787,20.154,39.215c-5.8-4.455-11.549-1.007-12.253,6.2C5.988,64.093,32.416,70.7,46.329,40.916c3.862-8.285,9.22-26.043,23.107-27.385.49-.047.979-.071,1.452-.071,5.99,0,10.054,3.823,11.838,9.6,6.176-3.144,8.3,8.744,9.169,15.581,1.149,8.911.027,13.1,5.292,19.592.045.115.962,1.137.97,1.147,8.185,8.989,15.414,5.534,17.913,13.332,1.1,3.441-.935,6.276-3.237,8.992,1.128-.4,3.446-.647,5.7-2.005C125.773,75.327,126.924,65.46,116.53,58.154Z" transform="translate(-5.481 8.564)"/><path class="as" d="M58.038,25.562c2.335-5.7,9-11,18.841-10.589,4.717.2,10.294,5.771,9.75,10.12C80.516,19.429,66.931,19.429,58.038,25.562Z" transform="translate(-9.452 6.823)"/><path class="d" d="M114.664,26.446c1.513,1.378,2.068,1.981,2,3.947-.984,4.44-6.359,2.935-9.12.355C112.883,33.435,116.662,30.392,114.664,26.446Zm8.537,26.58-.034-.014a9.81,9.81,0,0,1-2.09,3.235c-4.691,3.351-10.723,1.34-14.744-2.01a13.166,13.166,0,0,0,10.393,4.429c-.068-.048-.131-.1-.2-.147A6.912,6.912,0,0,0,123.2,53.026ZM14.522,70.99a18.934,18.934,0,0,1,4.339-8.76s-.535.125-1.127.223c-9.043,8.3-2.8,19.6,4.8,21.379C17.584,81.338,14.049,76.667,14.522,70.99Zm30.025-24.5c-.931,3.547-4.567,10.479-6.18,12.745C34.31,64.968,24.991,67.3,23.145,73.961c-1.228,4.392,3.995,9.778,8.423,5.883l.1.088a12.07,12.07,0,0,1-.836,1.075c-7.741,5.972-13.738-5.9-7.6-12.027C29.854,62.379,38.885,62.23,44.547,46.493ZM19.08,62.178C9.812,64.465,2.418,54.1,7.606,45.326c-.054.348-.094.7-.121,1.059-2.468,4.5-.127,11.441,4.825,12.78A13.178,13.178,0,0,0,19.08,62.178Zm94.753,19.6a6.015,6.015,0,0,0-1,.281c2.3-2.716,4.336-5.552,3.237-8.992-2.545-7.941-10.012-4.22-18.4-13.882h0C91.882,52.533,93.037,47.878,91.893,39c-.871-6.836-2.993-18.725-9.169-15.581-2.145-6.94-7.168-10.113-13.289-9.525C55.549,15.237,50.19,33,46.328,41.281,34.381,66.853,13.239,65.57,8.7,52.97c1.446,1.464,5.989,5.042,7.993,5.557,10.933,2.81,18.606-3.62,23.3-13.673,6.7-14.744,14.073-40.21,34.178-34.849,4.021,1.34,8.712,5.361,9.382,10.723.67-2.681,3.443-1.008,4.021-.67,5.05,2.95,5.361,20.775,8.042,31.5,1.34,5.361,5.361,8.712,9.382,10.723,6.031,2.681,16.754,6.7,12.733,14.744,4.536-2.722,5.692-7.593,4.72-12.327C126.349,71.437,123.527,79.529,113.833,81.783Zm-5.4-5.4-.089-.048a7.542,7.542,0,0,0-1.1-6.359,8.275,8.275,0,0,0-3.488-2.594c2.992,3.74,4.261,8.207,4.117,10.251,0,5.992-4.159,8.055-8.033,10.288,2.722-2.122,5.827-3.762,7.163-6.877.768-2.305.954-6.281-1.372-9.169-7.817-9.707-7.541-9.608-8-11.588a23.553,23.553,0,0,0,9.4,6.209C108.417,68.357,110.639,73.395,108.432,76.382Zm7.734-.888-.131.017a10.106,10.106,0,0,0-2.043-3.664c1.312,2.267,1.6,5.883-3.4,10.875-6.4,5.788-17.625,8.579-14.352,17.549.589,1.57,1.8,3.232.026,5.9l-.118-.062c.324-.825.61-2.193-.64-4.542-.181-2.045-.771-3.781-.9-5.528,2.432-8.248,12.13-8.538,16.424-14.94,5.074-7.643-3.172-13.532-3.867-14.562C111.6,68.06,116.376,70.207,116.165,75.494ZM93.547,7.448a12.657,12.657,0,0,1,7.842,3.666c.177.165.789.587.849.832-.036-.143-.29-.355-.379-.466-5.8-7.192-13.969-6.793-17.568.791C86.791,8.3,89.219,7.294,93.547,7.448Zm-9.132.692c2.1-4.6,4.369-5.383,7.826-6.128a15.484,15.484,0,0,0-4.4,2.217A11.89,11.89,0,0,0,84.415,8.14Zm-18-10.693c4.15.075,6.518.041,10.652,1.915a12.5,12.5,0,0,1,6.115,7.09,2.936,2.936,0,0,0,.239.836,2.774,2.774,0,0,1-.227-.537,10.919,10.919,0,0,0-2.6-3.763,23.579,23.579,0,0,0-8.894-4.7A49.439,49.439,0,0,0,66.412-2.553ZM57.725,5.435c5.91-1.986,12.42-3.144,18.163-.035,4.856,2.628,8.345,10.646,8.055,14.175a4.334,4.334,0,0,0-.141-.931,16.684,16.684,0,0,0-2.5-6.557C75.924,3.329,67.569,2.786,57.725,5.435ZM84.278,16.742c3.114-3.749,6.645-5.369,10.426-2.293,2.037,1.657,3.626,5.007,5.054,8.135a6.866,6.866,0,0,1,.756,1.655C100.5,24.088,98.086,20.3,98,20.17,92.57,11.886,89.094,12.278,84.278,16.742Zm2.54,1.939c1.439-.622,3.944-1.718,7.122,2.493,5.983,7.927,5.652,20.266,6.184,21.331a129.609,129.609,0,0,0-3.937-13.74C94.608,24.112,92.11,16.443,86.818,18.681ZM87.238.393A18.057,18.057,0,0,0,83.98,9.822C83.98,6.53,83.715,4.68,87.238.393ZM35.261,13c3-4.869,6.913-9.508,11.837-12.525C52.947-2.849,60.865-3.4,62.487-3.007a3.652,3.652,0,0,0-1.006.084c-7.458.723-15.87,5.489-20.643,9.88A58.81,58.81,0,0,0,35.261,13ZM57.147,6.578C50.228,8.724,46.061,14.372,42.8,21.07c-6.132,12.6-7.3,17.734-8.51,22.4C34.466,42.8,38.076,10.6,57.147,6.578Zm-41.9,35.853c-2.386,5.538,5.062,7.992,10.726,3.456A10.78,10.78,0,0,0,28.9,42.525C23.462,53.743,11.548,48.736,15.247,42.431Zm-1.606,8.5C15.8,55.44,21.032,56.41,25.386,54.64c6.787-2.758,7.544-8.577,7.993-9.574-.313.7-.09,2.62-1.845,5.731C26.8,59.187,15.94,57.692,13.641,50.932Zm88.386-19.678c3.358,5.082,8.479,22.119,18.525,10.623-.844.965-5.269,8.418-11.737,2.867a21.221,21.221,0,0,1-4.028-6.6C104.272,36.964,102.027,31.254,102.027,31.254Z" transform="translate(-5.48 8.199)"/><path class="e" d="M7.992,48.356a17.874,17.874,0,0,1,.066-2.886c.478-4.9,3.329-8.193,7.093-8.193a8.009,8.009,0,0,1,4.167,1.312C12.933,36.559,8.932,42.1,7.992,48.356Zm10.345,10.07a5.591,5.591,0,0,1,.921.243c-.781-.409-1.583-.734-2.329-1.222-5.834-3.813-6.3-11.127-3.754-14.828,1.34-1.946,3.254-2.829,5.4-3.588C7.683,40.316,6.173,54.772,18.338,58.426ZM46.5,23.95C52.208,13.729,59.224,6.293,71.015,7.136a13.458,13.458,0,0,1,9.1,4.188c-.466-.362-.81-.913-1.257-1.308-7.21-6.38-22.6-5.883-32.707,10.42C36.7,35.676,40.53,52.4,25.384,58.507,39.98,53.664,37.931,39.284,46.5,23.95ZM94.8,10.128c2.711,1.7,4.172,4.963,5.65,7.673,2.324,4.259,7.6,13.421,12.415,12.9a4.242,4.242,0,0,1-1.836-.582c-4.638-2.222-6.711-9.642-9.349-13.933-4.742-7.709-8.987-10.412-15.495-4.07C88.64,10.238,91.757,8.215,94.8,10.128Zm6.781,26.247a14.6,14.6,0,0,1,.946,2.844c2.165,7.029,3.775,13.641,9.227,16.489a9.333,9.333,0,0,0,7.415.412,9.205,9.205,0,0,1-6.348-.746c-5.387-2.981-8.579-14.035-11.24-19C101.582,36.375,101.815,36.81,101.583,36.375Zm8.124,5.991c5.5,5.541,11.1-1.441,11.1-1.441a10.166,10.166,0,0,0-.962.711c-3.881,2.653-7.379,3.477-12.97-6.381a37.524,37.524,0,0,0-3.091-5.322C105.486,33.515,106.8,39.432,109.707,42.366ZM108.02,59.3c6.223,2.435,9.965,2.995,11.774,9.691a9.126,9.126,0,0,1,.49,1.992,11.93,11.93,0,0,0-.278-1.8c-1.958-10.851-11.32-8.819-16.7-15.028-5.082-5.868-4.491-16.327-9.734-30.054C99.32,43.8,94.954,54.182,108.02,59.3ZM48.878-2.68a8.859,8.859,0,0,1,3.167-1.663C57.118-6.135,62.319-5.554,66.17-5.362c8.921.445,13.276,3.146,16.916,6.721C74.165-10.36,54.806-8.4,48.878-2.68ZM30.543,14.593A27.294,27.294,0,0,0,28.5,20.187a4.393,4.393,0,0,1,.367-.844A40.941,40.941,0,0,1,35.25,9.19C37.8,5.458,41.536,1.772,45.83.184,40.551,1.488,34.2,6.389,30.543,14.593ZM26.769,36.829a13.115,13.115,0,0,0-.384,2.194,7.642,7.642,0,0,1,.55-1.872,116.1,116.1,0,0,1,4.272-11.4c1.629-3.979,2.438-7.61,7.118-13.876C31.4,19.145,28.628,27.01,26.769,36.829ZM37.717,18.175C35.848,21.418,33.6,29,33.219,31.592a65.659,65.659,0,0,1,2.451-6.226c1.044-2.377,2.407-4.568,3.544-6.891,4.13-8.427,8.281-10.321,9.713-11.337C44.209,9.355,40.9,12.586,37.717,18.175Zm-15.17,33.3a9.573,9.573,0,0,0,6.3-2.409c3.328-2.8,3.689-10.491,3.559-11.17a4.514,4.514,0,0,1-.307,1.479c-1.354,5.6-3.636,7.477-4.3,8.266-3.477,4.154-8.414,2.87-11.021,2.693C18.579,50.922,20.626,51.677,22.547,51.478ZM91.468,4.35C93,4,95.121,3.442,97.341,4.6a12.354,12.354,0,0,1,1.375.97c-.456-.32-.765-.9-1.226-1.25-2.864-2.167-8.461-2.758-12.2,4.7A10.58,10.58,0,0,1,91.468,4.35Zm3.876,16.442c3.459,5.56,4.647,10.188,4.684,10.858-.172-3.008-1.872-9.055-3.807-11.791-3.236-4.578-7.136-6.233-10.952-1.991C89.356,14.193,92.415,16.085,95.344,20.792ZM77.972,4.353a19.322,19.322,0,0,1,5.663,8.029c.1.265.526.988.475,1.276.121-.67-1.582-8.377-5.555-11.194A18.069,18.069,0,0,0,66.412-.581,18.946,18.946,0,0,1,77.972,4.353ZM18.387,76.062a14.061,14.061,0,0,0,3.479,5.473,11.534,11.534,0,0,1-2.806-5.926c-.84-7.006,9.5-13.151,12.221-15.054C24.529,64.036,16.34,68.654,18.387,76.062Zm88.776,4.668a9.245,9.245,0,0,0,.17-5.668c-1.011-3.191-6.911-8.629-8.738-12.427,1.4,6.224,8.61,7.771,8.3,15.12-.384,9.028-13.7,9.043-14.63,16.894-.571,4.779,3.772,10.569-2.982,14.667a47.243,47.243,0,0,0-4.687,2.75c-1.131.879-1.741,1.707-.828,1.053,4.077-2.918,7.61-3.813,9.959-6.588,3.961-4.677-1.56-10.069,1.477-14.951,2.136-3.433,9.849-5.926,11.961-10.851C107.9,78.515,105.828,83.845,107.163,80.73Z" transform="translate(-5.637 8.512)"/><path d="M116.761,58.217c3.61-.163,5.963-2.044,6.615-6.34-2.128,3.272-5.414,3.873-7.493,2.795,7.55-5.936,5.95-16.359.765-23.476.5-2.163.052-4.17-2.982-5.958,1.951,1.656,1,4.823-1.112,4.517C109.809,5.266,94.5-3.7,83.474-.6c-9.059-6.515-19.143-9.946-30.74-6.9C29.5-1.411,23.334,18.719,20.01,38.99c-1.392-.946-3.316-2.082-4.973-2.1-4.165-.042-6.852,3.9-7.405,7.633-5.66,8.283.4,18.78,9.858,17.592C6.1,72.355,18.4,88.022,28.085,82.846a9.638,9.638,0,0,0,4.021-4.068c-3.244,4.174-9.089.435-8.866-3.9.307-5.944,9.347-9.3,13.591-13.618-1.758,3.512-12.3,9.177-8.638,15.481,0,0,.132.211.134.214-1.366-8.2,11.141-7.489,12.2-20.91C48.023,42.1,51.431,22.08,63.758,15.527c7.214-3.839,15.65-2.159,18.939,7.667,8.668-5.184,8.967,23.812,9.335,26.076a20.273,20.273,0,0,0,5.543,10.662c1.915,9.15,6.509,9.075,8.27,14.288a9.171,9.171,0,0,1,.214,4.906c-1.957,8.155-16.5,7.147-14.388,18.49.575,3.11,2.325,7.479-1.675,10.669-2.5,2.008-6,2.938-7.673,5.85,6.329-5.014,13.728-5.528,13.229-12.786a5.267,5.267,0,0,1-.181,5.609c.017-.019.522-.583.522-.609,4.244-5.061-2.935-7.735,1.561-13.6,3.945-5.143,20.648-11.193,17-20.307a23.409,23.409,0,0,1,1.535,3.378c-.313,2.041-1.974,4.39-3.324,5.9a18.917,18.917,0,0,0,6.273-2.078C126.715,74.811,126.762,64.914,116.761,58.217Zm-104.887.168c-3.719-1.406-6.481-7.5-4.45-12.07C7.181,50.618,8.7,55.452,11.874,58.384Zm-4.3-13.477c-.054.348-.094.7-.121,1.059-2.468,4.5-.127,11.441,4.825,12.78A13.171,13.171,0,0,0,19.1,61.769C8.693,63.717,2.751,53.061,7.571,44.907Zm21.874,26.84a6.177,6.177,0,0,0-1.314,4.638c-2.769-6.188,7.28-10.948,9.034-15.475a15.445,15.445,0,0,0,3.163-4.5C39.1,66.347,33.238,66.229,29.446,71.747ZM38.278,58.78c-4.04,5.705-13.382,8.067-15.233,14.744-1.243,4.446,4.05,9.893,8.531,5.951C23.188,91.7,4.861,73.9,17.745,62.084a13.836,13.836,0,0,0,1.5-.3c6.483.858,14.869-1.986,21.2-9.6a.014.014,0,0,0,.013-.013,39.564,39.564,0,0,0,4.115-6.065A63.792,63.792,0,0,1,38.278,58.78Zm44.847,54.478c2.373-2.769,5.912-3.213,8.2-5.757,3.717-4.14-.151-9.728.972-13.8,1.95-7.232,14.476-7.181,14.476-16.473-.059-7.622-6.857-7.395-9.114-17.2a23.268,23.268,0,0,0,9.315,6.105c1.3,1.77,3.571,6.8,1.367,9.785a7.381,7.381,0,0,0-1.078-6.407c-1.385-1.828-2.564-2.039-3.807-2.781,4.6,5.741,4.316,10.475,4.316,10.475,0,11.674-16.022,8.408-13.571,20.259.131.67.418,1.8.6,2.741a.116.116,0,0,0-.034-.02.12.12,0,0,1,.034.027C96.2,107.95,89.392,108.588,83.126,113.257ZM108.806,82.6c-4.64,4.29-11.59,5.369-14.174,12.653-.205-7.062,9-6.9,12.4-13.389a9.484,9.484,0,0,0,1.073-5.4c0-1.7-1.066-5.272-4.2-9.3,5.037,2.959,4.933,7.585,4.31,9.034,1.48-1.036,2.255-5.173-.657-9.571C113.029,71.664,114.242,77.162,108.806,82.6ZM113.6,71c1.737,2.5,1.866,6.3-3.089,11.259C104.1,88.051,92.852,90.84,96.148,99.875c.593,1.585,1.791,3.2.034,5.844.4-1.018.521-2.411-.643-4.6-.166-2-.763-3.756-.891-5.5,2.427-8.2,12.1-8.46,16.412-14.9,5.1-7.677-3.3-13.8-3.754-14.47,1.937.677,9.006,2.637,8.759,8.82A9.484,9.484,0,0,0,113.6,71Zm4.859,8.585a20.076,20.076,0,0,1-5.456,1.917c2.277-2.691,4.168-5.492,3.089-8.866-2.518-7.856-9.733-4.357-17.927-13.356-.075-.082-.922-1.035-.958-1.126-5.258-6.485-4.145-10.707-5.288-19.576-.868-6.816-3.07-18.8-9.195-15.668-1.911-6.194-6.481-10.155-13.336-9.5-13.958,1.348-19.185,18.9-23.161,27.423a.025.025,0,0,1-.007.02C32.4,70.425,6.017,64.053,7.932,45.37c.684-7.013,6.339-10.7,12.237-6.085C25.1.763,54.192-19.92,83.466-.309c9.955-3.3,25.131,6.652,28.79,30-1.992-.556-4.059-3.943-4.5-5.489a11.6,11.6,0,0,0,1.635,3.317c3.851,5.4,6.782.992,4.959-1.655,1.944,1.764,2.437,2.245,2.138,5.113a.052.052,0,0,1-.007.054c3.787,4.652,7.6,16.873-.738,23.57h-.007c-.054.047-.114.094-.168.134.734.619,4.613,2.018,7.533-2.138a6.832,6.832,0,0,1-6.816,5.442C126.841,65.337,125.675,75.232,118.464,79.582Z" transform="translate(-5.446 8.618)"/><g transform="translate(61.985 20.112)"><path class="at" d="M72.542,13.152Z" transform="translate(-72.542 -13.152)"/></g></g></g></g></g></svg>