<svg xmlns="http://www.w3.org/2000/svg" xmlns:xlink="http://www.w3.org/1999/xlink" width="272.719" height="210.699" viewBox="0 0 272.719 210.699"><defs><style>.a{fill:#f5f7ff;}.b{clip-path:url(#a);}.c{fill:#85481f;}.d{fill:#763810;}.e{fill:#f6e4e2;}.f,.x,.y{fill:#fff;}.g{fill:#e7c1bd;}.h{fill:none;stroke:#c8837c;stroke-width:1.277px;}.i{fill:url(#b);}.j{fill:#92002a;}.k{fill:#a1103a;}.l{fill:#830026;}.m{fill:#64001d;}.n{fill:#eed2cf;}.o{fill:url(#c);}.p{fill:#f771a9;stroke:#e85391;stroke-width:0.638px;}.q{fill:#c92066;}.r{fill:#ff8ebd;}.s{fill:#ffa8cc;}.t{fill:url(#d);}.u{fill:#7b5c33;stroke:#4d3009;stroke-width:0.426px;}.v{fill:#8a6d47;}.w,.y{opacity:0.9;}.x{opacity:0.6;}.z{fill:url(#e);}.aa{fill:url(#f);}.ab{fill:#c8837c;}.ac{fill:url(#g);}.ad{fill:url(#h);}.ae{fill:url(#i);}.af{fill:url(#j);}.ag{fill:url(#k);}.ah,.ai{fill:#a46c47;}.ai{opacity:0.1;}.aj{fill:#955932;}.ak{fill:#b38160;}.al{fill:#26120b;}</style><clipPath id="a"><path class="a" d="M6165.838,1743.613c15.662,19.4,84.12,36.417,146.992,24.416,50.869-9.71,97.368-44.66,113.905-65.108,18.154-22.448,3.07-50.35-21.55-81.386-24.6-31.01-59.353-64.831-92.355-59.683-27.264,4.252-49.45,14.242-86.2,59.683S6149.265,1723.088,6165.838,1743.613Z" transform="translate(-5169.024 -154.329)"/></clipPath><linearGradient id="b" x1="0.502" y1="1.006" x2="0.502" y2="0.187" gradientUnits="objectBoundingBox"><stop offset="0" stop-color="#e7c1bd" stop-opacity="0.8"/><stop offset="0.7" stop-color="#c8837c"/></linearGradient><linearGradient id="c" x1="0.5" y1="0.93" x2="0.5" y2="0.085" gradientUnits="objectBoundingBox"><stop offset="0.1" stop-color="#eed2cf"/><stop offset="1" stop-color="#e7c1bd"/></linearGradient><radialGradient id="d" cx="0.501" cy="0.507" r="0.8" gradientTransform="matrix(-0.634, 0, 0, 1, 3.944, 0.001)" gradientUnits="objectBoundingBox"><stop offset="0" stop-color="#fff"/><stop offset="0.544" stop-color="#fdfefe"/><stop offset="0.74" stop-color="#f6f8f9"/><stop offset="0.879" stop-color="#eaeff2"/><stop offset="0.992" stop-color="#d9e3e8"/><stop offset="1" stop-color="#d8e2e7"/></radialGradient><radialGradient id="e" cx="0.502" cy="0.48" fx="0.8725828528404236" fy="0.4815353453159332" r="0.577" gradientTransform="matrix(0.912, 0.021, 0.015, -0.8, 0.159, 0.825)" gradientUnits="objectBoundingBox"><stop offset="0" stop-color="#e7c1bd"/><stop offset="0.7" stop-color="#e7c1bd" stop-opacity="0.302"/><stop offset="1" stop-color="#f6e4e2" stop-opacity="0"/></radialGradient><radialGradient id="f" cx="0.501" cy="0.967" r="0.875" gradientTransform="matrix(0.633, -0.052, 0.033, 1.014, 0.285, 0.039)" gradientUnits="objectBoundingBox"><stop offset="0.9" stop-opacity="0"/><stop offset="1" stop-opacity="0.302"/></radialGradient><radialGradient id="g" cx="0.499" cy="0.507" r="0.8" gradientTransform="matrix(0.634, 0, 0, 1, 0.17, 0)" xlink:href="#d"/><radialGradient id="h" cx="0.498" cy="0.48" fx="0.8676720261573792" fy="0.4815352261066437" r="0.577" gradientTransform="matrix(-0.912, 0.021, -0.015, -0.8, 0.958, 0.854)" xlink:href="#e"/><radialGradient id="i" cx="0.499" cy="0.967" r="0.875" gradientTransform="matrix(-0.633, -0.053, -0.034, 1.014, -1.887, -0.064)" xlink:href="#f"/><radialGradient id="j" cx="0.502" cy="0.499" r="0.496" gradientTransform="translate(0)" gradientUnits="objectBoundingBox"><stop offset="0" stop-color="#fff" stop-opacity="0.502"/><stop offset="0.9" stop-color="#f6e4e2" stop-opacity="0"/></radialGradient><radialGradient id="k" cx="0.5" cy="0.514" r="0.514" gradientTransform="matrix(1, 0, 0, 1, 0, 0)" xlink:href="#j"/></defs><g class="b" transform="translate(-993 -1407)"><g transform="translate(1044.321 1414.248)"><g transform="translate(15 53.534)"><g transform="translate(19.62 24.363)"><path class="c" d="M112.658,34.211,41.032,30.136S22.983,161.772,22.983,165.887c0,0,72.627.518,103.584,0C125.989,160.187,112.658,34.211,112.658,34.211Z" transform="translate(-22.983 -30.136)"/><path class="d" d="M95.654,112.593c9.4,20.694,1.827,19.409,2.774,28.531.266,2.038.832,4.026,1.06,5.567.2,1.215.367,4.64.129,1.605a25.842,25.842,0,0,0-.749-3.492c-.248-.941-.543-1.949-.752-3.03-1.309-5.633,2.062-9.069,1.548-15.379C99.275,123,98.9,120.461,95.654,112.593Zm7.7,23.745c1.828,7.492,1.725,9.153-.218,19.262-.393,2-.583,3.229-.543,2.986.692-3.778,2.806-9.324,2.794-15.763.047-2.511-1.373-8.016-1.717-10.418,0,.019-.006-.05,0,.043-.585-8.193,3.5-13.966,2.759-25.4C106.9,120.611,100.663,125.675,103.356,136.339ZM59.268,106.583c.08.381.191.84.284,1.376.07.543.167,1.153.192,1.831.334,5.229-1.255,10.574-1.466,16.518.075,4.466,1.383,10.289,1.524,13.578a35.544,35.544,0,0,1,.068,3.79c-.029,1.463-.161,3.1-.3,4.8a71.708,71.708,0,0,0-.3,10.274c-.012,5.266-.151,7.752-.151,7.752-.01-.288.222-2.011.389-4.515.425-6.122.037-6.349,1.057-14.082a38.733,38.733,0,0,0,.3-10.72c0,.038,0,.044.005.05-.631-6.259-2.205-7.486-1.449-15.874a81.339,81.339,0,0,0,.642-9.91,20.937,20.937,0,0,0-.449-3.769A16.677,16.677,0,0,0,58.9,105.4S59.034,105.83,59.268,106.583ZM51.782,121c.089,5.561.335,7.543.189,9.9-.037.578-.071,1.079-.1,1.49-.431,7.2,2.374,6.978,2.72,23.274.016,1.655.092,3.17.054,4.434-.392,12,.917-7.375.084-16.143-.536-4.251-1.5-5.471-1.5-10.757a.72.72,0,1,0,0,.075c0-5.708.441,2.795-.448-11.705-.512-7.34,3.192-13.539,2.519-22.194C55.637,107.756,51.758,113.792,51.782,121Z" transform="translate(-27.43 -40.827)"/></g><g transform="translate(2.251 90.837)"><path class="e" d="M137.757,160.655c-4.325-7.312-9.7-8.618-14.128-10.031-4.551-1.451-13.925-2.288-19.038-3.311-4.938-.988-16.666-4.167-16.8-9.709-.138-5.806,3.089-28.857,3.089-28.857H53.646s3.23,23.05,3.091,28.857c-.132,5.542-11.862,8.72-16.8,9.709-5.113,1.024-14.486,1.86-19.037,3.311-4.431,1.413-9.807,2.719-14.131,10.031-2.623,4.434-4.325,11.613-4.325,19.53H142.084C142.083,172.267,140.385,165.089,137.757,160.655Z" transform="translate(-2.443 -108.747)"/><path class="f" d="M87.838,142.874c1.8,7.867,13.075,9.86,18.926,11.031,15.77,3.152,24.309,3.7,30.445,14.064,2.09,3.539,3.929,11.419,4.291,17.385,1.321.209.382-12.548-3.7-19.43-7.012-11.857-20.938-10.894-33.166-13.341-4.938-.988-16.666-4.167-16.8-9.709Zm-30.868,0c-.134,5.542-11.862,8.72-16.8,9.709C27.943,155.03,14.017,154.068,7,165.924c-4.079,6.883-5.018,19.64-3.7,19.43.362-5.966,2.2-13.847,4.291-17.385,6.136-10.369,14.675-10.912,30.445-14.064,5.851-1.171,17.13-3.165,18.926-11.031Z" transform="translate(-2.49 -114.017)"/><path class="g" d="M43.588,161.316s20.616.215,24.094,1.357c1.666.546,6.026,4.055,6.026,4.055s-4.719-2.282-6.232-2.705C63.962,163.04,43.588,161.316,43.588,161.316Zm34.974,7.548c1.478-.03,5.677-2.735,5.677-2.735a34.009,34.009,0,0,1-5.285,1.555,26.631,26.631,0,0,1-4.582-.891S77.351,168.887,78.563,168.864Zm12.39-5.213c4.859-1.309,21.44-2.325,21.44-2.325s-17.125-.371-21.961,1.242c-1.621.541-5.443,3.714-5.443,3.714A54.2,54.2,0,0,1,90.953,163.651Z" transform="translate(-8.796 -116.86)"/><path class="h" d="M137.757,160.655c-7.012-11.856-20.962-10.9-33.166-13.341-4.938-.988-16.666-4.167-16.8-9.709-.138-5.806,3.089-28.857,3.089-28.857H53.646s3.23,23.05,3.091,28.857c-.132,5.542-11.862,8.72-16.8,9.709-5.113,1.024-14.486,1.86-19.037,3.311-4.431,1.413-9.807,2.719-14.131,10.031-2.623,4.434-4.325,11.613-4.325,19.53H142.084C142.083,172.268,140.385,165.089,137.757,160.655Z" transform="translate(-2.443 -108.747)"/></g><g transform="translate(53.991 91.307)"><path class="i" d="M63.642,109.384c.461,3.331,2.525,18.511,2.94,25.778,4.648,2.624,10.231,4.805,15.224,4.805,4.736,0,10.326-2.159,15.031-4.764.41-7.253,2.48-22.483,2.941-25.819l.012-.081H63.631Z" transform="translate(-63.631 -109.303)"/></g><g transform="translate(1.199 114.176)"><path class="j" d="M1.285,192.4c.152-31.515,6.439-36.473,31.024-40.181,9.429-1.422,18.2-2.753,22.888-9.5-.987-1.037-1.3-2.4-.34-3.44a1.5,1.5,0,0,1,1.026-2.448c.143,1.029-.288.63,2,1.6,14.305,6.044,20.09,2.965,28.324.191,1.72-.582,1.94-.7,2.127-2.157a1.2,1.2,0,0,1,.641.513c.4.643-.235,1.463-.348,2.119.755.726.318,1.678-.31,2.521,11.167,18.505,47.418,1.11,53.439,31.977,1,8.912,1.159,18.5,1.17,19.4C142.205,193,48.106,193.242,1.285,192.4Z" transform="translate(-1.213 -136.367)"/><path class="k" d="M137.785,168.125c4.23,6.372,3.462,13.537,4.921,17.485,0-7.918-1.7-15.1-4.327-19.53-7.012-11.857-18.779-10.751-31.007-13.2-11.574-2.316-15.749-4.694-18.426-9C97.528,158.482,126.331,150.87,137.785,168.125ZM55.573,143.882c-2.677,4.305-6.853,6.683-18.426,9-12.228,2.447-23.995,1.342-31.007,13.2-2.627,4.434-4.327,11.613-4.327,19.53,1.459-3.948.691-11.113,4.921-17.485C18.189,150.87,46.992,158.482,55.573,143.882Z" transform="translate(-1.294 -137.512)"/><path class="l" d="M63.973,140.681c-1.857,6.623,29.276,6.184,21.683,6.375C79.309,147.221,62.309,145.636,63.973,140.681Zm26.353,5.65c7.482-2.465,8.408-5.609,8.408-5.609a2.287,2.287,0,0,1-.481.68,68.823,68.823,0,0,1-8.73,5.159A6.629,6.629,0,0,0,90.326,146.332Zm-4.186-1.212c10.225-1.29,12.125-5.216,12.125-5.216-3.1,4.765-21.588,7.484-33.795-.022A30.767,30.767,0,0,0,86.14,145.119Z" transform="translate(-10.874 -136.894)"/><path class="m" d="M141.812,173.561c-6.034-30.936-42.6-13.61-53.424-31.958.637-.858,1.044-1.836.274-2.577.292-.613.745-1.52.367-2.087a1.3,1.3,0,0,0-.769-.59l-.044.331h0c-.2,1.674-.885,1.294-4.291,2.678-13.354,5.571-23,.121-27.77-1.727-.18-.05-.188-.461-.188-.726,0,0-.01,0-.013.005l-.024-.169a1.557,1.557,0,0,0-1.244.638c0,.007-.007.007-.007.014a1.924,1.924,0,0,0,.072,1.865,2.477,2.477,0,0,0,.338,3.455c-10.916,15.633-45.054,2.063-52.049,28.173C1.536,177.4,1.2,191.115,1.2,192.459c0,0,44.9.823,141.721.59a.1.1,0,0,1,.065,0C142.986,192.326,142.814,182.479,141.812,173.561ZM1.279,192.2c.194-4.225.612-11.322,1.6-18.564,6.487-29.152,40.231-13.655,52.38-30.757,4.069,4.14,17.834,4.694,22.35,3.492-6.687.868-26.61-1.657-22.753-6.982a3.709,3.709,0,0,0,1.537,1.173c-.028.055.032-.059,0,0-.163-.23-1.178-1.291-1.243-1.458a1.982,1.982,0,0,1-.122-1.591.978.978,0,0,1,.557-.4c.258,1.74-.384.9,5.756,3.139,14.331,5.237,20.568.161,25.74-1.62a1.956,1.956,0,0,0,1.41-1.749.264.264,0,0,1,.1.1c.463.569.087,1.35-.137,2.045-.007.007-.007.021-.014.029a6.913,6.913,0,0,1-.683,1.325,3.114,3.114,0,0,0,.826-1.167c1.571,2.145-5.783,5.458-8.184,6.658,1.425-.57,5.432-1.141,7.861-4.1,11.705,19.939,50.621-.1,53.783,37.617.65,7.753.579,7.038.878,13.539C68.954,191.827,80.8,191.778,1.279,192.2Z" transform="translate(-1.199 -136.349)"/></g><g transform="translate(13.396 -7.248)"><g transform="translate(14.958 6.753)"><g transform="translate(0 0)"><path class="e" d="M77.125.738A43.64,43.64,0,0,0,34.753,55.5h0c.009.038,6,14.5,7.531,23.515,1.713,10.11,7.531,21.41,11.734,25.343,4.356,4.076,14.6,10.4,23.1,10.4,8.11,0,18.748-6.321,23.1-10.4,4.2-3.933,10.021-15.233,11.734-25.343,1.527-9.011,7.523-23.477,7.531-23.515h0A43.64,43.64,0,0,0,77.125.738Z" transform="translate(-33.312 -0.738)"/><path class="n" d="M103.685,11.344A44.318,44.318,0,0,1,118.827,45.01a45.676,45.676,0,0,1-1.372,11.072h0c-.008.038-5.715,14.5-7.168,23.515-1.632,10.111-7.168,21.41-11.169,25.343-4.147,4.077-14.272,10.4-21.991,10.4-8.1,0-17.845-6.321-21.991-10.4-4-3.933-9.537-15.232-11.168-25.343C42.511,70.586,36.8,56.12,36.8,56.082h0A45.606,45.606,0,0,1,35.424,45.01a44.315,44.315,0,0,1,15.14-33.665,43.5,43.5,0,0,0-15.81,45.792h0c.009.038,6,14.5,7.531,23.515C44,90.763,49.816,102.063,54.02,106c4.356,4.076,14.6,10.4,23.1,10.4,8.11,0,18.748-6.321,23.1-10.4,4.2-3.933,10.021-15.233,11.734-25.343,1.527-9.011,7.523-23.477,7.531-23.515h0a43.5,43.5,0,0,0-15.811-45.794Z" transform="translate(-33.312 -2.376)"/><path class="h" d="M77.125.738A43.64,43.64,0,0,0,34.753,55.5h0c.009.038,6,14.5,7.531,23.515,1.713,10.11,7.531,21.41,11.734,25.343,4.356,4.076,14.6,10.4,23.1,10.4,8.11,0,18.748-6.321,23.1-10.4,4.2-3.933,10.021-15.233,11.734-25.343,1.527-9.011,7.523-23.477,7.531-23.515h0A43.64,43.64,0,0,0,77.125.738Z" transform="translate(-33.312 -0.738)"/></g></g><g transform="translate(49.023 99.09)"><path class="o" d="M84.451,119.769a3.686,3.686,0,0,1-3.695-2.45,10.078,10.078,0,0,0,7.39-.105A4.266,4.266,0,0,1,84.451,119.769Z" transform="translate(-74.703 -111.06)"/><path class="p" d="M73.882,111.945c1.984-.685,5.019-1.938,6.6-2.008.816-.037,1.692.626,2.573.839.613.148,2.349-.832,2.973-.839,1.635-.017,5.082,1.323,6.84,2.008h0s-4.167,5-9.491,5c-6.026,0-9.492-5-9.492-5Z" transform="translate(-73.635 -109.936)"/><path class="q" d="M93.091,112.084c-.035-.118-.347-.264-.47-.258-.224.012-.484.285-.945.3-.534.013-3.368.439-4.129.389-1.532-.1-2.753.479-4.209.479s-2.784-.635-4.316-.532c-.761.052-3.489-.322-4.024-.336-.463-.011-.642-.3-.839-.334a.748.748,0,0,0-.545.243.836.836,0,0,0,.15.572c.205.214.818.174,1.222.184.559.012,3.295.387,4.067.335,1.5-.1,2.833.592,4.284.592s2.681-.64,4.179-.538c.771.051,3.61-.377,4.17-.389a2.6,2.6,0,0,0,1.191-.21A.714.714,0,0,0,93.091,112.084Z" transform="translate(-73.598 -110.222)"/><path class="r" d="M83.9,115.918a10.414,10.414,0,0,1-6.652-2.379c.941-.052,1.909-.2,2.851-.158,1.161.05,2.263.509,3.423.585a19.337,19.337,0,0,0,3.645-.5,28.593,28.593,0,0,1,3.664-.448C89,114.427,86.243,115.918,83.9,115.918Zm3.292-4.04c.946-.027,2.457-.383,3.4-.315a14.5,14.5,0,0,0-3.774-.9c-.983-.191-1.971.569-2.938.7-1.09.143-1.907-.892-2.965-.927a8.765,8.765,0,0,0-3.336,1.188,18.327,18.327,0,0,1,2.8-.009c1.127.143,2.209.588,3.351.626C84.9,112.281,86.023,111.909,87.191,111.878Z" transform="translate(-74.161 -110.013)"/><path class="s" d="M84.323,115.837a6.75,6.75,0,0,1-4.108-1.441c.274-.027.55-.048.816-.048.084,0,.168,0,.253.008a5.918,5.918,0,0,1,1.329.283,7.242,7.242,0,0,0,1.384.3c.1.007.19.011.284.011a6.684,6.684,0,0,0,1.69-.288,9.618,9.618,0,0,1,1-.225,3.846,3.846,0,0,1,.6-.042c.193,0,.392.011.589.026A6.521,6.521,0,0,1,84.323,115.837Z" transform="translate(-74.619 -110.618)"/></g><g transform="translate(26.738 50.756)"><g transform="translate(3.554 11.441)"><path class="t" d="M51.568,71.307c7.072-7.1,14.4-5.913,18.536-.948a5.794,5.794,0,0,1,.63,3.126A5.28,5.28,0,0,1,68.673,77a13.515,13.515,0,0,1-5.432,1.5,10.665,10.665,0,0,1-1.77,0,11.43,11.43,0,0,1-3.491-.873,13.333,13.333,0,0,1-5.526-4.353.121.121,0,0,0-.191,0l-.064.078a.14.14,0,0,0-.015.152,7.413,7.413,0,0,1-.484-.746l.013.007A1.56,1.56,0,0,1,51.568,71.307Z" transform="translate(-51.447 -66.307)"/></g><g transform="translate(7.918 11.517)"><g transform="translate(0 0)"><path class="u" d="M68.627,74.56a6.12,6.12,0,1,1-4.294-7.518A6.1,6.1,0,0,1,68.627,74.56Z" transform="translate(-56.607 -66.822)"/><path class="v" d="M67.933,75.682a4.956,4.956,0,0,1-9.649-2.011,21.992,21.992,0,0,1,2.81-.04c-.01.034-.028.063-.037.1a2.276,2.276,0,0,0,4.384,1.2,2.067,2.067,0,0,0,.067-.448A12.089,12.089,0,0,1,67.933,75.682Z" transform="translate(-56.863 -67.869)"/><path class="w" d="M64.3,71.882a2.225,2.225,0,0,0-2.793,1.57,2.361,2.361,0,0,0,1.645,2.837,2.227,2.227,0,0,0,2.8-1.564A2.364,2.364,0,0,0,64.3,71.882Zm.268,4.316a.919.919,0,0,1-1.178-.471.872.872,0,0,1,.68-1.039.923.923,0,0,1,1.18.469A.874.874,0,0,1,64.567,76.2Z" transform="translate(-57.352 -67.589)"/><path class="x" d="M59.727,77.536a1,1,0,0,1-1.263-.456.883.883,0,0,1,.1-1.272,1.007,1.007,0,0,1,1.263.455A.889.889,0,0,1,59.727,77.536Z" transform="translate(-56.861 -68.195)"/><path class="y" d="M68.906,72.984a2.3,2.3,0,0,1-2.894-1.04c-.734-1.093-.624-2.4.239-2.913a2.291,2.291,0,0,1,2.89,1.039C69.875,71.162,69.768,72.466,68.906,72.984Z" transform="translate(-57.984 -67.13)"/></g></g><path class="e" d="M47.244,70.772c0,9.939,5.962,17.994,13.316,17.994s13.316-8.055,13.316-17.994-5.962-18-13.316-18S47.244,60.832,47.244,70.772Zm3.808-.1.013.007a1.558,1.558,0,0,1-.145-1.46c7.072-7.1,14.4-5.913,18.536-.948a5.794,5.794,0,0,1,.63,3.126,5.28,5.28,0,0,1-2.06,3.517,13.515,13.515,0,0,1-5.432,1.5,10.665,10.665,0,0,1-1.77,0,11.43,11.43,0,0,1-3.491-.873,13.333,13.333,0,0,1-5.526-4.353.121.121,0,0,0-.191,0l-.064.078a.14.14,0,0,0-.015.152A7.521,7.521,0,0,1,51.051,70.671Z" transform="translate(-47.244 -52.776)"/><path class="z" d="M50.561,70.377c.017,6.161,5.5,11.127,12.264,11.1s12.226-5.054,12.209-11.217-5.5-11.13-12.265-11.1S50.544,64.215,50.561,70.377Zm1,1.279.013.007a1.558,1.558,0,0,1-.145-1.46c7.072-7.1,14.4-5.913,18.536-.948a5.794,5.794,0,0,1,.63,3.126,5.28,5.28,0,0,1-2.06,3.517A13.515,13.515,0,0,1,63.1,77.4a10.665,10.665,0,0,1-1.77,0,11.43,11.43,0,0,1-3.491-.873,13.333,13.333,0,0,1-5.526-4.353.121.121,0,0,0-.191,0l-.064.078a.14.14,0,0,0-.015.152A7.521,7.521,0,0,1,51.564,71.657Z" transform="translate(-47.756 -53.762)"/><path class="aa" d="M70.11,70.374a5.8,5.8,0,0,1,.623,3.112A5.28,5.28,0,0,1,68.673,77a13.515,13.515,0,0,1-5.432,1.5,10.667,10.667,0,0,1-1.77,0,11.43,11.43,0,0,1-3.491-.873,13.333,13.333,0,0,1-5.526-4.353.121.121,0,0,0-.191,0l-.064.078a.14.14,0,0,0-.015.152,7.412,7.412,0,0,1-.484-.746l.013.007a1.558,1.558,0,0,1-.145-1.46c3.653-3.67,7.373-5.121,10.688-4.987A11.6,11.6,0,0,1,70.11,70.374Z" transform="translate(-47.893 -54.866)"/><path class="ab" d="M71.61,67.652c-7.64-4.128-12.67-4.975-21.424.627C54.435,65.129,61.125,60.926,71.61,67.652Z" transform="translate(-47.698 -54.518)"/><path d="M67.485,77.3l.589.158-1.448.18,1.137.457a10.942,10.942,0,0,0-1.862-.06c-4.806,1.115-9.736.146-12.511-2.655a3.489,3.489,0,0,0-1.184.076l.832-.438c-.244-.453-.695-.358-2.149-.29.684-.22,1.388-.433,1.332-.6l-.509-.785a.132.132,0,0,1,.012-.159l.064-.073a.122.122,0,0,1,.1-.043.124.124,0,0,1,.1.046A12.912,12.912,0,0,0,68.2,76.65Zm3.549-7.642a7.924,7.924,0,0,0-2.02-1.482,7.592,7.592,0,0,1,1.337-.369l-2.228-.271c-4.383-2.4-7.153-2.58-11.759-1-.574.2-2.053-.243-3.344-.676l1.463,1.407a11.067,11.067,0,0,1-2.549-.4l1.584.906c-.684.5-1.4.468-3.566.4l1.759.947a3.034,3.034,0,0,1-2.146-.034,4.025,4.025,0,0,0,1.078.836,5.641,5.641,0,0,1-2.285-.2,4.492,4.492,0,0,0,1.264,1.057l-.77.317,1.091.4-.758.471a3.686,3.686,0,0,1,2.051.659,1.417,1.417,0,0,1-.145-1.388c7.538-7.2,15.368-5.436,19.312.078l-.53-.967.975.921-.894-1.247.806.429-.773-1.1Z" transform="translate(-47.416 -54.742)"/></g><g transform="translate(63.523 50.756)"><g transform="translate(4.418 11.441)"><path class="ac" d="M115.154,71.307c-7.072-7.1-14.4-5.913-18.536-.948a5.794,5.794,0,0,0-.63,3.126A5.28,5.28,0,0,0,98.049,77a13.515,13.515,0,0,0,5.432,1.5,10.665,10.665,0,0,0,1.77,0,11.43,11.43,0,0,0,3.491-.873,13.333,13.333,0,0,0,5.526-4.353.121.121,0,0,1,.191,0l.064.078a.14.14,0,0,1,.015.152,7.414,7.414,0,0,0,.484-.746l-.013.007A1.56,1.56,0,0,0,115.154,71.307Z" transform="translate(-95.97 -66.307)"/></g><g transform="translate(7.123 11.517)"><g transform="translate(0 0)"><path class="u" d="M111.189,74.56a6.12,6.12,0,1,1-4.294-7.518A6.1,6.1,0,0,1,111.189,74.56Z" transform="translate(-99.169 -66.822)"/><path class="v" d="M110.495,75.682a4.956,4.956,0,0,1-9.649-2.011,21.992,21.992,0,0,1,2.81-.04c-.01.034-.028.063-.037.1a2.276,2.276,0,0,0,4.384,1.2,2.067,2.067,0,0,0,.067-.448A12.09,12.09,0,0,1,110.495,75.682Z" transform="translate(-99.425 -67.869)"/><path class="w" d="M106.861,71.882a2.225,2.225,0,0,0-2.793,1.57,2.361,2.361,0,0,0,1.645,2.837,2.227,2.227,0,0,0,2.8-1.564A2.364,2.364,0,0,0,106.861,71.882Zm.268,4.316a.919.919,0,0,1-1.178-.471.872.872,0,0,1,.68-1.039.923.923,0,0,1,1.18.469A.873.873,0,0,1,107.129,76.2Z" transform="translate(-99.914 -67.589)"/><path class="x" d="M102.289,77.536a1,1,0,0,1-1.263-.456.883.883,0,0,1,.1-1.272,1.007,1.007,0,0,1,1.263.455A.889.889,0,0,1,102.289,77.536Z" transform="translate(-99.423 -68.195)"/><path class="y" d="M111.468,72.984a2.3,2.3,0,0,1-2.894-1.04c-.734-1.093-.624-2.4.239-2.913a2.291,2.291,0,0,1,2.89,1.039C112.437,71.162,112.33,72.466,111.468,72.984Z" transform="translate(-100.546 -67.13)"/></g></g><path class="e" d="M104.824,52.776c-7.354,0-13.316,8.056-13.316,18s5.962,17.994,13.316,17.994,13.316-8.055,13.316-17.994S112.179,52.776,104.824,52.776Zm9.024,18.641a.14.14,0,0,0-.015-.152l-.064-.078a.121.121,0,0,0-.191,0,13.332,13.332,0,0,1-5.526,4.353,11.409,11.409,0,0,1-3.491.873,10.512,10.512,0,0,1-1.77,0,13.515,13.515,0,0,1-5.432-1.5A5.278,5.278,0,0,1,95.3,71.4a5.794,5.794,0,0,1,.63-3.126c4.137-4.965,11.464-6.155,18.536.948a1.558,1.558,0,0,1-.145,1.46l.013-.007A7.434,7.434,0,0,1,113.848,71.417Z" transform="translate(-90.863 -52.776)"/><path class="ad" d="M103.011,59.16c-6.761-.032-12.249,4.935-12.265,11.1s5.45,11.181,12.209,11.217,12.247-4.935,12.264-11.1S109.77,59.2,103.011,59.16ZM113.731,72.4a.14.14,0,0,0-.015-.152l-.064-.078a.121.121,0,0,0-.191,0,13.332,13.332,0,0,1-5.526,4.353,11.41,11.41,0,0,1-3.491.873,10.512,10.512,0,0,1-1.77,0,13.515,13.515,0,0,1-5.432-1.5,5.278,5.278,0,0,1-2.06-3.517,5.794,5.794,0,0,1,.63-3.126c4.137-4.965,11.464-6.155,18.536.948a1.558,1.558,0,0,1-.145,1.46l.013-.007A7.434,7.434,0,0,1,113.731,72.4Z" transform="translate(-90.745 -53.762)"/><path class="ae" d="M96.612,70.374a5.8,5.8,0,0,0-.623,3.112A5.28,5.28,0,0,0,98.049,77a13.515,13.515,0,0,0,5.432,1.5,10.667,10.667,0,0,0,1.77,0,11.43,11.43,0,0,0,3.491-.873,13.332,13.332,0,0,0,5.526-4.353.121.121,0,0,1,.191,0l.064.078a.14.14,0,0,1,.015.152,7.414,7.414,0,0,0,.484-.746l-.013.007a1.558,1.558,0,0,0,.145-1.46c-3.653-3.67-7.373-5.121-10.688-4.987A11.6,11.6,0,0,0,96.612,70.374Z" transform="translate(-91.552 -54.866)"/><path class="ab" d="M94.726,67.652c7.64-4.128,12.67-4.975,21.424.627C111.9,65.129,105.21,60.926,94.726,67.652Z" transform="translate(-91.36 -54.518)"/><path d="M97.911,76.651a12.911,12.911,0,0,0,16.219-3.537.124.124,0,0,1,.1-.046.122.122,0,0,1,.1.043l.064.073a.132.132,0,0,1,.012.159l-.509.785c-.056.168.647.38,1.332.6-1.455-.068-1.905-.163-2.149.29l.832.438a3.487,3.487,0,0,0-1.184-.076c-2.774,2.8-7.7,3.77-12.511,2.655a10.942,10.942,0,0,0-1.862.06l1.137-.457-1.448-.18.589-.158Zm-1.789-7.294-.773,1.1.806-.429L95.26,71.27l.975-.921-.53.967c3.944-5.514,11.773-7.273,19.312-.078a1.417,1.417,0,0,1-.145,1.388,3.691,3.691,0,0,1,2.051-.659l-.758-.471,1.091-.4-.77-.317a4.479,4.479,0,0,0,1.264-1.057,5.641,5.641,0,0,1-2.285.2,4,4,0,0,0,1.078-.836,3.03,3.03,0,0,1-2.146.034l1.759-.947c-2.169.063-2.882.1-3.566-.4l1.584-.906a11.067,11.067,0,0,1-2.549.4l1.463-1.407c-1.292.433-2.771.872-3.344.676-4.606-1.577-7.376-1.395-11.759,1l-2.228.271a7.591,7.591,0,0,1,1.337.369,7.89,7.89,0,0,0-2.02,1.482Z" transform="translate(-91.414 -54.742)"/></g><g transform="translate(29.643 21.244)"><path class="af" d="M108.744,90.9A29.033,29.033,0,1,1,79.667,61.915,29.031,29.031,0,0,1,108.744,90.9Z" transform="translate(-50.678 -24.675)"/><path class="ag" d="M105.716,43.068A25.193,25.193,0,1,1,80.523,17.875,25.194,25.194,0,0,1,105.716,43.068Z" transform="translate(-51.397 -17.875)"/></g><g transform="translate(24.5 51.102)"><path class="ah" d="M44.6,63.5c11.809-14,31.4-10.31,27.4-8.422C70.608,55.729,56.331,52.894,44.6,63.5Z" transform="translate(-44.596 -53.185)"/></g><g transform="translate(65.187 51.169)"><path class="ah" d="M120.572,63.5c-7.5-6.759-15.714-8.358-25.734-8.317-3.023.011-2.185-1.232-1.329-1.482C96.194,52.923,110.708,51.857,120.572,63.5Z" transform="translate(-92.713 -53.265)"/></g><g transform="translate(54.358 85.092)"><path class="g" d="M84.425,101.534c-1.372-.042-3.813-1.455-3.522-2.727.27-1.181,1.806.43,3.571.445s3.873-1.038,4.121.147C88.994,101.312,86.636,101.6,84.425,101.534Z" transform="translate(-80.057 -94.153)"/><path class="ab" d="M87.343,100.045a.258.258,0,0,0,.422,0,.44.44,0,0,0,.014-.528c-.828-1.066-2.317.363-2.205.511C85.617,100.083,86.719,99.25,87.343,100.045ZM81.175,97.33c.174,1.134.535,2.647,3.434,3.44-2.859-.084-4.718-.615-4.7-3.276a14.052,14.052,0,0,1,1.414-4.111A21.736,21.736,0,0,0,81.175,97.33Z" transform="translate(-79.906 -93.382)"/></g><path class="ai" d="M113.482,21.455c-3.413-2.514-73.777.475-76.337,4.338-2.228,3.361-4.285,144.863-3.9,144.9,9.906.793,39.529.651,60.845.232-14.662-.587-46.815-1.874-47.312-1.905-1.087-9.573.633-18.146,1.581-22.875.21-1.049.376-1.877.47-2.514l.013-.107a23.88,23.88,0,0,0-.831-7.762c-.765-3.456-1.558-7.031-.385-12.2,1.635-7.183.469-12.138-.469-16.119a28.168,28.168,0,0,1-.78-4.166c-.231-3.062,1.108-4.854,2.659-6.93a13.312,13.312,0,0,0-.174-15.312c-3.187-4.437-2.524-5.776-1.44-8.123,1.1-2.38,2.606-5.64.857-11.914-1.29-4.63-3.056-10.971,9.272-18.669A64.406,64.406,0,0,1,69.2,36.9c4.539-1.731,10.657-6.765,12.505-9.979.813,7.716,5.979,15.344,9.357,18.849,4.634,4.807,8.294,8.6,6.4,22.346-.8,5.81.389,8.55,1.436,11.722a38.817,38.817,0,0,1,1.566,4.777c.675,3.159-.023,6.143-.993,9.3a28.324,28.324,0,0,0-.859,8.872c.625-1.9,2.709-5.395,3.039-7.664.872-6,1.923-38.982,1.844-42.731a20.811,20.811,0,0,1,6.139,19.5c-.636,2.514-2.054,11.593-2.282,14.534-.456,5.891.229,4.534-.052,8.392-.271,3.769-1.612,5.721-3.974,9.706-5.467,9.335-3.227,14.726-1.061,19.939a31.209,31.209,0,0,1,2.073,6.228c.841,4.358-.812,10.588-2.411,16.612-1.537,5.792-3.125,11.78-2.657,16.664.113,1.162,1.293,4.5,1.862,6.792,7.957-.2,13.892-.433,15.738-.654C123.213,169.354,120.085,26.32,113.482,21.455Z" transform="translate(-18.337 2.959)"/><path class="ah" d="M124.7,42.447c-.261-9.134-2.2-16.947-5.765-23.245-.888-4.584-2.7-10.428-8.854-14.964-3.246-2.39-9.829-4.939-16.043-6.217-8.391-7.754-8.905-.865-17.766-4.439-2.082-.84-3.533-1.413-6.842.8A32.462,32.462,0,0,0,56.6-6.25,28.919,28.919,0,0,0,45.126-.536C39.391,1.011,35.3,3.573,32.981,7.079a17.229,17.229,0,0,0-2.947,10.278,21.789,21.789,0,0,0-2.022,7.41,74.545,74.545,0,0,0-5.505,9.088C21.2,36.413,18.972,48.285,20.2,53.472c-8.622,15.342-2.827,22.376.7,35.126-2.585,6.051-2.569,11.556.054,17.891-2.955,11.636-6.24,13.31-3.261,41.964,1.62,15.582.953,16.036.953,20.246l.071-.072c8.057-.06,11.929-2.687,16.467-2.123.692.042,6.925.6,7.127.619,57.339,4.592,52.687-.974,84.368-1.5-.595-5.832-1.278-21.885-.256-28.287a63.293,63.293,0,0,0-2.684-28.506c3.105-5.844,2.812-8.815.837-14.716,3.99-11.669,5.684-17.593,3.2-28.606C130.549,57.516,128.959,49.84,124.7,42.447ZM106.4,79.226c-.265,3.82.64,7.646.36,11.48-.316,4.394-1.988,6.771-4.264,10.642-6.922,11.821-.356,16.066,1.269,24.668,1.777,9.208-5.948,23.991-5.038,33.477.173,1.778,1.2,6.173,1.586,7.829-14.545,1.644-49.894.062-58.145-.542-1.9-12.792,1.321-24.3,1.827-27.74.586-6.093-3.317-10.775-1.172-20.239,2.164-9.5-.931-14.813-1.3-19.643-.716-9.492,10.825-9.747,2.866-21.171C37.263,67.747,46.817,69.2,43.5,57.3c-1.3-4.685-3.49-12.527,10.207-21.079C64.6,29.41,74.916,29.706,79.179,21.338c4.443,23.361,20.645,16.371,17.009,42.8C95.119,71.9,97.288,73.4,98.66,79.89c1.415,6.621-2.943,11.99-2.849,18.618,1.774-5.388,6.4-10.472,6.543-16.093.107-4.467-1.751-8.771-1.713-13.25.028-3.576,1.085-7.058,1.642-10.534,2.67-16.6-11.288-17.156-14.7-29.943l.13-.058c8.075,12.462,14.463,16.241,18.862,24.3C112.449,63.707,107.023,69.951,106.4,79.226Z" transform="translate(-15.635 7.235)"/><path class="aj" d="M105.956,168.039c-1.765.274-3.343.51-5.117.712-1.822-8.89-2.192-9.975,1.476-22.443,5.449-18.492,3.4-19.247.468-27.885-3.729-10.948,3.146-13.979,5.5-21.32,1.332-4.175.813-8.414.353-12.683-1.065-10.012,4.548-16,1.447-25.625-3.412-10.6-11.841-14.143-22.35-29.577a39.154,39.154,0,0,1-.715-4.312c9.306,14.74,25.716,22.275,26,33.406.2,7.845-4.209,24.233-2.306,34.958,1.159,6.534-5.039,10.8-6.478,17.275-2.159,8.638,6.478,15.836,3.6,23.753A51.873,51.873,0,0,0,105.956,168.039ZM37.295,42.164c-6.478,7.918.72,17.995-3.6,27.352-4.319,7.918,4.319,17.995-.72,27.352-2.159,5.039,2.989,10.115,1.44,14.4-7,19.341-3.47,37.8-2.964,56.7a16.175,16.175,0,0,1,3.906-.344c.512-10.662-3.175-18.693-3.426-23.465-.259-5.067,2.123-8.3,2.994-12.561,1.231-6.054-.274-13.41,1.915-19.132,1.368-3.9-.957-7.967-1.432-11.7-.633-4.931,2.023-9.451,2.03-12.6C37,82.842,34.264,79.97,34.659,75.544c.23-2.649,1.31-4.988,2.289-7.421,2.951-7.364-.338-8.782-.741-15.13C35.391,40.261,57.062,26.568,73.95,23.069,59.538,21.847,45.152,31.688,37.295,42.164ZM36.141,26.328c-6.449,6.538-6.026,14.3-6.683,23.563-.519,7.322-9.308,13.851-7.888,20.945,2.814,14.05,6.779,23.319,3.572,38.6-.8,3.793.921,8.306.921,11.9-2.26,6.749-2.572,13.665-2.568,21.166a110.488,110.488,0,0,0,1.848,22.741,13,13,0,0,1-.114,4.481c.781-.118,1.575-.276,2.482-.489,2.174-10.933-2.2-28.526-1.044-34.414,1.256-6.666,3.305-7.663,2.742-15.029-.288-3.549-.9-8.17-.943-11.459-.146-10.368,5.347-14.954,1.749-23.984-.727-1.828-1.526-3.621-2.246-5.456-3.757-9.562,1.169-14.681,4.175-22.127,1.67-4.124,1.62-5.665,1.116-10.646-.619-6.154-1.447-14.957,14.806-25.351,9.434-6.033,18.1-6.357,25.107-6.316C58.163,11.252,45.358,16.986,36.141,26.328ZM72.717,5.12a49.667,49.667,0,0,0-15.484-1.5C44.123,4.7,30.684,12.637,29.458,26.782,35.64,8.969,53.092,1.039,72.717,5.12ZM94.039,43.393C89.811,38.615,79.094,28.68,81.152,17.075a20.714,20.714,0,0,1-1.505,5.63c4.072,19.322,17.563,18.031,18.73,33.818C98.886,53.714,96.035,45.648,94.039,43.393ZM76.075,24.85c.03.014.06.025.089.039-.03-.014-.06-.025-.089-.039C63.755,32.575,42.945,33.7,39.454,50.8c-.911,4.465,3.638,12.978,0,19.435-2.849,5.056,2.879,12.237,2.879,16.555s-2.879,7.918-3.6,12.956c-.72,3.6,1.44,6.478,2.159,10.077.72,4.319-2.159,8.638-1.44,12.237,3,24.088-5.493,17.688.59,45.972.69.062,1.463.125,2.346.185a61.32,61.32,0,0,1-.6-16.375c1.108-13,2.93-8.58.367-19.615-2.087-8.99-.166-10.142.223-15.85.36-5.3-1.3-10.048-1.965-13.244-2.289-10.883,7-12.46,4.815-18.895a22.741,22.741,0,0,0-2.843-4.931c-5.456-8.615,1.023-10.022.576-16.721-.331-5.125-5.039-12.042,4.218-20.809,12.489-11.826,28.175-8.605,33.3-20.61A40.8,40.8,0,0,1,76.075,24.85Zm40.4,112.328c.72-6.478-.814-12.689-2.973-19.167-1.44-7.2,4.751-11.255,5.841-18.066,1.3-8.118-4.844-14.852.024-26.582,5.512-13.28,2.591-25.764-6.105-31.562C102.7,34.54,96.427,26.782,90.98,15.055c4.849,25.234,21.126,27.308,25.377,40.745,2.843,8.983-2.8,16.2-2.115,26.136.292,4.29,2.117,8.366,1.526,12.733-1.073,7.824-8.724,12.46-7.047,22.278.741,4.355,2.44,8.436,2.822,12.87.6,6.845-.691,13.748-.108,20.881.489,5.989,1.526,4.543.044,16.506,1.484-.2,5.133-.272,6.627-.288C116.111,157.065,114.656,146.867,116.473,137.177ZM84.994,6.52c7.46,2.382,9,9.989,18.235,17.638,3.9,3.239,11.229,6.86,17.267,13.532C111.179,24.906,93.139,6.52,84.994,6.52Zm2.843-3.036c7.279-.046,11.914.96,19.3,5.054A31.086,31.086,0,0,1,118.25,18.932C115.926,11.62,101.7-.531,87.837,3.484Zm36.733,91c3.419-11.769,4.571-18.628,3.246-26.453C124.585,76.618,120.241,81.674,124.57,94.483ZM28.152,27.663c-3.671,6.176-5.506,14.367-5.91,17.059-.432,2.937-1.483,5.924-1.008,8.861C29.113,39.917,27.308,39.768,28.152,27.663ZM23.618,165.249c-7.6-33.545,4.009-46.129-1.306-55.813-4.218,14-5.689,14.741-3.6,42.946a151.528,151.528,0,0,1,.331,17.679,33.84,33.84,0,0,0,4.457-.332A11.117,11.117,0,0,0,23.618,165.249ZM21.429,91.064a26.255,26.255,0,0,0,.367,14.381A28.052,28.052,0,0,0,21.429,91.064Zm104.644,38.213c-.172-8.623-1.137-14.086-2.383-18.1-2.253,4.081-4.952,8.048-4.232,12.82.266,1.756.835,3.419,1.2,5.146,1.267,5.982-1.425,9.653-.417,19.219.377,3.561,1.839,6.879,1.4,18.665,3.138.085,3.874.014,4.988.014C123.273,140.521,126.233,137.314,126.074,129.277Z" transform="translate(-15.955 5.714)"/><path class="ak" d="M32.69,27.816a51.778,51.778,0,0,1,6.841-9.959C52.539,3.494,70.921,8.845,73.967,8.723c-1.766.071-12.479-2.09-22.831,2C40.737,14.838,36.281,21.869,32.69,27.816Zm29.461-15.5a47.857,47.857,0,0,1,14.577,2.621c-.968-.455-8.528-3.117-14.266-3.118-5.276,0-10.292,2.131-14.96,4.375C52.149,14.153,57.005,12.335,62.152,12.312Zm8.925,6.408c.175-.022,4.982-.548,5.062-.394a5.725,5.725,0,0,0-1.047.005C57.174,18.37,39.456,27.86,34.7,42.263,40.409,27.4,59.246,20.23,71.076,18.72ZM64.751,22.4A43.751,43.751,0,0,0,54.577,26.62a28.44,28.44,0,0,1,4.013-1.815c10.342-4.114,15.956-3.351,17.118-3.3A30.3,30.3,0,0,0,64.751,22.4ZM43.214,42.51C48.726,34.9,65.385,30.491,73.956,25.878,64.357,30.611,49.773,33.45,43.214,42.51ZM20.186,66.234C18.8,70.912,21.224,78.5,22.807,83.155c-1.045-3.078-3.091-12.149-1.764-16.5,1.828-5.989,5.814-11.035,7.458-17.106C26.263,56.334,21.723,61.049,20.186,66.234ZM38.572,98.6a9.8,9.8,0,0,0-.512,1.914,6.055,6.055,0,0,1,.561-1.528c3.445-9.153,4.045-11.571-.461-20.732C40.819,85.033,41.691,87.167,38.572,98.6Zm-8.389,23.844c0,.124.053,2.247.112,2.355-.1-.178,0-.685.007-.878.184-9.635,4.964-13.043,1.118-23.362C34.334,110.569,30.26,111.405,30.182,122.446Zm8.611,11.489c-.456,3.673-2.324,9.134-2.449,16.362-.017.931.168,1.863.15,2.791.02-1.117-.05-2.223.023-3.342.347-5.255,1.527-7.976,2.2-11.823,1.44-7.7.132-8.807-.305-16.748C38.439,126.1,39.255,130.227,38.793,133.936ZM32.4,83.408a27.012,27.012,0,0,1,1.2,9.2c-.037-1.188.679-2.686-.736-9.364-3.521-16.583,2.65-10.681,1.222-27.09C34.771,72.949,28.174,67.29,32.4,83.408Zm61.27-40.2c11.127,13.957,1.937,26.833,6.164,34.1-3.235-5.564,2.6-16.486-1.461-27.6-2.519-6.89-9.219-11.008-12.9-18.633-1.837-3.8-3.381-7.619-3.631-11.869C82.215,31.182,91.4,40.357,93.67,43.206Zm2.478-7.456a35.574,35.574,0,0,0,6.207,5.573,18.55,18.55,0,0,1-2.462-2.164C88.486,28.153,88.175,19.3,87.479,14.109,88.373,24.228,89.857,28.931,96.147,35.749Zm3.765-9.669c6.871,9.18,29.78,21.462,24.912,38.231l-1.509,4.77c3.585-8.531,3.927-14.959-2.628-24.105-6.03-8.412-15.33-12.391-21.338-20.01-.96-1.216-1.774-2.524-2.664-3.789A57.91,57.91,0,0,0,99.912,26.08Zm18.873.59C115.755,16.1,103.648,7.818,90.721,7.5,104.594,8.568,116.636,19.169,118.785,26.67ZM76.607,23.978c2.914-2.507,4.987-4.35,5.982-14.136C81.829,15.321,80.622,20.523,76.607,23.978Zm44.53,77.085c-.2,5.478-2.478,8.029-3.988,11.673-3.384,8.169.7,13.814,1.45,20.6.006.051.217,2.2.175,2.234a1.562,1.562,0,0,0-.014-.274c-.14-8.917-4.48-13.717-.785-22.444,3.035-7.173,5.522-8.764,1.61-23.45C120.149,92.212,121.3,96.6,121.138,101.063ZM106.844,120.8c2.992,8.209,2.234,7.76,2.58,9.489a26.936,26.936,0,0,0-.529-4.081c-1.077-4.907-3.431-9.175-2.846-14.962.57-5.63,4.655-9.478,5.016-14.6a18.451,18.451,0,0,0-.384-4.718C112.537,105.013,101.029,104.864,106.844,120.8Zm5.06-48.13a21.175,21.175,0,0,1-.546,2.66,56.058,56.058,0,0,0,1.579-6.422c2.39-10.967-.06-14.507-6.845-23.287C111.978,54.286,115.148,56.916,111.9,72.674Z" transform="translate(-16.264 4.97)"/><path class="d" d="M128.125,50.272a35.875,35.875,0,0,0-3.369-7.839c-.2-7.047-1.5-15.742-5.766-23.257-.95-4.9-2.835-10.552-8.882-15.008-3.2-2.354-9.681-4.916-16.037-6.212-4.556-4.211-6.4-4.232-10.429-3.556-7.983,1.332-8.221-4.218-14.209-.1a32.563,32.563,0,0,0-12.856-.633A28.7,28.7,0,0,0,45.1-.618H45.1C39.92.778,35.443,3.2,32.91,7.026a17.191,17.191,0,0,0-2.951,10.286,21.675,21.675,0,0,0-2.015,7.4,74.913,74.913,0,0,0-5.449,8.976C21.11,36.4,18.879,48.2,20.126,53.424a37.862,37.862,0,0,0-3.038,6.428,30.352,30.352,0,0,0-1.339,6.14A27.518,27.518,0,0,0,17.2,77.415c1.526,4.614,2.764,8.1,3.628,11.142-2.786,6.522-2.39,12.042.05,17.9-.547,2.152-1.267,4.571-2.174,7.378-5.219,16.117.007,35.169-.007,49.724,0,1.368-.058,3.225-.122,4.974a1.063,1.063,0,0,0-.007.151.483.483,0,0,0,.144,0,29.433,29.433,0,0,0,6.881-.691c.065-.014.13-.029.2-.043.828-.18,1.771-.4,2.908-.67A18.754,18.754,0,0,1,35,166.547a1.4,1.4,0,0,1,.166.014c1.54.094,3.549.331,6.982.6.05.008.094.008.144.015,2.332.187,5.312.4,9.235.583,4.412.188,8.81.5,13.223.735,7.205.374,14.417.6,21.63.353,4.592-.159,9.293-.454,13.971-1.015.086-.007.173-.022.266-.029,2.1-.259,4.2-.561,6.277-.944,1.483-.266,2.75-.474,3.851-.641l.331-.043a51.92,51.92,0,0,1,9.825-.461c.13,0,.266.007.4.007,1.368.008,2.973.008,5.024-.043.137,0,.274-.007.418-.007a1.4,1.4,0,0,1-.015-.18c-.827-9.48-1.108-22.8-.252-28.166A62.229,62.229,0,0,0,125,112.864a39.346,39.346,0,0,0-1.21-4.016,21.079,21.079,0,0,0,1.987-4.88c.879-3.613-.043-6.6-1.144-9.847,2.116-6.19,4.254-13.309,4.355-17.167a46.572,46.572,0,0,0-1.152-11.438A23.274,23.274,0,0,0,128.125,50.272ZM21.911,43.188c.4-2.692,2.239-10.883,5.91-17.059-.36,5.161.187,10.38-1.886,16.037A65.1,65.1,0,0,1,20.9,52.049C20.428,49.112,21.479,46.125,21.911,43.188ZM20.738,90.962c.1-.49.223-.965.36-1.432a28.052,28.052,0,0,1,.367,14.381A27.314,27.314,0,0,1,20.738,90.962Zm63.206,77.1c-7.666.158-15.411-.18-23.07-.569-4.592-.23-9.177-.389-13.77-.547-1.936-.065-3.541-.151-4.887-.245-1.936-12.676,1.425-24.877,1.835-27.662.59-6.133-3.318-10.769-1.173-20.234,2.174-9.545-.929-14.813-1.3-19.665-.569-7.536,6.478-8.933,5.6-15.525-.6-4.556-5.521-7.451-5.521-12.165.648-4.513,3.671-6,2.325-12.51-.885-4.3-5.7-13.028,9.746-22.674,10.783-6.737,21.248-6.593,25.4-14.72a30.27,30.27,0,0,0,6.449,14.569c2.75,3.246,6.082,6.075,8.3,9.753C98.65,53.792,96,62.926,95.778,66.957c-.258,4.592,1.872,8.551,2.8,12.935.957,4.478-.792,8.63-2.008,12.863a20.187,20.187,0,0,0-.835,5.276,8.166,8.166,0,0,0,.007.864c.05-.144.094-.288.144-.432,2.1-5.9,6.392-10.531,6.528-16.059.108-4.492-1.749-8.767-1.713-13.252.029-3.577,1.08-7.018,1.641-10.523,2.462-15.3-9.177-17.038-13.712-27.151a18.329,18.329,0,0,1-.986-2.822c.741,1.144,1.5,2.267,2.289,3.383,6.709,9.523,12.589,13.619,16.571,20.91,5.859,10.754.438,16.966-.187,26.258-.266,3.844.641,7.644.36,11.48-.317,4.4-2.037,6.831-4.254,10.61-6.1,10.423-1.836,14.713.827,22.8,0,.007,0,.007.008.014a.054.054,0,0,0,.007.029c.043.209.287,1.18.417,1.871,1.778,9.214-5.953,23.933-5.039,33.471.136,1.4.827,4.6,1.569,7.759C96.655,167.634,92.235,167.894,83.944,168.059Zm41.8-40.316c.166,8.4-2.72,9.9.446,36.861.036.259.073.561.115.9-.346,0-.684.007-1.022.014-1.324.029-2.642.008-3.966-.028.072-1.943.086-4.147.007-6.63-.266-8.356-.915-7.349-1.411-12.035-1.008-9.566,1.684-13.237.417-19.219-.367-1.727-.936-3.39-1.2-5.146-.72-4.772,1.979-8.739,4.232-12.82C124.6,113.656,125.57,119.12,125.742,127.743Zm-2.354-23.673c-.216.669-.461,1.332-.741,1.979-.094.238-.2.482-.31.72-1.375,3.066-3.2,5.923-4.312,9.1-1.979,5.622.13,9.617.705,11.963,1.094,4.456-.23,9.105-.253,13.6-.029,7.918,2.476,8.882,2.426,24.034a60.421,60.421,0,0,0-9.76.2c1.483-11.963.446-10.516-.044-16.506-.583-7.133.705-14.036.108-20.881-.382-4.434-2.081-8.515-2.822-12.87-1.677-9.819,5.974-14.454,7.047-22.278a13.217,13.217,0,0,0,.114-2.066c-.065-3.592-1.4-7.068-1.64-10.667-.684-9.94,4.959-17.153,2.115-26.136C111.683,40.546,94.8,38.689,90.347,11.913c2.5,18.312,10.33,24.214,17.786,32.391,14.4,15.807,2.613,21.832,3.88,37.106.338,4.009,2.073,8.127,1.094,12.157-1.893,6.7-7.536,12.093-6.881,19.759.389,4.578,2.469,8.8,3.246,13.309,1.555,9-.792,14.166,1.418,27.036a46,46,0,0,1-.094,12.042c-4.4.641-7,1.13-10.293,1.5-.36-1.756-.72-3.6-1.037-5.326-1.051-5.744.908-11.661,2.512-17.117,5.449-18.492,3.4-19.247.468-27.885-3.729-10.948,3.146-13.979,5.5-21.32,1.332-4.175.813-8.414.353-12.683-1.065-10.012,4.548-16,1.447-25.625-2.685-8.342-9.832-13.971-15.361-20.378a100.438,100.438,0,0,1-6.989-9.2c-1.08-4.643-1.124-10.12-1.4-14.137.151,4.218-.029,8.753.677,13.043.036.252.078.5.13.756A20.954,20.954,0,0,0,89,33.709c3.232,5.809,9.934,10.149,11.718,16.008,1.907,7.2-1.663,13.136-1.281,19.91.253,4.492,2.253,8.768,2.131,13.295-.122,4.463-3.677,9.105-5.614,14.44.54-5.341,4.016-10.408,3.6-15.951-.331-4.376-2.562-8.393-2.655-12.805-.086-4.247,3.455-13.165-1.166-21.817C91.672,39.18,83.935,36.5,80.48,25.641a46.026,46.026,0,0,1-1.166-4.47A16.531,16.531,0,0,0,80.589,17.1a24.374,24.374,0,0,0,.345-2.829A18.836,18.836,0,0,1,79.265,20.9c-.066.122-.122.245-.18.36C73.83,31.32,59.066,28.678,46.852,40.246,37.6,49.013,42.3,55.93,42.634,61.055A12.439,12.439,0,0,1,42.49,63.8c-1.476,4.887-4.859,6.989-.432,13.979A22.741,22.741,0,0,1,44.9,82.707c2.181,6.435-7.1,8.011-4.815,18.895.669,3.2,2.325,7.947,1.965,13.244-.389,5.708-2.311,6.86-.223,15.85,2.562,11.035.741,6.615-.367,19.615a61.32,61.32,0,0,0,.6,16.375c-3.484-.238-5.283-.518-6.852-.59a54.729,54.729,0,0,0-1.31-15.491c-.475-2.217-1.144-4.42-1.4-6.68-.7-6.233,2.642-9.573,3.455-14.857.95-6.19.252-13.165,1.915-17.231,1.828-4.463-.072-7.652-.756-11.525-1.562-8.825,4.412-9.055.194-20.01-1.972-5.118-1.764-6.867-.223-10.9a33.084,33.084,0,0,0,2.095-6.953c.885-6.133-7.054-11.488,2.9-23.393C50.912,28.477,66.207,22.841,73.794,21.5,56.5,24.288,35.094,38.2,35.875,51.46c.517,8.777,3.739,5.956.741,15.13-.814,2.493-2.059,4.772-2.289,7.421-.4,4.427,2.339,7.3,2.778,12.611-.007,3.153-2.663,7.673-2.03,12.6.475,3.736,2.8,7.8,1.432,11.7-2.188,5.722-.684,13.079-1.915,19.132-.871,4.261-3.253,7.493-2.994,12.561a32.32,32.32,0,0,0,1.267,6.392,56.99,56.99,0,0,1,2.159,17.074c-2.008-.078-3.736.2-8.278,1.354-.31.078-.6.151-.885.216,2.131-9.465-.533-24.639-.346-31.773.108-4.088,2.555-8.7,3.261-12.38.813-4.276-.849-12.036-.381-18.032.489-6.176,1.871-8.494,2.858-12.834,2.08-9.221-3.462-13.582-4.5-20.19C25.668,65.576,31.621,59,32.9,51.677c1.324-7.587-4.592-14.526,5.564-25.215,12.755-13.439,27.064-13.338,34.8-13.518-7.342-.065-16.836-.367-27.259,6.3C29.757,29.636,30.585,38.44,31.2,44.594c.5,4.981.554,6.521-1.116,10.646-1.54,3.815-3.577,7.011-4.7,10.5a16.268,16.268,0,0,0,.525,11.625c.72,1.835,1.519,3.628,2.246,5.456a16.551,16.551,0,0,1,.835,2.534c.05.238.266,1.288.31,1.4.648,7.457-3.016,11.344-2.894,20.054.043,3.289.655,7.911.943,11.459a26.305,26.305,0,0,1,.094,3.93c-.331,3.52-2.037,6.86-2.836,11.1-1.152,5.888,3.218,23.48,1.044,34.414a29.349,29.349,0,0,1-6.939.821,151.532,151.532,0,0,0-.331-17.679c-.965-13-2.181-24.264,1.332-35.63.785-2.534,1.483-4.728,2.08-6.708.194-.626.374-1.239.54-1.821,1.987-6.982,2.4-11.524-.086-20.277-.043-.166-.094-.338-.144-.511-.338-1.173-.727-2.419-1.173-3.757-3.275-9.84-5.168-15.6-.158-25.928q.281-.594.6-1.209c.122-.238.245-.475.374-.713C24.473,49.229,27.734,44,28.54,38.188c.691-4.974.108-9.7.734-14.36.043-.367.1-.734.166-1.1a21.812,21.812,0,0,1,.756-3c.115-.338.238-.677.374-1.015a19.923,19.923,0,0,1,3.11-5.269C39.208,6.61,48.284,2.8,56.9,2.09c7.925-.655,15.677,1.36,23.214,3.592-7.673-2.455-15.562-4.636-23.7-4.052A36.827,36.827,0,0,0,40.755,6.358a29.549,29.549,0,0,0-7.241,5.773,23.066,23.066,0,0,0-2.836,3.829,16.288,16.288,0,0,1,3.973-9.113A19.914,19.914,0,0,1,42.432,2c.3-.115.612-.23.929-.338C53-1.689,66.423-1.783,73.441.513A53.435,53.435,0,0,1,78.66,2.572,50.792,50.792,0,0,0,73.773.3a36.789,36.789,0,0,0-8.81-2.03.361.361,0,0,0-.086-.014,56.593,56.593,0,0,0-17.527.59A33.854,33.854,0,0,1,52.733-3.69,32.9,32.9,0,0,1,67.489-5.18c.346.043.7.086,1.051.137.216.029.432.065.648.094,3.117.482,6.413,1.418,8.407,3.916-1.4-2.1-4.225-3.57-7.486-4.484,2.57-1.483,3.628-1.008,7.608.77a10.035,10.035,0,0,0,5.622.741C87.19-4.54,88.2-5.339,92.315-2.373c-5.982-.993-11.567-.734-13.878,2.03-.1.122-.2.252-.288.381,2.663-3.21,9.157-2.93,15.786-1.173.5.13,1.015.274,1.526.425,5.888,1.735,11.653,4.52,14.712,6.924A21.754,21.754,0,0,1,117.919,17.4,31.092,31.092,0,0,0,106.806,7.006a46.1,46.1,0,0,0-7.155-3.318,1.736,1.736,0,0,0-.18-.058C95.318,2.2,91.459,1.845,86.126,1.967c2.139.079,4.218.2,6.342.489,7.781,1.051,14.065,5.111,19.557,10.344,2.742,2.613,5.852,7.558,8.263,13.655a58.822,58.822,0,0,1,3.721,14.734,35.965,35.965,0,0,0-2.655-3.649c-.777-6.363-2.634-12.4-9.25-18.319a38.291,38.291,0,0,0-8.8-5.578,35.468,35.468,0,0,1,8.429,6.277,36.773,36.773,0,0,1,8.429,16.239C114.126,29.485,106.8,25.865,102.9,22.626c-6.406-5.3-10.005-11.286-13.46-14.482a19.294,19.294,0,0,0-4.88-3.21,19.843,19.843,0,0,1,3.772,2.433A24.75,24.75,0,0,1,91.5,10.742l.41.518c4.535,5.737,7.666,10.459,16.211,16.3a51.094,51.094,0,0,1,12.755,11.812c.266.367.518.734.77,1.108a34.11,34.11,0,0,1,2.649,4.671c.166.353.324.705.475,1.065.115.274.23.547.338.828a30.807,30.807,0,0,1,2.2,8.789,20.987,20.987,0,0,1-.6,6.032c-.036.158-.078.317-.122.475a51.886,51.886,0,0,1-2.806,6.953c-7.357,16.138-2.663,21.587-.77,27.777.094.31.18.619.259.936A12.866,12.866,0,0,1,123.388,104.069Zm.849-11.121a26.862,26.862,0,0,1-1.792-10.819c.368-6.111,3.146-10.6,5.039-15.634C128.809,74.319,127.657,81.179,124.238,92.949Z" transform="translate(-15.623 7.248)"/><g transform="translate(58.769 19.179)"><path class="al" d="M85.124,15.433Z" transform="translate(-85.124 -15.433)"/></g></g></g></g></g></svg>