<svg xmlns="http://www.w3.org/2000/svg" xmlns:xlink="http://www.w3.org/1999/xlink" width="272.719" height="210.699" viewBox="0 0 272.719 210.699"><defs><style>.a{fill:#f5f7ff;}.b{clip-path:url(#a);}.c{fill:#351f15;}.d{fill:#26130b;}.e,.p{fill:#f0c7b1;}.f{fill:#ffe4d6;}.g{fill:#e1ac8f;}.h{fill:none;}.h,.p{stroke:#c27b55;stroke-width:1.191px;}.i{fill:url(#b);}.j{fill:#f3f1f4;}.k{fill:#cfc8d7;}.l{fill:#131111;}.m{fill:#386e77;}.n{fill:#4d7e86;}.o{fill:#0c4049;}.q{fill:#c27b55;}.r{fill:#e8b9a0;}.s{fill:url(#c);}.t{fill:url(#d);}.u{fill:#7b5c33;}.af,.v{opacity:0.7;}.v{fill:url(#e);}.ag,.w{opacity:0.4;}.w{fill:url(#f);}.x{opacity:0.9;}.ah,.ai,.y,.z{opacity:0.5;}.y{fill:url(#g);}.z{fill:url(#h);}.aa,.aj{opacity:0.75;}.aa{fill:url(#i);}.ab{fill:url(#j);}.ac{fill:url(#k);}.ad{fill:#0f190c;}.ae{fill:url(#l);}.af{fill:url(#m);}.ag{fill:url(#n);}.ah{fill:url(#o);}.ai{fill:url(#p);}.aj{fill:url(#q);}.ak{fill:url(#r);}.al{fill:url(#s);}.am{fill:url(#t);}.an{fill:url(#u);}.ao{fill:#2a232b;}.ap{fill:#fff5ef;opacity:0.2;}.aq{fill:#543c32;}.ar{fill:#452c22;}.as{fill:#504543;}.at{fill:#634e45;}.au{fill:#26120b;}</style><clipPath id="a"><path class="a" d="M6165.838,1743.613c15.662,19.4,84.12,36.417,146.992,24.416,50.869-9.71,97.368-44.66,113.905-65.108,18.154-22.448,3.07-50.35-21.55-81.386-24.6-31.01-59.353-64.831-92.355-59.683-27.264,4.252-49.45,14.242-86.2,59.683S6149.265,1723.088,6165.838,1743.613Z" transform="translate(-5838.024 155.671)"/></clipPath><linearGradient id="b" x1="0.5" y1="0.979" x2="0.5" y2="-0.007" gradientUnits="objectBoundingBox"><stop offset="0" stop-color="#e1ac8f" stop-opacity="0.8"/><stop offset="0.7" stop-color="#c27b55"/></linearGradient><linearGradient id="c" x1="0.455" y1="0.946" x2="0.455" y2="-0.01" gradientUnits="objectBoundingBox"><stop offset="0.1" stop-color="#e8b9a0"/><stop offset="1" stop-color="#e1ac8f"/></linearGradient><radialGradient id="d" cx="0.479" cy="0.469" r="1.264" gradientTransform="matrix(-0.412, 0.052, 0.024, 1.09, 3.489, -0.177)" gradientUnits="objectBoundingBox"><stop offset="0" stop-color="#fff"/><stop offset="0.544" stop-color="#fdfefe"/><stop offset="0.74" stop-color="#f6f8f9"/><stop offset="0.879" stop-color="#eaeff2"/><stop offset="0.992" stop-color="#d9e3e8"/><stop offset="1" stop-color="#d8e2e7"/></radialGradient><radialGradient id="e" cx="0.499" cy="0.5" r="0.497" gradientTransform="matrix(0.974, -0.247, 0.249, 0.969, 11.108, -14.828)" gradientUnits="objectBoundingBox"><stop offset="0" stop-color="#fff"/><stop offset="1" stop-color="#fff" stop-opacity="0"/></radialGradient><radialGradient id="f" cx="0.487" cy="0.499" r="0.497" gradientTransform="matrix(1.006, 0.011, -0.011, 1, -0.206, 0.608)" xlink:href="#e"/><linearGradient id="g" x1="26.728" y1="0.86" x2="27.205" y2="0.291" gradientTransform="matrix(1, 0, 0, 1, 0, 0)" xlink:href="#e"/><linearGradient id="h" x1="21.685" y1="0.207" x2="21.383" y2="0.641" gradientTransform="matrix(1, 0, 0, 1, 0, 0)" xlink:href="#e"/><linearGradient id="i" x1="11.261" y1="0.178" x2="10.911" y2="0.655" gradientTransform="matrix(1, 0, 0, 1, 0, 0)" xlink:href="#e"/><radialGradient id="j" cx="0.503" cy="0.48" fx="0.8962991833686829" fy="0.4663388133049011" r="0.639" gradientTransform="matrix(0.755, 0.141, 0.083, -0.761, 0.405, 0.589)" gradientUnits="objectBoundingBox"><stop offset="0" stop-color="#e1ac8f"/><stop offset="0.7" stop-color="#e1ac8f" stop-opacity="0.302"/><stop offset="1" stop-color="#f0c7b1" stop-opacity="0"/></radialGradient><radialGradient id="k" cx="0.377" cy="2.895" r="2.773" gradientTransform="translate(0.212) scale(0.413 1)" gradientUnits="objectBoundingBox"><stop offset="0.95" stop-opacity="0"/><stop offset="1" stop-opacity="0.2"/></radialGradient><radialGradient id="l" cx="0.521" cy="0.469" r="1.264" gradientTransform="matrix(0.412, 0.052, -0.024, 1.09, 0.31, -0.074)" xlink:href="#d"/><radialGradient id="m" cx="0.499" cy="0.5" r="0.497" gradientTransform="matrix(0.974, -0.247, 0.249, 0.969, 10.994, -15.913)" xlink:href="#e"/><radialGradient id="n" cx="0.487" cy="0.499" r="0.497" gradientTransform="matrix(1.007, 0.011, -0.011, 1, -0.172, 0.657)" xlink:href="#e"/><linearGradient id="o" x1="0.197" y1="0.86" x2="0.675" y2="0.291" gradientTransform="matrix(1, 0, 0, 1, 0, 0)" xlink:href="#e"/><linearGradient id="p" x1="0.704" y1="0.207" x2="0.402" y2="0.641" gradientTransform="matrix(1, 0, 0, 1, 0, 0)" xlink:href="#e"/><linearGradient id="q" x1="0.736" y1="0.178" x2="0.386" y2="0.655" gradientTransform="matrix(1, 0, 0, 1, 0, 0)" xlink:href="#e"/><radialGradient id="r" cx="0.497" cy="0.48" fx="0.8910142183303833" fy="0.4663125276565552" r="0.639" gradientTransform="matrix(-0.755, 0.141, -0.083, -0.761, 0.913, 0.776)" xlink:href="#j"/><radialGradient id="s" cx="0.623" cy="2.895" r="2.773" gradientTransform="matrix(-0.413, 0, 0, 1, -2.234, 0)" xlink:href="#k"/><radialGradient id="t" cx="0.5" cy="0.5" r="0.5" gradientTransform="translate(0)" gradientUnits="objectBoundingBox"><stop offset="0" stop-color="#ffe4d6" stop-opacity="0.502"/><stop offset="0.9" stop-color="#f0c7b1" stop-opacity="0"/></radialGradient><radialGradient id="u" cx="0.5" cy="0.5" r="0.493" gradientTransform="matrix(1, 0, 0, 1, 0, 0)" xlink:href="#t"/></defs><g class="b" transform="translate(-324 -1717)"><g transform="translate(389.939 1775.838)"><g transform="translate(-0.99 -5.692)"><g transform="translate(35.575 78.277)"><path class="c" d="M107.669,83.259c-32.619-.7-65.188.014-65.89.014-1.876,2.815-2.929,8.064-2.3,10.948.655,2.954,3.115,5.617,3.97,11.544a7.365,7.365,0,0,0,.21,1.936c.245.7,1.418,2.248,2.342,2.413l.351-.043a1.186,1.186,0,0,0,1.48.638c1.063,2.027,2.173-.318,3.6.926,2.373,1.934,2.688.034,4.615-.653,1.505-.028,3.53,2.406,5.407.534,3.857-3.755,5.668,3.156,9.1,1.311.7-.355,2.751-1.894,4.18-1,2.727-1.722,4.01,3.62,8.107-.035,3.944-3.517,4.666.948,7.518.358,1.3-.3,1.738-1.246,3.051-1.171,1.861.7,2.279,2.551,4.608.653,1.412-1.227,2.509,1.067,3.606-.926a1.182,1.182,0,0,0,1.479-.638l.358.043c.872-.165,2.086-1.7,2.343-2.413.342-1.093-.221-3.874,2.531-9.44C111.137,92.535,110.682,87.432,107.669,83.259Z" transform="translate(-39.297 -82.951)"/><path class="d" d="M107.669,83.259c-32.619-.7-65.188.014-65.89.014-1.876,2.815-2.929,8.064-2.3,10.948.655,2.954,3.115,5.617,3.97,11.544a7.365,7.365,0,0,0,.21,1.936c.245.7,1.418,2.248,2.342,2.413l.351-.043a1.186,1.186,0,0,0,1.48.638c1.063,2.027,2.173-.318,3.6.926,2.373,1.934,2.688.034,4.615-.653,1.505-.028,3.53,2.406,5.407.534,3.857-3.755,5.668,3.156,9.1,1.311.7-.355,2.751-1.894,4.18-1,2.727-1.722,4.01,3.62,8.107-.035,3.944-3.517,4.666.948,7.518.358,1.3-.3,1.738-1.246,3.051-1.171,1.861.7,2.279,2.551,4.608.653,1.412-1.227,2.509,1.067,3.606-.926a1.182,1.182,0,0,0,1.479-.638l.358.043c.872-.165,2.086-1.7,2.343-2.413.342-1.093-.221-3.874,2.531-9.44C111.137,92.535,110.682,87.432,107.669,83.259Zm.049,14.651c-3.866,7.173-1.57,10.2-4.215,11.319a.267.267,0,0,0-.1.021,4.966,4.966,0,0,1-.8-.323c0,.011-.133.414-.252.729a.753.753,0,0,1-.14.182.407.407,0,0,0-.091.056c-.259.059-.654-.273-.9-.442-.667,1.591-.713,1.291-1.3,1.1-2.095-.658-2.3.588-3.24.975-.951.358-1.525-.95-3.128-1.424-1.78-.12-2.375,1.016-3.43,1.227-1.822.384-3.763-3.819-7.75.056-3.551,3.453-4.509-1.517-7.652.168-3.083-1.764-4.073,3.293-7.68-.21-3.866-3.662-6.1-.1-6.9.007-1.34.29-1.811-.912-3.64-1.262-1.992,0-2.6,1.861-3.724,1.438-.943-.388-1.142-1.633-3.24-.975-.7.224-.7.33-1.3-1.1-.241.167-.637.5-.9.442a.4.4,0,0,0-.091-.056,2.687,2.687,0,0,1-.393-.912,5.5,5.5,0,0,1-.8.323.216.216,0,0,0-.091-.021,1.662,1.662,0,0,1-.512-.47c-1.165-1.5-.994-.827-1.143-3.051-1.276-8.549-8-12.17-2.49-22.309,21.141.433,43.976.488,65.841.014C110.838,89.508,110.024,93.542,107.718,97.91Z" transform="translate(-39.297 -82.951)"/></g><g transform="translate(0.874 90.588)"><path class="e" d="M137.052,151.441c-1.54-3.329-5.747-8.261-10.422-9.624-5.778-1.685-18.822-3.723-23.658-4.855-3.877-.909-11.686-7.921-14.422-10.274a2.962,2.962,0,0,1-.9-1.936c-.1-7.619,2.942-27.86,2.942-27.86H49.677s3.04,20.24,2.941,27.86a2.957,2.957,0,0,1-.9,1.936c-2.737,2.354-10.545,9.366-14.422,10.274-4.837,1.133-17.88,3.239-23.658,4.925-4.676,1.362-8.882,6.225-10.422,9.554C.614,157.057,0,167.22,0,175.987H140.266C140.266,167.221,139.651,157.057,137.052,151.441Z" transform="translate(0 -96.892)"/><path class="f" d="M111.621,144.2c17.072,2.484,24.256,6.107,26.506,35.572h2.139c0-8.767-.615-18.93-3.214-24.547-1.54-3.329-5.747-8.261-10.422-9.624-5.778-1.685-18.822-3.723-23.658-4.855-3.877-.909-12.794-8.464-15.179-11.467,2.356,3.3,8.971,10.944,14.766,12.947A45.471,45.471,0,0,0,111.621,144.2ZM37.708,142.23c5.8-2,12.409-9.647,14.766-12.947-2.385,3-11.3,10.558-15.179,11.467-4.836,1.133-17.88,3.239-23.658,4.925-4.674,1.362-8.882,6.225-10.422,9.554C.616,160.845,0,171.009,0,179.776H2.14C4.376,150.5,11.59,146.685,28.646,144.2A45.439,45.439,0,0,0,37.708,142.23Z" transform="translate(0 -100.68)"/><path class="g" d="M71.182,154.517s-3.559-1.128-4.968-1.668c-7.328-2.812-31.136-4.634-31.136-4.634s25.075,1,30.609,1.949c-.321-3.343-2.116-14.029-2.116-14.029s3.611,11.793,4.495,14.768C68.539,152.492,71.182,154.517,71.182,154.517Zm7.574-.941c-.062.051-.134.118-.212.188A1.591,1.591,0,0,0,78.755,153.575Zm-7.574.941s2.029,2.1,3.049,2.125c1.34.036,3.386-2.033,4.314-2.878a8.41,8.41,0,0,1-3.724,1.007C73.887,154.806,71.182,154.517,71.182,154.517Zm14.741-5.273c-1.084.174-3.076.553-3.076.553l1.6-10.443c-.453,2.154-3.138,11.369-5.695,14.222,1.34-1.133,4.319-1.677,5.838-1.9,7.179-1.041,7.176-1.04,28.8-3.465C113.391,148.214,93,148.106,85.922,149.243Z" transform="translate(-4.102 -101.481)"/><path class="h" d="M137.052,151.441c-1.54-3.329-5.747-8.261-10.422-9.624-5.778-1.685-18.822-3.723-23.658-4.855-3.877-.909-11.686-7.921-14.422-10.274a2.962,2.962,0,0,1-.9-1.936c-.1-7.619,2.942-27.86,2.942-27.86H49.677s3.04,20.24,2.941,27.86a2.957,2.957,0,0,1-.9,1.936c-2.737,2.354-10.545,9.366-14.422,10.274-4.837,1.133-17.88,3.239-23.658,4.925-4.676,1.362-8.882,6.225-10.422,9.554C.614,157.057,0,167.22,0,175.987H140.266C140.266,167.221,139.651,157.057,137.052,151.441Z" transform="translate(0 -96.892)"/></g><g transform="translate(52.146 97.089)"><path class="i" d="M76.937,132.726c5.739,0,11.832-3.467,16.972-7.487,0-4.7,1.018-13.4,1.86-19.781a155.082,155.082,0,0,0-37.708-.107c.83,6.284,1.841,14.872,1.873,19.651C65.084,129.15,71.187,132.726,76.937,132.726Z" transform="translate(-58.061 -104.255)"/></g><g transform="translate(0 114.21)"><path class="j" d="M58.292,181.014c-29.985,0-51.279-.239-58.6-.656-2.264-29.077,11.957-35.287,18.18-36.607a59.278,59.278,0,0,1,8.9-1.349c5.935-.551,10.632-.988,21.109-8.575.367.467,1.262,1.654,2.913,3.892a24.994,24.994,0,0,0,20.12,10.173h0c8.981,0,17.4-4.667,23.157-12.814,10.559,6.49,12.785,6.7,18.1,7.189,1.751.162,3.93.365,6.872.849a22.805,22.805,0,0,1,18.237,13.175c3.089,6.384,4.223,14.863,3.2,23.906-8.168.453-44.72.818-82.178.818Z" transform="translate(0.938 -124.834)"/><path class="k" d="M119.748,143.408c-11.754-1.936-12.12-.87-25.823-8.865-11.556,16.691-32.5,16.745-42.865,2.953-.22-.3-2.908-3.946-3.17-4.208-15.1,11.009-18.211,7.484-30.283,10.2s-20.251,12.2-18.312,36.9c.007.084.007.161.021.245,18.341,1.119,127.444.692,141.423-.161C141.741,162.98,140.325,146.757,119.748,143.408ZM-.348,180.376c-.321-15.475,2.051-32.394,18.417-35.7,12.127-2.448,14.92.771,29.729-11.011.778,1.164,1.683,2.609,2.693,4.194,9.27,14.237,31.189,16.483,43.518-2.805,1.3,1,2.826,2.118,4.538,3.219,16.261,10.735,42.6-3.3,41.834,42C94.508,179.434,46.153,179.45-.348,180.376Z" transform="translate(0.99 -124.771)"/><path class="l" d="M83.435,183.779c-1.946,0-7.523.146-11.58-.161l-.007-.12c-.574-13.085.792-21.544,3.182-27.554l.034-.086L75,155.792a21.541,21.541,0,0,0-2.829-2.122,24.847,24.847,0,0,1-3.041-2.277,11.339,11.339,0,0,1,1.647-1.544c.172-.088.815-.591,4.19-3.486l.254-.217a13.485,13.485,0,0,1,2.622-.205,26.61,26.61,0,0,1,4.567.395,17.373,17.373,0,0,1,2.916,5.029,6.365,6.365,0,0,1-2.607,3,20.31,20.31,0,0,0-1.86,1.481l-.058.053.015.078c2.824,14.244,2.824,17.571,2.824,20.789,0,1.417,0,4.635.238,7C83.769,183.778,83.62,183.779,83.435,183.779Z" transform="translate(-7.21 -126.25)"/><path d="M85.451,151.349a17.245,17.245,0,0,0-3-5.161,22.3,22.3,0,0,0-7.343-.168c-.076.062-4.382,3.775-4.425,3.689a11.363,11.363,0,0,0-1.767,1.676c1.445,1.456,4.667,3.2,5.961,4.489-2.56,6.438-3.738,15.142-3.191,27.618.007.077.007.161.014.238a122.008,122.008,0,0,0,12.308.156c-.814-7.93,1.009-7.332-3.079-27.95C83.079,153.976,84.409,153.835,85.451,151.349ZM81.769,164.7c-.015-.035-.028-.07-.036-.091,1.4,7.4.968,13.067,2.028,18.916-3.321-.223-8.426-.036-11.762-.036.259-5.048.833-22.221,3.324-27.871.119-.032.238-.059.357-.088l-.724,24.361L76.882,155.3l.042-.006,1.263,22.867.292-22.957h.054l2.945,25.5-1.613-25.344c.22.044.441.1.661.163a.135.135,0,0,1,.07.021C80.67,156.245,81.253,161.435,81.769,164.7Zm-.618-9.685a8.079,8.079,0,0,0-6.4.168c-1.179-1.271-2.861-2.158-5.281-3.781.386-.336.884-.75,1.55-1.269.056,0,2.441-1.943,2.483-1.985.645-.589,1.22-1.255,1.767-1.837,2.055-.084,5.071.014,6.887.1a27.444,27.444,0,0,1,2.812,4.867A14.673,14.673,0,0,1,81.151,155.018Z" transform="translate(-7.185 -126.232)"/><path class="j" d="M60.894,163.933c-8.089-28.1-6.981-19.219-9.136-30.258a52.639,52.639,0,0,1,6.081-9.661l.056-.06c1.607,16.837,6.283,9.563,16.68,19.442C68.631,147.362,63.121,157.656,60.894,163.933Zm40.094-30c-1.016-2.6-5.785-8.184-6.583-9.028,1,14.5-10.622,11.608-17.077,18.375,6.18,4.007,12.044,14.49,14.147,20.658C100.489,138.212,98.643,148.6,100.987,133.932Z" transform="translate(-5.179 -123.679)"/><path class="k" d="M94.172,124.545c0,3.6-.295,6.426-.885,7.251-1.713,4.074-9.19,6.91-11.495,8.072a16.294,16.294,0,0,0-4.79,3.4c2.674,1.737,4,2.373,9.068,10.127a56.4,56.4,0,0,1,5.3,10.969c9.063-24.653,7.474-16.174,9.673-30.513C99.934,130.987,94.873,125.188,94.172,124.545ZM91.3,162.212c-1.9-6.062-7.767-16.07-13.627-19,2.761-2.074,3.528-2.2,6.823-3.7,10.1-4.5,10.509-8.686,9.915-14.217.847,1,5.139,6.076,6.239,8.432C97.842,149.9,94.974,149.324,91.3,162.212Zm-29.814-27.2c-3.091-2.559-2.216-5.724-3.639-11.372-.633.7-5.429,6.229-7.025,10.033,5,17.095,5.172,15.78,9.948,30.683,2.126-6.245,8.106-17.091,14.195-21.046C70.107,138.876,63.989,137.191,61.488,135.015Zm3.829,17.89a40.26,40.26,0,0,0-4.467,9.314c-.821-5.576-7.834-22.65-9.061-28.719a69.2,69.2,0,0,1,5.976-9.233c.958,4.964.046,9.441,3.976,11.919,1.838,1.4,7.788,3.731,12.287,7.266C71.3,145.071,69.83,146.026,65.317,152.9Z" transform="translate(-5.069 -123.643)"/><path class="m" d="M36.522,181.163c-6.221,0-11.827-.1-16.24-.278-.049-.39-.109-.891-.18-1.488-.739-6.192-2.689-22.546-6.8-33.333,6.661-2.69,17.547-4.693,25.7-5.693,5.494,11.4,18.746,29.692,28.044,40.14-10.481.426-21.02.652-30.521.652Zm70.334,0c6.221,0,11.827-.1,16.24-.278.049-.39.108-.891.18-1.488.739-6.192,2.69-22.546,6.8-33.333-6.661-2.69-17.547-4.693-25.7-5.693-5.494,11.4-18.746,29.692-28.044,40.14,10.481.426,21.02.652,30.521.652Z" transform="translate(-0.682 -125.599)"/><path class="n" d="M24.563,165.168l-7.35-9.089,1.7-11.276,6.819,8.98Zm10.682-13.6-8.129-8.9-1.38,11.11,8.142,8.694Zm8.018-3.1-8.211-7.245.193,10.346,8.642,8.105Zm-11.57,24.915-7.13-8.215-3.519,10.765,7.8,9.108ZM42.765,170.7l-8.887-8.22-2.185,10.906,9.983,7.794Zm10.711-4.425-9.589-6.6L42.765,170.7l10.021,7.79Zm65.08-12.489,6.82-8.98,1.7,11.276-7.35,9.089Zm-8.142,8.694,8.142-8.694-1.38-11.11-8.13,8.9Zm-10.008-2.8,8.641-8.105.193-10.346-8.211,7.245Zm15.045,25.367,7.8-9.108-3.52-10.765-7.13,8.215Zm-12.835-3.864,9.983-7.794-2.185-10.906-8.887,8.22Zm-11.109-2.691,10.02-7.79L100.4,159.675l-9.589,6.6Z" transform="translate(-1.139 -125.699)"/><path class="o" d="M39.15,139.943c-7.576.917-19.273,2.934-26.356,5.877,0,.008.007.015.007.021,4.685,12.056,6.605,31.495,7.111,35.333,9.582.407,26.962.476,47.831-.393C58.761,170.809,44.756,151.7,39.15,139.943Zm-18.768,40.72c0-6.149-1.854-23.743-6.88-34.6,10.067-2.982,16.906-3.889,25.318-5.562a122.9,122.9,0,0,0,26.966,39.59C51.188,179.751,34.974,179.935,20.382,180.663Zm55.133.119c20.869.868,38.249.8,47.83.393.507-3.838,2.427-23.276,7.112-35.333,0-.007.007-.014.007-.021-7.083-2.943-18.78-4.96-26.356-5.877C98.5,151.7,84.5,170.809,75.515,180.782Zm1.957-.688a122.91,122.91,0,0,0,26.966-39.59c8.411,1.673,15.251,2.58,25.318,5.562-5.026,10.854-6.881,28.448-6.881,34.6C108.285,179.935,92.07,179.751,77.472,180.094Z" transform="translate(-0.622 -125.549)"/></g><g transform="translate(23.447)"><g transform="translate(0 58.327)"><path class="p" d="M35.02,66.211c-1.041-1.727-4.437-6.452-7.035-5.789-2.112.541-2.085,3.486-2.248,5.228-.238,2.556-.325,7.008.368,8.814a24.366,24.366,0,0,0,4.087,6.365c1.612,1.567,4.187,6.563,4.5,7.081a3.457,3.457,0,0,0,3.033,1.9,5.127,5.127,0,0,0,4.183-3.145C42.825,81.342,37.73,70.7,35.02,66.211Z" transform="translate(-25.563 -60.359)"/><path class="q" d="M34.109,77.1a5.153,5.153,0,0,1,.108-1.7,6.014,6.014,0,0,0,.128-1.53,25.384,25.384,0,0,0-2.087-5.759c-.858-1.737-2.244-3.924-3.983-4.488a1.336,1.336,0,0,0-1.465.328c-.2.208-.248.452-.182.482s.215-.174.433-.364c.178-.156-.356-.028,0,0a29.984,29.984,0,0,0-.288,7.114,15.331,15.331,0,0,0,.886,3.939,5.407,5.407,0,0,0,.112.731c.7,3.093,5.273,7.137,6.336,8.29.2.213.4.339.453.287s-.071-.262-.266-.476c-1.051-1.145-5.59-5.177-6.269-8.16-.72-3.166,2.744-7.86,3.3-8.853.281.466.52.914.7,1.287.145.292.3.635.47,1.006-.325.518-3.589,4.3-2.759,7.323.307,1.116,2.68,2.554,3.6,2.948a1.841,1.841,0,0,1,.915.916c.255.438.023,1.563.863,1.921a1.176,1.176,0,0,0,.462.1.85.85,0,0,0,.549-.2c.014.19.013.434.006.66-.008.293.033.427.1.433s.147-.122.156-.412a4.084,4.084,0,0,0-.054-1.013,7.251,7.251,0,0,0-1.373-2.074A7.118,7.118,0,0,1,34.109,77.1Zm-6.474-2.742c-1.647-4.855.9-9.278,1.269-9.944a7.007,7.007,0,0,1,2.259,2.269C30.827,67.268,27.7,71.093,27.635,74.359ZM35.212,82.1c-.76-.324-.5-1.391-.741-1.812a2.1,2.1,0,0,0-1.037-1.024,2.728,2.728,0,0,1-.409-.233c-1.881-4.261.205-6.123.729-6.5a9.367,9.367,0,0,1,.334,1.382,6.036,6.036,0,0,1-.127,1.45,5.253,5.253,0,0,0-.1,1.812,7.483,7.483,0,0,0,.905,2.839,7.651,7.651,0,0,1,1.3,1.926A.652.652,0,0,1,35.212,82.1Z" transform="translate(-25.684 -60.73)"/></g><g transform="translate(78.478 58.327)"><path class="p" d="M121.433,66.211c1.042-1.727,4.438-6.452,7.035-5.789,2.112.541,2.085,3.486,2.249,5.228.238,2.556.325,7.008-.368,8.814a24.384,24.384,0,0,1-4.087,6.365c-1.612,1.567-4.188,6.563-4.5,7.081a3.458,3.458,0,0,1-3.034,1.9,5.13,5.13,0,0,1-4.183-3.145C113.629,81.342,118.724,70.7,121.433,66.211Z" transform="translate(-114.433 -60.359)"/><path class="q" d="M122.374,79.837A7.251,7.251,0,0,0,121,81.911a4.085,4.085,0,0,0-.055,1.013c.01.29.085.418.158.412s.112-.14.1-.433c-.007-.226-.008-.47.006-.66a.85.85,0,0,0,.549.2,1.179,1.179,0,0,0,.463-.1c.838-.358.607-1.484.862-1.921A1.837,1.837,0,0,1,124,79.5c.918-.393,3.291-1.831,3.6-2.948.83-3.026-2.434-6.806-2.759-7.323.164-.371.325-.714.468-1.006.185-.373.424-.821.706-1.287.552.993,4.015,5.686,3.3,8.853-.68,2.983-5.219,7.015-6.269,8.16-.2.214-.318.424-.267.475s.257-.074.453-.287c1.063-1.152,5.632-5.2,6.335-8.29a5.3,5.3,0,0,0,.114-.731,15.4,15.4,0,0,0,.885-3.939,29.985,29.985,0,0,0-.288-7.114c.356-.028-.178-.156,0,0,.218.19.367.393.433.364s.02-.274-.181-.482a1.338,1.338,0,0,0-1.466-.328c-1.739.564-3.126,2.751-3.984,4.488a25.38,25.38,0,0,0-2.086,5.759,6.013,6.013,0,0,0,.128,1.53,5.173,5.173,0,0,1,.108,1.7A7.124,7.124,0,0,1,122.374,79.837Zm3.8-13.153a7.021,7.021,0,0,1,2.259-2.269c.37.666,2.916,5.089,1.27,9.944C129.632,71.093,126.509,67.268,126.172,66.684Zm-4.9,15.248a7.632,7.632,0,0,1,1.3-1.926,7.5,7.5,0,0,0,.905-2.839,5.286,5.286,0,0,0-.1-1.812,6.007,6.007,0,0,1-.128-1.45,9.268,9.268,0,0,1,.333-1.382c.523.381,2.61,2.244.729,6.5a2.633,2.633,0,0,1-.41.233,2.106,2.106,0,0,0-1.037,1.024c-.245.421.02,1.489-.74,1.812A.648.648,0,0,1,121.271,81.931Z" transform="translate(-115.194 -60.731)"/></g><g transform="translate(4.779 5.634)"><g transform="translate(0 0)"><path class="e" d="M114.983,54.789h0c-.007.032-8.554,28.243-11.136,36.762a12.039,12.039,0,0,1-2.494,4.479C96.878,101.075,84.68,113.6,73.77,113.6c-11.115,0-23.558-13.357-27.848-18.385A11.429,11.429,0,0,1,43.7,91.175c-2.53-8.1-11.31-36.222-11.317-36.255h0a43.778,43.778,0,0,1-1.4-10.965C30.938,20.094,50.019.726,73.6.689s42.72,19.27,42.756,43.131A43.754,43.754,0,0,1,114.983,54.789Z" transform="translate(-30.975 -0.689)"/><path class="r" d="M96.316,8.148c10.036,7.809,16.6,20.659,16.621,35.212a47.312,47.312,0,0,1-1.26,10.97h0c-.006.032-7.871,28.243-10.245,36.762a12.358,12.358,0,0,1-2.294,4.478c-4.113,5.046-15.335,17.575-25.373,17.575-10.227,0-21.674-13.358-25.62-18.385A11.759,11.759,0,0,1,46.1,90.716c-2.327-8.1-10.4-36.223-10.412-36.255h0A47.41,47.41,0,0,1,34.391,43.5c-.02-14.607,6.556-27.52,16.631-35.355A43.278,43.278,0,0,0,30.975,44.827a43.774,43.774,0,0,0,1.4,10.965h0c.007.032,8.788,28.154,11.317,36.255a11.446,11.446,0,0,0,2.225,4.043c4.289,5.028,16.732,18.385,27.848,18.385,10.911,0,23.108-12.527,27.579-17.573a12.033,12.033,0,0,0,2.494-4.479c2.582-8.52,11.129-36.73,11.136-36.762h0a43.759,43.759,0,0,0,1.369-10.97A43.27,43.27,0,0,0,96.316,8.148Z" transform="translate(-30.975 -1.56)"/><path class="h" d="M114.983,54.789h0c-.007.032-8.554,28.243-11.136,36.762a12.039,12.039,0,0,1-2.494,4.479C96.878,101.075,84.68,113.6,73.77,113.6c-11.115,0-23.558-13.357-27.848-18.385A11.429,11.429,0,0,1,43.7,91.175c-2.53-8.1-11.31-36.222-11.317-36.255h0a43.778,43.778,0,0,1-1.4-10.965C30.938,20.094,50.019.726,73.6.689s42.72,19.27,42.756,43.131A43.754,43.754,0,0,1,114.983,54.789Z" transform="translate(-30.975 -0.689)"/></g></g><g transform="translate(36.34 97.723)"><path class="s" d="M76.424,110.564l5.819-.145C81.569,113.553,76.885,113.1,76.424,110.564Z" transform="translate(-67.85 -105.61)"/><path class="q" d="M75.37,110.125a.192.192,0,1,1,.056-.38,19.3,19.3,0,0,0,5.525-.151.193.193,0,1,1,.091.375A18.982,18.982,0,0,1,75.37,110.125Zm2.623-2.5a18.32,18.32,0,0,1-3.1-.544,13.139,13.139,0,0,0-3.447.073c-1.175.1-3.74-.009-4.464-.467a.566.566,0,0,1,.127-1.016c.431-.154,1.1.166,1.537.243,2.014.361,3.075-.024,4.841-.083,2.7-.081,2.988,1.053,6.357.372,3.622-.732,5.254-.178,7.853-.961.356-.108.78-.393,1.154-.2a.566.566,0,0,1-.034,1.027c-2.389,1.053-5.031.628-7.683,1.07A19.351,19.351,0,0,1,77.993,107.621Z" transform="translate(-66.715 -104.973)"/></g><g transform="translate(16.092 47.105)"><g transform="translate(3.717 13.147)"><path class="t" d="M48,64.091c.86-.827,6.376-1.875,9.56-1.455,5.038.664,9.117,5.109,9.117,5.109s-3.392,2.162-9.545,2.5C53.074,70.463,49,67.845,48,64.091Z" transform="translate(-47.995 -62.54)"/></g><g transform="translate(9.2 12.625)"><path class="u" d="M62.422,66.156a4.208,4.208,0,0,1-8.416,0h0a4.208,4.208,0,1,1,8.416,0Z" transform="translate(-54.006 -61.948)"/><path class="v" d="M57.743,62l-.05.006c.02.095.04.19.06.285C57.749,62.2,57.747,62.1,57.743,62Zm.009.29a10.345,10.345,0,0,0,.363,3.061A10.3,10.3,0,0,0,57.753,62.291Zm.363,3.061c-.03.117-.076.2-.146.224a.3.3,0,0,1-.258-.072.225.225,0,0,1-.287.32.3.3,0,0,1,.1.248c-.019.073-.094.128-.205.17.112.044.187.1.2.172a.3.3,0,0,1-.1.247.289.289,0,0,1,.26.058.3.3,0,0,1,.025.266.289.289,0,0,1,.256-.07c.071.027.116.107.144.224.057-.107.12-.175.2-.182s.151.041.231.132a.292.292,0,0,1,.089-.252.289.289,0,0,1,.266.009.226.226,0,0,1,.2-.381c-.1-.069-.159-.14-.158-.216s.059-.147.159-.215a.332.332,0,0,0-.466-.374.292.292,0,0,1-.088-.252.287.287,0,0,1-.231.13C58.235,65.525,58.171,65.459,58.116,65.352Zm.426.053a10.269,10.269,0,0,0,1.1-2.878A10.325,10.325,0,0,0,58.542,65.4Zm1.1-2.878c.042-.086.085-.173.125-.259-.015,0-.029-.012-.044-.018C59.7,62.342,59.669,62.435,59.642,62.526ZM58.9,65.65a10.307,10.307,0,0,0,2.312-2.037A10.3,10.3,0,0,0,58.9,65.65Zm2.312-2.037.214-.158c-.01-.013-.021-.023-.029-.034C61.332,63.484,61.271,63.549,61.209,63.613Zm-2.115,2.419a10.362,10.362,0,0,0,3-.73A10.355,10.355,0,0,0,59.094,66.032Zm3-.729.236-.036c0-.013-.006-.027-.01-.04Zm-3,1.159a10.259,10.259,0,0,0,2.989.746A10.325,10.325,0,0,0,59.094,66.462Zm2.99.746.2.069a.318.318,0,0,0,.008-.035Zm-3.192-.365a10.4,10.4,0,0,0,2.3,2.051A10.286,10.286,0,0,0,58.892,66.842Zm2.3,2.049.126.133L61.341,69C61.292,68.965,61.241,68.928,61.194,68.892Zm-2.657-1.806a10.321,10.321,0,0,0,1.085,2.885A10.275,10.275,0,0,0,58.537,67.086Zm1.085,2.885c.015.053.03.107.044.161l.027-.01C59.671,70.071,59.646,70.019,59.622,69.971ZM58.11,67.136a10.346,10.346,0,0,0-.38,3.059A10.319,10.319,0,0,0,58.11,67.136Zm-.38,3.059c-.012.053-.022.106-.033.16l.027,0C57.726,70.3,57.729,70.248,57.73,70.195Zm-.02-3.213a10.293,10.293,0,0,0-1.759,2.532A10.344,10.344,0,0,0,57.71,66.982Zm-1.759,2.532-.114.135.027.017C55.892,69.615,55.922,69.564,55.951,69.514Zm1.475-2.854a10.3,10.3,0,0,0-2.734,1.423A10.31,10.31,0,0,0,57.426,66.66Zm-2.734,1.424-.184.077a.286.286,0,0,0,.016.028C54.58,68.155,54.636,68.12,54.691,68.084Zm2.631-1.843a10.355,10.355,0,0,0-3.082-.008A10.319,10.319,0,0,0,57.323,66.241Zm-3.082-.008-.227-.02a.367.367,0,0,0,0,.039Zm3.185-.409A10.314,10.314,0,0,0,54.7,64.386,10.317,10.317,0,0,0,57.426,65.825ZM54.7,64.386l-.221-.141c-.006.013-.013.027-.02.039C54.544,64.318,54.625,64.352,54.7,64.386ZM57.713,65.5a10.367,10.367,0,0,0-1.743-2.541A10.288,10.288,0,0,0,57.713,65.5ZM55.97,62.963c-.047-.081-.093-.163-.14-.245l-.039.027C55.85,62.817,55.912,62.89,55.97,62.963Z" transform="translate(-54.007 -61.954)"/><path class="w" d="M58.85,62.015l-.049-.007c0,.1-.011.194-.017.29C58.8,62.2,58.828,62.109,58.85,62.015Zm-.067.283a10.311,10.311,0,0,0-.441,3.051A10.32,10.32,0,0,0,58.783,62.3Zm-.442,3.051c-.059.105-.123.17-.2.178s-.151-.045-.229-.137a.225.225,0,0,1-.36.235.225.225,0,0,1-.208.376c.1.071.154.143.152.219s-.062.145-.162.212a.332.332,0,0,0,.457.384.293.293,0,0,1,.081.255c.082-.088.161-.137.236-.126s.136.079.189.188c.032-.117.079-.2.151-.221a.291.291,0,0,1,.255.078A.226.226,0,0,1,59,66.674c-.078-.093-.118-.176-.1-.249s.1-.126.21-.166c-.112-.045-.184-.1-.2-.175a.174.174,0,1,0-.151-.306.292.292,0,0,1-.02-.266.289.289,0,0,1-.257.065C58.411,65.547,58.368,65.467,58.341,65.349Zm.4.162a10.318,10.318,0,0,0,1.808-2.5A10.29,10.29,0,0,0,58.74,65.511Zm1.808-2.5c.062-.072.126-.144.188-.218-.013-.009-.025-.02-.039-.029C60.647,62.851,60.6,62.934,60.548,63.015Zm-1.529,2.824a10.332,10.332,0,0,0,2.761-1.37A10.29,10.29,0,0,0,59.019,65.839Zm2.76-1.37.248-.1c-.007-.015-.015-.028-.02-.041C61.932,64.377,61.856,64.424,61.779,64.469Zm-2.668,1.79a10.372,10.372,0,0,0,3.082.071A10.309,10.309,0,0,0,59.111,66.259Zm3.082.07.238.026c0-.014,0-.027,0-.041ZM59,66.674a10.234,10.234,0,0,0,2.695,1.493A10.307,10.307,0,0,0,59,66.674Zm2.694,1.493c.058.04.117.08.175.118l.018-.032ZM58.705,66.99A10.4,10.4,0,0,0,60.4,69.567,10.256,10.256,0,0,0,58.705,66.99ZM60.4,69.565c.029.053.058.107.088.161l.026-.017Zm-2.1-2.432a10.348,10.348,0,0,0,.3,3.067A10.316,10.316,0,0,0,58.3,67.133Zm.3,3.067c0,.055,0,.111,0,.167l.029,0C58.622,70.31,58.612,70.254,58.6,70.2Zm-.727-3.129a10.32,10.32,0,0,0-1.159,2.856A10.313,10.313,0,0,0,57.875,67.071Zm-1.159,2.856c-.025.048-.049.1-.073.146l.025.011Zm.811-3.108a10.322,10.322,0,0,0-2.354,1.99A10.3,10.3,0,0,0,57.527,66.818Zm-2.354,1.99-.144.1c.007.008.014.014.02.022C55.09,68.891,55.132,68.851,55.173,68.808Zm2.163-2.375a10.339,10.339,0,0,0-3.009.668A10.3,10.3,0,0,0,57.336,66.433Zm-3.009.669c-.065.009-.131.017-.2.027a.222.222,0,0,0,.009.031C54.2,67.142,54.264,67.121,54.327,67.1ZM57.345,66A10.326,10.326,0,0,0,54.37,65.2,10.321,10.321,0,0,0,57.345,66ZM54.37,65.2l-.214-.079c0,.013-.008.026-.011.038Zm3.183.429A10.322,10.322,0,0,0,55.3,63.532,10.249,10.249,0,0,0,57.554,65.627ZM55.3,63.533l-.176-.193-.029.032C55.159,63.426,55.229,63.479,55.3,63.533Zm2.618,1.858a10.33,10.33,0,0,0-1.027-2.9A10.277,10.277,0,0,0,57.913,65.391Zm-1.027-2.9c-.024-.09-.047-.182-.071-.273l-.044.016C56.809,62.315,56.849,62.4,56.887,62.486Z" transform="translate(-54.02 -61.955)"/><path class="u" d="M60.2,66.495a1.651,1.651,0,1,1-1.65-1.651A1.65,1.65,0,0,1,60.2,66.495Z" transform="translate(-54.345 -62.287)"/><path class="x" d="M60.2,66.495a1.651,1.651,0,1,1-1.65-1.651A1.65,1.65,0,0,1,60.2,66.495Z" transform="translate(-54.345 -62.287)"/><path class="y" d="M56.124,68.88a.687.687,0,1,1-.188.955.688.688,0,0,1,.188-.955Z" transform="translate(-54.218 -62.745)"/><path class="z" d="M60.026,66.285c-.176.262-.68.232-1.126-.067s-.666-.756-.491-1.018h0c.175-.262.68-.232,1.126.068s.667.755.492,1.018Z" transform="translate(-54.514 -62.307)"/><path class="aa" d="M62.079,65.324a1.676,1.676,0,0,1-2.3.082c-.87-.567-1.251-1.522-.852-2.134a1.678,1.678,0,0,1,2.3-.082c.869.567,1.25,1.523.852,2.134Z" transform="translate(-54.563 -62.046)"/></g><path class="e" d="M43.786,65.185c0,9.684,8.884,14.727,12.624,14.727,6.971,0,12.624-5.043,12.624-14.727S63.381,47.652,56.41,47.652,43.786,55.5,43.786,65.185ZM47.5,62.35c.86-.827,6.376-1.875,9.56-1.455C62.1,61.559,66.18,66,66.18,66s-3.392,2.162-9.545,2.5C52.582,68.722,48.5,66.1,47.5,62.35Z" transform="translate(-43.786 -47.652)"/><path class="ab" d="M57.439,71.933c6.6,1.559,12.94-1.129,14.163-6.007s-3.141-10.1-9.743-11.658S48.917,55.4,47.7,60.276,50.834,70.371,57.439,71.933Zm-9.5-8.861c.86-.827,6.376-1.875,9.56-1.455,5.038.664,9.117,5.109,9.117,5.109s-3.392,2.162-9.545,2.5C53.015,69.444,48.938,66.826,47.936,63.072Z" transform="translate(-44.219 -48.374)"/><path class="ac" d="M48,64.091c.86-.827,6.376-1.875,9.56-1.455,5.038.664,9.117,5.109,9.117,5.109s-3.392,2.162-9.545,2.5C53.074,70.463,49,67.845,48,64.091Z" transform="translate(-44.278 -49.393)"/><path class="q" d="M67.3,64.866c-4.56-2.981-2.843-2.167-11.383-4.7,2.345.351,6.713,1.449,8.21,2.328A27.276,27.276,0,0,1,67.3,64.866Z" transform="translate(-45.204 -49.115)"/><path class="ad" d="M46.741,63.912c1.365,3.455,6.827,9.791,20.538,3.88-2.172-2.356-7.718-6.391-12.735-6.356C50.341,61.465,47.993,62.775,46.741,63.912Zm1.107.132c.86-.8,6.376-1.809,9.56-1.4,5.038.64,9.117,4.928,9.117,4.928s-3.392,2.086-9.545,2.408C52.927,70.189,48.85,67.664,47.849,64.044Z" transform="translate(-44.132 -49.264)"/></g><g transform="translate(51.16 47.105)"><g transform="translate(5.193 13.147)"><path class="ae" d="M108.055,64.091c-.86-.827-6.376-1.875-9.56-1.455-5.038.664-9.117,5.109-9.117,5.109s3.392,2.162,9.545,2.5C102.977,70.463,107.053,67.845,108.055,64.091Z" transform="translate(-89.378 -62.54)"/></g><g transform="translate(10.251 12.625)"><path class="u" d="M103.721,66.156a4.208,4.208,0,1,1-8.416,0h0a4.208,4.208,0,1,1,8.416,0Z" transform="translate(-95.305 -61.948)"/><path class="af" d="M99.042,62l-.05.006c.02.095.041.19.06.285C99.048,62.2,99.046,62.1,99.042,62Zm.009.29a10.29,10.29,0,0,0,.363,3.061A10.33,10.33,0,0,0,99.051,62.291Zm.363,3.061c-.029.117-.076.2-.145.224a.3.3,0,0,1-.257-.072.292.292,0,0,1-.025.265.287.287,0,0,1-.261.055.3.3,0,0,1,.1.248c-.02.073-.094.128-.205.17.111.044.186.1.2.172a.3.3,0,0,1-.1.247.287.287,0,0,1,.259.058.3.3,0,0,1,.025.266.289.289,0,0,1,.256-.07c.072.027.116.107.144.224.056-.107.121-.175.2-.182s.152.041.231.132a.292.292,0,0,1,.09-.252.289.289,0,0,1,.266.009.3.3,0,0,1-.039-.264.3.3,0,0,1,.242-.116c-.1-.069-.16-.14-.158-.216s.059-.147.159-.215a.332.332,0,0,0-.466-.374.294.294,0,0,1-.088-.252.286.286,0,0,1-.231.13C99.534,65.525,99.47,65.459,99.414,65.352Zm.426.053a10.252,10.252,0,0,0,1.1-2.878A10.363,10.363,0,0,0,99.84,65.4Zm1.1-2.878c.042-.086.085-.173.126-.259-.015,0-.029-.012-.044-.018C100.995,62.342,100.968,62.435,100.941,62.526ZM100.2,65.65a10.291,10.291,0,0,0,2.313-2.037A10.313,10.313,0,0,0,100.2,65.65Zm2.313-2.037.214-.158c-.011-.013-.021-.023-.029-.034C102.631,63.484,102.57,63.549,102.508,63.613Zm-2.115,2.419a10.359,10.359,0,0,0,3-.73A10.342,10.342,0,0,0,100.394,66.032Zm3-.729.236-.036-.01-.04Zm-3,1.159a10.266,10.266,0,0,0,2.99.746A10.333,10.333,0,0,0,100.392,66.462Zm2.99.746c.067.023.133.047.2.069,0-.012.006-.023.009-.035Zm-3.192-.365a10.384,10.384,0,0,0,2.3,2.051A10.27,10.27,0,0,0,100.19,66.842Zm2.3,2.049.125.133c.007-.008.014-.015.022-.022C102.59,68.965,102.54,68.928,102.493,68.892Zm-2.656-1.806a10.3,10.3,0,0,0,1.085,2.885A10.32,10.32,0,0,0,99.837,67.086Zm1.085,2.885c.015.053.03.107.044.161l.027-.01Zm-1.513-2.835a10.346,10.346,0,0,0-.38,3.059A10.319,10.319,0,0,0,99.409,67.136Zm-.38,3.059c-.012.053-.022.106-.033.16l.027,0C99.025,70.3,99.027,70.248,99.029,70.195Zm-.021-3.213a10.293,10.293,0,0,0-1.759,2.532A10.323,10.323,0,0,0,99.008,66.982Zm-1.759,2.532c-.036.044-.075.091-.113.135a.267.267,0,0,1,.026.017C97.191,69.615,97.221,69.564,97.249,69.514Zm1.475-2.854a10.3,10.3,0,0,0-2.733,1.423A10.291,10.291,0,0,0,98.724,66.66Zm-2.733,1.424-.184.077a.191.191,0,0,0,.016.028Zm2.631-1.843a10.361,10.361,0,0,0-3.083-.008A10.324,10.324,0,0,0,98.622,66.241Zm-3.083-.008-.226-.02a.245.245,0,0,0,0,.039Zm3.186-.409A10.322,10.322,0,0,0,96,64.386,10.307,10.307,0,0,0,98.725,65.825ZM96,64.386l-.221-.141-.02.039C95.843,64.318,95.925,64.352,96,64.386ZM99.011,65.5a10.367,10.367,0,0,0-1.743-2.541A10.288,10.288,0,0,0,99.011,65.5Zm-1.743-2.541c-.047-.081-.093-.163-.139-.245l-.04.027C97.149,62.817,97.21,62.89,97.269,62.963Z" transform="translate(-95.305 -61.954)"/><path class="ag" d="M100.148,62.015l-.049-.007-.017.29C100.1,62.2,100.126,62.109,100.148,62.015Zm-.067.283a10.319,10.319,0,0,0-.442,3.051A10.29,10.29,0,0,0,100.082,62.3Zm-.442,3.051c-.059.105-.124.17-.2.178s-.151-.045-.229-.137a.225.225,0,0,1-.36.235.3.3,0,0,1,.034.265.294.294,0,0,1-.243.111c.1.071.154.143.152.219s-.062.145-.161.212a.333.333,0,0,0,.458.384.29.29,0,0,1,.081.255c.082-.088.161-.137.236-.126s.136.079.189.188c.032-.117.079-.2.151-.221a.29.29,0,0,1,.255.078.3.3,0,0,1,.032-.265.294.294,0,0,1,.263-.05c-.077-.093-.118-.176-.1-.249s.1-.126.21-.166c-.112-.045-.184-.1-.2-.175a.3.3,0,0,1,.108-.245.333.333,0,0,0-.537-.262C99.711,65.547,99.666,65.467,99.64,65.349Zm.4.162a10.318,10.318,0,0,0,1.808-2.5A10.29,10.29,0,0,0,100.038,65.511Zm1.808-2.5c.062-.072.126-.144.189-.218-.014-.009-.026-.02-.039-.029C101.946,62.851,101.9,62.934,101.846,63.015Zm-1.529,2.824a10.342,10.342,0,0,0,2.761-1.37A10.29,10.29,0,0,0,100.317,65.839Zm2.76-1.37.248-.1c-.007-.015-.015-.028-.02-.041C103.231,64.377,103.155,64.424,103.078,64.469Zm-2.668,1.79a10.375,10.375,0,0,0,3.083.071A10.314,10.314,0,0,0,100.41,66.259Zm3.082.07.238.026c0-.014,0-.027,0-.041Zm-3.194.345a10.247,10.247,0,0,0,2.695,1.493A10.307,10.307,0,0,0,100.3,66.674Zm2.694,1.493c.058.04.117.08.175.118a.228.228,0,0,0,.017-.032ZM100,66.99a10.366,10.366,0,0,0,1.692,2.577A10.259,10.259,0,0,0,100,66.99Zm1.693,2.575c.029.053.058.107.087.161l.026-.017C101.773,69.661,101.733,69.611,101.7,69.565Zm-2.1-2.432a10.348,10.348,0,0,0,.3,3.067A10.316,10.316,0,0,0,99.6,67.133Zm.3,3.067c0,.055,0,.111,0,.167l.028,0C99.921,70.31,99.911,70.254,99.9,70.2Zm-.727-3.129a10.343,10.343,0,0,0-1.159,2.856A10.29,10.29,0,0,0,99.173,67.071Zm-1.159,2.856c-.025.048-.048.1-.073.146l.025.011C97.982,70.032,98,69.978,98.014,69.926Zm.811-3.108a10.323,10.323,0,0,0-2.354,1.99A10.311,10.311,0,0,0,98.826,66.818Zm-2.354,1.99-.144.1c.007.008.014.014.02.022C96.389,68.891,96.431,68.851,96.472,68.808Zm2.163-2.375a10.336,10.336,0,0,0-3.009.668A10.291,10.291,0,0,0,98.635,66.433Zm-3.009.669c-.065.009-.132.017-.2.027,0,.011.006.021.009.031C95.5,67.142,95.563,67.121,95.626,67.1ZM98.644,66a10.326,10.326,0,0,0-2.975-.806A10.321,10.321,0,0,0,98.644,66ZM95.669,65.2l-.214-.079q-.006.02-.011.038Zm3.183.429a10.331,10.331,0,0,0-2.258-2.094A10.264,10.264,0,0,0,98.852,65.627Zm-2.258-2.093-.176-.193-.03.032C96.457,63.426,96.528,63.479,96.594,63.533Zm2.618,1.858a10.33,10.33,0,0,0-1.027-2.9A10.3,10.3,0,0,0,99.212,65.391Zm-1.027-2.9c-.024-.09-.047-.182-.072-.273l-.044.016Z" transform="translate(-95.319 -61.955)"/><path class="u" d="M101.5,66.495a1.651,1.651,0,1,1-1.65-1.651A1.65,1.65,0,0,1,101.5,66.495Z" transform="translate(-95.643 -62.287)"/><path class="x" d="M101.5,66.495a1.651,1.651,0,1,1-1.65-1.651A1.65,1.65,0,0,1,101.5,66.495Z" transform="translate(-95.643 -62.287)"/><path class="ah" d="M97.423,68.88a.687.687,0,1,1-.188.955.687.687,0,0,1,.188-.955Z" transform="translate(-95.517 -62.745)"/><path class="ai" d="M101.324,66.285c-.176.262-.68.232-1.126-.067s-.666-.756-.491-1.018h0c.175-.262.68-.232,1.126.068s.666.755.49,1.018Z" transform="translate(-95.812 -62.307)"/><path class="aj" d="M103.378,65.324a1.677,1.677,0,0,1-2.3.082c-.869-.567-1.251-1.522-.852-2.134a1.678,1.678,0,0,1,2.3-.082c.869.567,1.25,1.523.853,2.134Z" transform="translate(-95.862 -62.046)"/></g><path class="e" d="M98.771,47.652c-6.971,0-12.624,7.85-12.624,17.534S91.8,79.913,98.771,79.913c5.05,0,12.624-5.043,12.624-14.727S105.742,47.652,98.771,47.652ZM98.545,68.5C92.392,68.167,89,66,89,66s4.08-4.445,9.117-5.109c3.184-.421,8.7.628,9.56,1.455C106.675,66.1,102.6,68.722,98.545,68.5Z" transform="translate(-83.807 -47.652)"/><path class="ak" d="M107.608,60.277c-1.222-4.878-7.561-7.567-14.163-6.007S82.483,61.049,83.7,65.927s7.562,7.566,14.163,6.007S108.828,65.155,107.608,60.277Zm-9.373,8.946c-6.153-.334-9.545-2.5-9.545-2.5s4.08-4.445,9.117-5.109c3.184-.421,8.7.628,9.56,1.455C106.366,66.826,102.289,69.444,98.236,69.223Z" transform="translate(-83.498 -48.374)"/><path class="al" d="M108.055,64.091c-.86-.827-6.376-1.875-9.56-1.455-5.038.664-9.117,5.109-9.117,5.109s3.392,2.162,9.545,2.5C102.977,70.463,107.053,67.845,108.055,64.091Z" transform="translate(-84.185 -49.393)"/><path class="q" d="M89.721,64.866c4.56-2.981,2.843-2.167,11.383-4.7-2.345.351-6.713,1.449-8.21,2.328A27.216,27.216,0,0,0,89.721,64.866Z" transform="translate(-84.225 -49.115)"/><path class="ad" d="M101.26,61.436c-5.017-.035-10.564,4-12.735,6.356,13.712,5.911,19.173-.426,20.538-3.88C107.812,62.775,105.462,61.465,101.26,61.436Zm-2.436,8.541c-6.153-.322-9.545-2.408-9.545-2.408s4.08-4.287,9.117-4.928c3.184-.406,8.7.606,9.56,1.4C106.953,67.664,102.877,70.189,98.824,69.977Z" transform="translate(-84.086 -49.263)"/></g><g transform="translate(18.804 16.597)"><path class="am" d="M104.367,86.713a28.755,28.755,0,1,1-28.8-28.737A28.739,28.739,0,0,1,104.367,86.713Z" transform="translate(-46.857 -18.351)"/><path class="an" d="M102.238,39.4a26.3,26.3,0,1,1-26.3-26.3A26.3,26.3,0,0,1,102.238,39.4Z" transform="translate(-47.182 -13.104)"/></g><g transform="translate(15.299 52.589)"><path class="ao" d="M42.887,58.33c6.981-7,11.755-4.148,21.453-2.289.593.114,4.432,1.079,3.724,2.433-.339.648-1.428.571-2.036.56C56.428,58.853,51.76,52.023,42.887,58.33Z" transform="translate(-42.887 -53.861)"/></g><g transform="translate(54.557 52.589)"><path class="ao" d="M112.608,58.33c-6.98-7-11.755-4.148-21.453-2.289-.593.114-4.432,1.079-3.725,2.433.339.648,1.428.571,2.036.56C99.066,58.853,103.735,52.023,112.608,58.33Z" transform="translate(-87.344 -53.861)"/></g><g transform="translate(41.274 65.34)"><path class="g" d="M72.357,91.58c-.616,1.448,4.162,3.01,5.975,3.106,1.964.1,7.466-2.034,6.534-3.5-.981-1.539-4.659-.2-6.246-.2S73.182,89.648,72.357,91.58Z" transform="translate(-72.302 -70.89)"/><path class="q" d="M80.009,92.809c-.161-.532,1.316-1.111,1.863-1.188.772-.112,2.356.562,2.215,1.117-.129.49-1.506-.374-2.006-.3C81.567,92.512,80.162,93.308,80.009,92.809Zm-4.827-.173c.679,0,1.686.437,1.871.052.221-.459-1.5-1.025-2.006-.962-.418.049-1.917.922-1.711,1.29C73.529,93.353,74.287,92.636,75.182,92.636Z" transform="translate(-72.421 -71.026)"/><path class="ap" d="M79.306,86.535a1.53,1.53,0,0,0,1.257-1.564c.141-4.214-.67-16.715-1.257-16.671-.547.041-1.59,12.369-1.366,16.671A1.572,1.572,0,0,0,79.306,86.535Z" transform="translate(-72.958 -68.301)"/></g><g transform="translate(8.215 65.747)"><path class="aq" d="M109.824,70.277c-2.153,1.227-3.717,2.069-5.022,2.981-7.946,5.3-8.753,17.688-10.127,29.365C90.5,95.266,91.147,94.01,85.656,92.9c-6.74-1.473-8.984-2.118-11.446,1.136C72.3,92.1,71.608,91.065,67,92.068c-8.206,1.62-8.612,1.41-11.06,6.663-.175.414-1.985,3.5-2.2,3.9-.4-2.791.035-2.882-1.108-9.033-1.206-6.361-1.718-11.376-4.867-16.348-3.044-4.229-9.664-7.4-12.9-8.486,0,5.337.512,13.311.61,14.335,1.227,12.526,6.116,32.079,14.84,40.291,7.294,6.586,15.415,6.137,23.922,6.137,4.383,0,12.666.3,17.709-2.146,6.852-2.651,11.6-10.134,14.307-16.965,4.713-11.523,7.3-23.053,7.3-41.652A22.289,22.289,0,0,0,109.824,70.277ZM77.009,111.95a6.232,6.232,0,0,1,.449-1.382,50.288,50.288,0,0,1,4.566-6.586,30.13,30.13,0,0,1-15.464.189c1.333,1.592,4.482,5.709,4.853,7.778-4.951-2.153-11.439-3.128-10.765-8.444.358-3.885,4.818-4.061,7.757-4.25,11.768-.224,18.873-.814,19.378,4.25C88.419,108.808,82.051,109.8,77.009,111.95Z" transform="translate(-34.866 -68.762)"/><path class="ar" d="M113.555,68.762c0,18.6-2.588,30.129-7.3,41.652-2.707,6.831-7.455,14.314-14.307,16.965-5.043,2.448-13.325,2.146-17.709,2.146-8.507,0-16.629.449-23.922-6.137C41.591,115.176,36.7,95.623,35.476,83.1c-.1-1.031-.61-9-.61-14.335.694.231,1.55.568,2.483.982,4.643,20.949,5.821,49.991,29.147,58.225a41.538,41.538,0,0,0-2.805-4.208L70,127.969a28.8,28.8,0,0,0-.687-3.423,28.483,28.483,0,0,0,5.456,3.107,16.842,16.842,0,0,0-.7-2.861l3.668,2.42,5.59-4.853s-1.753,3.682-2.455,5.085c2.525-.68,6.649-3.717,6.649-3.717a16.764,16.764,0,0,0-.687,2.84c20.486-11.523,20.521-35.908,23.572-56.6C110.974,69.7,111.717,69.457,113.555,68.762Zm-47,35.41c.2.231.428.519.687.849a12.693,12.693,0,0,0,13.893.056,11.03,11.03,0,0,1,.891-1.094A30.237,30.237,0,0,1,66.559,104.172Zm8.171,21.573a7.165,7.165,0,0,1-.785-1.8c0-.007-.21-.87-.21-.87-.014-.063-.267-1.788-.217-1.788-.035-.947-.168-2.2-.238-2.9C72.737,123.158,73.495,124.3,74.729,125.745Zm2.539-17.877a1.213,1.213,0,0,1-.021.189c-.217,1.01-1.88,3.051-2.034,4.3C75.157,110.281,77.163,108.57,77.268,107.868Zm14.567-2.525c1,2.286.2,3.885-.877,6.137C91.835,108.3,92.3,107.5,91.835,105.344Zm-3.857-6.838c1.017,1.536,1.389,1.816,2.63,6.487C89.45,102.433,89.331,101.718,87.977,98.506Zm1.052-1.929c1.389,1.143,2.342,2.181,3.331,5.961A24.772,24.772,0,0,0,89.029,96.577Zm-12.1,27c.386-4.166,1.62-6.5,4.383-9.643A35.508,35.508,0,0,0,76.931,123.578ZM81.315,122c1.494-2.321,3.128-6,6.137-6.838a7.116,7.116,0,0,0-2.581,2.293s-.533.624-1.318,1.781A22.931,22.931,0,0,1,81.315,122Zm2.981,2.981c1.7-2.651,1.585-3.444,3.331-5.085C86,122.148,86.1,123.15,84.3,124.981Zm-1.227-8.591c.884-2.819,2.265-5.372,5.085-6.838C86.014,111.2,84.359,114.005,83.068,116.39ZM75.879,118.3c-.673-2.041-.252-3.836.175-5.954C75.936,115.085,75.62,116.509,75.879,118.3Zm20.689-3.493a12.932,12.932,0,0,1-6.312,4.909A35.783,35.783,0,0,0,96.569,114.812Zm2.981-8.241c-1.08,5.127-5.05,8.346-9.643,10.871a48.035,48.035,0,0,0,6.642-6.228A18.744,18.744,0,0,0,99.549,106.571Zm-4.208,4.383A17.347,17.347,0,0,1,98.5,100.084,56.714,56.714,0,0,0,95.341,110.954ZM103.933,92.9c-.035,1.866.014,5.351-4.909,12.1.014-.035,3.38-7.406,3.338-7.406A23.572,23.572,0,0,0,103.933,92.9ZM98.5,96.577c-.105-3.878.884-4.615,2.455-8.942C100.16,91.745,99.15,92.453,98.5,96.577Zm8.416-17.709c-.821,4.9-1.781,6.116-5.085,13.325C103.224,86.211,104.69,84.654,106.913,78.868ZM57.462,111.48c-1.129-2.307-1.837-3.766-.877-6.137a5.8,5.8,0,0,0,.007,3.093C56.593,108.444,57.462,111.48,57.462,111.48Zm.351-6.487c1.052-4.411,1.943-5.421,2.63-6.487C58.6,102.756,59.468,101.437,57.813,104.993Zm-1.753-2.455c.807-3.324,1.76-4.608,3.331-5.961A24.807,24.807,0,0,0,56.06,102.538Zm11.046,11.4a15.093,15.093,0,0,1,4.383,9.643A34.848,34.848,0,0,0,67.106,113.935Zm-6.137,1.227a5.31,5.31,0,0,1,2.939,1.992,23.978,23.978,0,0,1,2.532,3.766c.358.624.666,1.08.666,1.08-.9-.926-3.577-4.538-3.563-4.538A6.943,6.943,0,0,0,60.969,115.162Zm-.877,4.734c1.908,1.8,1.725,2.665,3.331,5.085C61.67,123.214,61.649,122.063,60.092,119.9Zm.175-10.345a7.062,7.062,0,0,1,2.6,2.055s.323.421.624.849a12.824,12.824,0,0,1,1.859,3.934,37.788,37.788,0,0,0-2.216-3.689c-.3-.414-.61-.821-.61-.821A10.539,10.539,0,0,0,60.268,109.552Zm12.1,2.805a7.175,7.175,0,0,1-.175,4.559A16.545,16.545,0,0,0,72.366,112.357Zm-.351-4.208a4.928,4.928,0,0,1,2.02,2.735,10.127,10.127,0,0,1,.259,5.526C74.344,115.373,74.189,110.477,72.015,108.149ZM58.164,119.721a13.089,13.089,0,0,1-6.312-4.909A37,37,0,0,0,58.164,119.721Zm.351-2.279c-4.566-2.532-8.486-5.646-9.643-10.871a15.382,15.382,0,0,0,2.995,4.65A64.964,64.964,0,0,0,58.514,117.442Zm-8.591-17.358a17.525,17.525,0,0,1,3.156,10.871A56.671,56.671,0,0,0,49.923,100.084Zm-.526,4.909c-2.707-3.626-4.783-7.511-4.909-12.1C45.365,96.773,46.872,99.242,49.4,104.993ZM47.469,87.635c1.7,4.566,2.56,5.3,2.455,8.942C49.39,92.587,48.261,92.061,47.469,87.635Zm-.877,4.559c-2.658-5.786-4.18-7.918-5.085-13.325C43.969,85.286,45.266,86.527,46.592,92.194Z" transform="translate(-34.866 -68.762)"/><path class="d" d="M109.824,70.277c-2.153,1.227-3.717,2.069-5.022,2.981-7.946,5.3-8.753,17.688-10.127,29.365C90.5,95.266,91.147,94.01,85.656,92.9c-6.74-1.473-8.984-2.118-11.446,1.136C72.3,92.1,71.608,91.065,67,92.068c-8.206,1.62-8.612,1.41-11.06,6.663-.175.414-1.985,3.5-2.2,3.9-.4-2.791.035-2.882-1.108-9.033-1.206-6.361-1.718-11.376-4.867-16.348-3.044-4.229-9.664-7.4-12.9-8.486,0,5.337.512,13.311.61,14.335,1.227,12.526,6.116,32.079,14.84,40.291,7.294,6.586,15.415,6.137,23.922,6.137,4.383,0,12.666.3,17.709-2.146,6.852-2.651,11.6-10.134,14.307-16.965,4.713-11.523,7.3-23.053,7.3-41.652A22.289,22.289,0,0,0,109.824,70.277Zm-9.847,49.3c-3.338,5.085-10.864,8.423-14,8.605-1.087.119-6.235,1.031-18.136.526-2.048-.014-7.925-.617-10.976-2.216C44.993,121.53,39.543,101.543,37.11,88.834a177.06,177.06,0,0,1-2.048-19.8c4.657,2.034,10.3,5.583,12.883,10.162,2.237,4.285,2.763,9.335,3.984,14.595,1.55,6.817.778,4.713,1.648,9.152.028.112.049.224.077.33C60.128,93.2,56.9,94.733,67.12,92.629c3.163-.771,4.909-.926,7.09,1.683,2.714-3.212,4.4-2.293,11.319-.842,5.477,1.213,4.159,2.041,8.647,8.872.175.267.533.835.589.94.4-1.6.6-4.187,1.052-6.642.133-.7,2.406-11.495,3.219-13.928,2.139-6.754,5.505-8.549,10.99-12.07a22.207,22.207,0,0,1,3.338-1.613C112.356,85.419,109.663,106.108,99.977,119.574ZM81.231,98.744c-3.429-.056-4.082.281-12.813-.021-2.651.042-5.3.084-7.006,1.753-2.048,1.873-3.114,7.4,4.047,9.84,2.307.729,5.709,1.781,6.27,2.02,0-2.272-4.012-7.2-4.65-7.925,6.445,1.613,12.231.7,14.44-.189-.982,1.066-4.825,5.891-4.825,8.114,6.137-2.048,9.643-2.56,11.214-5.7C89.394,103.934,88.616,98.625,81.231,98.744ZM77.009,111.95a6.232,6.232,0,0,1,.449-1.382,50.288,50.288,0,0,1,4.566-6.586,30.13,30.13,0,0,1-15.464.189c1.333,1.592,4.482,5.709,4.853,7.778-4.951-2.153-11.439-3.128-10.765-8.444.358-3.885,4.818-4.061,7.757-4.25,11.768-.224,18.873-.814,19.378,4.25C88.419,108.808,82.051,109.8,77.009,111.95Z" transform="translate(-34.866 -68.762)"/></g><g transform="translate(47.56 17.741)"><path class="as" d="M79.421,14.4Z" transform="translate(-79.421 -14.399)"/></g><g transform="translate(0.59)"><path class="aq" d="M34.7,62.853c-1.166-3.465-3.043-8.666-6.126-10.721-1.885-10.369-5.5-23.9,5.5-36.739,2.344-2.747,5.4-5.158,9-5.7C51.958-3.466,62.593-9.543,86.957-1.607,123.762,9.151,117.6,35.837,116.31,51.9c-1.736,1.821-3.383,6.966-4.305,10.07-.821-17.67-7.467-42.718-27.133-42.718-9.965,0-11.97,3.979-26.132,2.38C32.586,19.614,37.448,50.764,34.7,62.853Z" transform="translate(-26.258 5.629)"/><path class="c" d="M75.815,13.728C65.607,15.53,59.988,11.314,62.092,3.6a10.049,10.049,0,0,0-4.841,10.129C54.834,10.951,54.936,6.22,56.372.794c-5.625,6.016-6.638,11.319-5.294,16.692-3.515-3.828-6.107-8.9-2.593-13.31a49.776,49.776,0,0,0-4.631,5.933,31.593,31.593,0,0,0-2.9,1.555c2.058,0,6.536,2.09,9.121,6.42a11.861,11.861,0,0,0-9.492,1.668c-6.592,5.53-9.962,14.66-5.024,43.078,1.58-8.394,1.082-16.516,2.292-23.283,2.023-11.322,7.061-18.848,21.682-17.5,14.161,1.6,16.167-2.38,26.132-2.38,19.665,0,26.313,25.048,27.133,42.718.922-3.1,2.569-8.249,4.305-10.07.212-2.636.292-2.469.554-5.559C111.8,20.07,97.222,9.95,75.815,13.728Z" transform="translate(-27.045 4.933)"/><path class="ar" d="M31,43.61C28.384,14.717,43.643,14.824,45.729,16.433,42.821,16.09,32.926,13.495,31,43.61ZM64.139,6.79c1.164,2.865,3.193,4.906,7.622,5.186,0,0,.789.544,12.205-1.469a21.734,21.734,0,0,1,3.317-.385C78.9,9.359,68.7,14.8,64.139,6.79Zm44.725,12a12.52,12.52,0,0,0-.752-1.007C101.489,9.4,90.473,9.2,91.141,9.946c-.657-.835,13.569,1.667,18.927,12.865,3.391,6.2.992,1.783,3.866,7.473C111.407,22.342,110.115,20.681,108.864,18.788ZM94.691,12.415s-.895-.269-1.808-.464-1.834-.329-1.833-.329a26.14,26.14,0,0,0-5.87-.1c4.348.044,10.956,1.058,14.553,3.857A10.957,10.957,0,0,0,94.691,12.415ZM29.6,31.512c-.94,6.869-1.185,14.892,2.279,20.865C29.571,46.688,29.519,37.654,29.6,31.512Zm25.37-11.065a1.81,1.81,0,0,0,.789.055,2.063,2.063,0,0,1-.746-.177c-4.808-1.456-7-10.623.71-19.144C46.477,8.4,48.927,19.645,54.968,20.447ZM61.334,3.809c-2.619,2.044-4.392,4.368-4.7,7.55-.446,4.956,2.272,9.025,7.682,9.457C55.781,18.834,56.067,9.331,61.334,3.809ZM80.13,7.4A28.979,28.979,0,0,1,68.522,5.387c5.843,3.4,11.949,3.07,18.936,1.753C84.517,7.268,83,7.343,80.13,7.4Z" transform="translate(-26.553 4.888)"/><path class="at" d="M90.046,5.462c-7.287.51-8.966.155-12.156-1.636C81.941,5.6,83.46,5.139,90.046,5.462Zm-25.6,5.923C60.545,7.353,61.817,5.4,61.817,5.4s-1.865,4.953,4.654,8.122c3.631,1.976,9.981.006,11.827-.232C75.891,13.285,68.09,15.012,64.446,11.384ZM45.511,17.5c-13.125.126-13.33,20.556-11.644,33.5C34.218,38.639,33.96,19.279,45.511,17.5ZM116.6,43.542c-1.614-9.418-5.526-20.279-13.759-25.164C109.532,23.72,114.375,35.582,116.6,43.542Zm-.784-12.716c-.52-9.237-5.587-16.308-12.7-21.277C109.381,15.363,114.28,22.275,115.82,30.826ZM97.761,5.929c-8.314-4.71-15.782-8.165-25.6-5.26C81.14-.815,88.626,1.945,97.761,5.929ZM61.993-1.611C54.9-.94,49.536,2.492,49,9.6,50.126,2.487,55.495-.262,61.993-1.611ZM56.652,9.053C58.243,1.1,63.691-.54,70.1-1.688,63.375-1.369,56.931,1.058,56.652,9.053Z" transform="translate(-27.037 5.223)"/><path class="d" d="M86.995-2.149C62.243-10.211,51.651-3.695,42.916,9.157c-3.58.548-6.688,3.009-9.033,5.758-11.1,12.952-7.4,26.657-5.526,37,3.279,2.115,5.183,7.863,6.347,11.348C37.87,51.5,32.222,19.456,58.689,21.5c14.582,1.646,16.339-2.6,26.973-2.371,18.031-.769,25.627,25.7,26.153,43.8.79-2.717,2.692-9.283,4.67-11.277C117.548,38.2,125.208,9.021,86.995-2.149Zm28.8,54.08c-1.68,2.006-2.951,5.571-3.661,8.072.173-16.755-7.24-43.439-26.468-42.823C74.483,17,73.076,21.135,58.886,19.7c-13.019-.947-20.315,6.806-22.6,18.733C34.9,45.32,36,54.447,34.739,61.932c-1.046-3.372-2.815-7.9-5.758-9.875C27.79,38.85,24.8,28.734,34.788,15.693a17.166,17.166,0,0,1,9.04-6.116C48.7,4.461,54.349-10.982,86.511-.564,120.832,9.515,117.1,34.449,115.8,51.931Z" transform="translate(-26.23 5.692)"/></g><g transform="translate(47.56 17.741)"><path class="au" d="M79.421,14.4Z" transform="translate(-79.421 -14.399)"/></g></g></g></g></g></svg>