<svg xmlns="http://www.w3.org/2000/svg" xmlns:xlink="http://www.w3.org/1999/xlink" width="41" height="41" viewBox="0 0 41 41"><defs><style>.a{fill:#fff;stroke:#707070;}.b{clip-path:url(#a);}.c{fill:#2d62fc;}.d{fill:#189afe;}</style><clipPath id="a"><rect class="a" width="41" height="41"/></clipPath></defs><g class="b"><g transform="translate(2.902 0)"><path class="c" d="M281.118,306.107a16.861,16.861,0,0,1-.693,1.906,23.29,23.29,0,0,1-5.543,8.488l-.173.173c-.606.606-1.213,1.126-1.819,1.646a16.911,16.911,0,0,1-1.992,1.472c-.693.433-1.386.866-2.165,1.3a13.065,13.065,0,0,1-2.252,1.039c-.346.173-.693.26-1.126.433a1.606,1.606,0,0,1-.606.173c-.087,0-.173.087-.26.087h-.346c-.087,0-.173,0-.173-.087-.087,0-.173-.087-.346-.087a1.605,1.605,0,0,0-.606-.173c-.433-.173-.78-.26-1.213-.433-.78-.346-1.559-.693-2.252-1.039-.779-.433-1.472-.866-2.165-1.3a16.915,16.915,0,0,1-1.992-1.472c-.606-.52-1.213-1.039-1.819-1.646l-.173-.173a26.666,26.666,0,0,1-5.543-8.488c-.26-.606-.433-1.3-.693-1.906a36.734,36.734,0,0,0,2.6,2.6,31.742,31.742,0,0,0,13.339,7.189l1.039.26,1.039-.26a32.27,32.27,0,0,0,13.339-7.189A35.579,35.579,0,0,0,281.118,306.107Z" transform="translate(-246.299 -280.989)"/><path class="d" d="M281.342,298.212l-.52-1.559a24.863,24.863,0,0,0-5.63-8.835l-.346-.346a.318.318,0,0,0,.087.26,20.271,20.271,0,0,1,.26,3.291v.087a20.051,20.051,0,0,1-.433,3.984,12.315,12.315,0,0,0-3.118-.433h0a10.851,10.851,0,0,0-4.677,1.039,8.652,8.652,0,0,0-2.512,1.732,16.215,16.215,0,0,0-2.512-1.732,10.314,10.314,0,0,0-4.677-1.039h0a11.788,11.788,0,0,0-3.118.433,20.052,20.052,0,0,1-.433-3.984v-.087a20.269,20.269,0,0,1,.26-3.291.318.318,0,0,1,.087-.26l-.346.346a25.648,25.648,0,0,0-5.63,8.835l-.52,1.559a24.456,24.456,0,0,0-1.039,7.189h0a10.831,10.831,0,0,0,10.827,10.827h0a11.193,11.193,0,0,0,5.63-1.559,7.466,7.466,0,0,0,1.559-1.213,19.029,19.029,0,0,0,1.559,1.213,10.388,10.388,0,0,0,5.63,1.559h0A10.831,10.831,0,0,0,282.555,305.4h0A31.973,31.973,0,0,0,281.342,298.212ZM260.815,305.4a3.628,3.628,0,0,1-3.465,3.638h-.087a3.66,3.66,0,0,1-3.638-3.638v-.087a3.627,3.627,0,0,1,3.638-3.465h0a3.512,3.512,0,0,1,3.551,3.551Zm10.74,3.551h-.087A3.627,3.627,0,0,1,268,305.314h0a3.66,3.66,0,0,1,3.638-3.638h0a3.628,3.628,0,0,1,3.638,3.465v.087A3.751,3.751,0,0,1,271.555,308.952Z" transform="translate(-246.524 -287.472)"/></g></g></svg>