<svg xmlns="http://www.w3.org/2000/svg" xmlns:xlink="http://www.w3.org/1999/xlink" width="272.719" height="210.699" viewBox="0 0 272.719 210.699"><defs><style>.a{fill:#f5f7ff;}.b{clip-path:url(#a);}.c{fill:#0c080c;}.d,.n{fill:#f6e4e2;}.aa,.e,.z{fill:#fff;}.f{fill:#e7c1bd;}.g{fill:none;}.g,.n{stroke:#c8837c;stroke-width:1.339px;}.h{fill:url(#b);}.i{fill:#ef5d25;}.j{fill:#d03a00;}.k{fill:#e0470c;}.l{fill:#fe7541;}.m{fill:#c13600;}.o{fill:#c8837c;}.p{fill:#eed2cf;}.q{fill:url(#c);}.r{fill:#f771a9;stroke:#e85391;stroke-width:0.669px;}.s{fill:#c92066;}.t{fill:#ff8ebd;}.u{fill:#ffa8cc;}.v{fill:url(#d);}.w{fill:#4e60a3;stroke:#152975;stroke-width:0.446px;}.x{fill:#6777b2;}.aa,.y{opacity:0.9;}.z{opacity:0.6;}.ab{fill:url(#e);}.ac{fill:url(#f);}.ad{fill:url(#g);}.ae{fill:url(#h);}.af{fill:url(#i);}.ag{fill:url(#j);}.ah{fill:url(#k);}.ai,.aj{fill:#2a232b;}.aj{opacity:0.1;}.ak{fill:#1b141c;}.al{fill:#3a353a;}.am{fill:#26120b;}</style><clipPath id="a"><path class="a" d="M6165.838,1743.613c15.662,19.4,84.12,36.417,146.992,24.416,50.869-9.71,97.368-44.66,113.905-65.108,18.154-22.448,3.07-50.35-21.55-81.386-24.6-31.01-59.353-64.831-92.355-59.683-27.264,4.252-49.45,14.242-86.2,59.683S6149.265,1723.088,6165.838,1743.613Z" transform="translate(-5615.024 -154.329)"/></clipPath><linearGradient id="b" x1="0.502" y1="1.006" x2="0.502" y2="0.187" gradientUnits="objectBoundingBox"><stop offset="0" stop-color="#e7c1bd" stop-opacity="0.8"/><stop offset="0.7" stop-color="#c8837c"/></linearGradient><linearGradient id="c" x1="0.5" y1="0.93" x2="0.5" y2="0.085" gradientUnits="objectBoundingBox"><stop offset="0.1" stop-color="#eed2cf"/><stop offset="1" stop-color="#e7c1bd"/></linearGradient><radialGradient id="d" cx="0.487" cy="0.535" r="1.046" gradientTransform="matrix(-0.502, 0, 0, 1, 3.784, 0)" gradientUnits="objectBoundingBox"><stop offset="0" stop-color="#fff"/><stop offset="0.544" stop-color="#fdfefe"/><stop offset="0.74" stop-color="#f6f8f9"/><stop offset="0.879" stop-color="#eaeff2"/><stop offset="0.992" stop-color="#d9e3e8"/><stop offset="1" stop-color="#d8e2e7"/></radialGradient><radialGradient id="e" cx="0.502" cy="0.48" fx="0.8512049317359924" fy="0.48160696029663086" r="0.623" gradientTransform="matrix(0.795, 0.021, 0.013, -0.8, 0.36, 0.827)" gradientUnits="objectBoundingBox"><stop offset="0" stop-color="#e7c1bd"/><stop offset="0.7" stop-color="#e7c1bd" stop-opacity="0.302"/><stop offset="1" stop-color="#f6e4e2" stop-opacity="0"/></radialGradient><radialGradient id="f" cx="0.454" cy="1.92" r="1.78" gradientTransform="matrix(0.502, -0.053, 0.026, 0.993, 0.176, 0.038)" gradientUnits="objectBoundingBox"><stop offset="0.95" stop-opacity="0"/><stop offset="1" stop-opacity="0.302"/></radialGradient><radialGradient id="g" cx="0.513" cy="0.535" r="1.046" gradientTransform="translate(0.263) scale(0.502 1)" xlink:href="#d"/><radialGradient id="h" cx="0.498" cy="0.48" fx="0.8462642431259155" r="0.623" gradientTransform="matrix(-0.795, 0.021, -0.013, -0.8, 0.899, 0.854)" xlink:href="#e"/><radialGradient id="i" cx="0.546" cy="1.92" r="1.78" gradientTransform="matrix(-0.502, -0.052, -0.026, 0.993, -2.262, -0.066)" xlink:href="#f"/><radialGradient id="j" cx="0.502" cy="0.499" r="0.496" gradientTransform="translate(0)" gradientUnits="objectBoundingBox"><stop offset="0" stop-color="#fff" stop-opacity="0.502"/><stop offset="0.9" stop-color="#f6e4e2" stop-opacity="0"/></radialGradient><radialGradient id="k" cx="0.5" cy="0.514" r="0.514" gradientTransform="matrix(1, 0, 0, 1, 0, 0)" xlink:href="#j"/></defs><g class="b" transform="translate(-547 -1407)"><g transform="translate(593.072 1409.209)"><g transform="translate(18 52.757)"><g transform="translate(29.249 15.813)"><path class="c" d="M122.526,82.3c-.595,23.133-18.192,73.861-42.1,73.861S36.534,106.12,35.959,82.3c-.828-34.321,19.379-62.162,43.283-62.162S123.409,47.978,122.526,82.3Z" transform="translate(-35.935 -20.135)"/></g><g transform="translate(2.332 91.55)"><path class="d" d="M137.908,165.957c-4.326-7.313-9.7-8.62-14.132-10.034-4.552-1.451-13.929-2.288-19.043-3.312-4.939-.989-16.669-4.168-16.8-9.711-.138-5.807,3.089-28.864,3.089-28.864H53.777s3.231,23.056,3.092,28.864c-.132,5.543-11.865,8.722-16.8,9.711-5.115,1.024-14.489,1.86-19.042,3.312-4.432,1.413-9.809,2.719-14.134,10.034-2.624,4.435-4.326,11.615-4.326,19.535H142.236C142.236,177.572,140.536,170.392,137.908,165.957Z" transform="translate(-2.562 -114.037)"/><path class="e" d="M87.992,149.824c1.8,7.869,13.078,9.862,18.93,11.034,15.774,3.153,24.315,3.7,30.453,14.068,2.09,3.539,3.93,11.422,4.292,17.389,1.321.21.382-12.551-3.7-19.435-7.014-11.859-20.943-10.9-33.174-13.345-4.939-.989-16.669-4.168-16.8-9.711Zm-30.875,0c-.134,5.543-11.864,8.722-16.8,9.711-12.231,2.448-26.16,1.485-33.174,13.345-4.08,6.885-5.019,19.644-3.7,19.435.362-5.968,2.2-13.85,4.292-17.389,6.137-10.371,14.679-10.915,30.453-14.068,5.852-1.171,17.134-3.166,18.93-11.034Z" transform="translate(-2.624 -120.959)"/><path class="f" d="M45.709,169.161s20.621.215,24.1,1.357c1.666.546,6.028,4.056,6.028,4.056s-4.72-2.282-6.234-2.706C66.087,170.886,45.709,169.161,45.709,169.161Zm34.983,7.55c1.478-.03,5.678-2.735,5.678-2.735a34.017,34.017,0,0,1-5.286,1.555,26.637,26.637,0,0,1-4.583-.891S79.48,176.734,80.691,176.71ZM93.084,171.5c4.86-1.309,21.445-2.325,21.445-2.325S97.4,168.8,92.563,170.413c-1.621.541-5.444,3.715-5.444,3.715A54.211,54.211,0,0,1,93.084,171.5Z" transform="translate(-10.908 -124.694)"/><path class="g" d="M137.908,165.957c-7.013-11.859-20.967-10.9-33.174-13.345-4.939-.989-16.669-4.168-16.8-9.711-.138-5.807,3.089-28.864,3.089-28.864H53.777s3.231,23.056,3.092,28.864c-.132,5.543-11.865,8.722-16.8,9.711-5.115,1.024-14.489,1.86-19.042,3.312-4.432,1.413-9.809,2.719-14.134,10.034-2.624,4.435-4.326,11.615-4.326,19.535H142.236C142.236,177.572,140.536,170.392,137.908,165.957Z" transform="translate(-2.562 -114.037)"/></g><g transform="translate(54.084 92.02)"><path class="h" d="M66.737,114.7c.461,3.331,2.526,18.516,2.941,25.784,4.649,2.625,10.233,4.807,15.227,4.807,4.737,0,10.328-2.159,15.034-4.766.41-7.254,2.481-22.488,2.942-25.825l.012-.081H66.726Z" transform="translate(-66.726 -114.62)"/></g><g transform="translate(1.373 116.344)"><path class="i" d="M95.245,153.966c-.511-3.961-5.552-7.591-7.02-8.958-.17,2.941-.508,4.332.436,5.84-1.792,4.065-10.709,6.359-12.769,11.633-3.339,2.4-2.092,10.795-2.534,11.7a28.591,28.591,0,0,1-.7,3.436c-2.656-7-.695-11.465-3.845-13.975-.558-6.007-12.045-7.434-13.869-12.006a.508.508,0,0,0,.094.05c1.439-1.223,1.379-3.137,1.218-4.815-.012-.549.01-.119-.12-1.933-.72.157-6.439,5.69-6.885,8.894C15.318,166.12,1.473,153.4,1.46,195.068c4.636,0,10.15.1,17.767.242,42.094.773,78.723.912,123.556.773C146.559,153.507,119.253,162.511,95.245,153.966Z" transform="translate(-1.39 -144.809)"/><path class="j" d="M68.939,147.436c.361,2.16-.406,4.28-1.228,4.738a.764.764,0,0,0-.158.037C65.953,150.419,68.263,149.112,68.939,147.436Zm31.823.063c-.117,1.662-.121,2.716.577,3.832C101.7,150.866,102.215,148.457,100.762,147.5Z" transform="translate(-14.068 -145.291)"/><path class="k" d="M76.2,170.957a12.765,12.765,0,0,1,1.557-5.657c-.113,1.166-.017,2.607-.017,3.773,7.214-.881,16.459-3.156,19.338-11.075C94.921,167.357,84.841,170.237,76.2,170.957Zm-5.943-1.65c-3.246.811-17.16-4.99-18.629-10,1.41,8.04,11.383,9.652,19.3,11.812a9.8,9.8,0,0,0-.3-4.779A10.807,10.807,0,0,0,70.258,169.307Zm49.89,24.463a28.071,28.071,0,0,0,.655-7.524c-.41-8.234-.834-10.766-2.973-17.906a50.487,50.487,0,0,1,3.053,10.5C122.368,185.559,120.092,194.748,120.148,193.77Zm-89.8-27.755c-3.436,7.7-5.135,10.265-4.37,19.439l-.007-.015c.064.72.384,4.879.734,7.005-.352-7.22-.141-2.873-.238-7.005v-.022C26.03,178.21,28.35,174.557,30.346,166.015ZM10.72,189.652c-.25-1.493,1.007-15.7,7.725-20.383.684-.466,1.051-.725.346-.281C8.791,175.628,10.72,191.2,10.72,189.652Z" transform="translate(-3.152 -147.334)"/><path class="l" d="M89.12,152.568c-.275,4.056-10.643,7.755-13.116,13.048C76.249,159,85.822,157.067,89.12,152.568ZM68.675,166.111c.629-5.572-10.08-8.716-14.268-13.175C56.8,158.951,63.632,158.186,68.675,166.111Zm69.23,9.345c3.985,6.53,3.463,13.54,4.922,17.49,0-7.92-.9-14.939-3.42-19.438-7.74-13.839-15.071-8.776-44.56-18.153C123.119,166.386,130.453,163.243,137.906,175.456Zm-88.024-20.1c-29.489,9.376-36.819,4.313-44.559,18.153-2.516,4.5-3.42,11.519-3.42,19.438,1.459-3.949.937-10.959,4.922-17.49C14.277,163.243,21.611,166.386,49.881,155.354Z" transform="translate(-1.475 -146.284)"/><path class="m" d="M95.294,153.881c-.418-3.39-4.443-6.8-7.079-8.987l-.014.174c7.339,6.861,6.644,8.838,5.912,11.332a10.924,10.924,0,0,1-3.874,4.788C86.081,164.5,77,166.37,76.012,166.445c-.71-7.262,5.018-7.111,11.224-13a8.662,8.662,0,0,0,1.5-1.844c1.04-1.688.626-3.454-.622-4.984l-.019.388c4.22,6.706-9.679,8.7-12.26,15.388-3.36,2.416-2.128,10.836-2.563,11.75a26.008,26.008,0,0,1-.648,3.2c-2.089-5.515-1.051-7.373-2.081-10.987v-.007a5.072,5.072,0,0,0-1.678-2.743c-.721-7.757-19.438-7.952-12.628-16.765l-.025-.364c-9.061,9.676,13,9.295,12.12,20.253-2.843.168-3.372-1-6.53-1.807-6.7-1.96-14.361-7.531-11.052-13.716a26.177,26.177,0,0,1,5.359-6.25l-.011-.181c-2.67,2.213-6.455,5.454-6.933,8.973-7.491,2.714-4.846,1.984-10.562,3.341-30.674,5.235-37.23,6.2-37.23,38.015,16.734,0,44.985,1.318,141.46,1.014C146.677,153.069,118.749,162.47,95.294,153.881ZM1.51,194.934c.266-16.364.49-28.833,22.19-34.2,10.488-2.719,11.612-1,25.444-6.66-.207,7.864,8.717,10.391,16.264,12.592a6.766,6.766,0,0,0,3.168.187,16.446,16.446,0,0,0,.3-2.937,4.967,4.967,0,0,1,1.26,2.527,23.584,23.584,0,0,1,.367,3.938c.373,10.779,2.669,2.821,2.369,24.242C65.156,194.625,22.8,194.781,1.51,194.934Zm72.062-.309c.571-7.856,1.177-9.2-.259-15.256,1.33-5.037.871-6.555.871-10.245a21.511,21.511,0,0,1,.158-2.707,5.529,5.529,0,0,1,1.3-3.391,10.586,10.586,0,0,0,.1,3.564c9.384,0,20.833-6.01,19.583-12.383,21.866,8.854,46.753,2.873,47.259,33.191.135,2.019.111,3.535.158,8.474C87.8,194.745,79.49,194.593,73.572,194.625Z" transform="translate(-1.373 -144.777)"/></g><g transform="translate(20.893 -2.21)"><g transform="translate(3.216 57.331)"><path class="n" d="M39.558,73.781c-.991-1.665-4.059-5.758-7.185-4.754-1.979.635-2.371,2.711-2.689,4.544a23.851,23.851,0,0,0,1,9,23.185,23.185,0,0,0,3.79,6.139c1.534,1.512,3.438,6.331,3.74,6.83a2.892,2.892,0,0,0,2.968,1.827c2.054-.165,3.3-1.254,4.216-1.439C47.659,95.477,42.136,78.116,39.558,73.781Z" transform="translate(-29.561 -68.871)"/><path class="o" d="M37.739,84.228a5.428,5.428,0,0,1,.1-1.7A6.243,6.243,0,0,0,37.963,81a26.093,26.093,0,0,0-1.985-5.749c-.815-1.733-2.133-3.916-3.788-4.479a1.233,1.233,0,0,0-1.4.328c-.192.208-.234.451-.171.48s.205-.173.412-.363a.967.967,0,0,1,.757-.261,30.1,30.1,0,0,0-.536,7.362,10.451,10.451,0,0,0,1.289,3.931,5.732,5.732,0,0,0,.107.73c.669,3.087,3.579,6.6,4.592,7.745.186.212.382.338.431.287s-.068-.262-.254-.475c-1-1.141-3.881-4.638-4.528-7.617-.685-3.16,1.669-7.845,2.194-8.835.267.465.495.912.67,1.285.137.292.289.634.446,1-.309.517-2.472,4.29-1.683,7.31A5.6,5.6,0,0,0,37,86.626a1.793,1.793,0,0,1,.87.915,2.571,2.571,0,0,0,1.316,1.284,1.059,1.059,0,0,0,.439.1.783.783,0,0,0,.522-.2c.013.192.012.435.006.66-.009.291.03.531.1.536s.141-.225.149-.516a4.224,4.224,0,0,0-.052-1.01,7.261,7.261,0,0,0-1.305-2.07A6.99,6.99,0,0,1,37.739,84.228Zm-5.218-2.737a13.109,13.109,0,0,1,.824-9.694,9.238,9.238,0,0,1,1.591,2.033C34.616,74.414,32.587,78.232,32.521,81.492Zm6.761,7.089a2.334,2.334,0,0,1-1.2-1.176,2.046,2.046,0,0,0-.986-1.022,2.531,2.531,0,0,1-.39-.233c-1.79-4.252.2-6.111.693-6.492a9.723,9.723,0,0,1,.316,1.379,6.235,6.235,0,0,1-.12,1.449,5.533,5.533,0,0,0-.1,1.809,7.082,7.082,0,0,0,1.356,2.2,7.7,7.7,0,0,1,1.239,1.922A.6.6,0,0,1,39.283,88.58Z" transform="translate(-29.761 -69.222)"/></g><g transform="translate(82.968 57.331)"><path class="n" d="M134.81,73.781c.991-1.665,4.06-5.758,7.185-4.754,1.98.635,2.371,2.711,2.69,4.544a23.85,23.85,0,0,1-1,9,23.152,23.152,0,0,1-3.791,6.139c-1.533,1.512-3.438,6.331-3.739,6.83a2.89,2.89,0,0,1-2.967,1.827c-2.055-.165-3.3-1.254-4.217-1.439C126.709,95.477,132.233,78.116,134.81,73.781Z" transform="translate(-128.439 -68.871)"/><path class="o" d="M136.9,86.327a7.258,7.258,0,0,0-1.305,2.07,4.189,4.189,0,0,0-.052,1.01c.009.291.081.522.149.516s.107-.246.1-.536c-.006-.225-.006-.469.007-.66a.783.783,0,0,0,.522.2,1.051,1.051,0,0,0,.438-.1,2.574,2.574,0,0,0,1.316-1.284,1.8,1.8,0,0,1,.87-.915,5.6,5.6,0,0,0,2.482-2.942c.789-3.02-1.374-6.793-1.683-7.31.156-.369.31-.711.446-1,.176-.373.4-.82.67-1.285.526.991,2.88,5.676,2.2,8.835-.645,2.979-3.528,6.475-4.528,7.617-.186.213-.3.423-.253.475s.243-.075.431-.287c1.012-1.149,3.923-4.659,4.593-7.745a5.858,5.858,0,0,0,.105-.73,10.437,10.437,0,0,0,1.289-3.931,30.178,30.178,0,0,0-.536-7.362.966.966,0,0,1,.757.261c.207.19.35.392.412.363s.019-.272-.171-.48a1.234,1.234,0,0,0-1.4-.328c-1.655.563-2.974,2.746-3.788,4.479A26.146,26.146,0,0,0,137.978,81a6.177,6.177,0,0,0,.122,1.527,5.425,5.425,0,0,1,.1,1.7A6.916,6.916,0,0,1,136.9,86.327Zm4.109-12.5A9.263,9.263,0,0,1,142.6,71.8a13.116,13.116,0,0,1,.824,9.694C143.354,78.232,141.325,74.413,141.005,73.83Zm-5.158,14.587a7.68,7.68,0,0,1,1.239-1.922,7.086,7.086,0,0,0,1.357-2.2,5.573,5.573,0,0,0-.1-1.809,6.189,6.189,0,0,1-.12-1.449,9.513,9.513,0,0,1,.315-1.379c.5.381,2.483,2.24.695,6.492a2.568,2.568,0,0,1-.391.233,2.052,2.052,0,0,0-.986,1.022,2.331,2.331,0,0,1-1.2,1.176A.6.6,0,0,1,135.847,88.417Z" transform="translate(-129.812 -69.221)"/></g><g transform="translate(7.548 2.406)"><g transform="translate(0 0)"><path class="d" d="M78.756.774A43.65,43.65,0,0,0,36.374,55.549h0c.009.038,6.005,14.507,7.533,23.521,1.714,10.113,7.532,21.416,11.737,25.349,4.357,4.077,14.6,10.4,23.11,10.4,8.112,0,18.752-6.323,23.11-10.4,4.2-3.934,10.023-15.237,11.737-25.349,1.528-9.013,7.525-23.483,7.533-23.521h0A43.65,43.65,0,0,0,78.756.774Z" transform="translate(-34.933 -0.774)"/><path class="p" d="M105.322,11.9A44.329,44.329,0,0,1,120.467,45.57,45.687,45.687,0,0,1,119.1,56.644h0c-.008.038-5.716,14.507-7.17,23.521-1.632,10.113-7.17,21.416-11.172,25.349-4.148,4.078-14.276,10.4-22,10.4-8.1,0-17.85-6.322-22-10.4-4-3.934-9.54-15.236-11.171-25.349-1.454-9.013-7.162-23.483-7.17-23.521h0A45.617,45.617,0,0,1,37.045,45.57,44.325,44.325,0,0,1,52.188,11.9,43.511,43.511,0,0,0,36.374,57.7h0c.009.038,6.005,14.507,7.533,23.521,1.714,10.113,7.532,21.416,11.737,25.349,4.357,4.077,14.6,10.4,23.11,10.4,8.112,0,18.752-6.323,23.11-10.4,4.2-3.934,10.023-15.237,11.737-25.349,1.528-9.013,7.525-23.483,7.533-23.521h0a43.512,43.512,0,0,0-15.815-45.8Z" transform="translate(-34.933 -2.925)"/><path class="g" d="M78.756.774A43.65,43.65,0,0,0,36.374,55.549h0c.009.038,6.005,14.507,7.533,23.521,1.714,10.113,7.532,21.416,11.737,25.349,4.357,4.077,14.6,10.4,23.11,10.4,8.112,0,18.752-6.323,23.11-10.4,4.2-3.934,10.023-15.237,11.737-25.349,1.528-9.013,7.525-23.483,7.533-23.521h0A43.65,43.65,0,0,0,78.756.774Z" transform="translate(-34.933 -0.774)"/></g></g><g transform="translate(41.621 94.766)"><path class="q" d="M88.38,125.471a3.687,3.687,0,0,1-3.7-2.451,10.08,10.08,0,0,0,7.392-.105A4.267,4.267,0,0,1,88.38,125.471Z" transform="translate(-78.629 -116.76)"/><path class="r" d="M77.473,117.293c1.984-.685,5.02-1.938,6.6-2.008.816-.037,1.693.626,2.573.839.613.148,2.35-.832,2.973-.839,1.636-.017,5.083,1.323,6.841,2.008h0s-4.168,5.006-9.493,5.006c-6.028,0-9.494-5.006-9.494-5.006Z" transform="translate(-77.226 -115.284)"/><path class="s" d="M96.675,117.521c-.035-.118-.347-.264-.47-.258-.224.012-.484.285-.945.3-.534.013-3.369.439-4.13.389-1.533-.1-2.753.48-4.21.48s-2.785-.635-4.317-.532c-.761.052-3.49-.323-4.025-.336-.463-.011-.642-.3-.839-.334a.749.749,0,0,0-.545.243.836.836,0,0,0,.15.572c.205.214.818.174,1.223.184.559.012,3.3.387,4.068.336,1.5-.1,2.834.592,4.285.592s2.682-.64,4.18-.539c.771.051,3.611-.377,4.171-.389a2.6,2.6,0,0,0,1.191-.21A.714.714,0,0,0,96.675,117.521Z" transform="translate(-77.177 -115.658)"/><path class="t" d="M87.659,121.291a10.416,10.416,0,0,1-6.653-2.38c.941-.052,1.909-.2,2.852-.158,1.161.05,2.264.509,3.424.585a19.341,19.341,0,0,0,3.646-.5,28.6,28.6,0,0,1,3.665-.448C92.755,119.8,90,121.291,87.659,121.291Zm3.292-4.041c.946-.027,2.458-.383,3.4-.315a14.507,14.507,0,0,0-3.775-.9c-.983-.192-1.971.569-2.938.7-1.09.143-1.908-.892-2.966-.927a8.767,8.767,0,0,0-3.336,1.188,18.333,18.333,0,0,1,2.8-.009c1.127.143,2.21.588,3.351.626C88.655,117.653,89.783,117.281,90.951,117.25Z" transform="translate(-77.918 -115.385)"/><path class="u" d="M88.226,121.4a6.751,6.751,0,0,1-4.109-1.441c.274-.027.55-.048.816-.048.084,0,.168,0,.253.008a5.92,5.92,0,0,1,1.329.283,7.243,7.243,0,0,0,1.384.3c.1.007.19.011.284.011a6.685,6.685,0,0,0,1.69-.288,9.625,9.625,0,0,1,1-.225,3.848,3.848,0,0,1,.6-.042c.193,0,.392.011.589.026A6.522,6.522,0,0,1,88.226,121.4Z" transform="translate(-78.52 -116.178)"/></g><g transform="translate(17.845 47.14)"><g transform="translate(5.666 11.874)"><path class="v" d="M73.172,75.893a4.651,4.651,0,0,1,.185,1.266,5.017,5.017,0,0,1-1.037,2.977c-2.935.027-12.215.508-13.633-.218-2.025-1.037-3.832-5.305-3.964-6.355C61.919,69.423,67.229,70.228,73.172,75.893Z" transform="translate(-54.723 -70.957)"/></g><g transform="translate(9.406 11.52)"><path class="w" d="M71.383,77.812a6.121,6.121,0,1,1-4.295-7.52A6.1,6.1,0,0,1,71.383,77.812Z" transform="translate(-59.36 -70.072)"/><path class="x" d="M70.769,79.262a4.957,4.957,0,0,1-9.651-2.012,22,22,0,0,1,2.811-.04c-.01.034-.028.063-.037.1a2.277,2.277,0,0,0,4.385,1.2,2.068,2.068,0,0,0,.067-.449A12.093,12.093,0,0,1,70.769,79.262Z" transform="translate(-59.697 -71.448)"/><path class="y" d="M67.288,75.374a2.226,2.226,0,0,0-2.793,1.57,2.362,2.362,0,0,0,1.646,2.838,2.228,2.228,0,0,0,2.8-1.564A2.364,2.364,0,0,0,67.288,75.374Zm.268,4.317a.919.919,0,0,1-1.178-.472.873.873,0,0,1,.68-1.039.923.923,0,0,1,1.18.469A.874.874,0,0,1,67.556,79.691Z" transform="translate(-60.339 -71.08)"/><path class="z" d="M62.561,81.219a1,1,0,0,1-1.263-.456.884.884,0,0,1,.1-1.272,1.007,1.007,0,0,1,1.264.455A.889.889,0,0,1,62.561,81.219Z" transform="translate(-59.694 -71.876)"/><path class="aa" d="M72.094,76.332a2.3,2.3,0,0,1-2.894-1.04c-.734-1.093-.624-2.4.239-2.914a2.292,2.292,0,0,1,2.891,1.04C73.063,74.51,72.956,75.814,72.094,76.332Z" transform="translate(-61.169 -70.477)"/></g><path class="d" d="M49.988,74.235c0,9.941,5.8,18,12.959,18s12.959-8.057,12.959-18-5.8-18-12.959-18S49.988,64.293,49.988,74.235Zm3.819-3.521c7.2-4.139,12.506-3.333,18.449,2.331a4.651,4.651,0,0,1,.185,1.266A5.017,5.017,0,0,1,71.4,77.287c-2.935.027-12.215.508-13.633-.218C55.746,76.033,53.938,71.765,53.807,70.714Z" transform="translate(-48.141 -56.235)"/><path class="ab" d="M54.745,72.783c.376,1.425,2.04,5.059,3.889,6.006,1.418.726,10.7.246,13.633.218A5.014,5.014,0,0,0,73.3,76.03a4.651,4.651,0,0,0-.185-1.266c-5.879-5.6-11.142-6.444-18.222-2.453,1.417-4.121,6.136-7.165,11.764-7.19,6.763-.029,12.252,4.306,12.269,9.684s-5.452,9.758-12.211,9.789S54.467,80.288,54.45,74.91A7.91,7.91,0,0,1,54.745,72.783Z" transform="translate(-49.004 -57.954)"/><path class="ac" d="M58.687,79.918c-2.025-1.037-3.832-5.305-3.964-6.355,7.2-4.139,12.506-3.333,18.449,2.331a4.651,4.651,0,0,1,.185,1.266,5.017,5.017,0,0,1-1.037,2.977C69.384,80.163,60.1,80.644,58.687,79.918Z" transform="translate(-49.057 -59.083)"/><path class="o" d="M54.753,70.954c2.458-.965,10.293-3.063,14.1-.964C63.4,68.293,57.952,70.11,54.753,70.954Zm15.947.715a5.575,5.575,0,0,1,2.493,2.173A21.649,21.649,0,0,0,70.7,71.669Z" transform="translate(-49.063 -58.722)"/><path d="M69.748,71.677c-6-1.919-10.7-1.9-16.695.572a12.3,12.3,0,0,1-5.355-.181A4.638,4.638,0,0,0,50.8,73.532a8.408,8.408,0,0,1-2.115.26,24.61,24.61,0,0,0,3.809.99,4.484,4.484,0,0,1-2.234.315c.666.523,1.657.476,2.655.809,2.784,3.657,3.367,4.458,4.23,4.5a66.9,66.9,0,0,0,14.625-.585c-1.079-.137-12.834.562-14.445-.225-2.025-.99-3.832-5.062-3.964-6.064,7.38-4.051,12.774-3.153,18.9,2.634a12.925,12.925,0,0,0-5.58-4.669Z" transform="translate(-47.698 -58.958)"/></g><g transform="translate(54.971 47.14)"><g transform="translate(5.625 11.874)"><path class="ad" d="M100.887,75.893a4.651,4.651,0,0,0-.185,1.266,5.017,5.017,0,0,0,1.037,2.977c2.935.027,12.215.508,13.633-.218,2.025-1.037,3.832-5.305,3.964-6.355C112.14,69.423,106.83,70.228,100.887,75.893Z" transform="translate(-100.702 -70.957)"/></g><g transform="translate(8.279 11.52)"><path class="w" d="M116.015,77.812a6.121,6.121,0,1,1-4.295-7.52A6.1,6.1,0,0,1,116.015,77.812Z" transform="translate(-103.992 -70.072)"/><path class="x" d="M115.4,79.262a4.957,4.957,0,0,1-9.651-2.012,22,22,0,0,1,2.811-.04c-.01.034-.028.063-.037.1a2.277,2.277,0,0,0,4.385,1.2,2.068,2.068,0,0,0,.067-.449A12.093,12.093,0,0,1,115.4,79.262Z" transform="translate(-104.329 -71.448)"/><path class="y" d="M111.92,75.374a2.226,2.226,0,0,0-2.793,1.57,2.362,2.362,0,0,0,1.646,2.838,2.228,2.228,0,0,0,2.8-1.564A2.364,2.364,0,0,0,111.92,75.374Zm.268,4.317a.919.919,0,0,1-1.178-.472.873.873,0,0,1,.68-1.039.923.923,0,0,1,1.18.469A.874.874,0,0,1,112.188,79.691Z" transform="translate(-104.971 -71.08)"/><path class="z" d="M107.193,81.219a1,1,0,0,1-1.263-.456.884.884,0,0,1,.1-1.272,1.007,1.007,0,0,1,1.264.455A.889.889,0,0,1,107.193,81.219Z" transform="translate(-104.326 -71.876)"/><path class="aa" d="M116.726,76.332a2.3,2.3,0,0,1-2.894-1.04c-.734-1.093-.624-2.4.239-2.914a2.292,2.292,0,0,1,2.891,1.04C117.695,74.51,117.588,75.814,116.726,76.332Z" transform="translate(-105.801 -70.477)"/></g><path class="d" d="M109.365,56.235c-7.157,0-12.959,8.059-12.959,18s5.8,18,12.959,18,12.959-8.057,12.959-18S116.521,56.235,109.365,56.235Zm5.176,20.835c-1.418.726-10.7.246-13.633.218a5.014,5.014,0,0,1-1.037-2.977,4.651,4.651,0,0,1,.185-1.266c5.943-5.665,11.252-6.47,18.449-2.331C118.374,71.765,116.566,76.033,114.541,77.07Z" transform="translate(-94.246 -56.235)"/><path class="ae" d="M117.912,72.783c-.376,1.425-2.04,5.059-3.889,6.006-1.418.726-10.7.246-13.633.218a5.014,5.014,0,0,1-1.037-2.977,4.651,4.651,0,0,1,.185-1.266c5.879-5.6,11.142-6.444,18.222-2.453-1.417-4.121-6.136-7.165-11.764-7.19-6.763-.029-12.252,4.306-12.269,9.684s5.452,9.758,12.211,9.789,12.251-4.306,12.268-9.684A7.91,7.91,0,0,0,117.912,72.783Z" transform="translate(-93.728 -57.954)"/><path class="af" d="M115.372,79.918c2.025-1.037,3.832-5.305,3.964-6.355-7.2-4.139-12.506-3.333-18.449,2.331a4.651,4.651,0,0,0-.185,1.266,5.017,5.017,0,0,0,1.037,2.977C104.675,80.163,113.955,80.644,115.372,79.918Z" transform="translate(-95.077 -59.083)"/><path class="o" d="M105.255,69.99c3.8-2.1,11.64,0,14.1.964C116.154,70.11,110.706,68.293,105.255,69.99Zm-4.341,3.852a5.575,5.575,0,0,1,2.493-2.173A21.649,21.649,0,0,0,100.914,73.842Z" transform="translate(-95.118 -58.722)"/><path d="M102.888,71.677c6-1.919,10.7-1.9,16.695.572a12.3,12.3,0,0,0,5.355-.181,4.638,4.638,0,0,1-3.105,1.464,8.408,8.408,0,0,0,2.115.26,24.61,24.61,0,0,1-3.809.99,4.484,4.484,0,0,0,2.234.315c-.666.523-1.657.476-2.655.809-2.784,3.657-3.367,4.458-4.23,4.5a66.9,66.9,0,0,1-14.625-.585c1.079-.137,12.834.562,14.445-.225,2.025-.99,3.832-5.062,3.964-6.064-7.38-4.051-12.774-3.153-18.9,2.634a12.925,12.925,0,0,1,5.58-4.669Z" transform="translate(-95.013 -58.958)"/></g><g transform="translate(22.237 16.901)"><path class="ag" d="M111.223,93.921A29.04,29.04,0,1,1,82.139,64.926,29.038,29.038,0,0,1,111.223,93.921Z" transform="translate(-53.143 -27.678)"/><path class="ah" d="M108.42,43.944a25.2,25.2,0,1,1-25.2-25.2A25.2,25.2,0,0,1,108.42,43.944Z" transform="translate(-54.087 -18.745)"/></g><g transform="translate(17.092 46.766)"><path class="ai" d="M46.765,66.085c11.812-14,31.409-10.313,27.406-8.424C72.783,58.316,58.5,55.48,46.765,66.085Z" transform="translate(-46.765 -55.772)"/></g><g transform="translate(57.789 46.833)"><path class="ai" d="M125.088,66.1c-7.5-6.761-15.718-8.36-25.74-8.319-3.024.011-2.185-1.233-1.329-1.482C100.7,55.513,115.221,54.448,125.088,66.1Z" transform="translate(-97.223 -55.855)"/></g><g transform="translate(46.957 80.765)"><path class="f" d="M88.36,106.32c-1.372-.042-3.814-1.455-3.523-2.727.27-1.181,1.806.431,3.572.445s3.874-1.038,4.122.147C92.93,106.1,90.571,106.39,88.36,106.32Z" transform="translate(-83.99 -98.937)"/><path class="o" d="M91.232,104.589a.258.258,0,0,0,.422,0,.44.44,0,0,0,.014-.528c-.828-1.066-2.318.364-2.206.511C89.5,104.627,90.608,103.793,91.232,104.589Zm-6.17-2.716c.174,1.135.535,2.648,3.435,3.441-2.86-.084-4.719-.616-4.7-3.277a14.055,14.055,0,0,1,1.414-4.112A21.741,21.741,0,0,0,85.062,101.873Z" transform="translate(-83.793 -97.924)"/></g><path class="aj" d="M114.624,31.152H45.694l1.474,45.837c.3-.721,4.44-8.17,4.956-7.117,19.451-9.6,25.768-21.745,29.635-31.507C75.995,62.595,62.093,66.008,62.093,66.008c3.045-.338,11.787-1.241,17.557-7.234.755-.8,7.14-5.62,12.7-20.653C93.5,50.489,98.9,63.936,108.029,69.668c-3.056-6.022-7.064-21.541-7.8-32.48,5.069,24.745,10.2,37.751,14.829,46.514,1.574,2.977,4.678,8.24,4.313,8.167C120.481,97.527,114.624,31.152,114.624,31.152Z" transform="translate(-29.466 -4.244)"/><path class="ai" d="M94.34,1.6A56.845,56.845,0,0,0,88.574-.374c-.033-.72-37.832-11.484-57.03,33.277C26.68,47,24.1,68.737,28.583,83c1.036,3.159,3.915,7.642,6.653,22.673,1.318,7.235,2.358,12.949,10.209,20.883,2.061,2.085,7.342,6.226,8.291,9.909,2.909-16.01-2.62-20.508-7.878-24.8-3.606-2.945-7.118-3.619,2.22-1.4,0,0,1.974-.124,5.819-2.554-6.085,1.282-10.437-.783-13.244-5.648-3.71-6.43-3.691-16.15.045-22.61,3.752,2.117,3.559,12.353,3.753,13.661,1.682-5.313-.769-20.882-1.042-22.532a14.284,14.284,0,0,1,.968-3.289c.3-.721,3.472-6.5,3.988-5.452C67.817,52.235,74.134,40.089,78,30.327,72.237,54.556,59.039,59.22,59.039,59.22a30.577,30.577,0,0,0,16.853-8.484c.755-.8,7.614-8.311,13.173-23.344C90.216,39.76,95.8,53.716,103.072,62.043c-3.056-6.022-5.865-21.955-6.6-32.894,5.069,24.745,11.356,36.643,15.988,45.406,1.574,2.977,3.336,8,2.971,7.928,1.11,5.657-1.216,18.715-12.154,21.827a17.464,17.464,0,0,0,5.567.238c-11.857,11.707-5.226,18.59-3.015,30.97.616-2.194.594-4.444,3.935-9.294,6.264-9.1,1.428-9.278,9.118-24.286,8.247-16.1,7.287-22.384,8.026-26.659C127.013,74.7,131.617,15.659,94.34,1.6Z" transform="translate(-25.708 2.172)"/><path class="ak" d="M53.841,139.7c.3-1.868.5-3.559.6-5.11A47.953,47.953,0,0,1,53.841,139.7Zm4.49-82.789c8.969-13.014,14.4-22.319,17.279-36C68.752,36.684,56.6,49.125,46.2,62.163c-.129-2.984.339-20.025,13.788-40.369-16.12,14.749-23.2,35.7-18.935,48.31-3.154-6.671-5.494-19.744-3.264-28.793-9.026,21.408,3.5,31.076,7.009,44.617-.968-13.091-2.267-10.6-.446-15.107.254-.616,2.019-4,2.117-3.223.827-1.257,1.632-2.232,1.87-1.746,19.451-9.6,25.768-21.745,29.635-31.507C72.209,58.575,59.01,63.239,59.01,63.239c8.951-.994,23.074-16.467,21.122-38.916C76.531,37.282,67.3,48.56,58.331,56.908Zm67.42-3.047c.506,11.384-.8,22.336-2.623,33.286a184.684,184.684,0,0,0-8.759-35.253c3.985,18.431,3.5,25.052,3.715,32.181-9.465-20.611-18.967-38.363-22.615-59.634-.685,7.8,1.3,19.452,2.46,28.147-3.146-7.028-6.694-15.428-7.98-28.265a21.909,21.909,0,0,1-1.122,6.823c1.246,12.25,7.036,26.7,14.216,34.916-3.056-6.022-5.865-21.955-6.6-32.894,5.069,24.745,11.356,36.643,15.988,45.406a39.513,39.513,0,0,1,3,7.663c.027.174.022.276-.03.265a13.9,13.9,0,0,1,.225,1.964c1.274,3.307,1.82,5.329,1.061,7.765-1.1,3.524-6.515,11.253-13.44,12.1,6.295,1.485,10.325-2.009,13.658-6.355-4.984,11.481-15.211,6.334-11.149,37.187a26.53,26.53,0,0,1,3.979-8.919c6.264-9.1,1.428-9.278,9.118-24.286,8.247-16.1,7.287-22.384,8.026-26.659A119.953,119.953,0,0,0,125.751,53.861ZM37.079,106.993c2.152,1.374,4.707,7.645,11.9,7.085-14.337-3.7-13.692-23.922-13.692-36.291a75.894,75.894,0,0,0-2.475,11.026c-8.136-22.149-3.578-46.157,7.078-66.753a74.154,74.154,0,0,0-8.378,14.862c-12.018,34.839-.359,56.459.714,60.014,4.836,16.017,1.932,22.264,13.186,33.636,2.061,2.085,7.342,6.226,8.291,9.909C56.436,122.415,40.053,117.457,37.079,106.993Zm70.893-84.823c11.192,10.113,15.26,33,15.356,50C123.409,75.744,123.425,36.843,107.973,22.169Zm8.586,41.049c2.406,14.427-1.815-30.69-17.694-42.076C108.374,29.049,114.716,52.438,116.558,63.218ZM56.084,20.012c4.278-3.56-2.011,1.44-4.177,3.462A37.3,37.3,0,0,0,39.568,45.209C42.135,34.394,47.851,27.2,56.084,20.012Zm9.954,1.247C68.07,19.391,56,27.209,49.542,50.972,54.392,36.142,60.708,26.559,66.038,21.259Z" transform="translate(-25.68 -1.848)"/><path class="al" d="M115.678,80.755c12.376,19.307,2.482,25.455,1.34,29.5C118.3,105.728,125,98.986,115.678,80.755Zm8.459,14.489c.074-.72,2.349-6.615.086-17.672-1.228-6-3.4-11.746-4.866-17.681C122.185,73.18,125.5,81.8,124.137,95.244Zm-88.3,8.552A50.587,50.587,0,0,1,37.6,74.985C29.516,91.831,35.874,101.743,35.838,103.8Zm4.519-22.863a11.343,11.343,0,0,0-.845-1.8c-9.64-21.166-3.046-37.478,5.172-58.062C33.7,44.668,28.475,58.612,40.357,80.932ZM61.706,18.75c.026-.027,2.784-2.853,2.82-2.844-.068-.018-.548.513-.6.562-15.419,14.067-25.005,29-22.174,49.518C39.872,47.028,48.75,32.512,61.706,18.75Zm16.769-2.884c-2.331,5.882-19.363,31.3-30.509,44.666C66.693,39.713,78.2,17.891,78.475,15.866ZM66.061,60.987A19.385,19.385,0,0,1,64.4,62.071c.032.017,1.117-.678,1.2-.724,19.3-10.16,21.575-22.692,26.361-43.186C86.641,37.343,82.982,50.928,66.061,60.987Zm52.3,18.507c-2.981-6.668-21.144-46.257-21.582-57.92C97.194,40.929,118.037,78.773,118.36,79.494Zm-4.852-22.93c.26,1.143.611,2.291.807,3.445-2.462-14.482-3.857-24.982-12.937-36.456C107.44,31.367,109.6,39.389,113.508,56.564Zm-8.792-38.125c0,.049-.057.179-.13.123,11.554,8.842,17.585,42.408,17.839,43.128-.855-2.43.215-20.626-13.895-38.847a19.894,19.894,0,0,0-3.937-4.3c.044.012.135-.045.1-.1a2.416,2.416,0,0,0,.159.216C104.922,18.7,104.716,18.57,104.716,18.438Z" transform="translate(-27.106 -1.287)"/><path class="ai" d="M117.5,134.307c-4.078,11.785-4.678,12.593-4.678,12.593A98.527,98.527,0,0,1,117.5,134.307Zm-5.185,14.964c-.058.207-.441,1.586-.388,1.416,1.386-3.94,2.746-4.8,4.143-10.791C114.489,144.792,114.342,143.406,112.313,149.271Zm.331.251a20.187,20.187,0,0,0-2.783,5.305,16.358,16.358,0,0,1,1.091-2.048c1.187-1.921,2.623-3.385,3.678-7.125A14.823,14.823,0,0,1,112.644,149.522Zm-69-4c2.761,3.394-.457.338-4.984-10.643C40.41,140.781,41.782,143.065,43.645,145.522ZM47.4,149.2c-.721-.535-5.168-4.905-6.884-8.2A17.966,17.966,0,0,0,47.4,149.2Zm-2.087-.593c7.635,7.187-2.008-1.827-2.846-3.521C42.469,145.09,42.481,145.866,45.315,148.61Z" transform="translate(-28.105 -24.198)"/><path d="M125.815,43.834C117.1,2.221,88.34-.6,90.329.251,64.493-8.906,33.384,7.839,27.157,44.74,25.41,55.106,24.668,74.2,27.267,81.5c1.457,4.092,2.357,6.256,4.16,11,5.7,15.815-.536,24.009,17.509,37.891a14.758,14.758,0,0,1,4.73,6.681c.008-.015.148-.853.151-.871,2.184-12.4,1.405-19.338-10.48-27.072a8.617,8.617,0,0,0,10.589-1.676c-13.082,3.711-19.408-13.87-12.985-27.15,2.383,5.574,3.323,10.826,3.179,13.867,2.64-8.086.981-11.363-.187-26.085A27.033,27.033,0,0,1,47.7,61.954C61.241,55.182,71.426,48.9,78.357,28.939c-1.67,5.587-2.868,11.055-7.619,18.379-6.228,9.618-9.055,9.947-12.931,12.024,3.206,0,7.56-.952,13.6-4.585a41.947,41.947,0,0,1-3.835,3.03c9.859-6.35,17.258-15.424,21.152-30.7-2.58,12.144-3.9,23.1-16.487,29.87C84.828,50.577,87.2,41.424,88.957,27.389c1.266,22.029,11.622,33.259,15.18,35.826-4.521-7.419-6.48-24.928-8.081-36.2,1.737,10.789,1.055,7.438,3.775,17.966,4.969,18.976,11.216,29.672,14.821,37.238,1.485,10.4-2.976,20.014-12.517,21.914a10.483,10.483,0,0,0,6.285.576c-13.325,13.325-5.184,17.311-2.736,31.412.929-5.776,4.185-8.54,6.66-13.124,2.488-4.632,1.588-9.609,4.327-15.335C125.847,88.642,133.352,80.06,125.815,43.834Zm-22.434,60.39c7.332-1.415,13.42-11.371,12.378-19.57,2.251,5.263,2.725,9.052-.3,13.623C112.877,102.706,108.461,105.418,103.381,104.224ZM116.8,97.917h0c-.006-.006-.006-.007-.019-.007S116.788,97.906,116.8,97.917Zm9.614-22.722c-1.5,21.117-11.053,27.75-12.693,38.878-1.837,12.806-6.046,10.484-8.078,20.462-2.226-12.445-8.481-18.36,3.593-30.044a14.26,14.26,0,0,0,9.085-16.661C115.483,74.723,104.139,67.4,96.18,26.489c0,.015,0,.03,0,.045-.135-.642-.305-1.418-.413-1.959-.03-.028-1-5.992.02.824.323,11.455,3.253,28.834,6.614,35.454A65.543,65.543,0,0,1,88.971,27.277c.1-.759.189-1.528.282-2.316h0c.428-3.444,1.264-9.049-.372.979C83.641,40.847,77.114,48.738,75.5,50.45c-5.58,5.794-14.1,8.447-16.48,8.661,13.736-6.088,18.444-22.469,20.771-36.8-.084.4-.988,4.73-.907,4.327-4.188,11.129-9.648,24.4-30.808,34.839C63.3,42.707,71.357,27.959,74.984,18.059,67.62,35.619,46.5,61.248,44.054,67.182,43.3,42.792,51.8,25.565,60.218,18c-8.773,6.852-19.454,26.791-17.3,52.565.787,4.769,2.519,17.093,1.464,21.858a31.9,31.9,0,0,0-.967-8.935v-.008c-2.179-7.884-7.527-13.764-8.532-22.664-.907-8.028-.569-16.3,3-23.673A36.5,36.5,0,0,0,33.73,53.107c-.608,16.271,4.259,17.911,6.527,26.119C33.44,91,39.157,111.7,53.112,107.882c-8.393,6.836-15.6-5.444-16.873-7.788-1.964-4.829-2.353-10.37-2.595-15.51-.086,36.8,24.47,19.7,19.941,51.185-.579-2.8-7.3-8.784-8.018-9.505-10.848-10.967-8.557-17.6-12.24-30.224C31.821,89,29.97,86.45,28.79,82.853c-4.6-14.641-1.6-36.657,2.961-49.869C40.486,12.627,54.342-.759,76.389-1.481c5.2-.172,16.083,1.792,9.792.907a45.524,45.524,0,0,1,7.9,2.477c36.549,13.782,32.6,71.878,32.341,73.271C126.42,75.173,126.413,75.18,126.413,75.195Z" transform="translate(-25.574 2.21)"/><g transform="translate(51.37 14.835)"><path class="am" d="M89.264,16.184Z" transform="translate(-89.264 -16.184)"/></g></g></g></g></g></svg>