<svg xmlns="http://www.w3.org/2000/svg" width="43.616" height="43.602" viewBox="0 0 43.616 43.602"><defs><style>.a{fill:#2d62fc;}.b{fill:#ecc443;}.c{fill:#e39069;}.d{fill:#223a80;}.e{fill:#15244d;}.f{fill:#c6d3fc;}.g{fill:#98b0f3;}.h{fill:#88a7ff;}.i{fill:#dbe4ff;}</style></defs><g transform="translate(0 -0.086)"><path class="a" d="M6.849,137.016,0,130.166l5.76-5.76,7.23-2.041,4.255,4.255Z" transform="translate(0 -111.861)"/><path class="a" d="M224.369,326.685l-6.849-6.849,10.4-10.4,4.262,4.261-2.048,7.224Z" transform="translate(-198.987 -282.997)"/><path class="b" d="M0,0H12.736V2.551H0Z" transform="translate(0.045 41.831) rotate(-45)"/><path class="c" d="M0,0H12.736V1.263H0Z" transform="translate(0.958 42.739) rotate(-45)"/><path class="c" d="M0,0H6.689V2.552H0Z" transform="translate(7.979 41.211) rotate(-45)"/><path class="b" d="M0,0H6.689V2.551H0Z" transform="translate(0.666 33.896) rotate(-45)"/><path class="d" d="M52.29,274.914,39.408,262.031l-3.364.954-2.165,5.1,12.249,12.249,5.208-2.06Z" transform="translate(-30.993 -239.627)"/><path class="e" d="M111.876,341.7l-5.45,5.45,6.068,6.068,5.208-2.06.611-3.021Z" transform="translate(-97.359 -312.513)"/><path class="f" d="M94.93,14.963A34.142,34.142,0,0,0,97.843.091,34.582,34.582,0,0,0,71.979,10.655l-12.7,12.7L74.569,38.648l12.7-12.7a35.1,35.1,0,0,0,7.66-10.984Z" transform="translate(-54.227)"/><path class="g" d="M177.063,15.016A34.142,34.142,0,0,0,179.976.144h0L149.059,31.058,156.7,38.7,169.4,26a35.1,35.1,0,0,0,7.66-10.984Z" transform="translate(-136.359 -0.053)"/><path class="h" d="M252.608,134.4a5.823,5.823,0,1,1,8.232,0A5.829,5.829,0,0,1,252.608,134.4Z" transform="translate(-229.526 -113.776)"/><path class="i" d="M279.178,144.486l-8.236,8.236a5.824,5.824,0,0,0,8.236-8.236Z" transform="translate(-247.858 -132.097)"/></g></svg>