<svg xmlns="http://www.w3.org/2000/svg" width="43.008" height="44.963" viewBox="0 0 43.008 44.963"><defs><style>.a{fill:#2d62fc;}.b{fill:#dbe4ff;}.c{fill:#189afe;}.d{fill:#f5f5f5;}.e{fill:#223a80;}</style></defs><g transform="translate(-10.669)"><path class="a" d="M86.9,288.2a1.148,1.148,0,0,1-.315-1.04l1.73-8.652a.978.978,0,0,0-.958-1.173H75.628a.977.977,0,0,0-.692,1.67l3.624,3.622V289.9a4.887,4.887,0,0,0,2.176,4.066l4.123,2.749a.977.977,0,0,0,1.234-.121l.809-.809a4.856,4.856,0,0,0,1.433-3.456v-.673A4.865,4.865,0,0,0,86.9,288.2Z" transform="translate(-58.117 -251.919)"/><ellipse class="b" cx="6.842" cy="18.572" rx="6.842" ry="18.572" transform="translate(39.015 0.977)"/><g transform="translate(10.669 11.729)"><path class="c" d="M374.313,149.333a.977.977,0,0,0-.977.977v9.775a.978.978,0,0,0,.977.977,5.963,5.963,0,0,0,0-11.73Z" transform="translate(-340.102 -147.378)"/><path class="c" d="M29.241,141.684c-3.607,0-4.887-3.159-4.887-5.865s1.28-5.865,4.887-5.865a.977.977,0,1,0,0-1.955H18.489a7.82,7.82,0,1,0,0,15.639H29.241a.977.977,0,0,0,0-1.955Z" transform="translate(-10.669 -128)"/></g><g transform="translate(22.398)"><path class="b" d="M156.263,42.8c0-6.541,1.286-12.551,3.357-15.686a.977.977,0,0,0-1.38-1.337l-13.049,9.2c-3.857.172-6.522,3.339-6.522,7.82s2.665,7.648,6.522,7.82l13.049,9.212a.977.977,0,0,0,1.38-1.337C157.549,55.352,156.263,49.342,156.263,42.8Z" transform="translate(-138.669 -23.252)"/><path class="d" d="M317.156,39.1c-5.083,0-7.82-10.072-7.82-19.549S312.073,0,317.156,0s7.82,10.072,7.82,19.549S322.238,39.1,317.156,39.1Zm0-37.143c-2.774,0-5.865,7.233-5.865,17.594s3.091,17.594,5.865,17.594,5.865-7.233,5.865-17.594S319.93,1.955,317.156,1.955Z" transform="translate(-293.697)"/></g><path class="e" d="M317.156,39.1c-5.083,0-7.82-10.072-7.82-19.549S312.073,0,317.156,0s7.82,10.072,7.82,19.549S322.238,39.1,317.156,39.1Zm0-37.143c-2.774,0-5.865,7.233-5.865,17.594s3.091,17.594,5.865,17.594,5.865-7.233,5.865-17.594S319.93,1.955,317.156,1.955Z" transform="translate(-271.298)"/><path class="e" d="M374.313,161.061a.977.977,0,0,1,0-1.955c1.617,0,2.932-1.759,2.932-3.91s-1.316-3.91-2.932-3.91a.977.977,0,0,1,0-1.955,5.963,5.963,0,0,1,0,11.73Z" transform="translate(-329.433 -135.647)"/><path class="e" d="M42.534,59.987a.978.978,0,0,1-.565-.178L28.93,50.6H18.489a7.82,7.82,0,0,1,0-15.639H28.93l13.037-9.2a.977.977,0,0,1,1.38,1.339c-2.068,3.13-3.355,9.141-3.355,15.684s1.286,12.554,3.355,15.684a.977.977,0,0,1-.815,1.517ZM18.489,36.919a5.865,5.865,0,1,0,0,11.729H29.241a.978.978,0,0,1,.565.178L40.038,56.06a41.019,41.019,0,0,1-2-13.276,41.02,41.02,0,0,1,2-13.268L29.806,36.749a.978.978,0,0,1-.565.17H18.489Z" transform="translate(0 -23.235)"/><path class="e" d="M85.531,161.234a.978.978,0,0,1-.541-.164l-4.125-2.749a4.887,4.887,0,0,1-2.176-4.066v-7.278l-3.624-3.622a.977.977,0,0,1,1.382-1.382l3.91,3.91a.977.977,0,0,1,.287.69v7.683a2.932,2.932,0,0,0,1.306,2.44l3.458,2.3.242-.242a2.916,2.916,0,0,0,.858-2.076v-.671a2.917,2.917,0,0,0-.858-2.074,3.1,3.1,0,0,1-.854-2.809l1.517-7.577c-3.437-.547-5.669-3.515-5.669-7.73,0-4.678,2.751-7.82,6.842-7.82a.977.977,0,1,1,0,1.955c-3.607,0-4.887,3.159-4.887,5.865s1.28,5.865,4.887,5.865a.977.977,0,0,1,.958,1.173l-1.74,8.652a1.153,1.153,0,0,0,.317,1.042,4.858,4.858,0,0,1,1.443,3.46v.671a4.856,4.856,0,0,1-1.431,3.456l-.809.809A.978.978,0,0,1,85.531,161.234Z" transform="translate(-58.245 -116.271)"/></g></svg>