<svg xmlns="http://www.w3.org/2000/svg" width="499.369" height="407.5" viewBox="0 0 499.369 407.5"><defs><style>.a{fill:#f2f2f2;}.b{fill:#3f3d56;}.c,.d,.f{fill:#2d62fc;}.c{opacity:0.3;}.d{opacity:0.7;}.e{fill:#2f2e41;}.g{fill:#ffb8b8;}.h{opacity:0.1;}.i{fill:#d0cde1;}.j{fill:#223a80;}</style></defs><g transform="translate(-80 30.529)"><rect class="a" width="400.221" height="24.646" transform="translate(204.725 -25.886) rotate(30)"/><rect class="a" width="400.222" height="24.646" transform="translate(158.149 11.875) rotate(30)"/><rect class="a" width="400.222" height="24.646" transform="translate(97.808 30.162) rotate(30)"/><ellipse class="b" cx="130.796" cy="130.796" rx="130.796" ry="130.796" transform="translate(212.57 -30.529)"/><path class="c" d="M662.342,402.146a23.316,23.316,0,1,1,23.316-23.316A23.316,23.316,0,0,1,662.342,402.146Zm0-45.494a22.178,22.178,0,1,0,22.179,22.178,22.179,22.179,0,0,0-22.179-22.178Z" transform="translate(-318.976 -277.995)"/><path class="c" d="M650.941,411.787A44.357,44.357,0,1,1,695.3,367.43,44.357,44.357,0,0,1,650.941,411.787Zm0-87.576a43.22,43.22,0,1,0,43.22,43.22A43.22,43.22,0,0,0,650.941,324.211Z" transform="translate(-307.574 -266.594)"/><path class="c" d="M641.081,420.124a62.555,62.555,0,1,1,62.555-62.555A62.555,62.555,0,0,1,641.081,420.124Zm0-123.972A61.417,61.417,0,1,0,702.5,357.569a61.417,61.417,0,0,0-61.417-61.417Z" transform="translate(-297.714 -256.733)"/><path class="c" d="M628.138,431.066a86.439,86.439,0,1,1,86.439-86.439A86.537,86.537,0,0,1,628.138,431.066Zm0-171.741a85.3,85.3,0,1,0,85.3,85.3,85.4,85.4,0,0,0-85.3-85.3Z" transform="translate(-284.772 -243.791)"/><path class="c" d="M617.354,440.185A106.343,106.343,0,1,1,723.7,333.843,106.463,106.463,0,0,1,617.354,440.185Zm0-211.549A105.206,105.206,0,1,0,722.56,333.843,105.325,105.325,0,0,0,617.354,228.637Z" transform="translate(-273.987 -233.007)"/><ellipse class="d" cx="10.805" cy="10.805" rx="10.805" ry="10.805" transform="translate(332.562 89.462)"/><ellipse class="d" cx="10.805" cy="10.805" rx="10.805" ry="10.805" transform="translate(360.427 120.74)"/><ellipse class="d" cx="10.805" cy="10.805" rx="10.805" ry="10.805" transform="translate(284.793 116.191)"/><ellipse class="e" cx="5.118" cy="5.118" rx="5.118" ry="5.118" transform="translate(338.249 95.149)"/><ellipse class="e" cx="5.118" cy="5.118" rx="5.118" ry="5.118" transform="translate(290.479 121.877)"/><ellipse class="e" cx="5.118" cy="5.118" rx="5.118" ry="5.118" transform="translate(366.114 126.995)"/><ellipse class="f" cx="5.118" cy="5.118" rx="5.118" ry="5.118" transform="translate(522.762 36.742)"/><path class="e" d="M563.94,211.741l-.255-55.8,171.774-1.435v1.138l-170.647,1.166.141,54.929Z" transform="translate(-221.215 -113.863)"/><path class="e" d="M1035.228,308.8a14.786,14.786,0,1,1,14.785-14.786,14.786,14.786,0,0,1-14.785,14.786Zm0-28.434a13.648,13.648,0,1,0,13.648,13.648A13.648,13.648,0,0,0,1035.228,280.37Z" transform="translate(-507.348 -252.157)"/><ellipse class="f" cx="5.118" cy="5.118" rx="5.118" ry="5.118" transform="translate(542.973 185.001)"/><path class="e" d="M982.62,535.9a14.786,14.786,0,1,1,14.786-14.786A14.786,14.786,0,0,1,982.62,535.9Zm0-28.434a13.648,13.648,0,1,0,13.648,13.648,13.648,13.648,0,0,0-13.648-13.648Z" transform="translate(-434.528 -330.995)"/><ellipse class="f" cx="5.118" cy="5.118" rx="5.118" ry="5.118" transform="translate(158.014 -17.96)"/><path class="e" d="M348.678,345.63a14.786,14.786,0,1,1,14.786-14.786A14.786,14.786,0,0,1,348.678,345.63Zm0-28.434a13.648,13.648,0,1,0,13.648,13.648A13.648,13.648,0,0,0,348.678,317.2Z" transform="translate(-185.546 -343.686)"/><path class="e" d="M418.893,251.768h-1.138V194.323L297.919,119.508l.018-1.137L418.893,193.2Z" transform="translate(-122.726 -124.773)"/><path class="e" d="M774.809,353.432H611.6V294.858h1.138v57.437H774.809Z" transform="translate(-240.935 -162.745)"/><rect class="e" width="62.555" height="3.981" transform="translate(496.602 69.559)"/><rect class="e" width="62.555" height="3.981" transform="translate(496.602 80.932)"/><rect class="e" width="62.555" height="3.981" transform="translate(496.602 92.306)"/><rect class="e" width="62.555" height="3.981" transform="translate(516.814 216.846)"/><rect class="e" width="62.555" height="3.981" transform="translate(516.814 228.22)"/><rect class="e" width="62.555" height="3.981" transform="translate(516.814 239.594)"/><rect class="e" width="62.555" height="3.981" transform="translate(131.855 13.484)"/><rect class="e" width="62.555" height="3.981" transform="translate(131.855 24.858)"/><rect class="e" width="62.555" height="3.981" transform="translate(131.855 36.232)"/><rect class="e" width="397.67" height="1.227" transform="translate(80 375.744)"/><path class="g" d="M179.456,323.329s5.633,16.032,2.166,18.5,11.7,22.609,11.7,22.609l18.2-4.933-9.966-16.854s-1.3-16.854-1.3-19.32S179.456,323.329,179.456,323.329Z" transform="translate(-63.229 -210.949)"/><path class="h" d="M179.456,323.329s5.633,16.032,2.166,18.5,11.7,22.609,11.7,22.609l18.2-4.933-9.966-16.854s-1.3-16.854-1.3-19.32S179.456,323.329,179.456,323.329Z" transform="translate(-63.229 -210.949)"/><path class="e" d="M163.59,502.6s-1.644,20.554,0,31.241,4.111,40.285,4.111,40.285,0,55.906,9.044,56.728,15.621,1.644,16.443-1.644-4.111-4.933-1.644-6.577,3.289-7.4,0-13.976,0-73.171,0-73.171l15.621,41.929s1.644,34.53,3.289,39.463-1.644,13.976,4.111,14.8,12.332-4.111,15.621-5.755-4.933-1.644-3.289-2.466,6.577-3.289,4.933-4.111-3.289-40.285-3.289-40.285-4.522-84.27-10.277-87.558-9.455,2.376-9.455,2.376Z" transform="translate(-56.817 -275.943)"/><path class="e" d="M186.094,713.865v6.577s-7.4,17.879,0,17.879,13.154,1.853,13.154-.614v-22.2Z" transform="translate(-64.523 -362.241)"/><path class="e" d="M258.924,713.846v6.577s7.4,17.879,0,17.879-13.154,1.853-13.154-.614v-22.2Z" transform="translate(-88.847 -362.234)"/><circle class="g" cx="14.799" cy="14.799" r="14.799" transform="translate(112.939 94.704)"/><path class="i" d="M189.808,364.209s4.111,12.332,10.688,9.866l6.577-2.466,11.51,78.926s-9.044,13.154-22.2,4.933S189.808,364.209,189.808,364.209Z" transform="translate(-66.593 -227.165)"/><path class="j" d="M209.6,355.273l3.7-7.81s21.787,10.277,25.075,13.565,3.289,8.221,3.289,8.221L235.908,389.8s1.644,45.218,1.644,46.862,5.755,10.688,1.644,7.4-4.933-6.577-8.221-1.644-10.688,10.688-10.688,10.688Z" transform="translate(-74.874 -220.696)"/><path class="g" d="M247.39,456.647l-2.466,23.02s-14.8,13.154-11.51,13.976,4.933-2.466,4.933-2.466,5.755,5.755,9.044,2.466,11.51-34.53,11.51-34.53Z" transform="translate(-83.889 -262.875)"/><path class="e" d="M187.917,285.219c-3.281-.117-6.791-.175-9.558,1.593a13.993,13.993,0,0,0-3.3,3.233c-2.694,3.406-5.022,7.691-4.021,11.916l1.162-.453a7.61,7.61,0,0,1-.734,3.261c.164-.476.712.294.565.775l-1.28,4.2a3.954,3.954,0,0,1,5.043,3.009c.146-4.879.652-10.473,4.61-13.33,2-1.441,4.522-1.88,6.952-2.271,2.242-.36,4.592-.7,6.74.034s3.976,2.934,3.489,5.152a2.3,2.3,0,0,1,2.587,1.275,6.7,6.7,0,0,1,.53,3.065c1.055.746,2.257-.735,2.687-1.954,1.01-2.861,1.907-5.906,1.363-8.89s-2.976-5.837-6.01-5.847a2.106,2.106,0,0,0,.548-1.483l-2.5-.211a2.764,2.764,0,0,0,1.651-.871C197.434,288.527,189.541,285.276,187.917,285.219Z" transform="translate(-59.865 -196.63)"/><path class="j" d="M176.307,352.284s-6.693-6.558-9.1-6.157-5.7,6.157-5.7,6.157-19.731,6.577-18.909,13.154,9.866,38.641,9.866,38.641,7.4,38.641.822,42.751,31.241,14.8,32.064,9.866,2.466-54.261,0-61.661S176.307,352.284,176.307,352.284Z" transform="translate(-48.981 -220.173)"/><path class="g" d="M154.672,464.109l11.51,4.933s22.2,3.289,22.2-5.755-22.2-4.111-22.2-4.111l-7.4-2.366Z" transform="translate(-53.655 -262.938)"/><path class="j" d="M244.43,377.606H254.6s7.1,31.241,7.921,34.53,2.466,18.909,1.644,18.909-17.265-3.289-17.265-.822Z" transform="translate(-88.329 -232.34)"/><path class="j" d="M147.361,369.568l-9.866,2.466-7.4,43.574s-2.466,11.51,1.644,12.332,15.621,7.4,15.621,7.4,1.644-12.332,4.933-12.332l-8.221-6.577,4.933-28.775Z" transform="translate(-43.877 -229.235)"/></g></svg>