<svg xmlns="http://www.w3.org/2000/svg" xmlns:xlink="http://www.w3.org/1999/xlink" width="36" height="36" viewBox="0 0 36 36"><defs><style>.a,.c{fill:#fff;}.a{stroke:#707070;}.b{clip-path:url(#a);}</style><clipPath id="a"><rect class="a" width="36" height="36"/></clipPath></defs><g class="b"><g transform="translate(2.473)"><path class="c" d="M276.106,306.094a14.369,14.369,0,0,1-.591,1.624,19.852,19.852,0,0,1-4.725,7.235l-.148.148c-.517.517-1.034.96-1.55,1.4a14.411,14.411,0,0,1-1.7,1.255c-.591.369-1.181.738-1.846,1.107a11.129,11.129,0,0,1-1.919.886c-.3.148-.591.221-.96.369a1.369,1.369,0,0,1-.517.148c-.074,0-.148.074-.221.074h-.3c-.074,0-.148,0-.148-.074-.074,0-.148-.074-.3-.074a1.369,1.369,0,0,0-.517-.148c-.369-.148-.664-.221-1.034-.369-.664-.3-1.329-.591-1.919-.886-.664-.369-1.255-.738-1.846-1.107a14.424,14.424,0,0,1-1.7-1.255c-.517-.443-1.034-.886-1.55-1.4l-.148-.148a22.73,22.73,0,0,1-4.725-7.235c-.221-.517-.369-1.107-.591-1.624a31.319,31.319,0,0,0,2.215,2.215,27.057,27.057,0,0,0,11.369,6.128l.886.221.886-.221a27.507,27.507,0,0,0,11.37-6.128A30.322,30.322,0,0,0,276.106,306.094Z" transform="translate(-246.427 -284.684)"/><path class="c" d="M276.2,296.626l-.443-1.329a21.193,21.193,0,0,0-4.8-7.53l-.3-.3a.271.271,0,0,0,.074.221,17.279,17.279,0,0,1,.221,2.805v.074a17.093,17.093,0,0,1-.369,3.4,10.5,10.5,0,0,0-2.658-.369h0a9.249,9.249,0,0,0-3.987.886,7.374,7.374,0,0,0-2.141,1.477,13.822,13.822,0,0,0-2.141-1.477,8.792,8.792,0,0,0-3.987-.886h0a10.047,10.047,0,0,0-2.658.369,17.088,17.088,0,0,1-.369-3.4V290.5a17.279,17.279,0,0,1,.221-2.805.271.271,0,0,1,.074-.221l-.3.3a21.861,21.861,0,0,0-4.8,7.53l-.443,1.329a20.846,20.846,0,0,0-.886,6.128h0a9.232,9.232,0,0,0,9.228,9.229h0a9.541,9.541,0,0,0,4.8-1.329,6.367,6.367,0,0,0,1.329-1.034,16.228,16.228,0,0,0,1.329,1.034,8.855,8.855,0,0,0,4.8,1.329h0a9.232,9.232,0,0,0,9.229-9.229h0A27.253,27.253,0,0,0,276.2,296.626Zm-17.5,6.128a3.092,3.092,0,0,1-2.953,3.1h-.074a3.12,3.12,0,0,1-3.1-3.1v-.074a3.092,3.092,0,0,1,3.1-2.953h0a2.993,2.993,0,0,1,3.027,3.027Zm9.155,3.027h-.074a3.092,3.092,0,0,1-2.953-3.1h0a3.12,3.12,0,0,1,3.1-3.1h0a3.092,3.092,0,0,1,3.1,2.953v.074A3.2,3.2,0,0,1,267.86,305.781Z" transform="translate(-246.524 -287.472)"/></g></g></svg>