<svg xmlns="http://www.w3.org/2000/svg" xmlns:xlink="http://www.w3.org/1999/xlink" width="20.686" height="11.722" viewBox="0 0 20.686 11.722"><defs><style>.a{fill:url(#a);}</style><linearGradient id="a" x1="-5.577" y1="-5.794" x2="13.853" y2="3.776" gradientUnits="objectBoundingBox"><stop offset="0" stop-color="#189afe"/><stop offset="1" stop-color="#2d62fc"/></linearGradient></defs><g transform="translate(0 -104)"><g transform="translate(6.312 111.214)"><g transform="translate(0 0)"><rect class="a" width="1" height="1" transform="translate(-0.313 -0.214)"/></g></g><g transform="translate(6.312 112.115)"><g transform="translate(0 0)"><rect class="a" width="1" height="1" transform="translate(-0.313 -0.115)"/></g></g><g transform="translate(6.312 113.919)"><g transform="translate(0 0)"><rect class="a" width="1" transform="translate(-0.313 0.081)"/></g></g><g transform="translate(6.312 109.41)"><g transform="translate(0 0)"><rect class="a" width="1" height="1" transform="translate(-0.313 -0.41)"/></g></g><g transform="translate(6.312 107.607)"><g transform="translate(0 0)"><rect class="a" width="1" height="1" transform="translate(-0.313 0.393)"/></g></g><g transform="translate(6.312 107.607)"><g transform="translate(0 0)"><rect class="a" width="1" transform="translate(-0.313 0.393)"/></g></g><g transform="translate(6.312 104.902)"><g transform="translate(0 0)"><rect class="a" width="1" height="2" transform="translate(-0.313 0.098)"/></g></g><g transform="translate(0.902 104.902)"><g transform="translate(0 0)"><rect class="a" width="2" height="2" transform="translate(0.098 0.098)"/></g></g><g transform="translate(18.935 104.902)"><g transform="translate(0 0)"><rect class="a" height="2" transform="translate(0.064 0.098)"/></g></g><g transform="translate(18.935 113.919)"><g transform="translate(0 0)"><rect class="a" transform="translate(0.064 0.081)"/></g></g><g transform="translate(0.902 113.919)"><g transform="translate(0 0)"><rect class="a" width="2" transform="translate(0.098 0.081)"/></g></g><g transform="translate(0 104)"><g transform="translate(0 0)"><path class="a" d="M20.341,108.137a.345.345,0,0,0,.345-.345v-3.448a.345.345,0,0,0-.345-.345h-20a.345.345,0,0,0-.345.345v3.448a.345.345,0,0,0,.345.345,1.724,1.724,0,0,1,0,3.448A.345.345,0,0,0,0,111.93v3.448a.345.345,0,0,0,.345.345h20a.345.345,0,0,0,.345-.345V111.93a.345.345,0,0,0-.345-.345,1.724,1.724,0,0,1,0-3.448ZM17.95,110.2A2.413,2.413,0,0,0,20,112.25v2.783H.69V112.25a2.413,2.413,0,0,0,0-4.778V104.69H20v2.783A2.413,2.413,0,0,0,17.95,110.2Z" transform="translate(0 -104)"/></g></g><g transform="translate(8.964 106.413)"><path class="a" d="M209.379,160a1.379,1.379,0,1,0,1.379,1.379A1.379,1.379,0,0,0,209.379,160Zm0,2.069a.69.69,0,1,1,.69-.69A.69.69,0,0,1,209.379,162.069Z" transform="translate(-208 -160)"/></g><g transform="translate(13.101 110.551)"><g transform="translate(0 0)"><path class="a" d="M305.379,256a1.379,1.379,0,1,0,1.379,1.379A1.379,1.379,0,0,0,305.379,256Zm0,2.069a.69.69,0,1,1,.69-.69A.689.689,0,0,1,305.379,258.069Z" transform="translate(-304 -256)"/></g></g><g transform="translate(9.41 106.858)"><g transform="translate(0 0)"><rect class="a" width="7.801" height="0.69" transform="translate(0 5.516) rotate(-45)"/></g></g></g></svg>