<svg xmlns="http://www.w3.org/2000/svg" width="14" height="14" viewBox="0 0 14 14"><defs><style>.a{fill:#2d62fc;}.b{fill:#189afe;}</style></defs><g transform="translate(-8 -8)"><path class="a" d="M17.772,8H12.23A4.234,4.234,0,0,0,8,12.218a.442.442,0,0,0,.438.448h.729V22h1.166V15.584A.584.584,0,0,1,10.917,15h8.167a.584.584,0,0,1,.584.584V22h1.166V12.666h.729A.442.442,0,0,0,22,12.218,4.233,4.233,0,0,0,17.772,8ZM13.1,10.041H16.9a.438.438,0,1,1,0,.875H13.1a.438.438,0,1,1,0-.875Z"/><g transform="translate(10.667 14.667)"><path class="b" d="M14.167,20.667v.5a.5.5,0,0,1-1,0v-.5H12a.333.333,0,0,0-.333.333v2.667A.333.333,0,0,0,12,24h3.333a.333.333,0,0,0,.333-.333V21a.333.333,0,0,0-.333-.333Z" transform="translate(-11.667 -16.667)"/><path class="b" d="M18.833,20.667v.5a.5.5,0,0,1-1,0v-.5H16.666a.333.333,0,0,0-.333.333v2.667a.333.333,0,0,0,.333.333H20a.333.333,0,0,0,.333-.333V21A.333.333,0,0,0,20,20.667Z" transform="translate(-11.667 -16.667)"/><path class="b" d="M16.5,16.667v.5a.5.5,0,0,1-1,0v-.5H14.333A.333.333,0,0,0,14,17v2.667a.333.333,0,0,0,.333.333h3.333A.333.333,0,0,0,18,19.667V17a.333.333,0,0,0-.333-.333Z" transform="translate(-11.667 -16.667)"/></g></g></svg>