<svg xmlns="http://www.w3.org/2000/svg" xmlns:xlink="http://www.w3.org/1999/xlink" width="616.684" height="552.49" viewBox="0 0 616.684 552.49"><defs><style>.a{fill:#2d62fc;}.b{fill:#fff;}.c{fill:#dbe4ff;}.d{fill:rgba(0,0,0,0);stroke:#dbe4ff;stroke-width:2.181px;}.e{fill:#189afe;}.f{fill:#1d262d;}.g{fill:url(#a);}.h,.r{fill:none;stroke-miterlimit:10;}.h{stroke:#223a80;stroke-width:2.273px;}.i{fill:#f7d6b2;}.j{fill:#6ebaad;}.k{fill:#223a80;}.l{fill:#eed7ba;}.m,.n{opacity:0.5;}.m{fill:url(#b);}.n{fill:url(#c);}.o{fill:url(#d);}.p{fill:url(#e);}.q{fill:url(#f);}.r{stroke:#fff;stroke-linecap:round;stroke-width:1.2px;}.s{fill:url(#g);}.t{fill:url(#h);}.u{fill:url(#i);}</style><linearGradient id="a" x1="0.045" y1="0.221" x2="0.892" y2="0.829" gradientUnits="objectBoundingBox"><stop offset="0" stop-color="#f8f8f8"/><stop offset="1" stop-color="#dbe4ff"/></linearGradient><linearGradient id="b" x1="0.019" y1="0.486" x2="1.016" y2="0.486" gradientUnits="objectBoundingBox"><stop offset="0.062" stop-color="#e38204"/><stop offset="1" stop-color="#e35802"/></linearGradient><linearGradient id="c" x1="-0.001" y1="0.498" x2="0.997" y2="0.498" xlink:href="#b"/><linearGradient id="d" x1="0.331" y1="0.108" x2="0.6" y2="0.574" gradientUnits="objectBoundingBox"><stop offset="0" stop-color="#28c5f4"/><stop offset="1" stop-color="#0077ec"/></linearGradient><linearGradient id="e" x1="0.058" y1="0.057" x2="0.689" y2="0.694" gradientUnits="objectBoundingBox"><stop offset="0" stop-color="#008bec"/><stop offset="1" stop-color="#0077ec"/></linearGradient><linearGradient id="f" x1="0.804" y1="0.202" x2="0.402" y2="0.696" xlink:href="#d"/><linearGradient id="g" x1="0.003" y1="0.502" x2="1.001" y2="0.502" xlink:href="#e"/><linearGradient id="h" x1="0.001" y1="0.499" x2="1.001" y2="0.499" gradientUnits="objectBoundingBox"><stop offset="0" stop-color="#f8f8f8"/><stop offset="0.062" stop-color="#dbe4ff"/><stop offset="1" stop-color="#223a80"/></linearGradient><linearGradient id="i" x1="0.001" y1="0.512" x2="1.001" y2="0.512" xlink:href="#h"/></defs><g transform="translate(-78.5 -96.6)"><g transform="translate(78.5 96.6)"><path class="a" d="M154.624,178.22a5.225,5.225,0,1,0,5.864-4.5A5.239,5.239,0,0,0,154.624,178.22Z" transform="translate(-5.877 -23.023)"/><path class="a" d="M143.647,164.24a10.449,10.449,0,1,0,11.728-8.991A10.373,10.373,0,0,0,143.647,164.24Z" transform="translate(-16.401 -40.707)"/><circle class="a" cx="51.016" cy="51.016" r="51.016"/><circle class="a" cx="30.101" cy="30.101" r="30.101" transform="translate(65.284 55.12)"/><g transform="translate(17.552 25.302)"><path class="b" d="M168.245,151.091a16.8,16.8,0,0,0-3.518-3.909,15.836,15.836,0,0,0-19.155-.2h0l-30.1-23.651-16.614-13.1a3.147,3.147,0,0,0-4.5.586l-3.323,4.3h0l-2.932,3.714a2.788,2.788,0,0,0,.391,3.909l.391.391a2.788,2.788,0,0,0,3.909-.391l2.932-3.714,2.736,2.15L95.533,124.9a2.788,2.788,0,0,0,.391,3.909l.586.391a2.788,2.788,0,0,0,3.909-.391l2.932-3.714,2.736,2.15-2.932,3.714a2.541,2.541,0,0,0,.2,3.714,2.834,2.834,0,0,0,4.1-.2l2.932-3.714,30.1,23.651a15.928,15.928,0,0,0-1.173,6.059,15.919,15.919,0,0,0,28.928,9.187A18.069,18.069,0,0,0,168.245,151.091Zm-7.623,17.4a4.1,4.1,0,0,1-2.15-.782,3.863,3.863,0,0,1-.586-5.668,4.054,4.054,0,0,1,5.668-.782,4.468,4.468,0,0,1,1.368,1.955h0a4.186,4.186,0,0,1-.586,3.714A4.093,4.093,0,0,1,160.622,168.487Z" transform="translate(-87.48 -109.545)"/><path class="b" d="M142.728,148.587A15.919,15.919,0,0,1,113.8,139.4c2.541,5.277,6.646,9.773,12.9,10.75a11.691,11.691,0,0,0,8.8-1.955,3.6,3.6,0,0,0,3.518-1.564,4.28,4.28,0,0,0,.586-3.714h0c2.15-4.1,2.932-9.187,3.323-12.119A15.593,15.593,0,0,1,142.728,148.587Z" transform="translate(-62.354 -89.254)"/></g></g><circle class="c" cx="133.11" cy="133.11" r="133.11" transform="translate(159.872 524.247) rotate(-76.714)"/><circle class="c" cx="101.25" cy="101.25" r="101.25" transform="translate(266.73 195.113)"/><circle class="c" cx="101.25" cy="101.25" r="101.25" transform="translate(441.482 457.633) rotate(-80.688)"/><path class="d" d="M542.995,0H0" transform="translate(152.189 648)"/><g transform="translate(325.457 129.526)"><g transform="translate(0)"><path class="c" d="M282.942,113.552a18.787,18.787,0,0,0-5.668,1.564,18.111,18.111,0,0,0-9.969,18.96h0l-38.9,18.178-21.5,10.164a3.745,3.745,0,0,0-1.759,4.887l2.541,5.473h0l2.346,4.887a3.24,3.24,0,0,0,4.1,1.564l.586-.2a3.24,3.24,0,0,0,1.564-4.1l-2.346-4.887,3.518-1.564,2.346,4.887a3.24,3.24,0,0,0,4.1,1.564l.586-.391a3.24,3.24,0,0,0,1.564-4.1l-2.346-4.887,3.518-1.564,2.15,4.691a3.214,3.214,0,0,0,3.909,1.759,2.953,2.953,0,0,0,1.759-4.1l-2.346-4.887,38.9-18.178a19.765,19.765,0,0,0,5.473,4.3,18.222,18.222,0,0,0,15.637.2,18.059,18.059,0,0,0-9.773-34.206Zm13.878,16.419a4.278,4.278,0,0,1-1.955,1.759,4.546,4.546,0,1,1-3.909-8.209,4.3,4.3,0,0,1,2.736-.391h0a5.089,5.089,0,0,1,3.518,2.541A5.538,5.538,0,0,1,296.82,129.971Z" transform="translate(-204.845 -113.445)"/><path class="c" d="M265.546,122.935a17.864,17.864,0,0,1-8.209,24.433,18.237,18.237,0,0,1-15.637-.2c6.45,0,13.291-1.564,17.4-7.428a12.482,12.482,0,0,0,2.346-9.773,4.225,4.225,0,0,0,.2-4.3,4.407,4.407,0,0,0-3.518-2.541h0a42.131,42.131,0,0,0-10.555-9.578A17.754,17.754,0,0,1,265.546,122.935Z" transform="translate(-169.662 -113.445)"/></g></g><g transform="translate(523.14 187.791)"><path class="c" d="M356.057,144.321a17.2,17.2,0,0,0-2.932-.977,9.457,9.457,0,0,0-9.773,5.473h0l-22.087-3.127L308.95,143.93a1.937,1.937,0,0,0-2.15,1.564l-.391,3.127h0l-.391,2.736a1.44,1.44,0,0,0,1.368,1.759h.2a1.44,1.44,0,0,0,1.759-1.368l.391-2.736,1.955.2-.391,2.736a1.44,1.44,0,0,0,1.368,1.759h.391a1.44,1.44,0,0,0,1.759-1.368l.391-2.736,1.955.2-.391,2.736a1.733,1.733,0,0,0,1.173,1.955,1.611,1.611,0,0,0,1.955-1.368l.391-2.736,22.087,3.127a9.623,9.623,0,0,0,1.173,3.323,9.066,9.066,0,0,0,6.646,4.5,9.215,9.215,0,0,0,10.555-8.209A8.144,8.144,0,0,0,356.057,144.321Zm1.368,10.946a2.9,2.9,0,0,1-1.368.2,2.378,2.378,0,0,1,.782-4.691,1.393,1.393,0,0,1,1.173.586h0a2.94,2.94,0,0,1,.782,2.15A2.589,2.589,0,0,1,357.425,155.267Z" transform="translate(-305.981 -143.254)"/><g transform="translate(37.957 1.067)"><path class="c" d="M342.6,152.987a9.214,9.214,0,0,1-10.555,8.209,9.065,9.065,0,0,1-6.646-4.5c2.736,1.955,6.255,3.127,9.578,1.759a7.751,7.751,0,0,0,3.909-3.518,2.487,2.487,0,0,0,1.368-1.759,2.326,2.326,0,0,0-.782-2.15h0a22.8,22.8,0,0,0-1.955-7.232A9.2,9.2,0,0,1,342.6,152.987Z" transform="translate(-325.4 -143.8)"/></g></g><g transform="translate(312.469 191.204)"><path class="e" d="M483.771,440.561H215.205A17.017,17.017,0,0,1,198.2,423.556V184.505A17.017,17.017,0,0,1,215.205,167.5H483.771a17.017,17.017,0,0,1,17.005,17.005V423.556A17.144,17.144,0,0,1,483.771,440.561Z" transform="translate(-198.2 -123.521)"/><g transform="translate(48.084 130.374)"><rect class="b" width="206.408" height="29.515"/><rect class="b" width="206.408" height="29.515" transform="translate(0 52.579)"/><rect class="c" width="206.408" height="29.515" transform="translate(0 110.045)"/><g transform="translate(22.674 64.112)"><path class="f" d="M241.046,247.823a3.294,3.294,0,0,1-3.323,3.323,3.425,3.425,0,0,1-3.323-3.323,3.323,3.323,0,1,1,6.646,0Z" transform="translate(-234.4 -244.5)"/><path class="f" d="M258.546,247.823a3.294,3.294,0,0,1-3.323,3.323,3.425,3.425,0,0,1-3.323-3.323,3.323,3.323,0,1,1,6.646,0Z" transform="translate(-217.694 -244.5)"/><path class="f" d="M276.146,247.823a3.294,3.294,0,0,1-3.323,3.323,3.425,3.425,0,0,1-3.323-3.323,3.323,3.323,0,0,1,6.646,0Z" transform="translate(-200.893 -244.5)"/><path class="f" d="M249.746,247.823a3.294,3.294,0,0,1-3.323,3.323,3.425,3.425,0,0,1-3.323-3.323,3.323,3.323,0,1,1,6.646,0Z" transform="translate(-226.095 -244.5)"/><path class="f" d="M267.346,247.823a3.294,3.294,0,0,1-3.323,3.323,3.425,3.425,0,0,1-3.323-3.323,3.323,3.323,0,1,1,6.646,0Z" transform="translate(-209.293 -244.5)"/><path class="f" d="M302.546,247.823a3.294,3.294,0,0,1-3.323,3.323,3.425,3.425,0,0,1-3.323-3.323,3.323,3.323,0,1,1,6.646,0Z" transform="translate(-175.691 -244.5)"/><path class="f" d="M284.946,247.823a3.294,3.294,0,0,1-3.323,3.323,3.425,3.425,0,0,1-3.323-3.323,3.323,3.323,0,1,1,6.646,0Z" transform="translate(-192.492 -244.5)"/><path class="f" d="M293.746,247.823a3.323,3.323,0,1,1-3.323-3.323A3.294,3.294,0,0,1,293.746,247.823Z" transform="translate(-184.091 -244.5)"/><path class="f" d="M320.146,247.823a3.294,3.294,0,0,1-3.323,3.323,3.425,3.425,0,0,1-3.323-3.323,3.323,3.323,0,1,1,6.646,0Z" transform="translate(-158.889 -244.5)"/><path class="f" d="M311.346,247.823a3.294,3.294,0,0,1-3.323,3.323,3.425,3.425,0,0,1-3.323-3.323,3.323,3.323,0,1,1,6.646,0Z" transform="translate(-167.29 -244.5)"/></g><g transform="translate(56.88 13.096)"><path class="f" d="M258.546,221.723a3.294,3.294,0,0,1-3.323,3.323,3.425,3.425,0,0,1-3.323-3.323,3.294,3.294,0,0,1,3.323-3.323A3.425,3.425,0,0,1,258.546,221.723Z" transform="translate(-251.9 -218.4)"/><path class="f" d="M276.146,221.723a3.294,3.294,0,0,1-3.323,3.323,3.425,3.425,0,0,1-3.323-3.323,3.3,3.3,0,0,1,3.323-3.323A3.425,3.425,0,0,1,276.146,221.723Z" transform="translate(-235.099 -218.4)"/><path class="f" d="M267.346,221.723a3.3,3.3,0,0,1-3.323,3.323,3.425,3.425,0,0,1-3.323-3.323,3.294,3.294,0,0,1,3.323-3.323A3.425,3.425,0,0,1,267.346,221.723Z" transform="translate(-243.499 -218.4)"/><path class="f" d="M302.546,221.723a3.3,3.3,0,0,1-3.323,3.323,3.425,3.425,0,0,1-3.323-3.323,3.294,3.294,0,0,1,3.323-3.323A3.425,3.425,0,0,1,302.546,221.723Z" transform="translate(-209.896 -218.4)"/><path class="f" d="M284.946,221.723a3.294,3.294,0,0,1-3.323,3.323,3.425,3.425,0,0,1-3.323-3.323,3.294,3.294,0,0,1,3.323-3.323A3.425,3.425,0,0,1,284.946,221.723Z" transform="translate(-226.698 -218.4)"/><path class="f" d="M293.746,221.723a3.323,3.323,0,1,1-3.323-3.323A3.425,3.425,0,0,1,293.746,221.723Z" transform="translate(-218.297 -218.4)"/></g></g><g transform="translate(102.618)"><circle class="g" cx="48.67" cy="48.67" r="48.67"/><g transform="translate(29.906 29.906)"><line class="h" x1="37.333" y2="37.333"/><line class="h" x1="37.333" y1="37.333"/></g></g></g><g transform="translate(197.901 268.672)"><path class="i" d="M153.727,329.014l50.429-2.15,2.15-86.2-6.255-17.4-20.914-7.232-14.66-2.736a17.387,17.387,0,0,0-14.269,17.983l5.473,60.984Z" transform="translate(-129.463 -157.267)"/><path class="i" d="M162.3,206.4v17.4s3.714,2.15,12.314,2.15c4.691,0,5.668.782,5.668.782v-9.382Z" transform="translate(-117.903 -163.854)"/><path class="i" d="M161.337,212.211a5.411,5.411,0,0,0,.2,1.759v.586c-.391,10.36,6.255,21.305,16.028,22.869h.586c2.15.2,9.773.977,12.705-2.15,3.323-3.714,6.255-10.359,6.255-14.855s-.782-5.668-.782-7.428c0-1.368.782-5.864.782-7.819,0-9.187-6.059-18.373-17.005-18.373C163.291,186.605,160.75,201.07,161.337,212.211Z" transform="translate(-118.895 -182.566)"/><path class="j" d="M171.5,215" transform="translate(-109.121 -155.645)"/><g transform="translate(0 59.285)"><path class="i" d="M142.268,284.228c5.473,2.346,21.305-27.951,27.169-41.243s8.014-24.824,1.368-27.56-13.292,7.037-18.569,20.524C146.959,249.24,136.795,281.883,142.268,284.228Z" transform="translate(-138.527 -214.964)"/><g transform="translate(0 58.123)"><path class="i" d="M145.477,315.848c5.277,0,7.232-38.115,7.428-48.866s-.391-22.283-6.255-22.283-6.841,11.337-7.037,22.087S140.2,315.653,145.477,315.848Z" transform="translate(-139.586 -244.7)"/><path class="i" d="M145.6,276.011c-6.059-.586-5.864,10.359-5.668,14.073.391,6.059,6.646,11.923,8.991,11.923,2.346-.2.586-13.682.977-14.269.586-.391.782,6.841,2.932,6.646,2.15-.391,1.368-9.382-.2-12.705C150.88,278.161,149.316,276.4,145.6,276.011Z" transform="translate(-139.321 -214.831)"/></g></g><path class="k" d="M177.77,226.614c-.977,4.5-3.714,10.946-7.623,17.983-4.1,7.623-8.014,14.269-10.359,18.569-1.564,2.541-2.541,4.3-2.932,4.887a.191.191,0,0,1-.2.2L142,262.188s8.6-35.965,22.283-47.106c.2,0,1.564-.782,1.759-.782C173.86,215.668,179.333,218.8,177.77,226.614Z" transform="translate(-137.282 -156.313)"/><path class="i" d="M171.12,270.5c-5.082,1.955-7.819,9.969-6.059,17.4a114.094,114.094,0,0,0,7.818,22.283c10.36,22.087,18.569,51.8,26,51.6s9.773-18.373,2.541-42.415c-6.646-21.7-12.51-50.038-17.983-51.407C180.7,267.375,175.616,268.939,171.12,270.5Z" transform="translate(-115.778 -105.206)"/><g transform="translate(73.171 251.598)"><path class="i" d="M189.294,313.641c-20.133-6.255-10.946,91.281-4.3,108.482,6.841,17.2,9.382-28.928,10.555-58.639C196.917,333.578,197.308,316.182,189.294,313.641Z" transform="translate(-177.021 -313.353)"/></g><path class="i" d="M178.5,357.9c.2.391,1.759,26.778,1.759,26.778s12.9.977,12.9,0,.977-24.042.977-24.042Z" transform="translate(-102.439 -19.229)"/><path class="i" d="M155.3,357.9c.2.391,1.759,26.778,1.759,26.778s12.9.977,12.9,0,.977-24.042.977-24.042Z" transform="translate(-124.586 -19.229)"/><path class="i" d="M159.985,269.5c-5.277.977-9.578,8.209-9.382,15.832a103.125,103.125,0,0,0,3.518,23.456c5.864,23.651,8.209,54.339,15.442,55.707s13.291-16.223,10.75-41.047c-2.15-22.478-2.736-51.407-7.819-53.948C169.954,268.133,164.676,268.719,159.985,269.5Z" transform="translate(-129.076 -104.4)"/><g transform="translate(29.387 253.654)"><path class="i" d="M168.458,314.786c-19.742-7.232-14.269,90.5-8.4,108.091s9.382-28.342,12.119-58.052S176.276,317.523,168.458,314.786Z" transform="translate(-154.621 -314.405)"/></g><path d="M209.041,275.783s17.983,75.449,17.592,91.281-3.518,98.9-3.518,98.9H208.846c-10.946-60.007-6.45-95.581-7.623-102.227s-14.66-35.379-14.66-35.379-.586,33.033-.586,42.22-8.209,94.995-8.209,94.995l-14.855.391s-4.691-58.639-4.691-70.562,2.932-30.492,2.736-33.033c-.2-2.346-23.26-62.353-8.014-85.417C172.88,246.072,209.041,275.783,209.041,275.783Z" transform="translate(-131.807 -109.9)"/><path class="k" d="M214.4,240.884a13.33,13.33,0,0,1-.391,3.714c-.2.782-.391,1.564-.586,2.541-.782,2.932-2.15,7.232-4.5,14.464-6.45,19.546-.782,61.571-.586,62.157,0,0-58.834,1.368-58.639-.2.977-11.532,9.969-21.892,2.346-62.743-6.255-33.62,2.15-46.325,9.382-47.107,14.464-1.759,40.07,6.841,43.588,10.164C208.339,226.811,214.2,233.652,214.4,240.884Z" transform="translate(-129.932 -157.096)"/><path class="l" d="M245.433,220.39c-.782-5.668-34.6-4.3-48.866-2.541s-25.215,5.668-24.237,12.705,12.51,7.818,26.778,5.668C213.181,233.876,246.214,226.253,245.433,220.39Z" transform="translate(-108.387 -154.388)"/><path class="k" d="M221.171,232.719s-15.637,6.059-27.56,9.187c-7.428,1.955-13.878,1.173-15.442-3.127,0-.2-.2,0-.391-.2-7.428-2.932-9.773-15.442-2.541-18.764,4.3-1.955,13.291-1.564,21.305-2.15,15.442-1.173,20.914-1.368,20.914-1.368l3.323,15.246Z" transform="translate(-109.731 -154.404)"/><path class="f" d="M214.98,201.378a19.991,19.991,0,0,1-2.541,8.014c-5.082,8.8-8.014,17.005-7.818,27.365.2,12.314,7.623,27.169,0,38.506-11.141,16.614-39.874,15.442-52.384,1.564-8.4-9.382-10.164-24.433-.391-33.424,4.3-3.909,8.209-7.818,10.555-13.1,6.841-14.855,6.059-38.7,24.824-44.761C197.779,182.223,215.762,188.086,214.98,201.378Z" transform="translate(-134.227 -184.633)"/><path class="k" d="M192.778,370.491s1.368,3.909,9.578,8.991,10.36,3.909,10.555,5.864-34.01.391-34.01.391l.586-15.637C179.291,370.1,192.778,370.1,192.778,370.491Z" transform="translate(-102.057 -7.582)"/><path class="k" d="M169.387,370.1s1.564,3.323,7.037,8.6c4.887,4.691,9.187,3.714,8.8,5.473-.391,1.564-29.319.586-29.319.586V370.1Z" transform="translate(-124.013 -7.582)"/><g transform="translate(74.334 7.106)"><path class="l" d="M184.18,193.775c-3.714,3.518,21.7,31.665,29.319,39.288,7.428,7.623,15.832,15.246,20.133,11.141,4.1-4.1-3.127-12.705-10.75-20.328S187.894,190.061,184.18,193.775Z" transform="translate(-171.702 -183.354)"/><path class="l" d="M177.78,188.916c-1.368,1.368,6.255,8.4,8.209,10.555.391.391.391.586.391.586h-.391c-1.173-.391-5.277-2.932-6.646-1.564-1.368,1.564,4.5,7.037,8.014,8.8.2.2.391.2.586.391,3.518,1.368,5.864,1.564,8.8-.782,4.887-3.714-2.541-11.532-5.277-14.073a17.581,17.581,0,0,0-8.209-4.3C180.907,188.134,178.562,188.134,177.78,188.916Z" transform="translate(-177.616 -188.269)"/></g><path class="m" d="M152.532,244.259h0c-1.564,2.736-2.541,4.5-2.932,5.082l1.564-15.442C151.555,238.786,152.532,244.259,152.532,244.259Z" transform="translate(-130.027 -137.602)"/><path class="n" d="M188.328,229.4c-.2.782-.391,1.564-.586,2.541-3.714,2.15-11.141.586-11.141.586l11.728-3.127Z" transform="translate(-104.252 -141.898)"/></g><g transform="translate(555.7 461.757)"><g transform="translate(0 13.211)"><path class="o" d="M382.374,418.838a76.043,76.043,0,0,0-.2,22.087,33.481,33.481,0,0,1,.2,6.255c-.2,2.15-.586,4.691-2.346,5.668-2.736,1.759-6.255-.782-8.209-3.323-8.6-11.532-9.187-26.583-16.419-38.7a53.784,53.784,0,0,0-3.714-5.473l2.15-8.209-4.5,4.887c-5.082-7.428-9.969-15.051-9.969-24.237l6.646.586s-3.518-1.368-6.45-2.541c.2-6.255.977-12.51-1.173-18.373-1.564-4.3-4.691-7.623-7.623-11.141l4.3-6.45a59.817,59.817,0,0,1-7.623,1.955c-.2-.391-.586-.782-.782-1.173-3.909-6.646-4.3-14.269-3.909-21.7a90.252,90.252,0,0,1,1.173-12.51,23.314,23.314,0,0,1,2.932.2l-2.346-3.127a62.139,62.139,0,0,1,1.955-6.45c.586-1.564,2.737-6.646,4.691-6.841,5.473-.586,9.969,4.3,11.923,9.382,1.759,4.887,2.736,9.578,4.691,14.073l-2.541,2.736,4.5.586c.2.391.391.586.586.977,5.473,7.623,15.246,13.487,20.915,20.915-4.3,1.173-8.4,2.541-8.4,2.541l11.923,3.714c1.368,4.1,1.368,8.8-1.173,14.464-.782,1.759-1.759,3.518-2.541,5.277l-3.127-2.15,2.15,4.3a18.709,18.709,0,0,0-1.564,7.428c.2,7.819,5.082,14.464,9.187,21.305-.782,2.15-1.368,4.1-1.368,4.1l3.323-.391a18.789,18.789,0,0,1,2.15,5.473A30.23,30.23,0,0,1,382.374,418.838Z" transform="translate(-322.639 -290.175)"/><g transform="translate(11.065 14.903)"><path class="p" d="M366.415,423.678c-1.759-18.96-7.037-27.365-11.532-34.6-2.15-3.518-4.3-6.841-5.668-10.946-1.368-4.691-1.564-10.164-1.759-16.223-.391-9.773-.586-20.133-6.646-26.583C330.45,323.992,328.3,298,328.3,297.8h1.759c0,.2,1.955,25.41,11.923,36.356,6.45,7.037,6.841,17.592,7.232,27.756.2,5.864.391,11.337,1.759,15.832,1.173,3.909,3.127,6.841,5.473,10.555,4.5,7.232,9.969,16.028,11.923,35.379Z" transform="translate(-328.3 -297.8)"/></g></g><g transform="translate(34.631)"><path class="q" d="M373.67,442.1a20.073,20.073,0,0,0,7.819-6.255c5.473-8.014,4.887-18.96,6.255-28.147,1.759-10.946,6.646-21.7,15.442-28.733,7.037-5.668,11.728-11.923,13.291-21.11,1.368-8.991.586-18.178,1.564-27.365a150.818,150.818,0,0,1,5.668-27.951c2.541-7.818,5.082-20.719-7.819-18.96a20.808,20.808,0,0,0-13.1,7.428c-8.6,10.359-7.819,25.215-14.073,36.747-3.127,5.864-8.21,10.164-12.9,14.66-4.3,4.1-8.6,8.991-9.578,15.051-.586,3.518-.2,7.232-.977,10.555-1.173,4.887-4.5,8.6-7.623,12.314a74.363,74.363,0,0,0-8.014,12.9c-5.864,11.532-11.728,26.387-8.209,39.288.977,3.714,2.932,7.623,6.059,9.969C354.71,448.159,366.438,445.618,373.67,442.1Z" transform="translate(-340.356 -283.417)"/><path class="r" d="M360.1,318.6" transform="translate(-321.509 -249.83)"/><path class="s" d="M366.15,330.923a1.47,1.47,0,0,1,1.368.977l3.323,24.042,21.5-42.22a1.231,1.231,0,0,1,1.564-.586,1.31,1.31,0,0,1,.586,1.564l-15.637,30.883,21.7-15.051a1.145,1.145,0,0,1,1.564.2,1.183,1.183,0,0,1-.2,1.564l-24.824,17.4a.718.718,0,0,1-.586.2l-20.524,40.265,15.051-6.841a1.181,1.181,0,1,1,.977,2.15L355.2,393.08a.6.6,0,0,1-.782,0l-3.909,7.623a1.231,1.231,0,0,1-1.564.586c-.2,0-.2-.2-.391-.2a1.158,1.158,0,0,1-.2-1.368l20.524-40.461a.718.718,0,0,1-.2-.586L364.977,332.1A1.418,1.418,0,0,1,366.15,330.923Z" transform="translate(-332.836 -255.116)"/></g><path class="f" d="M371.6,322.066c4.887-8.014,9.578-10.946,9.578-10.946.2-.2.391-.391.391-.586,5.473-4.3,19.937-16.81,12.51-21.11-7.232-4.3-12.51,13.487-14.073,20.133-.782.586-5.278,3.714-9.969,11.337,1.759-7.232,5.278-24.628-2.932-23.651-9.187.977-.586,21.5,1.564,26.192a62.265,62.265,0,0,0-4.887,10.75c-.391.977-.586,1.955-.977,2.932,0-8.014-.977-23.846-8.209-21.305-8.4,2.932,3.714,20.328,7.232,24.824a127.344,127.344,0,0,0-3.518,18.96c-1.759-7.428-6.45-24.042-13.291-19.742-7.623,4.887,8.991,19.155,13.1,22.478a168.265,168.265,0,0,0-.391,17.592c-2.736-6.841-9.969-23.456-16.223-17.787-6.841,6.059,11.923,17.787,16.419,20.328q.293,7.33,1.173,15.832c-4.691-5.277-17.592-18.96-21.5-11.532-4.3,7.819,15.832,12.314,21.7,13.487.586,5.668,1.564,11.728,2.736,18.178-3.518-4.3-18.178-20.524-22.478-12.51-4.5,8.209,18.569,12.9,22.674,13.682.782,4.1,1.564,8.4,2.736,12.705a1.072,1.072,0,0,0,1.173.782h.2a1.182,1.182,0,0,0,.586-1.173c-.977-4.5-1.955-8.6-2.736-12.705,4.691-.391,27.756-3.127,23.455-11.532-4.1-8.014-19.742,6.646-23.651,10.555-1.173-6.255-2.15-12.314-2.737-17.787,4.5-.391,27.951-3.127,23.651-11.532-4.1-8.014-19.937,6.841-23.651,10.555-.782-6.255-1.173-11.923-1.368-17.4,5.082-.2,27.756-1.955,23.846-10.359-3.714-8.014-19.546,5.277-24.042,9.187-.2-6.841,0-12.9.391-18.569,5.082.2,27.756.977,24.824-7.819-2.736-8.4-19.937,3.127-24.628,6.646a120.685,120.685,0,0,1,3.518-20.328c5.278.2,27.56.782,24.628-7.819-2.736-8.209-18.764,2.541-24.237,6.255a30.392,30.392,0,0,1,1.564-4.5,81.687,81.687,0,0,1,4.887-10.75c4.887.2,27.756.586,24.824-8.209C392.517,307.992,377.466,317.961,371.6,322.066Z" transform="translate(-308.935 -278.315)"/><g transform="translate(18.688 124.086)"><path class="t" d="M344.95,407.789h42.611a5.318,5.318,0,0,0,5.277-4.887l5.473-55.9H334.2l5.473,55.9A5.318,5.318,0,0,0,344.95,407.789Z" transform="translate(-330.291 -346.804)"/><path class="u" d="M334.546,357.846h67.239a2.377,2.377,0,0,0,2.346-2.346v-6.255a2.377,2.377,0,0,0-2.346-2.346H334.546a2.377,2.377,0,0,0-2.346,2.346V355.5A2.377,2.377,0,0,0,334.546,357.846Z" transform="translate(-332.2 -346.9)"/></g></g></g></svg>