<svg xmlns="http://www.w3.org/2000/svg" width="615.386" height="418.364" viewBox="0 0 615.386 418.364"><defs><style>.a,.c{fill:#dbe4ff;}.a{opacity:0.14;}.b{fill:#1f1440;}.d{fill:#2d62fc;}.e{fill:#189afe;}.f{fill:#fff;}.g{fill:#6a50ea;}.h{fill:#8f6dff;}.i{fill:#ff2e57;}.j{fill:#fbc922;}.k{fill:#6737c1;}.l{fill:#00cfff;}.m{fill:#bc2650;}.n{fill:#ffa800;}.o{fill:#0981f3;}.p{fill:#452b94;}.q{fill:#223a80;}.r{fill:#452b96;}.s{fill:#ffadae;}.t{fill:#ff9395;}.u{fill:#f8f8f8;}.v{fill:#514b66;}.w{fill:#ac1548;}.x{fill:#7447fd;}.y{fill:#fda601;}.z{fill:#f9c723;}.aa{fill:#8c6dfd;}.ab{fill:#6737bf;}.ac{fill:#aa1548;}.ad{fill:#fd2e57;}.ae{fill:#352364;}</style></defs><g transform="translate(-60.685 -18.229)"><path class="a" d="M682.721,490.61q5.751-11.334,11.53-22.668c29.328-57.565,64.981-107.182,61.847-174.821-2.883-62.322-30.839-122.965-82.723-159.346C613.683,91.938,521.92,84.8,462.788,131.984c-25.074,20.009-41.725,49.113-65.177,70.97-26.614,24.823-61.315,36.8-95.6,46.763-24.179,7.024-48.3,15.448-69.291,29.356-76.2,50.485-50.764,136.258-31.567,209.775Z" transform="translate(-120.436 -68.588)"/><g transform="translate(249.163 431.352)"><path class="b" d="M854.6,1533.005l28.293-.532,28.293-.476,56.585-.756,14.16-.224,14.16-.252q14.146-.252,28.293-.028l14.16.308c4.729.14,9.431.252,14.16.448,9.431.336,18.862.784,28.293,1.511v.5c-9.431.728-18.862,1.175-28.293,1.511-4.729.2-9.431.308-14.16.448l-14.16.308q-14.146.21-28.293-.028l-14.16-.252-14.16-.224-56.585-.755-28.293-.476-28.293-.532Z" transform="translate(-854.6 -1530.636)"/></g><path class="c" d="M2135.739,524.83a26.208,26.208,0,1,1-34.309,14.02A26.208,26.208,0,0,1,2135.739,524.83Z" transform="translate(-1501.869 -373.477)"/><g transform="translate(571.389 123.154)"><path class="c" d="M2010.106,461.423a52.3,52.3,0,1,0,68.535-28.013A52.015,52.015,0,0,0,2010.106,461.423Zm86-10.746a48.884,48.884,0,0,1-56.7,76.091,48.03,48.03,0,0,1-17.379-12.369,49.109,49.109,0,0,1-11.949-25.074,48.872,48.872,0,0,1,67.192-52.667A47.982,47.982,0,0,1,2096.1,450.676Z" transform="translate(-2006.028 -429.333)"/></g><path class="c" d="M443.24,618.53a26.208,26.208,0,1,1-34.309,14.02A26.207,26.207,0,0,1,443.24,618.53Z" transform="translate(-283.012 -440.956)"/><g transform="translate(97.745 149.387)"><path class="c" d="M317.606,555.153a52.3,52.3,0,1,0,68.535-28.013A52.014,52.014,0,0,0,317.606,555.153Zm86-10.746a48.884,48.884,0,0,1-56.7,76.091,48.027,48.027,0,0,1-17.379-12.369,49.111,49.111,0,0,1-11.949-25.074,48.872,48.872,0,0,1,67.192-52.668A48.047,48.047,0,0,1,403.6,544.407Z" transform="translate(-313.528 -523.075)"/></g><g transform="translate(99.46 70.085)"><g transform="translate(0 58.125)"><path class="d" d="M320.032,449.779a.538.538,0,0,1-.364-.5c0-.448-.028-.867,0-1.315a.56.56,0,0,1,1.119,0v1.259a.538.538,0,0,1-.532.56A.3.3,0,0,1,320.032,449.779Z" transform="translate(-319.656 -447.4)"/></g><g transform="translate(0.093)"><path class="d" d="M320.356,296.341a.547.547,0,0,1-.364-.56c.056-.868.168-1.735.308-2.6a.55.55,0,0,1,1.091.14c-.112.84-.224,1.707-.28,2.547a.539.539,0,0,1-.588.5A.355.355,0,0,0,320.356,296.341Zm.784-5.121a.568.568,0,0,1-.364-.644c.2-.84.392-1.707.644-2.547a.565.565,0,0,1,.672-.392.543.543,0,0,1,.392.672c-.224.812-.448,1.651-.616,2.491a.541.541,0,0,1-.644.42Zm1.4-4.981a.551.551,0,0,1-.336-.7c.28-.812.616-1.651.952-2.435a.559.559,0,0,1,1.035.42c-.336.784-.644,1.6-.923,2.379A.623.623,0,0,1,322.539,286.239Zm1.987-4.785a.1.1,0,0,1-.056-.028.537.537,0,0,1-.252-.728c.392-.784.784-1.567,1.231-2.323a.557.557,0,1,1,.979.532c-.42.728-.812,1.511-1.2,2.267A.6.6,0,0,1,324.526,281.453Zm2.547-4.505c-.028-.028-.084-.028-.112-.056a.547.547,0,0,1-.168-.756c.476-.728.979-1.455,1.483-2.155a.56.56,0,0,1,.9.672c-.5.7-.979,1.4-1.455,2.1A.571.571,0,0,1,327.072,276.948Zm3.05-4.2-.168-.084a.568.568,0,0,1-.084-.784c.56-.672,1.119-1.343,1.735-1.987a.554.554,0,0,1,.812.756c-.588.616-1.147,1.287-1.679,1.931A.54.54,0,0,1,330.123,272.75Zm3.5-3.806a.609.609,0,0,1-.224-.14.542.542,0,0,1,.028-.784c.644-.616,1.287-1.2,1.959-1.763a.555.555,0,0,1,.728.84c-.644.56-1.287,1.119-1.9,1.707A.584.584,0,0,1,333.621,268.944Zm28.433,9.263c-.14-.056-.308-.112-.448-.168a12.653,12.653,0,0,1-1.4-.644.557.557,0,1,1,.532-.979A10.3,10.3,0,0,0,362,277c.336.14.672.224,1.007.336a.55.55,0,1,1-.28,1.063C362.5,278.347,362.277,278.263,362.053,278.207Zm3.19.532a.547.547,0,0,1-.364-.532.561.561,0,0,1,.56-.56,10.156,10.156,0,0,0,2.435-.28.56.56,0,0,1,.252,1.091,11.07,11.07,0,0,1-2.715.308C365.356,278.767,365.3,278.739,365.244,278.739Zm-7.052-2.8a.451.451,0,0,1-.2-.112,9.631,9.631,0,0,1-1.735-2.1.547.547,0,1,1,.924-.588,10.135,10.135,0,0,0,1.567,1.875.566.566,0,0,1,.028.784A.636.636,0,0,1,358.191,275.94Zm12.034,1.567a.563.563,0,0,1-.308-.252.551.551,0,0,1,.224-.756,8.39,8.39,0,0,0,1.959-1.427.554.554,0,0,1,.756.812,9.685,9.685,0,0,1-2.211,1.6A.443.443,0,0,1,370.225,277.508Zm-14.832-5.877a.5.5,0,0,1-.336-.336,15.388,15.388,0,0,1-.644-2.6.55.55,0,0,1,1.091-.14,11.208,11.208,0,0,0,.588,2.407.54.54,0,0,1-.336.7A1.724,1.724,0,0,1,355.393,271.631Zm-17.8-6.045a.64.64,0,0,1-.28-.2.547.547,0,0,1,.112-.784c.7-.532,1.427-1.035,2.155-1.511a.547.547,0,1,1,.588.923c-.7.448-1.427.952-2.1,1.455A.4.4,0,0,1,337.595,265.586Zm36.324,8.4c-.028,0-.056-.028-.112-.056a.555.555,0,0,1-.2-.756,9.267,9.267,0,0,0,.784-1.707c.056-.168.112-.364.168-.532a.55.55,0,1,1,1.063.28l-.168.588a9.935,9.935,0,0,1-.9,1.931A.548.548,0,0,1,373.919,273.981Zm-31.987-11.194a.684.684,0,0,1-.308-.252.551.551,0,0,1,.224-.756c.756-.42,1.567-.812,2.351-1.2a.551.551,0,1,1,.448,1.007c-.756.364-1.539.756-2.267,1.147A.438.438,0,0,1,341.932,262.788Zm12.705,3.75a.514.514,0,0,1-.364-.532,17.5,17.5,0,0,1,.28-2.658.554.554,0,1,1,1.091.2,15.081,15.081,0,0,0-.28,2.491.538.538,0,0,1-.56.532A.354.354,0,0,1,354.637,266.537Zm-8-5.9a.568.568,0,0,1-.336-.336.52.52,0,0,1,.336-.7c.812-.308,1.651-.588,2.491-.84a.54.54,0,1,1,.308,1.035,24.3,24.3,0,0,0-2.407.812A.642.642,0,0,1,346.634,260.633Zm28.517,8.4a.512.512,0,0,1-.364-.476,6.928,6.928,0,0,0-.588-2.323.551.551,0,0,1,1.007-.448,9.021,9.021,0,0,1,.672,2.687.539.539,0,0,1-.5.588A.614.614,0,0,1,375.15,269.028Zm-19.561-7.556a.529.529,0,0,1-.336-.7,17.406,17.406,0,0,1,1.091-2.435c0-.028.028-.056.056-.084a1.77,1.77,0,0,1-.056-.2.538.538,0,0,1,.532-.56c.868-.028,1.763-.028,2.631,0a.56.56,0,1,1-.056,1.119c-.7-.028-1.4-.028-2.071-.028a1,1,0,0,1-.056.28,15.393,15.393,0,0,0-1.007,2.295A.611.611,0,0,1,355.589,261.472Zm-4-2.295a.558.558,0,0,1-.364-.42.548.548,0,0,1,.42-.644q1.3-.252,2.6-.42a.55.55,0,0,1,.14,1.091q-1.259.168-2.519.42A1.051,1.051,0,0,1,351.587,259.177Zm21.632,5.149a.407.407,0,0,1-.252-.168,11.452,11.452,0,0,0-1.735-1.763.557.557,0,0,1,.7-.868,13.754,13.754,0,0,1,1.9,1.931.568.568,0,0,1-.084.784A.613.613,0,0,1,373.219,264.327Zm-11.334-5.541a.549.549,0,0,1,.252-1.063c.868.112,1.735.252,2.6.448a.543.543,0,1,1-.224,1.063q-1.259-.252-2.519-.42C361.969,258.814,361.913,258.786,361.885,258.786ZM369.273,261c-.028,0-.056-.028-.084-.056a16.732,16.732,0,0,0-2.267-1.063.576.576,0,0,1-.336-.7.551.551,0,0,1,.7-.336,19.157,19.157,0,0,1,2.435,1.119.543.543,0,0,1,.2.756A.52.52,0,0,1,369.273,261ZM358,256.883c-.056-.028-.084-.028-.14-.056a.547.547,0,0,1-.168-.756c.476-.728,1.007-1.455,1.539-2.127a.557.557,0,1,1,.867.7c-.5.672-1.007,1.371-1.483,2.071A.548.548,0,0,1,358,256.883Zm3.19-4.058a.451.451,0,0,1-.2-.112.541.541,0,0,1-.028-.784c.588-.644,1.2-1.287,1.847-1.875a.554.554,0,1,1,.756.812c-.616.588-1.2,1.175-1.791,1.819A.654.654,0,0,1,361.186,252.825Zm3.75-3.554a.5.5,0,0,1-.252-.168.568.568,0,0,1,.084-.784c.672-.532,1.4-1.063,2.127-1.567a.543.543,0,1,1,.616.9c-.7.476-1.4.979-2.043,1.511A.43.43,0,0,1,364.936,249.271Zm4.282-2.91a.651.651,0,0,1-.308-.252.575.575,0,0,1,.2-.756c.756-.42,1.539-.84,2.323-1.231a.544.544,0,0,1,.476.979c-.756.364-1.511.784-2.239,1.2A.438.438,0,0,1,369.217,246.36Zm4.645-2.267a.606.606,0,0,1-.336-.308.568.568,0,0,1,.308-.728c.812-.336,1.623-.616,2.463-.9a.549.549,0,1,1,.364,1.035c-.812.28-1.623.56-2.407.9A.478.478,0,0,1,373.863,244.094Zm4.9-1.623a.57.57,0,0,1-.364-.392.531.531,0,0,1,.392-.672c.84-.224,1.679-.42,2.547-.616a.543.543,0,0,1,.224,1.063c-.84.168-1.679.364-2.491.588A.385.385,0,0,1,378.76,242.47Zm5.065-1.063a.513.513,0,0,1-.364-.448.526.526,0,0,1,.476-.616c.84-.14,1.735-.252,2.6-.336a.562.562,0,0,1,.112,1.119c-.84.084-1.707.2-2.547.336C383.993,241.435,383.91,241.435,383.826,241.407Zm50.457,15.252a.452.452,0,0,1-.2-.112c-.616-.588-1.287-1.147-1.931-1.679a.555.555,0,1,1,.728-.84c.672.56,1.315,1.147,1.959,1.707a.541.541,0,0,1,.028.784A.53.53,0,0,1,434.282,256.659Zm-45.307-15.783a.549.549,0,0,1-.364-.5.561.561,0,0,1,.532-.588q1.3-.084,2.6-.084a.56.56,0,1,1,0,1.119c-.867,0-1.707.028-2.575.084A.476.476,0,0,1,388.975,240.875Zm41.334,12.481-.168-.084c-.672-.5-1.371-1.035-2.071-1.511a.543.543,0,0,1,.616-.9c.728.5,1.427,1.007,2.1,1.539a.573.573,0,0,1,.112.784A.551.551,0,0,1,430.308,253.357Zm-36.156-12.537a.514.514,0,0,1-.364-.532.538.538,0,0,1,.56-.532c.867.028,1.735.084,2.6.14a.547.547,0,1,1-.084,1.091c-.868-.056-1.707-.112-2.575-.14A.3.3,0,0,1,394.152,240.819Zm31.9,9.571a.212.212,0,0,1-.112-.056c-.728-.448-1.455-.9-2.211-1.315a.552.552,0,1,1,.56-.951c.756.42,1.511.9,2.239,1.343a.548.548,0,0,1-.476.979Zm-26.726-9.179a.549.549,0,0,1-.364-.588.526.526,0,0,1,.616-.476l2.6.336a.554.554,0,0,1-.2,1.091c-.84-.14-1.707-.252-2.547-.336C399.385,241.239,399.357,241.239,399.329,241.211Zm22.22,6.6c-.028,0-.056-.028-.084-.028-.756-.392-1.539-.756-2.295-1.119a.551.551,0,0,1,.448-1.007c.784.364,1.6.756,2.351,1.147a.561.561,0,0,1,.252.756A.523.523,0,0,1,421.549,247.816Zm-17.1-5.821a.552.552,0,0,1-.364-.616.546.546,0,0,1,.644-.448c.84.168,1.707.336,2.547.56a.56.56,0,1,1-.252,1.091c-.84-.2-1.679-.364-2.519-.532Zm12.4,3.666h-.028c-.448-.168-.867-.364-1.315-.5-.364-.14-.728-.28-1.091-.392a.549.549,0,0,1,.364-1.035l1.091.42c.448.168.9.336,1.343.532a.568.568,0,0,1,.308.728A.518.518,0,0,1,416.848,245.661Zm-7.36-2.463a.573.573,0,0,1-.364-.672.543.543,0,0,1,.672-.392c.84.224,1.679.476,2.519.728a.558.558,0,1,1-.336,1.063c-.812-.252-1.651-.5-2.463-.728Z" transform="translate(-319.989 -239.7)"/></g><g transform="translate(115.926 17.714)"><path class="d" d="M735.187,305.015a.61.61,0,0,1-.224-.14c-.308-.308-.588-.616-.9-.924a.554.554,0,1,1,.784-.784c.308.308.615.616.9.923a.542.542,0,0,1-.028.784A.439.439,0,0,1,735.187,305.015Z" transform="translate(-733.9 -303)"/></g></g><path class="d" d="M731.7,307.363l1.175,3.442,33.05-5.9Z" transform="translate(-516.93 -216.569)"/><path class="d" d="M727.6,269.8l1.9,5.037,33.47,4.785Z" transform="translate(-513.978 -191.292)"/><path class="e" d="M727.6,254.1l5.6-6.1,29.776,15.923Z" transform="translate(-513.978 -175.592)"/><path class="e" d="M693.672,285l-8.172,9.235,47.154-3.666Z" transform="translate(-483.659 -202.238)"/><g transform="translate(516.584 230.438)"><path class="f" d="M1989.849,879.34a3,3,0,1,1,2.491-3.442A3.026,3.026,0,0,1,1989.849,879.34Z" transform="translate(-1937.067 -856.392)"/><g transform="translate(54.215 101.948)"><path class="g" d="M2004.587,1182.538c.7-.951,1.567-1.679,2.295-2.575a22.563,22.563,0,0,0,1.539-2.463.339.339,0,0,0-.588-.336,13.6,13.6,0,0,1-1.875,2.8,21.451,21.451,0,0,0-1.987,2.239c-.224.336.364.7.616.336Z" transform="translate(-2003.922 -1176.996)"/></g><path class="h" d="M2002.253,1125.529s-14.636-5.625,2.715-20.317c0,0,4.953-3.358,8.144-2.658C2014.146,1102.777,2017.98,1128.1,2002.253,1125.529Z" transform="translate(-1944.349 -1021.369)"/><path class="g" d="M1923.528,1247.318s-9.906-12.4-18.89,5.261a13.635,13.635,0,0,0-.644,10.97c.028.056.028.112.056.14a2.061,2.061,0,0,1,.112.392,5.593,5.593,0,0,1-.112,2.687.635.635,0,0,0,.5.839c4.058.532,18.834,1.679,23.059-9.039C1931.112,1249.7,1923.528,1247.318,1923.528,1247.318Z" transform="translate(-1877.127 -1122.645)"/><path class="g" d="M2028.007,1206.407s-5.373-5.457,1.763-8.731c6.632-3.023,9.151,2.211,12.761,2.015a.5.5,0,0,1,.5.672C2041.5,1203.692,2035.255,1215.446,2028.007,1206.407Z" transform="translate(-1965.654 -1089.262)"/><path class="i" d="M1920.693,1178.889s4.7-18.3-27.593-15.727C1893.128,1163.161,1892.652,1190.782,1920.693,1178.889Z" transform="translate(-1869.898 -1064.906)"/><path class="g" d="M1999.107,917.1l2.742,120.587a2.214,2.214,0,1,1-4.422.028c.14-16.539,1.008-116.277-.028-120.615Z" transform="translate(-1945.009 -887.884)"/><path class="j" d="M1959.875,842.364a8.81,8.81,0,0,1-.9.14s-18.47,3.078-12.313-25.382a16.772,16.772,0,0,0-.448-3.61c-.084-.28-.168-.56-.252-.812,0,0,21.184.42,24.795,14.272C1973.84,838.754,1963.122,841.72,1959.875,842.364Z" transform="translate(-1907.569 -812.7)"/><path class="k" d="M1909.6,870.6s20.261,4.114,18.47,18.974C1928.07,889.574,1919.366,901.635,1909.6,870.6Z" transform="translate(-1881.78 -854.397)"/><g transform="translate(55.271 114.793)"><path class="g" d="M2008.311,1231.4a13.893,13.893,0,0,1,3.358-5.261c1.427-1.231,3.274-1.567,4.7-2.687.336-.28-.14-.756-.476-.476a16.453,16.453,0,0,1-2.742,1.315,10.857,10.857,0,0,0-2.351,1.735,15.39,15.39,0,0,0-3.078,5.065c-.168.364.42.7.588.308Z" transform="translate(-2007.693 -1222.896)"/></g><g transform="translate(44.577 122.71)"><path class="g" d="M1970.13,1254.1c1.567-2.211,6.8-3.162,8.787-1.119a.337.337,0,0,0,.476-.476c-2.323-2.379-8-1.287-9.851,1.259-.252.336.336.672.588.336Z" transform="translate(-1969.48 -1251.185)"/></g><g transform="translate(55.104 132.05)"><path class="g" d="M2007.656,1288.434c3.834-4.534,10.159-4.254,13.4.783.224.364.812.028.588-.336a8.75,8.75,0,0,0-14.468-.924c-.28.336.2.812.476.476Z" transform="translate(-2007.096 -1284.561)"/></g><g transform="translate(49.883 84.156)"><path class="g" d="M1988.6,1114.059a12.6,12.6,0,0,1,2.239,1.287,10.593,10.593,0,0,0,1.595,1.371.338.338,0,1,0,.336-.588,15.187,15.187,0,0,1-1.763-1.511,21.587,21.587,0,0,0-2.071-1.147c-.364-.224-.7.364-.336.588Z" transform="translate(-1988.44 -1113.421)"/></g><g transform="translate(53.83 74.245)"><path class="g" d="M2003.119,1082.425c1.735-2.043,4.225-2.882,6.688-3.75.42-.14.224-.812-.167-.644-2.575.9-5.177,1.791-7,3.946a.327.327,0,1,0,.476.448Z" transform="translate(-2002.544 -1078.004)"/></g><g transform="translate(36.898 46.477)"><path class="g" d="M1942.2,979.4c5.177,3.3,14.3,5.961,16.511,12.453.14.42.784.224.644-.168-2.295-6.716-11.474-9.431-16.819-12.845-.364-.252-.7.336-.336.56Z" transform="translate(-1942.04 -978.78)"/></g><g transform="translate(53.742 41.759)"><path class="g" d="M2002.893,975.264c.756-2.6,3.274-5.541,5.037-7.5a25.929,25.929,0,0,1,5.737-5.205.339.339,0,0,0-.336-.588,26.957,26.957,0,0,0-6.493,5.989c-1.707,2.015-3.862,4.561-4.589,7.108a.336.336,0,1,0,.644.2Z" transform="translate(-2002.229 -961.921)"/></g><g transform="translate(44.257 34.332)"><path class="k" d="M1968.495,936.03a27,27,0,0,0,4.226,2.91,18.409,18.409,0,0,0,4.394,1.735c.42.056.615-.588.168-.644a19.261,19.261,0,0,1-4.281-1.707,28.619,28.619,0,0,1-4.2-2.882c-.336-.252-.671.336-.308.588Z" transform="translate(-1968.337 -935.381)"/></g><path class="h" d="M2080.877,995.012a27.354,27.354,0,0,0-19.589-4.617,27.844,27.844,0,0,0-8.088,2.575s7.192-12.313,18.106-7.864c.671.28,1.287.56,1.875.812C2082.08,990.2,2080.877,995.012,2080.877,995.012Z" transform="translate(-1985.194 -936.16)"/><path class="l" d="M1857.582,959.867a37.65,37.65,0,0,0-17.491.56,31.255,31.255,0,0,0-15.839,10.214s-6.157-8.2,10.074-17.1c9.011-4.925,15.168-2.435,18.862.755A18.284,18.284,0,0,1,1857.582,959.867Z" transform="translate(-1819.492 -912.125)"/><path class="g" d="M2054.64,1075.259a34.1,34.1,0,0,0-8.2-8.4c-6.017-4.422-15.336-8.479-28.041-5.961a36.6,36.6,0,0,1,11.725-7.3,17.017,17.017,0,0,1,10.83-.56C2051.9,1056.453,2054.276,1066.724,2054.64,1075.259Z" transform="translate(-1960.133 -985.315)"/><path class="h" d="M1861.6,1089.515c-34.2-5.821-51.268,14.02-51.268,14.02a24.867,24.867,0,0,1,.056-5.793c.056-.448.14-.9.2-1.343a20.662,20.662,0,0,1,15.448-16.147c17.155-4.31,26.809.5,31.623,4.646A16.876,16.876,0,0,1,1861.6,1089.515Z" transform="translate(-1810.191 -1004.161)"/><path class="l" d="M1934.664,1026.008s-9.627.224-16.343-1.567-9.8,5.9,5.317,20.009c0,0,1.063-3.33,14.86-7C1952.322,1033.788,1951.595,1021.166,1934.664,1026.008Z" transform="translate(-1884.065 -965.001)"/><path class="j" d="M2042.776,1302s-.56.112-1.455.2c-4.366.448-17.043.84-16.735-10.158a3.835,3.835,0,0,1,2.575-3.526,15.987,15.987,0,0,1,4.394-.867,21.815,21.815,0,0,1,7.472.784C2047.9,1290.866,2037.375,1298.17,2042.776,1302Z" transform="translate(-1964.583 -1154.692)"/><path class="h" d="M1913.652,1271.153a.93.93,0,0,1-1.651-.5,10.86,10.86,0,0,1,1.483-6.324c1.623-2.911,3.75-6.409,6.912-7.92,1.791-.867,2.575-.588,3.974.644,1.315,1.175,2.826.867,4.2,1.791,1.511,1.064,1.2,3.582.224,4.9-1.259,1.679-3.862,1.455-5.737,1.9A19.711,19.711,0,0,0,1913.652,1271.153Z" transform="translate(-1883.482 -1131.873)"/><path class="m" d="M1905.94,1181.176a.644.644,0,0,0-.979.811c.783,1.4,1.735,2.715,2.574,3.918a15.622,15.622,0,0,0,7.108,5.625c1.9.728,8.031,2.407,7.891-1.259-.112-3.414-4.534-3.806-6.968-4.562C1912.265,1184.7,1908.739,1183.471,1905.94,1181.176Z" transform="translate(-1878.373 -1077.94)"/><path class="h" d="M2052.184,1210.84a.905.905,0,0,0-1.26-.476c-2.518,1.175-6.828,1.175-7.164,4.757-.252,2.519,2.658,2.071,4.226,1.707C2049.525,1216.465,2053.443,1214.45,2052.184,1210.84Z" transform="translate(-1978.385 -1099.012)"/><path class="f" d="M1934.182,1035.5c2.715.56,5.4,1.287,8.2,1.147,2.994-.14,5.933-.616,8.9-.9,1.707-.168,7.444-.952,5.513,2.574-1.287,2.323-6.213,3.134-8.591,3.722-1.623.392-3.274.644-4.869,1.175-1.2.392-2.323,1.119-3.526,1.511-.28-1.679-2.295-3.862-3.694-4.786C1935.526,1039.558,1931.16,1036.759,1934.182,1035.5Z" transform="translate(-1898.723 -973.15)"/><path class="h" d="M1932,896c1.343,3.106,2.379,6.465,4.2,9.4.672,1.091,2.63,3.358,3.89,1.623.98-1.343-.084-3.274-.952-4.366A32.644,32.644,0,0,0,1932,896Z" transform="translate(-1897.912 -872.689)"/><path class="n" d="M1961.308,842.364c-.644-2.742,3.47-4.45,5.037-5.765a6.806,6.806,0,0,0,2.463-7.248c-1.511-5.821-7.36-9.1-12.146-12.005-2.938-1.2-5.149-2.015-7.444-3.162-.476-.224-1.007-.448-1.567-.672-.084-.28-.168-.56-.252-.812,0,0,21.184.42,24.795,14.272C1975.273,838.754,1964.554,841.72,1961.308,842.364Z" transform="translate(-1909.002 -812.7)"/><path class="o" d="M1872.813,967.823a37.649,37.649,0,0,0-17.49.56,8.573,8.573,0,0,0-.812-.5,3.788,3.788,0,0,0-2.435-.168c-1.9.28-3.806,1.008-5.709,1.455-.672.168-2.267.756-2.1-.42.112-.56,1.679-1.707,2.127-2.071,3.806-2.882,8.591-3.974,13.237-4.45a40.993,40.993,0,0,1,6.437-.392,10.057,10.057,0,0,1,2.323.42A18.124,18.124,0,0,1,1872.813,967.823Z" transform="translate(-1834.723 -920.081)"/><path class="g" d="M2059.281,935.517c-.923.2-1.931.252-2.575.42a24.907,24.907,0,0,0-9.319,4.058,27.849,27.849,0,0,0-8.088,2.575s7.192-12.313,18.107-7.864C2058.078,934.957,2058.693,935.237,2059.281,935.517Z" transform="translate(-1975.184 -899.864)"/><path class="g" d="M1861.6,1105.745c-34.2-5.821-51.268,14.02-51.268,14.02a24.867,24.867,0,0,1,.056-5.793,32.819,32.819,0,0,1,4.617-3.5c3.806-2.407,7.584-4.9,11.866-6.549A32.578,32.578,0,0,1,1839.1,1102a79.936,79.936,0,0,1,11.306.588c2.295.336,6.52,1.176,7.22-1.483A17.022,17.022,0,0,1,1861.6,1105.745Z" transform="translate(-1810.191 -1020.391)"/><path class="k" d="M2046.341,1069.965c-6.017-4.422-15.336-8.48-28.041-5.961a36.606,36.606,0,0,1,11.726-7.3,2.963,2.963,0,0,0-.9,1.511c-.28,1.371.784,1.679,1.987,2.1,2.463.84,5.065.728,7.5,1.651,2.491.923,3.694,2.91,5.429,4.785A10.084,10.084,0,0,1,2046.341,1069.965Z" transform="translate(-1960.061 -988.417)"/><path class="n" d="M2060.794,1301.932s-.56.112-1.456.2a14.121,14.121,0,0,1-2.994-1.847c-1.511-1.231-2.294-2.77-3.442-4.254-1.035-1.287-2.211-2.267-1.679-4.03.448-1.4.952-2.882-.531-3.918a4.4,4.4,0,0,0-1.092-.532,21.821,21.821,0,0,1,7.472.784C2065.915,1290.794,2055.393,1298.1,2060.794,1301.932Z" transform="translate(-1982.602 -1154.62)"/><g transform="translate(48.344 112.628)"><path class="g" d="M1983.1,1215.786c.812.42,1.511.98,2.323,1.4a14.922,14.922,0,0,1,2.575,1.539c.336.28.811-.2.476-.476a12.68,12.68,0,0,0-2.435-1.511c-.9-.448-1.707-1.091-2.6-1.539-.364-.2-.7.392-.336.588Z" transform="translate(-1982.94 -1215.159)"/></g><path class="h" d="M1970.418,1348l-11.781,40.718h-17.155l-3.61-12.51-.2-.671L1929.7,1348Z" transform="translate(-1896.255 -1198.197)"/><path class="g" d="M1991.446,1348l-11.781,40.718H1962.51l-3.61-12.51c12.593-4.9,18.666-17.323,21.6-28.208Z" transform="translate(-1917.284 -1198.197)"/><rect class="b" width="40.718" height="2.798" transform="translate(33.444 148.404)"/></g><path class="c" d="M948.845,587.1A12.85,12.85,0,0,1,936,574.256l.168-283.738A12.857,12.857,0,0,1,949.013,277.7l143.17.084a12.85,12.85,0,0,1,12.845,12.845l-.168,283.739a12.857,12.857,0,0,1-12.845,12.817Z" transform="translate(-664.057 -196.981)"/><path class="p" d="M1541.8,451.142v-39.4a1.553,1.553,0,0,1,1.539-1.539h2.854a1.553,1.553,0,0,1,1.539,1.539v39.4a1.553,1.553,0,0,1-1.539,1.539h-2.854A1.535,1.535,0,0,1,1541.8,451.142Z" transform="translate(-1100.325 -292.401)"/><path class="p" d="M912.9,451.142v-39.4a1.553,1.553,0,0,1,1.539-1.539h2.854a1.553,1.553,0,0,1,1.539,1.539v39.4a1.553,1.553,0,0,1-1.539,1.539h-2.854A1.517,1.517,0,0,1,912.9,451.142Z" transform="translate(-647.422 -292.401)"/><path class="p" d="M912.9,624.242v-39.4a1.553,1.553,0,0,1,1.539-1.539h2.854a1.553,1.553,0,0,1,1.539,1.539v39.4a1.553,1.553,0,0,1-1.539,1.539h-2.854A1.535,1.535,0,0,1,912.9,624.242Z" transform="translate(-647.422 -417.059)"/><path class="c" d="M2051.442,314.855a6.71,6.71,0,1,1-8.787,3.582A6.717,6.717,0,0,1,2051.442,314.855Z" transform="translate(-1460.64 -223.362)"/><circle class="c" cx="6.716" cy="6.716" r="6.716" transform="translate(546.751 96.211) rotate(-67.518)"/><path class="c" d="M1845.708,470.443a3.337,3.337,0,1,1-4.365,1.791A3.334,3.334,0,0,1,1845.708,470.443Z" transform="translate(-1315.857 -335.601)"/><g transform="translate(574.825 84.267)"><path class="c" d="M2019.339,298.585a13.4,13.4,0,0,0,1.6,13.125,12.962,12.962,0,0,0,5.569,4.394,13.373,13.373,0,0,0,15.588-20.737,13.249,13.249,0,0,0-5.233-3.946A13.414,13.414,0,0,0,2019.339,298.585Zm22-2.743a12.506,12.506,0,0,1-14.5,19.477,12.174,12.174,0,0,1-4.45-3.162,12.344,12.344,0,0,1-3.05-6.409,12.491,12.491,0,0,1,17.182-13.489A12.235,12.235,0,0,1,2041.336,295.842Z" transform="translate(-2018.306 -290.379)"/></g><path class="c" d="M1878.659,404.295a2.4,2.4,0,1,1-3.134,1.287A2.364,2.364,0,0,1,1878.659,404.295Z" transform="translate(-1340.524 -288.007)"/><g transform="translate(527.802 109.111)"><path class="c" d="M1851.01,384.9a9.08,9.08,0,0,0-.588,5.205,9.463,9.463,0,0,0,1.707,4,9.392,9.392,0,1,0,11.222-14.216A9.42,9.42,0,0,0,1851.01,384.9Zm15.448-1.931a8.816,8.816,0,0,1,1.315,8.955,8.7,8.7,0,0,1-4.226,4.478,8.831,8.831,0,0,1-7.248.224,8.385,8.385,0,0,1-3.106-2.211,8.808,8.808,0,0,1-2.155-4.506,8.525,8.525,0,0,1,.588-4.757,8.785,8.785,0,0,1,11.474-4.7A9.092,9.092,0,0,1,1866.458,382.973Z" transform="translate(-1850.276 -379.155)"/></g><circle class="c" cx="3.33" cy="3.33" r="3.33" transform="translate(565.891 138.691) rotate(-76.714)"/><path class="c" d="M663.443,414.655a6.71,6.71,0,1,1-8.787,3.582A6.717,6.717,0,0,1,663.443,414.655Z" transform="translate(-461.07 -295.233)"/><circle class="c" cx="6.716" cy="6.716" r="6.716" transform="translate(158.315 124.154) rotate(-67.579)"/><path class="c" d="M457.708,570.243a3.337,3.337,0,1,1-4.366,1.791A3.334,3.334,0,0,1,457.708,570.243Z" transform="translate(-316.287 -407.472)"/><g transform="translate(186.395 112.224)"><path class="c" d="M631.34,398.485a13.4,13.4,0,0,0,1.6,13.125A12.959,12.959,0,0,0,638.5,416a13.373,13.373,0,0,0,15.588-20.737,13.25,13.25,0,0,0-5.233-3.946A13.414,13.414,0,0,0,631.34,398.485Zm22-2.743a12.506,12.506,0,0,1-14.5,19.478,12.177,12.177,0,0,1-4.45-3.162,12.343,12.343,0,0,1-3.05-6.408,12.491,12.491,0,0,1,17.183-13.489A11.724,11.724,0,0,1,653.336,395.742Z" transform="translate(-630.306 -390.279)"/></g><path class="c" d="M490.659,504.125a2.4,2.4,0,1,1-3.134,1.287A2.4,2.4,0,0,1,490.659,504.125Z" transform="translate(-340.954 -359.908)"/><g transform="translate(139.372 137.044)"><path class="c" d="M463.01,484.714a9.08,9.08,0,0,0-.588,5.205,9.46,9.46,0,0,0,1.707,4A9.392,9.392,0,1,0,475.352,479.7,9.444,9.444,0,0,0,463.01,484.714Zm15.448-1.931a8.817,8.817,0,0,1,1.315,8.955,8.7,8.7,0,0,1-4.226,4.478,8.831,8.831,0,0,1-7.248.224,8.385,8.385,0,0,1-3.106-2.211,8.808,8.808,0,0,1-2.155-4.506,8.526,8.526,0,0,1,.588-4.757,8.786,8.786,0,0,1,11.474-4.7A9.167,9.167,0,0,1,478.458,482.783Z" transform="translate(-462.276 -478.969)"/></g><circle class="c" cx="3.33" cy="3.33" r="3.33" transform="translate(177.46 166.613) rotate(-76.785)"/><rect class="e" width="168.889" height="35.233" transform="translate(272.083 351.277)"/><rect class="e" width="168.889" height="26.893" transform="translate(271.999 84.469)"/><g transform="translate(294.639 127.056)"><path class="d" d="M1208.77,662.8c-5.681,0-10.271,5.653-10.271,12.593s4.618,12.593,10.271,12.593c5.681,0,10.271-5.653,10.271-12.593S1214.423,662.8,1208.77,662.8Zm0,21.408c-3.61,0-6.548-3.946-6.548-8.815s2.938-8.815,6.548-8.815,6.548,3.946,6.548,8.815S1212.38,684.208,1208.77,684.208Z" transform="translate(-1147.735 -601.367)"/><path class="d" d="M1186.806,670.947c-5.093,0-9.878-2.491-13.432-7.024a27.712,27.712,0,0,1,0-32.8c3.554-4.534,8.311-7.024,13.432-7.024a16.257,16.257,0,0,1,11.25,4.645,1.894,1.894,0,0,1,.112,2.659,1.86,1.86,0,0,1-2.631.112,12.844,12.844,0,0,0-8.731-3.666c-8.311,0-15.056,8.815-15.056,19.645s6.744,19.645,15.056,19.645,15.056-8.815,15.056-19.645a24.958,24.958,0,0,0-1.371-8.2,1.9,1.9,0,0,1,1.119-2.407,1.84,1.84,0,0,1,2.379,1.147,28.252,28.252,0,0,1,1.595,9.487,26.454,26.454,0,0,1-5.373,16.4C1196.656,668.456,1191.9,670.947,1186.806,670.947Z" transform="translate(-1125.771 -573.497)"/><path class="d" d="M1185.775,598.707c-5.037-6.38-11.754-9.907-18.918-9.907a21.851,21.851,0,0,0-8.647,1.791,22.668,22.668,0,0,0-2.6,1.315,23.8,23.8,0,0,0-2.994,2.071,28.777,28.777,0,0,0-4.673,4.729,34.644,34.644,0,0,0-4.869,8.535q-.713,1.8-1.259,3.694h0c-.28,1.007-.531,2.043-.728,3.078a42.538,42.538,0,0,0-.784,8.06,37.893,37.893,0,0,0,7.64,23.4,26.436,26.436,0,0,0,10.047,8.032,21.924,21.924,0,0,0,17.742,0,26.436,26.436,0,0,0,10.047-8.032,39.6,39.6,0,0,0,0-46.763Zm-18.918,52.919c-12.593,0-22.836-13.237-22.836-29.524a36.685,36.685,0,0,1,1.875-11.67,33.479,33.479,0,0,1,2.351-5.4,27.845,27.845,0,0,1,3.946-5.541,23.148,23.148,0,0,1,4.2-3.61,18.674,18.674,0,0,1,10.466-3.274c12.593,0,22.836,13.237,22.836,29.524C1189.693,638.389,1179.451,651.626,1166.858,651.626Z" transform="translate(-1105.823 -548.076)"/><path class="d" d="M1144.389,637.968a28.253,28.253,0,0,1-7.64-1.036,1.929,1.929,0,0,1-1.315-2.323,1.854,1.854,0,0,1,2.295-1.315,25.473,25.473,0,0,0,6.661.9c17.406,0,31.567-18.218,31.567-40.606s-14.16-40.606-31.567-40.606-31.567,18.218-31.567,40.606a49.414,49.414,0,0,0,4.925,21.772,1.891,1.891,0,0,1-.839,2.519,1.835,1.835,0,0,1-2.491-.84,53.21,53.21,0,0,1-5.317-23.451c0-11.782,3.61-22.864,10.187-31.231,6.66-8.479,15.588-13.153,25.074-13.153s18.414,4.673,25.074,13.153c6.576,8.367,10.187,19.449,10.187,31.231s-3.61,22.864-10.187,31.231C1162.8,633.295,1153.9,637.968,1144.389,637.968Z" transform="translate(-1083.354 -519.558)"/><path class="d" d="M1219.193,590.713a1.879,1.879,0,0,1-.672-.112,1.906,1.906,0,0,1-1.092-2.435A62.831,62.831,0,0,0,1221.348,566c0-28.321-17.938-51.352-39.99-51.352a32.429,32.429,0,0,0-18.051,5.541,1.858,1.858,0,0,1-2.574-.56,1.892,1.892,0,0,1,.559-2.6,36.856,36.856,0,0,1,20.065-6.129c11.754,0,22.78,5.793,31.063,16.315,8.172,10.382,12.677,24.179,12.677,38.815a66.973,66.973,0,0,1-4.142,23.479A1.939,1.939,0,0,1,1219.193,590.713Z" transform="translate(-1120.323 -491.976)"/><path class="d" d="M1122.64,675.533c-11.754,0-22.78-5.793-31.063-16.315-8.172-10.382-12.677-24.179-12.677-38.815a64.808,64.808,0,0,1,8.7-33.05,1.844,1.844,0,0,1,2.547-.644,1.929,1.929,0,0,1,.643,2.6,60.862,60.862,0,0,0-8.172,31.091c0,28.321,17.938,51.352,39.99,51.352,10.606,0,20.6-5.289,28.152-14.888a1.871,1.871,0,0,1,2.631-.308,1.9,1.9,0,0,1,.308,2.659C1145.42,669.74,1134.394,675.533,1122.64,675.533Z" transform="translate(-1061.605 -546.376)"/><path class="d" d="M1065.056,591.219a1.815,1.815,0,0,1-1.511-.812c-8.284-11.894-12.845-27.173-12.845-43.041a76.448,76.448,0,0,1,10.158-38.843,59.765,59.765,0,0,1,11.446-14.188,48.052,48.052,0,0,1,14.58-9.179,1.849,1.849,0,0,1,2.406,1.063,1.893,1.893,0,0,1-1.063,2.435c-9.543,3.778-18.106,11.5-24.151,21.8a72.807,72.807,0,0,0-9.627,36.912c0,15.084,4.31,29.608,12.146,40.858a1.914,1.914,0,0,1-.448,2.631A1.887,1.887,0,0,1,1065.056,591.219Z" transform="translate(-1041.297 -473.34)"/><path class="d" d="M1192.9,608.449a42.144,42.144,0,0,1-15.252-2.882,1.893,1.893,0,0,1-1.063-2.435,1.863,1.863,0,0,1,2.407-1.091,37.98,37.98,0,0,0,13.908,2.631c26.418,0,47.91-27.565,47.91-61.427,0-14.328-3.946-28.293-11.11-39.291-7-10.774-16.735-18.19-27.369-20.933a1.89,1.89,0,0,1,.923-3.666c11.558,2.966,22.052,10.942,29.58,22.5,7.556,11.614,11.726,26.306,11.726,41.39,0,17.323-5.317,33.638-14.972,45.951a52.513,52.513,0,0,1-16.4,14.048A42.752,42.752,0,0,1,1192.9,608.449Z" transform="translate(-1131.865 -469.218)"/><path class="d" d="M1307.005,456.8a1.788,1.788,0,0,1-1.2-.448,52.491,52.491,0,0,0-15.615-9.4,1.906,1.906,0,0,1-1.091-2.435,1.866,1.866,0,0,1,2.406-1.119,56.107,56.107,0,0,1,16.707,10.047,1.926,1.926,0,0,1,.224,2.659A1.858,1.858,0,0,1,1307.005,456.8Z" transform="translate(-1212.892 -443.277)"/><path class="d" d="M1024.908,609.131a1.833,1.833,0,0,1-1.735-1.2,93.584,93.584,0,0,1-6.073-33.61c0-18.834,5.429-37,15.28-51.072a1.851,1.851,0,0,1,2.6-.448,1.914,1.914,0,0,1,.448,2.63c-9.4,13.461-14.608,30.839-14.608,48.89a89.742,89.742,0,0,0,5.821,32.239,1.893,1.893,0,0,1-1.063,2.435A1.453,1.453,0,0,1,1024.908,609.131Z" transform="translate(-1017.1 -500.292)"/><path class="d" d="M1319.723,917.75a1.833,1.833,0,0,1-1.595-.924,1.878,1.878,0,0,1,.672-2.575,58.683,58.683,0,0,0,13.936-11.67,1.836,1.836,0,0,1,2.631-.14,1.894,1.894,0,0,1,.14,2.659,62.349,62.349,0,0,1-14.8,12.425A2.49,2.49,0,0,1,1319.723,917.75Z" transform="translate(-1233.698 -773.594)"/><path class="d" d="M1390.092,654.519a1.889,1.889,0,0,1-1.539-2.966c9.123-13.349,14.132-30.476,14.132-48.218a89.488,89.488,0,0,0-8.227-37.891,1.893,1.893,0,0,1,.867-2.519,1.857,1.857,0,0,1,2.491.9,92.906,92.906,0,0,1,8.592,39.515c0,18.5-5.261,36.38-14.8,50.373A1.745,1.745,0,0,1,1390.092,654.519Z" transform="translate(-1284.365 -529.308)"/></g><path class="p" d="M1083.182,264.684,940.011,264.6h0a16.417,16.417,0,0,0-16.343,16.511L923.5,564.849a16.441,16.441,0,0,0,16.343,16.539l143.171.084h0a16.417,16.417,0,0,0,16.343-16.511l.168-283.738A16.459,16.459,0,0,0,1083.182,264.684Zm9.179,300.249a9.247,9.247,0,0,1-9.375,9.1l-143.17-.084a9.458,9.458,0,0,1-6.744-2.8,8.96,8.96,0,0,1-2.6-6.324l.168-283.711a9.241,9.241,0,0,1,9.347-9.1H1064.1v.056h19.058a9.459,9.459,0,0,1,6.744,2.8,8.961,8.961,0,0,1,2.6,6.325Z" transform="translate(-655.055 -187.547)"/><g transform="translate(419.871 59.675)"><path class="f" d="M1511.449,289.856a40.633,40.633,0,0,1-37.332-24.683,40.8,40.8,0,0,1-.084-31.567,40.647,40.647,0,0,1,8.647-12.929,40.536,40.536,0,0,1,28.656-11.978h.14a40.633,40.633,0,0,1,37.332,24.683,40.806,40.806,0,0,1,.084,31.567,40.649,40.649,0,0,1-8.647,12.929,40.537,40.537,0,0,1-28.656,11.978Z" transform="translate(-1469.135 -206.965)"/><path class="q" d="M1506.912,205.97A38.639,38.639,0,0,1,1522,209.02a38.922,38.922,0,0,1,20.681,20.6,38.173,38.173,0,0,1,3.078,15.084,38.8,38.8,0,0,1-38.7,38.955h-.112a38.64,38.64,0,0,1-15.084-3.05,38.924,38.924,0,0,1-20.681-20.6,38.17,38.17,0,0,1-3.078-15.084,38.8,38.8,0,0,1,38.7-38.955Zm0-3.47h-.14a42.313,42.313,0,0,0,.14,84.626h.14a42.313,42.313,0,0,0-.14-84.626Z" transform="translate(-1464.599 -202.5)"/><g transform="translate(63.806 63.833)"><path class="e" d="M1697.441,436.393,1692.6,430.6l5.793,4.841Z" transform="translate(-1692.6 -430.6)"/></g><g transform="translate(13.713 42.285)"><path class="r" d="M1542.228,353.712c-1.091.756-2.239,1.427-3.358,2.071-1.147.644-2.295,1.259-3.47,1.847s-2.351,1.147-3.582,1.651c-1.2.5-2.435.979-3.638,1.511l-3.61,1.539-3.638,1.539c-2.435,1.007-4.842,2.015-7.276,3.022l-.056-.14c2.323-1.2,4.674-2.407,7.024-3.582l3.526-1.763,3.526-1.735c1.175-.588,2.351-1.175,3.5-1.791,1.176-.588,2.351-1.147,3.582-1.651,1.2-.5,2.435-.979,3.666-1.427s2.491-.868,3.778-1.2Z" transform="translate(-1513.6 -353.6)"/></g><path class="r" d="M1612.718,348.659a1.959,1.959,0,1,1-1.959-1.959A1.947,1.947,0,0,1,1612.718,348.659Z" transform="translate(-1568.446 -306.346)"/><g transform="translate(30.14 30.448)"><path class="r" d="M1572.411,311.3c1.063.867,2.1,1.735,3.135,2.631l1.539,1.343,1.539,1.343c.5.448,1.035.868,1.567,1.315a11.7,11.7,0,0,1,1.455,1.427,17.842,17.842,0,0,1,1.287,1.6,15.814,15.814,0,0,1,1.119,1.763l-.112.112a12.7,12.7,0,0,1-1.791-1.091c-.56-.392-1.091-.812-1.623-1.259a17.49,17.49,0,0,1-1.455-1.427c-.448-.5-.9-1.035-1.344-1.539L1576.357,316l-1.371-1.511c-.9-1.007-1.791-2.043-2.687-3.078Z" transform="translate(-1572.299 -311.3)"/></g><g transform="translate(40.914 4.394)"><path class="e" d="M1613.571,218.2l-1.371,7.5-1.4-7.5Z" transform="translate(-1610.8 -218.2)"/></g><g transform="translate(40.914 72.733)"><path class="e" d="M1610.8,469.928l1.4-7.528,1.371,7.528Z" transform="translate(-1610.8 -462.4)"/></g><g transform="translate(72.733 40.942)"><path class="e" d="M1732,351.57l-7.5-1.4,7.5-1.371Z" transform="translate(-1724.5 -348.8)"/></g><g transform="translate(4.366 40.942)"><path class="e" d="M1480.2,348.8l7.528,1.371-7.528,1.4Z" transform="translate(-1480.2 -348.8)"/></g><g transform="translate(63.806 15.028)"><path class="e" d="M1698.393,257.151l-5.793,4.841,4.841-5.793Z" transform="translate(-1692.6 -256.2)"/></g><g transform="translate(15 63.833)"><path class="e" d="M1518.2,435.441l5.793-4.841-4.841,5.793Z" transform="translate(-1518.2 -430.6)"/></g><g transform="translate(15 15.028)"><path class="e" d="M1519.152,256.2l4.841,5.793-5.793-4.841Z" transform="translate(-1518.2 -256.2)"/></g></g><circle class="p" cx="2.715" cy="2.715" r="2.715" transform="translate(459.469 56.96)"/><rect class="p" width="1.399" height="41.474" transform="translate(461.484 18.229)"/><g transform="translate(169.804 153.674)"><path class="s" d="M977.3,754.906l1.119-1.147a7.858,7.858,0,0,0,2.239-6.492l-.112-.867a1.668,1.668,0,0,1,.028-.644l.7-3.162a2.277,2.277,0,0,0-.112-1.371l-.028-.056a.718.718,0,0,1,.588-.98h.028a.659.659,0,0,1,.588.224l.42.42a4.216,4.216,0,0,1,1.231,2.743l.112,1.9,4.03-1.567a2.472,2.472,0,0,1,2.211.2l.588.364a.977.977,0,0,1,.476.756h0a.768.768,0,0,0,.28.5h0a1.467,1.467,0,0,1,.616,1.259v.644a1.32,1.32,0,0,0,.336.9,1.627,1.627,0,0,1,.42.952v.028a2.991,2.991,0,0,1-.084.7l-.812,2.575a2.31,2.31,0,0,1-1.259,1.4c-1.9.811-6.017,2.519-6.017,2.519l-5.149,5.289Z" transform="translate(-863.603 -683.711)"/><path class="t" d="M1002.167,755.8l-.616,1.483a1.049,1.049,0,0,0,.56,1.371h.028a.815.815,0,0,1,.336,1.259h0a.559.559,0,0,0,.14.812l.84.588a1.542,1.542,0,0,1,.616.9l.364,1.567a6.427,6.427,0,0,0-4.617-1.483l-.644-1.735a2.571,2.571,0,0,1-.056-1.651l.644-2.239Z" transform="translate(-879.235 -694.959)"/><path class="b" d="M722.5,619.321l13.265-5.821,2.938,8.507-11.11,6.856Z" transform="translate(-680.109 -592.481)"/><path class="q" d="M804.405,997.3s10.382,53.647-12.565,128.031l-4.9.168s-3.722-78.637,0-98.674-1.651-28.489-1.651-28.489Z" transform="translate(-725.326 -868.875)"/><path class="q" d="M734.906,992.8s-1.763,29.132-23.171,128.422l-6.325-.28s-5.345-108.581,3.106-128.143Z" transform="translate(-666.601 -865.635)"/><g transform="translate(41.244 136.568)"><path class="u" d="M719.687,1146.427l-1.287-.028,2.491-120,1.287.056Z" transform="translate(-718.4 -1026.4)"/></g><path class="e" d="M685.361,747.146l3.134,7.78a235.525,235.525,0,0,1-14.468,19.533c-4.59,5.4-9.039,9.6-11.278,8.731-5.681-2.127-9.879-19.813-9.879-19.813l.616,20.009c7,25.41,1.091,34.589,1.091,34.589-3.834-8.032-15.2-11.53-15.2-11.53A69.353,69.353,0,0,1,606.7,817.807a65.686,65.686,0,0,1,5.9-28.209l-5.709-33.106c-5.709,6.828-14.636,12.593-17.659,14.44-.644.392-1.035.616-1.035.616.28.252.56.532.868.84h0a160.567,160.567,0,0,1,10.522,12.285c.644.84,1.259,1.6,1.763,2.239,1.063,1.343,1.707,2.211,1.707,2.211l-5.345,7.3c-.336-.224-.672-.448-.979-.672-1.343-.924-2.6-1.819-3.806-2.687-30.476-22-20.261-27.229-20.261-27.229s23.2-25.606,31.763-30.056c.392-.2.756-.392,1.147-.56.616-.308,1.259-.56,1.9-.812a46.779,46.779,0,0,1,15.336-3.05c17.742-1.6,26.082,3.19,26.082,3.19.28.084.588.168.867.252a10.887,10.887,0,0,1,1.175.532c8.927,4.729,14.748,24.291,14.748,24.291s1.987-1.511,11.362-7.472Z" transform="translate(-571.021 -677.125)"/><g transform="translate(39.172 40.244)"><path class="b" d="M712.79,682.536a13.547,13.547,0,0,0-.392,4.506,5.182,5.182,0,0,0,1.875,3.834,6.611,6.611,0,0,0,4.366.923,19.113,19.113,0,0,0,4.617-1.091,21.452,21.452,0,0,1-4.59,1.483,7.076,7.076,0,0,1-4.869-.644,5.01,5.01,0,0,1-1.763-1.9,8.5,8.5,0,0,1-.84-2.407,15.224,15.224,0,0,1,.028-5.037Z" transform="translate(-710.998 -682.2)"/></g><path class="d" d="M730.963,872.153a69.352,69.352,0,0,1-32.686,11.362,65.686,65.686,0,0,1,5.9-28.209L698.472,822.2l8.172,19.505a20.224,20.224,0,0,1,1.567,8.228l-.084,4.59,12.257,1.931-.14.588a11.705,11.705,0,0,1-5.933,7.472l-5.485,2.8a4.576,4.576,0,0,0-2.351,3.022L705.8,873.3a2.848,2.848,0,0,0,3.358,3.414Z" transform="translate(-662.657 -742.777)"/><path class="d" d="M884.557,826.959c-4.59,5.4-9.039,9.6-11.278,8.731-5.681-2.127-9.879-19.813-9.879-19.813a25.142,25.142,0,0,0,0-11.978s7.836,14.636,9.375,21.408c1.567,6.772,13.8-.784,13.8-.784Z" transform="translate(-781.578 -729.598)"/><path class="i" d="M724.469,927.719c-1.147,3.946-6.325.7-8.815,1.231-2.659.56-3.162,4.086-5.513,5.681a10.088,10.088,0,0,1-6.241,1.931,76.751,76.751,0,0,0,.028-8.787,1.6,1.6,0,0,0-.028-.364,4.557,4.557,0,0,0,2.239-2.071c1.623-2.407,1.819-3.666,5.065-4.086C716.017,920.667,721.335,924.78,724.469,927.719Z" transform="translate(-666.714 -814.07)"/><path class="f" d="M742.079,732.381a32.651,32.651,0,0,1,16.511.056,2.271,2.271,0,0,1,1.707,1.679c1.175,4.925,4.645,22.472-3.75,29.552,0,0-9.487-6.8-16.063-28.461A2.309,2.309,0,0,1,742.079,732.381Z" transform="translate(-693 -677.36)"/><path class="b" d="M790.06,1454.868a52.951,52.951,0,0,0-.56,8.927c1.259,2.8,3.162,2.1,5.877,2.211.308,0,.672-.028,1.036-.028,4.757-.112,13.321-.308,13.321-.308a.835.835,0,0,0,.672-1.4l-.224-.224a8.248,8.248,0,0,0-3.666-2.239l-5.037-1.539a7.384,7.384,0,0,1-3.89-2.742l-2.743-2.827Z" transform="translate(-728.359 -1198.272)"/><path class="b" d="M702.026,1450.7l-1.567,2.994c-1.231,1.847-1.987,5.149-.728,7.108.867,1.4,3.078,1.6,4.618,1.847a23.309,23.309,0,0,0,3.946.224,10.154,10.154,0,0,0,3.582-.392c1.147-.532.784-2.547.5-3.442a16.993,16.993,0,0,0-1.763-3.75l-2.267-4.31Z" transform="translate(-663.245 -1195.392)"/><path class="s" d="M761.371,708.23a8.944,8.944,0,0,1-6.884,2.127c-2.882-.364-6.381-1.483-8.312-3.778-1.791-2.127-.867-4.9-.616-7.612A20.036,20.036,0,0,0,744.3,689.2l8.479.28,2.882.112c-.028,0,.644,2.938.756,3.218a21.034,21.034,0,0,0,1.343,3.162c1.063,2.015,2.715,3.582,3.862,5.513.952,1.6,1.707,3.778.756,5.513A8.1,8.1,0,0,1,761.371,708.23Z" transform="translate(-695.808 -646.997)"/><path class="t" d="M769.029,710.865c-7.808.616-11.558-4.114-12.929-6.464a9.544,9.544,0,0,0,2.295.9c2.239.532,4.869.532,6.8-.7a17.314,17.314,0,0,0,3.19,5.513C768.581,710.361,768.8,710.613,769.029,710.865Z" transform="translate(-704.306 -657.943)"/><path class="b" d="M694.822,634.458a6.481,6.481,0,0,0-4.338,4.533,6.335,6.335,0,0,0,1.763,5.933c1.147,1.091,2.659,1.707,3.89,2.687a8.981,8.981,0,0,1,2.91,3.862,11.7,11.7,0,0,0,1.343,3.162,3.906,3.906,0,0,0,5.541.308,6.011,6.011,0,0,0,1.343-4.365A26.8,26.8,0,0,0,704.9,639.16a10.472,10.472,0,0,0-3.694-4.729,5,5,0,0,0-5.765.14Z" transform="translate(-656.937 -606.947)"/><path class="s" d="M743.382,623.891v.392a25.314,25.314,0,0,1-2.77,11.026,14.227,14.227,0,0,1-1.931,3.022c-1.987,2.239-7.248,3.47-10.215,2.771a10.727,10.727,0,0,1-6.353-4.73,22.77,22.77,0,0,1-2.91-7.388,3.923,3.923,0,0,1-4.506-3.666c.028-2.183,1.4-3.638,4.645-3.19a1.192,1.192,0,0,0,.308-.056c6.129-1.007,10.662-5.261,16.343-7.276,1.007-.364,3.89-1.707,4.785-1.007a4.219,4.219,0,0,1,.9,1.315,12.37,12.37,0,0,1,1.175,2.966,22.213,22.213,0,0,1,.56,3.834C743.382,622.548,743.41,623.219,743.382,623.891Z" transform="translate(-674.489 -592.546)"/><path class="s" d="M779.82,619.033c-2.966.616-6.492.28-10.662-.532a18.61,18.61,0,0,0-3.358-.364,48.849,48.849,0,0,1,6.968-3.442c1.007-.364,3.89-1.707,4.785-1.007a4.221,4.221,0,0,1,.9,1.315,12.374,12.374,0,0,1,1.175,2.966C779.708,618.334,779.765,618.67,779.82,619.033Z" transform="translate(-711.292 -592.474)"/><g transform="translate(44.706 36.379)"><path class="f" d="M730.78,668.727c1.2,4.869,3.526,10.886,9.1,12.173a9.5,9.5,0,0,0,6.744-.588,12.443,12.443,0,0,0,5.037-3.918c.2-.336-.28-.672-.5-.364a11.691,11.691,0,0,1-4.646,3.638,9.377,9.377,0,0,1-6.856.56c-5.009-1.315-7.164-7.192-8.255-11.586-.084-.392-.7-.308-.616.084Z" transform="translate(-730.772 -668.388)"/></g><path class="t" d="M756.059,623.891c-4.562.7-13.741,1.2-18.61.588-2.883-.392-4.394-1.427-5.149-2.407,6.129-1.007,10.662-5.261,16.343-7.276,1.007-.364,3.89-1.707,4.785-1.007a4.221,4.221,0,0,1,.9,1.315,12.373,12.373,0,0,1,1.175,2.966,22.231,22.231,0,0,1,.56,3.834C756.059,622.548,756.087,623.219,756.059,623.891Z" transform="translate(-687.166 -592.546)"/><g transform="translate(62.888 17.626)"><path class="b" d="M796.206,602.167a.4.4,0,1,0-.14-.784.4.4,0,0,0,.14.784Z" transform="translate(-795.742 -601.377)"/></g><path class="f" d="M764.007,678.7l7.892-1.2a.363.363,0,0,1,.42.392c-.168,1.315-1.035,4.953-4.869,5.121-4,.168-3.862-3.05-3.75-4A.388.388,0,0,1,764.007,678.7Z" transform="translate(-709.751 -638.564)"/><path class="s" d="M714.243,927.71c-1.175,3.946-6.325.7-8.815,1.231-2.659.56-3.162,4.086-5.513,5.681a10.062,10.062,0,0,1-6.213,1.931,10.537,10.537,0,0,1-2.826-.56q-.672-.21-1.175-.42c.028-.056.112-.112.14-.168a6.733,6.733,0,0,0,.924-1.707,8.049,8.049,0,0,0,.252-5.037,1.806,1.806,0,0,1-.056-.2A23.96,23.96,0,0,1,693.7,927.4a4.557,4.557,0,0,0,2.239-2.071c1.623-2.407,1.819-3.666,5.065-4.086a11.4,11.4,0,0,1,6.716,1.623c.2.112.392.224.56.308A33.186,33.186,0,0,1,714.243,927.71Z" transform="translate(-656.488 -814.062)"/><path class="t" d="M714.243,927.782c-1.175,3.946-6.325.7-8.815,1.231-2.659.56-3.162,4.086-5.513,5.681a10.062,10.062,0,0,1-6.213,1.931,10.535,10.535,0,0,1-2.826-.56q-.672-.21-1.175-.42c.028-.056.112-.112.14-.168a6.732,6.732,0,0,0,.924-1.707,6.7,6.7,0,0,0,1.063.336,5.638,5.638,0,0,0,3.834-.308,10.144,10.144,0,0,0,4.45-4.422c.728-1.483-.084-6.3.868-8.032a11.4,11.4,0,0,1,6.716,1.623c.084.392.2.588.476.392.028-.028.056-.056.084-.056A30.07,30.07,0,0,1,714.243,927.782Z" transform="translate(-656.488 -814.134)"/><path class="s" d="M709.7,918.781l2.491-4.9a3.381,3.381,0,0,0,.364-1.819l-.084-1.2a.5.5,0,0,1,.811-.42l.84.588a2.587,2.587,0,0,1,1.091,2.239l-.168,2.715Z" transform="translate(-670.891 -806.251)"/><path class="b" d="M713.439,677.2s-.756,10.438,6.241,10.13l-1.4-6.185Z" transform="translate(-673.566 -638.355)"/><g transform="translate(32.68 27.143)"><path class="b" d="M691.354,638.02c.028.084.028.056.028.084h.028c.028,0,.028-.028.028-.056a.211.211,0,0,0,.028-.14.41.41,0,0,0-.056-.308,1.409,1.409,0,0,0-.784-.616,4.753,4.753,0,0,0-1.343-.28,13.153,13.153,0,0,0-1.483,0,10.392,10.392,0,0,1,1.343-.755,5.606,5.606,0,0,1,1.6-.5,3.379,3.379,0,0,1,1.987.224,3.323,3.323,0,0,1,.979.7,2.408,2.408,0,0,1,.392.5,3.062,3.062,0,0,1,.168.308l.084.168a1.309,1.309,0,0,1,.084.252Z" transform="translate(-687.8 -635.385)"/></g><g transform="translate(44.77 28.155)"><path class="b" d="M733.323,639.056a11.777,11.777,0,0,0-.168,1.763,13.167,13.167,0,0,0,.056,1.819,5.389,5.389,0,0,0,1.4,3.33,4.976,4.976,0,0,1-1.483-1.287,9.806,9.806,0,0,1-1.035-1.735,11.836,11.836,0,0,1-.672-1.9A14.635,14.635,0,0,1,731,639Z" transform="translate(-731 -639)"/></g><path class="b" d="M747.86,554.71c-2.295,6.38-5.485,9.319-9.851,10.242-2.966.616-6.492.28-10.662-.532a18.6,18.6,0,0,0-3.358-.364,12.462,12.462,0,0,0-9.375,3.834h0c-.112.028-.2.028-.28.056a4.984,4.984,0,0,0-3.274.448l-3.33-2.239c-.756-21.268,14.356-14.048,14.356-14.048l3.274-6.073C735.966,529.131,751.694,544.019,747.86,554.71Z" transform="translate(-669.452 -538.392)"/><g transform="translate(36.506 22.894)"><path class="b" d="M703.97,627.644a19.3,19.3,0,0,1-1.063-1.735c-.308-.588-.588-1.2-.839-1.819a7.6,7.6,0,0,1-.532-1.931,4.616,4.616,0,0,1,.084-1.959,3.768,3.768,0,0,0,.476,1.763,8.712,8.712,0,0,0,.979,1.511,14.013,14.013,0,0,0,1.231,1.343,13.031,13.031,0,0,0,1.343,1.175Z" transform="translate(-701.471 -620.2)"/></g><g transform="translate(44.922 14.358)"><path class="b" d="M732.063,603.441a13.646,13.646,0,0,1,2.659-1.287,13.981,13.981,0,0,1,2.826-.728,10.3,10.3,0,0,1,5.793.756l.672.308.56.28c.392.168.784.336,1.175.476a18.16,18.16,0,0,0,2.491.7,17.854,17.854,0,0,0,5.177.28,15.711,15.711,0,0,0,2.547-.476,13.905,13.905,0,0,0,2.407-.952,12.692,12.692,0,0,0,4.03-3.3,20.753,20.753,0,0,0,3.974-9.795,21.156,21.156,0,0,1-3.5,10.158,13.248,13.248,0,0,1-4.086,3.694,17.143,17.143,0,0,1-2.519,1.175,18.313,18.313,0,0,1-2.714.672,19.022,19.022,0,0,1-8.311-.616c-.448-.14-.9-.308-1.343-.476l-.672-.28-.56-.224a8.431,8.431,0,0,0-4.785-.336,11.527,11.527,0,0,0-2.351.756,9.691,9.691,0,0,0-2.127,1.175l-.028.028a1.165,1.165,0,1,1-1.343-1.9C732.035,603.469,732.035,603.469,732.063,603.441Z" transform="translate(-731.543 -589.7)"/></g><g transform="translate(42.895 4.144)"><path class="v" d="M752.285,553.2a9.169,9.169,0,0,1,4.729,4.506,11.664,11.664,0,0,1-.308,9.795,6.982,6.982,0,0,1-.979,1.4c-.2.224-.364.448-.56.644l-.644.56a12.812,12.812,0,0,1-6.213,2.631,27.265,27.265,0,0,1-6.744.28c-1.119-.112-2.239-.2-3.33-.364-1.119-.14-2.183-.336-3.246-.392l-.812-.028c-.252,0-.532.028-.784.028a10,10,0,0,0-1.567.2A8.41,8.41,0,0,0,729,573.629a8.084,8.084,0,0,0-3.19,5.037L724.3,578.3a9,9,0,0,1,7.3-7.08,12.534,12.534,0,0,1,1.735-.168c.28,0,.588-.028.867,0l.868.056c1.147.084,2.267.336,3.33.5,1.091.2,2.155.308,3.246.448a28.219,28.219,0,0,0,6.52-.084,12.594,12.594,0,0,0,5.961-2.323l.616-.5c.2-.2.364-.392.56-.588a8.5,8.5,0,0,0,.951-1.287,10.5,10.5,0,0,0,1.119-3.05,10.781,10.781,0,0,0-.532-6.437A9.112,9.112,0,0,0,752.285,553.2Z" transform="translate(-724.3 -553.2)"/></g><path class="d" d="M659.358,933.011l-5.345,7.3c-1.707-1.175-3.3-2.295-4.813-3.386a13.769,13.769,0,0,0,8.423-6.129C658.715,932.143,659.358,933.011,659.358,933.011Z" transform="translate(-627.322 -820.985)"/><path class="c" d="M666.655,945.021s-6.521-.056-8.955-3.526l7.108-9.1,1.651,1.287.952.756,1.147.9C668.586,935.366,670.125,941.635,666.655,945.021Z" transform="translate(-633.443 -822.138)"/><path class="f" d="M698.166,752.671a13.49,13.49,0,0,1-.9,3.946,14.606,14.606,0,0,0,.5-3.974,23.5,23.5,0,0,0-.252-3.974,10.243,10.243,0,0,0-1.119-3.638,2.312,2.312,0,0,0-1.147-1.063,1.4,1.4,0,0,0-.756-.056c.616-.308,1.259-.56,1.9-.812a4.231,4.231,0,0,1,1.063,1.4,10.859,10.859,0,0,1,.867,4.114A28.29,28.29,0,0,1,698.166,752.671Z" transform="translate(-659.945 -685.813)"/><path class="f" d="M852.078,751.088a19.821,19.821,0,0,1-.867-3.862,7.629,7.629,0,0,1,.084-2.1,3.141,3.141,0,0,1,.224-.728,10.907,10.907,0,0,1,1.175.532,5.029,5.029,0,0,0-.7,2.295A17.867,17.867,0,0,0,852.078,751.088Z" transform="translate(-772.774 -686.749)"/><g transform="translate(62.176 82.446)"><path class="f" d="M796.166,833a93.123,93.123,0,0,1,3.022,28.936,92.93,92.93,0,0,0-5.989-27.985Z" transform="translate(-793.2 -833)"/></g><path class="f" d="M614.3,871.915c.28.252.56.532.867.84a9.611,9.611,0,0,1-1.427-.784,5.892,5.892,0,0,0-.951-.448,7.44,7.44,0,0,0-1.036-.336,25.853,25.853,0,0,0-4.45-.672,27.82,27.82,0,0,1,4.589-.084,8.5,8.5,0,0,1,1.175.168c.392.084.812.224,1.175.336.392.14.756.308,1.091.392C614.66,871.719,614.3,871.915,614.3,871.915Z" transform="translate(-597.147 -777.464)"/><path class="f" d="M686.955,937.828c-.112.392-.252.784-.392,1.175a33.959,33.959,0,0,1-1.763,3.666,32.7,32.7,0,0,0,1.007-3.862,9.271,9.271,0,0,0,.168-1.707Z" transform="translate(-652.959 -825.522)"/><path class="b" d="M966.8,601.4l17.742,81.408,3.834-1.959Z" transform="translate(-856.042 -583.767)"/><path class="s" d="M1007.5,757.163a1.56,1.56,0,0,0,.9-1.091.789.789,0,0,0-.868-.784c-.672.084-2.407.868-2.183,1.6C1005.573,757.582,1006.776,757.582,1007.5,757.163Z" transform="translate(-883.789 -694.586)"/><path class="s" d="M1011.734,771.691a1.215,1.215,0,0,1-.448,1.483,4.012,4.012,0,0,1-1.931.532c-.7.084-1.455.224-1.455-.532a2,2,0,0,1,1.063-1.483,2.8,2.8,0,0,1,1.315-.42,2.245,2.245,0,0,1,.756.056C1011.258,771.412,1011.426,771.579,1011.734,771.691Z" transform="translate(-885.64 -706.093)"/><path class="s" d="M1009.808,764.211c-.056,1.679-2.379,1.511-3.526,1.175-.252-.084-.756-.168-.9-.364s.084-.588.252-.784a3.032,3.032,0,0,1,2.239-.839A2.9,2.9,0,0,1,1009.808,764.211Z" transform="translate(-883.798 -700.432)"/><path class="s" d="M1016.129,780.323c.392.2.252.84.084,1.2-.2.448-.756.7-1.175.951-.392.224-1.008.7-1.259.308-.224-.364.028-1.175.308-1.6A2.041,2.041,0,0,1,1016.129,780.323Z" transform="translate(-889.811 -712.598)"/><path class="w" d="M860.678,1030.017l-2.715,2.379s-.727-7.052-.672-7A14.847,14.847,0,0,1,860.678,1030.017Z" transform="translate(-777.178 -889.111)"/></g><g transform="translate(104.369 281.085)"><path class="l" d="M532.867,1031.9a75.688,75.688,0,0,1,2.351,16.175c.2-.168.392-.336.56-.5,12.453-11.446,19-21.884,22.416-30.28-15.448,10.243-3.806-.084,1.679-4.785,2.659-8.983,1.623-14.832,1.4-15.839a.779.779,0,0,1-.028-.168s-3.89,5.933-6.828,6.633-5.6,1.4-8.312,3.666c-2.6,2.183-1.707,8.4-6.353,10.354,0,6.577-.28,20.177-3.078,1.371C532.951,1020.875,531.1,1025.688,532.867,1031.9Z" transform="translate(-477.624 -995.711)"/><path class="x" d="M408.6,1081.2s3.05,20.681,21.213,28.908C429.812,1110.108,445.624,1108.933,408.6,1081.2Z" transform="translate(-388.618 -1056.707)"/><path class="y" d="M551.4,1177.891a17.993,17.993,0,0,0,8.172-13.881s3.218-6.772,8.563-5.877,12.257-9.235,18.918-14.748a17.647,17.647,0,0,1,13.713-4.114s-7.976-2.574-18.414,3.778a134.916,134.916,0,0,0-15.224,10.382l-9.291,6.409C557.861,1159.841,549.689,1173.442,551.4,1177.891Z" transform="translate(-491.284 -1098.157)"/><path class="z" d="M545.226,1189.013l3.106-6.828c3.106-6.828,3.106-11.586,10.047-15.14,6.828-3.5,17.463-12.565,17.8-12.845-3.47,1.959-9.543,2.659-14.132,3.666-.336,2.8-1.483,8.619-4.506,1.427a2.447,2.447,0,0,0-1.567,1.959c-.112,4.03-4,5.877-4,5.877C536.047,1177.092,545.226,1189.013,545.226,1189.013Z" transform="translate(-485.114 -1109.278)"/><path class="aa" d="M395.918,1030.789a49.8,49.8,0,0,0,7.752,9.655C419.482,1056,417.1,1059.67,417.1,1059.67a19.262,19.262,0,0,0,7.92,11.866s5.541-17.659-9.487-30.168c-2.295-1.9-4.422-3.47-6.353-4.786.784,4.17.952,8.312-4.589-2.994-7.892-4.981-12.145-7.64-13.293-22.388C391.3,1011.2,389.2,1019.651,395.918,1030.789Z" transform="translate(-375.937 -1006.297)"/><path class="x" d="M383.4,1179.264a1.1,1.1,0,0,1,.056-.364A1.1,1.1,0,0,0,383.4,1179.264Z" transform="translate(-370.47 -1127.066)"/><path class="ab" d="M403.855,1196.14s6.744.7,7.08,6.856c.364,6.157,4.03,13.517,6.856,13.517,0,0,19.673-27.4-8.787-27.229h-.532c2.966,3.274,8.284,9.6-3.918-.056-20.289-.7-21.352-7.108-21.241-8.927C383.09,1182.567,383.4,1192.306,403.855,1196.14Z" transform="translate(-370.384 -1128.075)"/><path class="ab" d="M496.326,1292.918s-.14,9.794,1.931,28.237a.771.771,0,0,1-.784-.728c-.364-4.254-2.267-26-4.226-28.1C487.455,1286.174,496.326,1292.918,496.326,1292.918Z" transform="translate(-448.164 -1206.887)"/><path class="x" d="M527.282,1244.3s-3.134,12.257-1.931,42.929a1.184,1.184,0,0,1-1.2,1.231,1.2,1.2,0,0,1-1.147-1.2c.112-6.213.728-35.821,3.526-42.817Z" transform="translate(-471.004 -1174.164)"/><path class="z" d="M544.5,1276.9l-2.463,35.009a.743.743,0,0,1-.784.671.716.716,0,0,1-.672-.812l3.19-34.421Z" transform="translate(-483.661 -1197.641)"/><g transform="translate(56.513)"><path class="f" d="M566.89,994.161a57.119,57.119,0,0,1-6.6,12.453c-3.274,4.505-6.548,8.955-9.459,13.713a75.041,75.041,0,0,0-7.36,15.056c-1.763,5.289-2.239,10.858-3.554,16.231-.112.5-.9.28-.756-.224,1.287-5.233,1.735-10.634,3.386-15.783a70.381,70.381,0,0,1,6.576-14.02,154.207,154.207,0,0,1,8.955-13.349,63.289,63.289,0,0,0,8-14.272c.224-.5,1.007-.28.811.2Z" transform="translate(-539.14 -993.679)"/></g><g transform="translate(35.591 36.744)"><path class="ab" d="M476.67,1151.374c-.028-5.4-.532-10.382-3.33-15.112-2.379-3.974-5.653-7.3-8.843-10.606a.4.4,0,0,1,.56-.56c3.414,3.582,6.968,7.136,9.4,11.5,2.575,4.646,2.994,9.571,3.022,14.776a.406.406,0,0,1-.812,0Z" transform="translate(-464.378 -1124.978)"/></g><g transform="translate(60.139 62.485)"><path class="y" d="M552.1,1234.071c.28-5.932,1.427-12.425,5.4-17.043.168-.2.448.084.28.28-3.918,4.533-5.037,10.97-5.289,16.763,0,.252-.42.252-.392,0Z" transform="translate(-552.095 -1216.962)"/></g><path class="ac" d="M412.256,1294.355s5.933-7.276,10.746-3.778c4.813,3.526,11.082,16.511,11.082,16.511s2.183-11.25-7.3-17.91c-9.487-6.688-15.28,3.33-15.28,3.33Z" transform="translate(-390.707 -1204.826)"/><path class="ad" d="M339.018,1309.535s-.532-18.134,7.388-18.022a12.017,12.017,0,0,0,4.757-.9c6.52-9.291,6.1-6.773,4.45-2.743a26.068,26.068,0,0,0,3.134-3.218c0-.028.028-.028.056-.056a50.266,50.266,0,0,0,3.134-4.338c2.211-3.3,8.619-1.651,10.69-1.007.364.112.588.2.644.2-.42-.448-9.851-10.158-21.464-3.918,5.317,1.2,10.522,3.05-3.218,3.834a20.17,20.17,0,0,1-7.976,7.472C334.008,1290.057,339.018,1309.535,339.018,1309.535Z" transform="translate(-337.198 -1195.155)"/><path class="ac" d="M487.78,1344.425s2.435,9.935,2.8,15.9a.516.516,0,0,0,.5.476.467.467,0,0,0,.476-.56c-.42-2.743-2.295-14.636-3.778-18.19C486.1,1337.988,487.78,1344.425,487.78,1344.425Z" transform="translate(-445.102 -1243.589)"/><g transform="translate(11.426 80.933)"><path class="f" d="M406.229,1287.028c-2.295-4.589-13.041-4.226-17.043-1.875-3.778,2.211-6.1,5.989-10.662,6.828-.5.084-.7-.672-.224-.756,5.653-1.035,8.4-7.22,14.1-8.116,3.834-.616,12.649-.168,14.5,3.554.224.448,1.455,2.882,1.231,2.407Z" transform="translate(-378.029 -1282.881)"/></g><path class="x" d="M535.459,1144.036s-4.785,8.535-1.875,21.464a86.427,86.427,0,0,1,14.916-35.4S536.69,1136.62,535.459,1144.036Z" transform="translate(-477.949 -1091.923)"/><path class="y" d="M575.96,1276.272c5.625-2.267,6.8-5.261,6.8-5.261s.588-1.259,9.123-4.981a13.819,13.819,0,0,0,1.819-.924c-6.828.308-.084-2.323,4.03-3.75a11.519,11.519,0,0,0,1.931-6.856c-2.015,1.791-8.507,3.834-8.507,3.834C574.169,1264.63,575.96,1276.272,575.96,1276.272Z" transform="translate(-509.104 -1181.51)"/><g transform="translate(66.799 79.653)"><path class="f" d="M575.9,1293.725c.839-3.442,3.5-5.849,6.073-8.06a119.194,119.194,0,0,1,10.214-7.332c.168-.112.336.168.168.28-3.218,2.211-6.549,4.282-9.543,6.772-2.742,2.267-5.681,4.842-6.576,8.424-.056.2-.364.112-.336-.084Z" transform="translate(-575.894 -1278.307)"/></g><path class="ac" d="M547.617,1360.089l-2.6,11.418a.373.373,0,1,1-.728-.168c.448-1.651,2.407-8.927,2.743-11.446C547.421,1357.066,547.617,1360.089,547.617,1360.089Z" transform="translate(-486.329 -1256.539)"/><path class="y" d="M564.9,1331.4s-4.142,12.565-4.534,18.638a.337.337,0,1,1-.672-.056c.336-2.043,2.183-13.237,4.561-18.33Z" transform="translate(-497.424 -1236.889)"/><path class="ac" d="M552.893,1342.794c1.875-8.311,5.429-6.381,5.429-6.381,11.726.2,15.56-4.506,15.784-4.785-.2.2-3.526,3.33-10.466,1.539-1.427,1.2-5.093,4.114-2.071-.644a10.407,10.407,0,0,1-1.175-.476C550.99,1328.074,552.893,1342.794,552.893,1342.794Z" transform="translate(-492.418 -1236.866)"/><path class="e" d="M493.241,1390.242a21.52,21.52,0,0,1-43.041,0,21.207,21.207,0,0,1,2.435-9.935c.168-.336.364-.672.56-1.008h37.052A21.114,21.114,0,0,1,493.241,1390.242Z" transform="translate(-418.577 -1271.385)"/><path class="c" d="M478.313,1394.813c0,6.744-9.963,12.2-22.332,12.285a21.481,21.481,0,0,1-3.246-24.486c.951-.084,1.959-.112,2.966-.112C468.182,1382.5,478.313,1388.013,478.313,1394.813Z" transform="translate(-418.649 -1273.689)"/><rect class="b" width="38.871" height="3.974" transform="translate(33.722 105.928)"/></g><g transform="translate(60.685 419.056)"><path class="b" d="M181.1,1489.079l81.436-1.007,81.436-.756,40.718-.476,20.345-.14,10.186.028,10.186.084,20.345.308c6.772.14,13.573.252,20.345.448,13.573.336,27.145.783,40.718,1.511v.5c-13.573.728-27.145,1.175-40.718,1.511-6.772.2-13.573.308-20.345.448l-20.345.308-10.186.084-10.186.028-20.345-.14-40.718-.476-81.436-.755-81.436-1.008v-.5Z" transform="translate(-181.1 -1486.7)"/></g><path class="b" d="M1790.8,705.8a12.184,12.184,0,0,1,.588,1.455c.168.476.336.951.476,1.427a27.354,27.354,0,0,1,.755,2.883,28.308,28.308,0,0,1,.644,5.933,22.73,22.73,0,0,1-2.938,11.446,24.374,24.374,0,0,1-3.582,4.673c-.336.364-.7.672-1.063,1.007l-.532.5-.56.448-1.147.9-1.2.812a41.714,41.714,0,0,1-10.438,4.869,42.153,42.153,0,0,0,10.075-5.429l1.119-.868,1.064-.952.531-.476.5-.5c.336-.336.671-.672.979-1.036a23.153,23.153,0,0,0,3.134-4.618,21.007,21.007,0,0,0,2.127-10.746,27.8,27.8,0,0,0-.924-5.457c-.252-.9-.531-1.763-.867-2.631-.168-.42-.336-.868-.532-1.259-.168-.42-.392-.84-.56-1.175Z" transform="translate(-1265.959 -505.278)"/><path class="b" d="M1593.181,609.976a14.547,14.547,0,0,1,.755,7.556,19.274,19.274,0,0,1-2.575,6.912c-2.519,4.31-6.464,7.108-8.815,10.97a12.176,12.176,0,0,0-1.287,3.05,7.056,7.056,0,0,0-.14.812,4.007,4.007,0,0,0-.084.812l-.028.84c0,.28.056.56.084.84a10.625,10.625,0,0,0,2.8,6.017,19.11,19.11,0,0,0,5.541,4.086,28.342,28.342,0,0,0,6.576,2.351,28.7,28.7,0,0,1-6.716-2.071,19.638,19.638,0,0,1-5.877-3.918,11.653,11.653,0,0,1-3.3-6.353c-.028-.308-.112-.616-.112-.924l-.028-.923a3.42,3.42,0,0,1,.056-.924c.028-.308.056-.616.112-.923a13.94,13.94,0,0,1,1.259-3.47c2.379-4.282,6.213-7.3,8.228-11.278a17.462,17.462,0,0,0,1.987-6.269,12.265,12.265,0,0,0-.9-6.213,1.334,1.334,0,0,1,2.435-1.091.438.438,0,0,1,.028.112Z" transform="translate(-1127.806 -435.619)"/><path class="b" d="M1674.694,551.51c-2.071-1.9-4.758-2.966-6.661-5.205-1.959-2.295-3.974-4.841-4.309-7.948-.84-7.724,6.212-11.95,13.349-11.25,7.052.7,12.929,4.142,14.832,11.25,1.483,5.6,1.763,11.306,5.121,16.371,1.735,2.6,4.226,4.618,6.576,6.716q1.175,1.049,2.267,2.183a34.193,34.193,0,0,1,7.528,12.649,21.836,21.836,0,0,1,.811,3.554c1.791,8.787-3.274,17.407-9.879,23a14.613,14.613,0,0,1-16.735,1.511c-8.619-5.6-8.115-16.231-10.914-24.627-.5-1.567-.951-3.078-1.427-4.478a20.685,20.685,0,0,1-.168-3.19c.28-5.737,3.358-11.194,1.623-17.043C1676.205,553.329,1675.226,552.489,1674.694,551.51Z" transform="translate(-1188.08 -376.537)"/><path class="b" d="M1678.331,573.492l-1.4-4.478-.028-.112v-.084a17.905,17.905,0,0,1-.14-3.246,29.164,29.164,0,0,1,.392-3.19c.392-2.071.951-4.058,1.343-6.017a17.79,17.79,0,0,0,.42-5.793c-.084-.476-.14-.951-.252-1.4a5.784,5.784,0,0,0-.42-1.287,8.668,8.668,0,0,0-.7-1.175,12.874,12.874,0,0,1-.924-1.371l.168.224c-1.735-1.623-4.17-2.715-6.129-4.7-.5-.5-.9-1.007-1.315-1.511s-.812-1.035-1.2-1.567a16.224,16.224,0,0,1-1.959-3.554,8.178,8.178,0,0,1-.5-2.015c-.056-.364-.056-.672-.084-1.035a6.056,6.056,0,0,1-.028-1.007,10.1,10.1,0,0,1,.84-4.03,8.83,8.83,0,0,1,2.519-3.3,11.126,11.126,0,0,1,3.582-1.931,18.024,18.024,0,0,1,7.892-.644,20.824,20.824,0,0,1,7.5,2.379,15.436,15.436,0,0,1,3.218,2.323c.224.252.476.476.7.728s.42.532.644.784l.56.84c.084.14.2.28.28.42l.224.448c.168.28.308.588.476.868l.392.9c.14.308.252.616.364.924s.224.616.308.924q.546,1.889.924,3.778c.532,2.519.9,5.065,1.651,7.472a19.951,19.951,0,0,0,1.427,3.5c.14.28.308.532.476.812.168.252.308.532.5.784l.56.756.588.756c3.246,3.918,7.5,7,10.606,11.166a26.279,26.279,0,0,1,3.694,6.8,18.251,18.251,0,0,1,1.091,7.64,15.208,15.208,0,0,1-2.743,7.192,29.58,29.58,0,0,1-5.177,5.709h0a13.722,13.722,0,0,0-2.1,3.246,10.819,10.819,0,0,0-.9,3.75,11.051,11.051,0,0,1,.84-3.778,13.1,13.1,0,0,1,2.071-3.3h0a30.071,30.071,0,0,0,5.065-5.765,15.228,15.228,0,0,0,2.6-7.108,17.479,17.479,0,0,0-1.175-7.472,26.221,26.221,0,0,0-3.722-6.632c-3.106-4.058-7.388-7.052-10.746-11l-.616-.756-.588-.784c-.2-.252-.364-.56-.531-.812a8.338,8.338,0,0,1-.5-.84,21.544,21.544,0,0,1-1.539-3.61c-.784-2.491-1.231-5.037-1.763-7.528-.28-1.259-.588-2.491-.952-3.694a18.88,18.88,0,0,0-1.511-3.442l-.224-.42c-.084-.14-.168-.252-.252-.392l-.532-.756c-.2-.252-.392-.476-.588-.7a6.941,6.941,0,0,0-.644-.644,14.344,14.344,0,0,0-3.022-2.127,19.778,19.778,0,0,0-7.108-2.155,17.063,17.063,0,0,0-7.332.672,9.8,9.8,0,0,0-3.134,1.735,7.541,7.541,0,0,0-2.071,2.8,9.122,9.122,0,0,0-.672,3.47c-.028.308.028.616.028.9a8.752,8.752,0,0,0,.084.9,9.03,9.03,0,0,0,.448,1.707,13.7,13.7,0,0,0,1.791,3.162c.364.5.756.979,1.148,1.483.42.476.812.98,1.231,1.371,1.679,1.679,4.086,2.714,6.157,4.561l.084.084.084.14a30.241,30.241,0,0,1,1.707,2.6,7.46,7.46,0,0,1,.56,1.623,10.389,10.389,0,0,1,.308,1.623,19.575,19.575,0,0,1-.364,6.409c-.392,2.071-.923,4.03-1.259,5.989a26.478,26.478,0,0,0-.336,2.91,16.59,16.59,0,0,0,.168,2.882l-.056-.2,1.455,4.478Z" transform="translate(-1189.45 -371.543)"/><path class="ae" d="M1750.1,648.7a24.631,24.631,0,0,1,5.541,6.353,18.6,18.6,0,0,1,2.77,8.06,16.845,16.845,0,0,1-1.539,8.507,26.207,26.207,0,0,1-4.925,7.136,1.069,1.069,0,1,1-1.567-1.455l.056-.056a24.993,24.993,0,0,0,5.01-6.353,15.6,15.6,0,0,0,1.9-7.752,18.323,18.323,0,0,0-2.183-7.864A24.474,24.474,0,0,0,1750.1,648.7Z" transform="translate(-1250.332 -464.157)"/><path class="ae" d="M1773.4,668.1a26.941,26.941,0,0,1,4.757,6.548c.392.812.812,1.623,1.175,2.463a23.28,23.28,0,0,1,1.4,5.317,23.523,23.523,0,0,1-1.091,11,23.889,23.889,0,0,1-2.547,5.065,20.274,20.274,0,0,1-8.815,7.276,1.6,1.6,0,0,1-1.259-2.938.169.169,0,0,1,.112-.028h0a17.129,17.129,0,0,0,4.394-2.239,17.652,17.652,0,0,0,3.638-3.442,19.686,19.686,0,0,0,2.631-4.366,21.938,21.938,0,0,0,1.763-10.158,22.227,22.227,0,0,0-.98-5.177c-.28-.839-.616-1.651-.951-2.491-.336-.812-.727-1.623-1.147-2.407A28.389,28.389,0,0,0,1773.4,668.1Z" transform="translate(-1261.822 -478.128)"/><path class="b" d="M1616.791,564.812c-6.8-2.183-17.911,2.994-16.959,11.222.672,5.821,5.569,11.53,3.582,17.518-1.315,3.974-5.485,6.045-7.724,9.487-2.575,3.946-2.575,8.256.532,11.922,4.561,6.1,11.166,2.043,15.084-1.315a15.559,15.559,0,0,1,2.071-1.175c3.862-1.735,7.864-5.177,9.123-9.347,1.483-4.9.5-9.235-.616-14.076C1620.708,584.009,1619.813,578.133,1616.791,564.812Z" transform="translate(-1137.788 -403.384)"/><path class="e" d="M1569.878,805.342c.056.308.112.644.168.952a8.379,8.379,0,0,0,.252.9c1.651,5.261,7.136,7.948,12.509,8.06a14.574,14.574,0,0,0,4.841-.644c4.785-1.427,7.164-5.569,8.48-10.159h0a54.051,54.051,0,0,0,1.511-8.787,4.2,4.2,0,0,0,.056-.588,90.942,90.942,0,0,0,.392-9.151c0-1.092-.028-2.155-.028-3.218v-.448c0-.588-.028-1.175-.056-1.791v-.588c-.084-2.91-.168-5.793-.14-8.7,0-1.2.028-2.407.084-3.582a58.775,58.775,0,0,0-.14-6.688c-.028-.448-.056-.9-.112-1.343-.252-2.91-.671-5.821-1.063-8.843-.727-5.9-.7-11.754-1.287-17.687-.112-1.287,2.938-2.127,3.834-12.621q.126-1.427.168-3.106a3.055,3.055,0,0,1,.028-.476h0c.056-1.287.056-2.687.028-4.226a3.557,3.557,0,0,1-.5.756,4.118,4.118,0,0,1-.616.588h0c-.056.056-.14.112-.2.168h0a8.509,8.509,0,0,1-1.232.812,20.981,20.981,0,0,1-4.785,1.791s-.672,1.959-1.791,4.9h0a227.254,227.254,0,0,1-9.459,22.528h0c-.252.5-.5.951-.756,1.427-.224.392-.42.728-.644,1.063h0c-1.119,1.819-2.1,3.022-2.854,3.218,0,.56,2.043,9.487,3.19,14.636.056.252.112.532.168.756v.028c.336,1.567.56,2.659.56,2.826a27.9,27.9,0,0,1-.224,4.589c-.14.9-.28,1.763-.476,2.659v.028a34.549,34.549,0,0,1-4.841,11,34.133,34.133,0,0,0-2.519,4.338c-.14.28-.28.588-.42.867-.084.168-.14.336-.224.5-.084.2-.168.364-.252.56A21.831,21.831,0,0,0,1569.878,805.342Z" transform="translate(-1120.316 -510.175)"/><path class="e" d="M1526.756,708s-19.31,1.539-24.459,22.5-5.289,24.487-5.289,24.487-4.925-4-20.821-14.384l-7.388,4.561s12.2,23.2,30.28,25.354c0,0,8.647.756,12.2-15.587C1514.891,738.587,1526.756,708,1526.756,708Z" transform="translate(-1047.754 -506.862)"/><path class="o" d="M1597.883,919.591a2.18,2.18,0,0,0-.2-.448c-.28-.728-.56-1.4-.784-1.931a15.255,15.255,0,0,1-.644-1.819c-.056-.56-3.134-7.052-4.841-10.494-.588-1.175-1.007-2.015-1.091-2.1-.168-.224-1.875.084-3.3.336-.336.084-.672.14-.979.2h-.028c-.56.112-.923.2-.923.2s.14.56.336,1.539a59.469,59.469,0,0,1,1.2,9.851h0c.224,5.709-.448,12.2-3.974,16.091-4.142,4.589-7.836,1.791-10.271-1.511-.112-.14-.224-.308-.336-.448l-.336-.5c-.084.168-.14.336-.224.5-.084.2-.168.364-.252.56a22.159,22.159,0,0,0-1.567,12.621c.056.308.112.644.168.951a8.39,8.39,0,0,0,.252.9c1.651,5.261,7.136,7.948,12.509,8.06a14.582,14.582,0,0,0,4.841-.644c4.786-1.427,7.164-5.569,8.479-10.158h0a54.065,54.065,0,0,0,1.511-8.787,4.163,4.163,0,0,0,.056-.588,91.014,91.014,0,0,0,.392-9.151C1597.911,921.718,1597.911,920.655,1597.883,919.591Z" transform="translate(-1120.167 -647.092)"/><path class="s" d="M1668.225,681.774c1.6,4.478,8.7,1.4,10.746-.923,2.714-3.078,2.351-5.793,2.8-9.711.252-2.211.42-3.946.5-5.261.392-6.772-1.959-3.134-11.7-2.938a14.186,14.186,0,0,1,.952,8.535,1.412,1.412,0,0,1-.056.336C1670.828,674.442,1667.329,679.255,1668.225,681.774Z" transform="translate(-1191.265 -473.583)"/><path class="q" d="M1619.434,951.1s-8.4,34.589-10.606,56.5a21.61,21.61,0,0,0,2.8,12.957l38.591,66.548,5.793-3.414s-10.187-54.374-25.074-66.38l18.33-46.091Z" transform="translate(-1148.518 -681.931)"/><path class="t" d="M1677.851,671.5a10.562,10.562,0,0,0,10.746-5.625c.392-6.772-1.959-3.134-11.7-2.938A14.3,14.3,0,0,1,1677.851,671.5Z" transform="translate(-1197.617 -473.583)"/><path class="q" d="M1648.3,948.867s3.246,16.4,4.9,70.829c0,0-.392,39.6-3.414,70.1,0,0,1.288,1.707,5.6,1.008,0,0,21.325-58.488,13.629-72.229,0,0,16.147-25.074,14.076-38.9S1654.652,948,1654.652,948Z" transform="translate(-1177.021 -679.698)"/><path class="s" d="M1650.8,586.994c0,.644,0,1.315.028,2.015-.056,7.7,5.653,17.854,14.272,14.944a10.957,10.957,0,0,0,2.1-.728,9.485,9.485,0,0,0,4.729-4.562,14.555,14.555,0,0,0,1.175-2.155,18.04,18.04,0,0,0,1.175-3.666,7.3,7.3,0,0,0-.224-4.254c-1.091-2.882-4.422-5.681-11.754-9.767-2.043-1.119-4.366-2.351-7.052-3.722-1.763,3.33-3.47,5.541-4.142,8.815A20.449,20.449,0,0,0,1650.8,586.994Z" transform="translate(-1178.821 -411.154)"/><path class="f" d="M1654.189,709.7s-11.894,15.084-11.446.5c0,0-17.575,17.491-10.578,62.882a7.779,7.779,0,0,0,5.037,6.157,23.035,23.035,0,0,0,11.39.532Z" transform="translate(-1164.216 -508.086)"/><g transform="translate(475.365 291.809)"><path class="u" d="M1662.9,1152.223c1.231-5.233,2.323-10.495,3.358-15.784s1.987-10.578,2.826-15.867c.84-5.317,1.567-10.634,2.127-15.979.252-2.659.476-5.345.616-8.032.112-2.687.168-5.345.056-8.031-.028-.672-.056-1.344-.112-1.987-.056-.672-.112-1.315-.2-1.987l-.14-.98a8.356,8.356,0,0,0-.168-.952,3.76,3.76,0,0,0-.812-1.595,6.96,6.96,0,0,0-.643-.644c-.056-.056-.112-.084-.168-.14l-.084-.056-.056-.028c-.056-.028-.084-.084-.14-.112a.771.771,0,0,1-.14-.728.742.742,0,0,1,.588-.476h4.757v-.028h0l-.056-.056-1.427-1.427-.168-.168-.2-.2a3.316,3.316,0,0,1-.364-.5,2.977,2.977,0,0,1-.336-1.2,2.673,2.673,0,0,1,.224-1.231,3.727,3.727,0,0,1,.252-.476l.224-.448c.14-.28.28-.588.42-.9s.28-.588.42-.9a55.673,55.673,0,0,0,2.686-7.5,61.58,61.58,0,0,0,1.707-7.808l.28-1.987c.084-.672.14-1.315.2-1.987.14-1.315.2-2.659.252-4a73.308,73.308,0,0,0-1.259-16.007l.112-.028.839,3.946.616,4,.2,2.015.084,1.007q.042.5.084,1.008l.084,2.015.028,1.008c.028.336,0,.672,0,1.007a63.6,63.6,0,0,1-2.127,16.063,58.083,58.083,0,0,1-2.714,7.668l-.42.923c-.14.308-.28.616-.448.924l-.224.448c-.084.14-.168.308-.224.42a1.608,1.608,0,0,0-.14.728,1.66,1.66,0,0,0,.2.728,1.233,1.233,0,0,0,.224.308c.028.056.112.112.168.168l.168.168,1.4,1.455.056.056.084.084c.056.056.084.14.14.2a.92.92,0,0,1,.112.476,1.023,1.023,0,0,1-.448.839,1.554,1.554,0,0,1-.448.2h-.84l-2.015-.028-1.959-.028a.248.248,0,0,0,.14-.42c-.028-.028-.028-.028-.056-.028l.056.028.112.084c.084.056.14.112.224.168a5.214,5.214,0,0,1,.784.784,5.739,5.739,0,0,1,.979,1.987c.084.364.112.7.168,1.036l.14,1.007c.084.672.112,1.343.168,2.043.056.672.056,1.343.084,2.043.084,2.714,0,5.4-.14,8.087-.168,2.687-.392,5.373-.7,8.06-.588,5.345-1.371,10.69-2.295,15.979-.9,5.317-1.931,10.578-3.023,15.867-1.119,5.261-2.295,10.522-3.582,15.727Z" transform="translate(-1662.9 -1032)"/></g><path class="e" d="M1672.49,791.345c.308,4.2,2.519,8.255,4.422,11.894,3.694,7.052,9.627,11.782,17.8,11.81,4.422.028,9.1-.14,12.286-3.694,2.715-3.022,4.17-7.668,4.562-11.642a41.941,41.941,0,0,0-3.526-20.233c-.588-1.315-1.2-2.631-1.819-3.974-1.063-2.323-2.127-4.646-2.967-7.052-.28-.84-.531-1.735-.755-2.6-.672-2.687-1.064-5.429-1.791-8.06-2.015-7.444-1.847-30.755-2.211-38.367-.084-1.959-.392-5.037-13.461-10.886-1.707-.784-8.2,17.63-8.871,19.449a35.774,35.774,0,0,0-2.295,12.089c0,7.36-.392,14.748.28,22.08a69.638,69.638,0,0,1-.42,19.45C1673.162,784.656,1672.238,788.182,1672.49,791.345Z" transform="translate(-1194.411 -507.232)"/><path class="o" d="M1715.391,909.094c6.577,9.151,16.539,7.64,20.821,6.437-1.063-2.323-2.127-4.646-2.966-7.052-.28-.84-.532-1.735-.756-2.6C1723.758,901.734,1709.794,901.314,1715.391,909.094Z" transform="translate(-1224.411 -647.257)"/><path class="t" d="M1652,584.015c1.091-2.407,2.463-3.47,3.918.084,2.854,6.968,14.132,11.194,18.078,12.509a18.009,18.009,0,0,0,1.175-3.666,7.293,7.293,0,0,0-.224-4.254l-8.227-4.086-3.526-5.681c-2.043-1.119-4.366-2.351-7.052-3.722C1654.379,578.5,1652.672,580.741,1652,584.015Z" transform="translate(-1179.686 -411.226)"/><path class="b" d="M1686.532,586.62c2.519-4.394-1.483-11.362-5.233-13.993a62.088,62.088,0,0,0-5.9-3.078,34.828,34.828,0,0,1-5.989-3.89c-3.946-3.246-9.263-11.166-4.366-15.839,4.478-4.254,12.621,2.043,15.924,5.121a29.883,29.883,0,0,1,7.164,9.935C1689.778,568.822,1689.106,572.376,1686.532,586.62Z" transform="translate(-1187.66 -391.919)"/><g transform="translate(474.525 186.243)"><path class="f" d="M1679.432,655.343c-2.994,7.92-15.5,9.683-19.477,1.539-.28-.56.56-1.035.812-.476,3.554,7.3,15,5.9,17.714-1.315.252-.56,1.175-.308.951.252Z" transform="translate(-1659.898 -654.776)"/></g><path class="f" d="M1682.6,650.391l6.828-1.791s.616,3.862-2.966,4.506A3.021,3.021,0,0,1,1682.6,650.391Z" transform="translate(-1201.722 -464.085)"/><path class="ae" d="M1681.734,535.5c-2.8.56-5.737,2.183-6.856,4.9a8.141,8.141,0,0,0-.476,4.338,10.185,10.185,0,0,0,.532,2.211,11.279,11.279,0,0,0,1.007,2.015,11.854,11.854,0,0,0,3.274,3.19,36.408,36.408,0,0,0,4.058,2.351,40.146,40.146,0,0,1,4.142,2.323,9.725,9.725,0,0,1,3.274,3.386,9.565,9.565,0,0,0-3.386-3.218,45.338,45.338,0,0,0-4.2-2.127,38.047,38.047,0,0,1-4.226-2.211,12.67,12.67,0,0,1-3.582-3.218,10.885,10.885,0,0,1-1.2-2.155,11.546,11.546,0,0,1-.671-2.379,10.426,10.426,0,0,1-.168-2.463,9.178,9.178,0,0,1,.5-2.463,8.624,8.624,0,0,1,3.106-3.946,11.987,11.987,0,0,1,2.183-1.259,12.792,12.792,0,0,1,2.407-.812.8.8,0,1,1,.336,1.567h-.028Z" transform="translate(-1194.98 -381.514)"/><path class="b" d="M1661.622,573.984a.941.941,0,0,0-.112.28c-.028.14-.084.252-.112.392-.056.28-.084.56-.112.839a6.284,6.284,0,0,0,.168,1.763,9.778,9.778,0,0,0,1.567,3.386c.336.56.783,1.007,1.175,1.539.448.476.9.952,1.371,1.4a33.93,33.93,0,0,0,3.106,2.519,30.138,30.138,0,0,0,3.414,2.1c1.175.644,2.434,1.175,3.666,1.735a12.928,12.928,0,0,1,3.526,2.1,9.256,9.256,0,0,1,2.267,3.386,8.831,8.831,0,0,0-2.435-3.19,13.02,13.02,0,0,0-3.582-1.791c-1.259-.476-2.547-.923-3.806-1.483a28.2,28.2,0,0,1-3.638-1.931,35.113,35.113,0,0,1-3.386-2.379c-.56-.42-1.035-.923-1.567-1.4a19.05,19.05,0,0,1-1.4-1.6,11.183,11.183,0,0,1-2.071-3.862,8.716,8.716,0,0,1-.364-2.267,8.275,8.275,0,0,1,.084-1.175c.028-.2.084-.392.112-.588a6.219,6.219,0,0,1,.224-.672l.056-.14a1.084,1.084,0,0,1,1.987.867C1661.734,573.845,1661.678,573.929,1661.622,573.984Z" transform="translate(-1184.942 -409.143)"/><path class="b" d="M1618.048,1456.256l-.364,10.466-21.184-.028s1.427-5.569,13.685-5.429l2.491-5.765Z" transform="translate(-1139.717 -1045.175)"/><path class="b" d="M1729.978,1425.4l3.106,6.828a2.846,2.846,0,0,1-.392,2.994l-8.507,10.494-12.285-.028s.755-7.024,9.627-7.892l3.358-9.375Z" transform="translate(-1222.823 -1023.499)"/><g transform="translate(456.895 214.011)"><path class="f" d="M1606.919,754a69.883,69.883,0,0,0-5.037,14.02l-.392,1.819-.2.9-.168.923-.336,1.819-.252,1.847-.14.924c-.056.308-.056.616-.084.924l-.168,1.847-.028.476v.476l-.028.924c0,.616-.028,1.231-.028,1.847l.084,1.847c.028.616.056,1.231.112,1.875.084,1.259.2,2.491.252,3.75.168,2.491.224,5.009.224,7.528a37.931,37.931,0,0,1-.728,7.528,20.926,20.926,0,0,1-1.175,3.61,25.324,25.324,0,0,1-1.819,3.3l-.112-.056a24.889,24.889,0,0,0,1.651-3.358,17.8,17.8,0,0,0,1.035-3.554,38.844,38.844,0,0,0,.448-7.444q-.084-3.736-.42-7.472c-.084-1.231-.224-2.491-.364-3.722-.112-1.231-.2-2.519-.28-3.778a49.682,49.682,0,0,1,1.651-15.056,58.458,58.458,0,0,1,2.547-7.136c.5-1.147,1.063-2.295,1.679-3.386l.448-.84.476-.812c.336-.532.672-1.063,1.036-1.567Z" transform="translate(-1596.9 -754)"/></g><path class="i" d="M1561.706,866.059s-1.147-6.045,3.834-1.819C1570.494,868.438,1563.917,871.908,1561.706,866.059Z" transform="translate(-1114.578 -618.298)"/><path class="w" d="M1571.3,861.487a6.729,6.729,0,0,1,3.89,5.177,6.517,6.517,0,0,0-3.666-6.465Z" transform="translate(-1121.569 -616.469)"/><g transform="translate(478.162 274.291)"><path class="f" d="M1674.129,969.456c-.14,1.231-.224,2.491-.28,3.75s-.056,2.491,0,3.722a39.833,39.833,0,0,0,.9,7.332,27.972,27.972,0,0,0,2.435,6.884l.42.812c.168.252.308.5.476.784.084.14.168.252.252.392l.28.364a6.926,6.926,0,0,0,.532.728,14.052,14.052,0,0,0,1.2,1.371c.224.224.42.448.644.644l.672.616a6.118,6.118,0,0,0,.7.56c.252.2.476.364.728.56.5.336,1.007.7,1.539,1.035a24.278,24.278,0,0,0,3.246,1.763,21.573,21.573,0,0,0,7.08,1.987,17.055,17.055,0,0,0,7.3-.84,14.773,14.773,0,0,0,3.33-1.651,11.645,11.645,0,0,0,2.743-2.491l.112.084a12.1,12.1,0,0,1-2.687,2.659,15.294,15.294,0,0,1-3.33,1.791,17.564,17.564,0,0,1-7.5,1.119,22.625,22.625,0,0,1-7.388-1.875,27.5,27.5,0,0,1-3.386-1.735c-.56-.308-1.092-.672-1.623-1.007a23.523,23.523,0,0,1-1.539-1.147l-.728-.616a7.939,7.939,0,0,1-.7-.672,15.882,15.882,0,0,1-1.315-1.427l-.588-.756-.308-.392a1.987,1.987,0,0,0-.28-.392c-.168-.28-.364-.532-.532-.812l-.5-.84a23.857,23.857,0,0,1-2.575-7.248,34.872,34.872,0,0,1-.532-7.612q.084-1.889.336-3.778a28.323,28.323,0,0,1,.756-3.722Z" transform="translate(-1672.896 -969.4)"/></g><path class="s" d="M1480.041,789.872v-1.959l.979-3.078a3.128,3.128,0,0,0-.42-2.715l-4.533-6.52a3.711,3.711,0,0,0,1.119,5.037s-3.414,3.274,0,6.492l1.735,3.442Z" transform="translate(-1052.586 -555.544)"/><g transform="translate(409.321 184.013)"><path class="q" d="M1485.612,687.746l-6.856-.644.84-8.647a22.6,22.6,0,0,0-45-4.31l-.839,8.647-6.856-.644.84-8.647a29.5,29.5,0,1,1,58.74,5.625Z" transform="translate(-1426.9 -646.805)"/></g><path class="d" d="M1456.251,770.648l-5.177,54.235-78.273-7.472,5.177-54.235a5.593,5.593,0,0,1,6.1-5.037l67.136,6.409A5.573,5.573,0,0,1,1456.251,770.648Z" transform="translate(-978.619 -542.953)"/><rect class="e" width="9.291" height="78.637" transform="translate(394.18 274.441) rotate(-84.547)"/><path class="q" d="M1509.57,846.2a6.957,6.957,0,1,0-10.8,5.121l-.56,5.737a3.317,3.317,0,1,0,6.6.616l.56-5.737A6.925,6.925,0,0,0,1509.57,846.2Z" transform="translate(-1067.116 -600.904)"/><path class="s" d="M1599.645,870.066l-2.211-2.323-3.134-3.862a1.029,1.029,0,0,0-1.175-.28h0a.941.941,0,0,0-.532,1.147l1.175,4.226-11.334-5.177a.68.68,0,0,0-.868.308h0a.656.656,0,0,0,.224.812l6.576,4.31-7.276-2.994a.8.8,0,0,0-1.035.42h0a.8.8,0,0,0,.336,1.035l6.717,3.694-7.612-2.295a.687.687,0,0,0-.9.644v.028a.781.781,0,0,0,.42.672c1.567.728,7.08,3.218,7.08,3.218l-5.849-1.175a.749.749,0,0,0-.9.868h0a.774.774,0,0,0,.5.588l7.612,2.463,4.645,1.6a5.657,5.657,0,0,0,3.47.084l2.995-.839,4.506-2.155Z" transform="translate(-1126.827 -618.863)"/><path class="e" d="M1468.781,770.648l-.308,3.162-78.274-7.472.308-3.162a5.593,5.593,0,0,1,6.1-5.037l67.136,6.409A5.573,5.573,0,0,1,1468.781,770.648Z" transform="translate(-991.15 -542.953)"/><path class="e" d="M1666.6,713.7c3.05,2.071,6.968,2.379,10.354,3.47,4.394,1.371,6.632,6.213,7.78,10.326,2.183,7.808,5.429,14.86,6.6,22.892.616,4.086,1.063,8.312,1.455,12.453.448,4.59.42,7.612-3.806,10.271-4.645,2.91-10.271,2.183-15.448,1.707-5.625-.5-11.222-1.287-16.791-2.211-3.134-.532-7.976-.588-8.871-4.478-.364-1.623.168-3.358.392-5.065a1.5,1.5,0,0,1,1.427-1.315c7.416-.252,14.888.252,22.3.028.364-7.192-2.183-13.517-2.742-20.541-.5-6.017-.951-13.6,1.931-19.058.979-1.847,2.6-2.631.9-4.45A53.193,53.193,0,0,0,1666.6,713.7Z" transform="translate(-1176.63 -510.967)"/><g transform="translate(489.189 206.035)"><path class="f" d="M1722.822,725.7a11.181,11.181,0,0,0-6.66,3.862,10.453,10.453,0,0,0-1.875,3.358,14.381,14.381,0,0,0-.756,3.778,18.114,18.114,0,0,0,.14,3.89c.028.336.084.644.14.951l.056.476c0,.084.028.168.028.224l.056.224c.14.644.308,1.287.448,1.931s.308,1.287.476,1.9c.168.644.364,1.259.532,1.9a17.223,17.223,0,0,0,1.511,3.638l-.112.084a7.161,7.161,0,0,1-1.287-1.6c-.2-.28-.336-.588-.532-.9-.168-.308-.308-.616-.448-.923a31.349,31.349,0,0,1-1.455-3.806c-.2-.644-.364-1.287-.532-1.959l-.056-.28a.864.864,0,0,1-.028-.252l-.056-.5c-.028-.336-.084-.7-.084-1.036l-.028-1.035V738.6c0-.336.028-.672.056-1.035l.028-.5.056-.5a15.27,15.27,0,0,1,1.007-4,11.331,11.331,0,0,1,2.183-3.5,11.961,11.961,0,0,1,1.539-1.371,12.559,12.559,0,0,1,1.735-1.063,11.135,11.135,0,0,1,3.862-1.119Z" transform="translate(-1712.3 -725.5)"/></g><g transform="translate(488.686 250.352)"><path class="f" d="M1710.584,884.319c1.4-.2,2.827-.308,4.226-.392,1.427-.084,2.826-.084,4.254-.028l2.155.084a10.9,10.9,0,0,1,2.127.364,10.515,10.515,0,0,1,2.043.756,6.264,6.264,0,0,1,1.791,1.259l-.084.112a29.86,29.86,0,0,0-4.058-.84c-.672-.112-1.343-.224-2.043-.364-.672-.14-1.371-.252-2.071-.336s-1.4-.14-2.1-.224l-2.1-.168c-1.4-.084-2.8-.14-4.226-.14Z" transform="translate(-1710.5 -883.86)"/></g><g transform="translate(500.495 249.832)"><path class="f" d="M1752.7,882.168c.308-.056.588-.084.867-.112s.56-.056.839-.056a11.27,11.27,0,0,1,1.679.084,8.019,8.019,0,0,1,1.623.364,5.449,5.449,0,0,1,1.455.728,5.816,5.816,0,0,0-1.539-.336,9.431,9.431,0,0,0-1.539.028,8.739,8.739,0,0,0-1.483.308,7.259,7.259,0,0,0-.728.224,4.817,4.817,0,0,0-.672.28Z" transform="translate(-1752.7 -882)"/></g><g transform="translate(416.988 419.094)"><path class="b" d="M1454.3,1489.205l27.873-.532,27.873-.476,55.746-.756,13.937-.224,13.936-.252q13.936-.252,27.873-.028l13.937.308c4.645.14,9.291.252,13.936.448,9.291.336,18.582.784,27.873,1.511v.5c-9.291.727-18.582,1.175-27.873,1.511-4.645.2-9.291.308-13.936.448l-13.937.308q-13.936.21-27.873-.028l-13.936-.252-13.937-.224-55.746-.756-27.873-.476-27.873-.532Z" transform="translate(-1454.3 -1486.837)"/></g><path class="f" d="M1497.551,853.034l-1.4-.112.252-3.162a7.633,7.633,0,0,1-2.295-9.123,7.177,7.177,0,0,1,7.7-4.589l-.252,1.371c-2.882-.532-5.205,1.6-6.157,3.75a6.3,6.3,0,0,0,2.155,7.7.721.721,0,0,1,.28.616Z" transform="translate(-1065.507 -599.005)"/><path class="f" d="M1425.44,872.559l-54.542-5.345a.671.671,0,0,1-.616-.756l3.89-40.158,1.4.14-3.806,39.459,53.843,5.289Z" transform="translate(-976.801 -592.056)"/><rect class="f" width="1.399" height="26.138" transform="matrix(0.101, -0.995, 0.995, 0.101, 406.835, 215.933)"/><g transform="translate(305.265 296.888)"><path class="q" d="M1063.728,1070.872l-1.035-3.778a1.369,1.369,0,0,0-1.735-.951l-3.862,1.175a1.376,1.376,0,0,1-1.371-2.295l2.855-2.854a1.363,1.363,0,0,0-.056-1.987l-2.994-2.743a1.38,1.38,0,0,1,1.287-2.351l3.918,1.008a1.37,1.37,0,0,0,1.679-1.035l.839-3.834a1.385,1.385,0,0,1,2.687-.056l1.035,3.778a1.369,1.369,0,0,0,1.735.951l3.862-1.175a1.376,1.376,0,0,1,1.371,2.295l-2.854,2.854a1.362,1.362,0,0,0,.056,1.987l2.994,2.743a1.38,1.38,0,0,1-1.287,2.351l-3.918-1.007a1.369,1.369,0,0,0-1.679,1.036l-.84,3.834A1.388,1.388,0,0,1,1063.728,1070.872Z" transform="translate(-1055.073 -1050.148)"/><path class="q" d="M1213.228,1070.872l-1.036-3.778a1.369,1.369,0,0,0-1.735-.951l-3.862,1.175a1.376,1.376,0,0,1-1.371-2.295l2.854-2.854a1.363,1.363,0,0,0-.056-1.987l-2.994-2.743a1.38,1.38,0,0,1,1.287-2.351l3.918,1.008a1.37,1.37,0,0,0,1.679-1.035l.84-3.834a1.385,1.385,0,0,1,2.686-.056l1.036,3.778a1.369,1.369,0,0,0,1.735.951l3.862-1.175a1.376,1.376,0,0,1,1.371,2.295l-2.854,2.854a1.363,1.363,0,0,0,.056,1.987l2.994,2.743a1.379,1.379,0,0,1-1.287,2.351l-3.918-1.007a1.37,1.37,0,0,0-1.679,1.036l-.84,3.834A1.388,1.388,0,0,1,1213.228,1070.872Z" transform="translate(-1162.735 -1050.148)"/><path class="q" d="M1359.727,1070.872l-1.035-3.778a1.369,1.369,0,0,0-1.735-.951l-3.862,1.175a1.376,1.376,0,0,1-1.371-2.295l2.854-2.854a1.362,1.362,0,0,0-.056-1.987l-2.994-2.743a1.38,1.38,0,0,1,1.287-2.351l3.918,1.008a1.37,1.37,0,0,0,1.679-1.035l.84-3.834a1.385,1.385,0,0,1,2.687-.056l1.035,3.778a1.369,1.369,0,0,0,1.735.951l3.862-1.175a1.376,1.376,0,0,1,1.371,2.295l-2.855,2.854a1.363,1.363,0,0,0,.056,1.987l2.994,2.743a1.38,1.38,0,0,1-1.287,2.351l-3.918-1.007a1.369,1.369,0,0,0-1.679,1.036l-.839,3.834A1.388,1.388,0,0,1,1359.727,1070.872Z" transform="translate(-1268.237 -1050.148)"/></g></g></svg>