<svg xmlns="http://www.w3.org/2000/svg" xmlns:xlink="http://www.w3.org/1999/xlink" width="131" height="131" viewBox="0 0 131 131"><defs><style>.a{fill:#fff;stroke:#707070;}.b{clip-path:url(#a);}.c{fill:#2d62fc;}.d{fill:#189afe;}</style><clipPath id="a"><rect class="a" width="131" height="131"/></clipPath></defs><g class="b"><g transform="translate(9.071 0)"><path class="c" d="M353.313,306.291a52.672,52.672,0,0,1-2.166,5.957,72.81,72.81,0,0,1-17.33,26.537l-.542.542c-1.9,1.9-3.791,3.52-5.687,5.145a52.872,52.872,0,0,1-6.228,4.6c-2.166,1.354-4.333,2.708-6.77,4.062a40.836,40.836,0,0,1-7.04,3.249c-1.083.542-2.166.812-3.52,1.354a5.02,5.02,0,0,1-1.9.542c-.271,0-.542.271-.812.271h-1.083c-.271,0-.542,0-.542-.271-.271,0-.542-.271-1.083-.271a5.019,5.019,0,0,0-1.9-.542c-1.354-.542-2.437-.812-3.791-1.354-2.437-1.083-4.874-2.166-7.04-3.249-2.437-1.354-4.6-2.708-6.77-4.062a52.888,52.888,0,0,1-6.228-4.6c-1.9-1.625-3.791-3.25-5.686-5.145l-.542-.542a83.368,83.368,0,0,1-17.33-26.537c-.812-1.9-1.354-4.062-2.166-5.957a114.83,114.83,0,0,0,8.124,8.124,99.237,99.237,0,0,0,41.7,22.475l3.249.812,3.249-.812a100.887,100.887,0,0,0,41.7-22.475A111.188,111.188,0,0,0,353.313,306.291Z" transform="translate(-244.458 -227.763)"/><path class="d" d="M355.379,321.049l-1.625-4.874a77.729,77.729,0,0,0-17.6-27.62l-1.083-1.083a1,1,0,0,0,.271.812,63.37,63.37,0,0,1,.812,10.29v.271A62.693,62.693,0,0,1,334.8,311.3a38.5,38.5,0,0,0-9.748-1.354h0a33.923,33.923,0,0,0-14.622,3.249,27.047,27.047,0,0,0-7.853,5.416,50.7,50.7,0,0,0-7.853-5.416,32.246,32.246,0,0,0-14.622-3.249h0a36.852,36.852,0,0,0-9.748,1.354A62.678,62.678,0,0,1,269,298.845v-.271a63.372,63.372,0,0,1,.812-10.29.994.994,0,0,1,.271-.812L269,288.555a80.184,80.184,0,0,0-17.6,27.62l-1.625,4.874a76.459,76.459,0,0,0-3.249,22.475h0a33.86,33.86,0,0,0,33.848,33.848h0a34.992,34.992,0,0,0,17.6-4.874,23.342,23.342,0,0,0,4.874-3.791,59.48,59.48,0,0,0,4.874,3.791,32.477,32.477,0,0,0,17.6,4.874h0a33.861,33.861,0,0,0,33.848-33.848h0A99.957,99.957,0,0,0,355.379,321.049ZM291.2,343.524A11.341,11.341,0,0,1,280.372,354.9H280.1a11.442,11.442,0,0,1-11.373-11.373v-.271A11.341,11.341,0,0,1,280.1,332.422h0c5.957-.271,11.1,4.874,11.1,11.1Zm33.577,11.1h-.271a11.341,11.341,0,0,1-10.831-11.373h0a11.442,11.442,0,0,1,11.373-11.373h0a11.341,11.341,0,0,1,11.373,10.831v.271A11.726,11.726,0,0,1,324.781,354.627Z" transform="translate(-246.524 -287.472)"/></g></g></svg>