<svg xmlns="http://www.w3.org/2000/svg" width="21.451" height="17.959" viewBox="0 0 21.451 17.959">
  <path id="Icon_awesome-store" data-name="Icon awesome-store" d="M19.942,3.928,17.792.5a1.06,1.06,0,0,0-.9-.5H3.513a1.06,1.06,0,0,0-.9.5L.466,3.928A2.955,2.955,0,0,0,2.413,8.446a3.442,3.442,0,0,0,.454.03,3.271,3.271,0,0,0,2.444-1.1,3.273,3.273,0,0,0,4.889,0,3.273,3.273,0,0,0,4.889,0,3.281,3.281,0,0,0,2.444,1.1,3.405,3.405,0,0,0,.454-.03A2.952,2.952,0,0,0,19.942,3.928Zm-2.4,5.611a4.2,4.2,0,0,1-.977-.126v3.306H3.844V9.414a4.388,4.388,0,0,1-.977.126,4.469,4.469,0,0,1-.6-.04,4.166,4.166,0,0,1-.543-.119V15.9a1.059,1.059,0,0,0,1.06,1.06H17.627a1.059,1.059,0,0,0,1.06-1.06V9.38a3.382,3.382,0,0,1-.543.119A4.606,4.606,0,0,1,17.541,9.539Z" transform="translate(0.521 0.5)" fill="none" stroke="#2d62fc" stroke-width="1"/>
</svg>
