<svg xmlns="http://www.w3.org/2000/svg" xmlns:xlink="http://www.w3.org/1999/xlink" width="228.828" height="134" viewBox="0 0 228.828 134">
  <defs>
    <filter id="Union_1" x="0" y="0" width="228.828" height="134" filterUnits="userSpaceOnUse">
      <feOffset input="SourceAlpha"/>
      <feGaussianBlur stdDeviation="10" result="blur"/>
      <feFlood flood-color="#2d62fc" flood-opacity="0.102"/>
      <feComposite operator="in" in2="blur"/>
      <feComposite in="SourceGraphic"/>
    </filter>
  </defs>
  <g transform="matrix(1, 0, 0, 1, 0, 0)" filter="url(#Union_1)">
    <path id="Union_1-2" data-name="Union 1" d="M-1598.662-8a20,20,0,0,1-20-20V-38.263a2.012,2.012,0,0,1-.631-.2l-9.435-4.753a2,2,0,0,1,0-3.573l9.435-4.753a2.012,2.012,0,0,1,.631-.2V-62a20,20,0,0,1,20-20H-1481a20,20,0,0,1,20,20v34a20,20,0,0,1-20,20Z" transform="translate(1659.83 112)" fill="#fff"/>
  </g>
</svg>
