<svg xmlns="http://www.w3.org/2000/svg" xmlns:xlink="http://www.w3.org/1999/xlink" width="687.098" height="787.063" viewBox="0 0 687.098 787.063"><defs><style>.a{fill:#dbe4ff;opacity:0.14;}.b{fill:#189afe;}.av,.ay,.az,.ba,.bb,.c,.e{fill:none;stroke-miterlimit:10;}.av,.bb,.c,.e{stroke:#fff;}.c{stroke-width:0.493px;}.d{fill:#2d62fc;}.e{stroke-width:0.882px;}.f{opacity:0.35;}.g{fill:#223a80;}.h{fill:#2d4898;}.i{fill:url(#a);}.j{fill:#ffadb0;}.k{fill:#3a257e;}.l{fill:#1f3a88;}.m{fill:#273f82;}.n{fill:#fb999d;}.aw,.o{fill:#fff;}.p{opacity:0.32;}.p,.q,.x{clip-path:url(#b);}.q{opacity:0.42;}.r{fill:url(#d);}.s{fill:url(#i);}.t{fill:url(#l);}.u{fill:url(#n);}.v{fill:url(#o);}.w{fill:url(#u);}.y{fill:url(#z);}.z{fill:url(#aa);}.aa{fill:url(#ab);}.ab{fill:url(#ac);}.ac{fill:url(#ad);}.ad{fill:url(#ae);}.ae{fill:url(#af);}.af{fill:url(#ah);}.ag{fill:url(#am);}.ah{fill:url(#aq);}.ai{fill:url(#ar);}.aj{fill:url(#as);}.ak{fill:url(#at);}.al{fill:url(#au);}.am{fill:url(#av);}.an{fill:url(#aw);}.ao{fill:url(#ax);}.ap{fill:url(#ay);}.aq{fill:url(#az);}.ar{fill:url(#ba);}.as{fill:url(#bb);}.at{opacity:0.33;}.au{fill:url(#bc);}.av{stroke-width:1.62px;}.aw{font-size:47px;font-family:Montserrat-Bold, Montserrat;font-weight:700;}.ax{opacity:0.5;}.ay,.az{stroke:#189afe;}.az,.ba{stroke-linecap:round;stroke-linejoin:round;}.ba{stroke:#dbe4ff;}.bb{stroke-width:0.908px;}</style><linearGradient id="a" x1="0.063" y1="0.929" x2="0.954" y2="0.053" gradientUnits="objectBoundingBox"><stop offset="0" stop-color="#f8f8f8"/><stop offset="1" stop-color="#dbe4ff"/></linearGradient><clipPath id="b"><path d="M593.259,360.195h-298.9A13.6,13.6,0,0,1,280.8,346.632V177.263A13.6,13.6,0,0,1,294.363,163.7H593.428a13.6,13.6,0,0,1,13.563,13.563V346.632A13.749,13.749,0,0,1,593.259,360.195Z" transform="translate(-280.8 -163.7)"/></clipPath><linearGradient id="d" x1="0.501" y1="0.472" x2="0.501" y2="1.229" gradientUnits="objectBoundingBox"><stop offset="0" stop-color="#dbe4ff"/><stop offset="1"/></linearGradient><linearGradient id="i" x1="0.499" y1="-0.361" x2="0.499" y2="1.103" xlink:href="#d"/><linearGradient id="l" x1="0.5" y1="-0.656" x2="0.5" y2="0.595" xlink:href="#d"/><linearGradient id="n" x1="0.44" y1="-0.785" x2="0.581" y2="2.139" xlink:href="#d"/><linearGradient id="o" x1="0.499" y1="0.51" x2="0.556" y2="1.684" gradientUnits="objectBoundingBox"><stop offset="0" stop-color="#f8f8f8"/><stop offset="1"/></linearGradient><linearGradient id="u" x1="0.426" y1="-0.996" x2="0.538" y2="1.317" gradientUnits="objectBoundingBox"><stop offset="0" stop-color="#eabfe5"/><stop offset="1"/></linearGradient><linearGradient id="z" x1="0.498" y1="-0.74" x2="0.498" y2="0.496" gradientUnits="objectBoundingBox"><stop offset="0" stop-color="#fff"/><stop offset="1"/></linearGradient><linearGradient id="aa" x1="0.499" y1="-0.136" x2="0.499" y2="0.698" xlink:href="#z"/><linearGradient id="ab" x1="0.502" y1="-0.559" x2="0.502" y2="0.678" xlink:href="#z"/><linearGradient id="ac" x1="0.497" y1="-0.092" x2="0.497" y2="1.145" xlink:href="#z"/><linearGradient id="ad" x1="0.499" y1="0.024" x2="0.499" y2="0.876" xlink:href="#z"/><linearGradient id="ae" x1="0.499" y1="-0.213" x2="0.499" y2="1.024" xlink:href="#z"/><linearGradient id="af" x1="0.499" y1="-0.782" x2="0.499" y2="0.898" xlink:href="#z"/><linearGradient id="ah" x1="0.498" y1="0.006" x2="0.498" y2="1.146" gradientUnits="objectBoundingBox"><stop offset="0" stop-color="#189afe"/><stop offset="1"/></linearGradient><linearGradient id="am" x1="0.499" y1="-0.076" x2="0.499" y2="1.265" xlink:href="#ah"/><linearGradient id="aq" x1="0.498" y1="1.152" x2="0.498" y2="0.076" gradientUnits="objectBoundingBox"><stop offset="0" stop-color="#ffbec4"/><stop offset="1" stop-color="#ff4985"/></linearGradient><linearGradient id="ar" x1="0.498" y1="0.906" x2="0.498" y2="0.209" gradientUnits="objectBoundingBox"><stop offset="0" stop-color="#ffbec4"/><stop offset="0.194" stop-color="#ffa7bc"/><stop offset="1" stop-color="#ff4985"/></linearGradient><linearGradient id="as" x1="0.497" y1="0.87" x2="0.497" y2="-0.012" xlink:href="#aq"/><linearGradient id="at" x1="0.299" y1="0.266" x2="0.797" y2="0.857" gradientUnits="objectBoundingBox"><stop offset="0" stop-color="#189afe"/><stop offset="1" stop-color="#2d62fc"/></linearGradient><linearGradient id="au" x1="-0.112" y1="0.211" x2="0.831" y2="0.819" xlink:href="#at"/><linearGradient id="av" x1="-0.096" y1="0.401" x2="0.895" y2="0.593" gradientUnits="objectBoundingBox"><stop offset="0" stop-color="#fff"/><stop offset="1" stop-color="#f5f5f5"/></linearGradient><linearGradient id="aw" y1="0.505" x2="1.002" y2="0.505" gradientUnits="objectBoundingBox"><stop offset="0" stop-color="#2d62fc"/><stop offset="1" stop-color="#189afe"/></linearGradient><linearGradient id="ax" x1="0" y1="0.498" x2="1.004" y2="0.498" xlink:href="#aw"/><linearGradient id="ay" x1="0.085" y1="0.259" x2="0.81" y2="1.151" xlink:href="#at"/><linearGradient id="az" x1="0" y1="0.5" x2="0.998" y2="0.5" xlink:href="#at"/><linearGradient id="ba" x1="-0.001" y1="0.499" x2="0.996" y2="0.499" xlink:href="#aw"/><linearGradient id="bb" x1="-0.843" y1="0.131" x2="1.355" y2="0.739" xlink:href="#aw"/><linearGradient id="bc" x1="0.14" y1="0.164" x2="0.81" y2="0.787" xlink:href="#at"/></defs><g transform="translate(-162.2 8.28)"><g transform="translate(164.089 92.1)"><g transform="translate(-1.253 -100.38)"><path class="a" d="M669.494-107.228S551.463,31.73,501.619,9.182c-50.014-22.549-112.28-67.2-158.225,7.733-30.008,48.827-93.076-1.75-140.716-18.7S71.977,15.934,24,45.434c-55.439,34.077-5.727,160.506,9.023,197.974,14.58,37.3,35.742,81.8-21.053,136.221C-47.2,436.255-5.633,489.336,33.021,516.971c76.631,54.591,140.662,17.156,267.815,74.8,84.6,38.485,148.577,4.424,204.185-11,111.9-30.856,162.75,99.069,162.75,99.069Z" transform="translate(668.859 679.834) rotate(180)"/><g transform="translate(101.272 188.648)"><g transform="translate(106.071 290.529)"><g transform="translate(0 0)"><path class="b" d="M318.114,373.332c3.9-.678,12.715-12.546,8.646-23.4s-10.681-7.629-3.9-22.718-2.713-24.074-9.664-23.057-12.885-.509-16.276-15.428-10.342-23.566-21.192-20.005-4.408,20.175-5.086,26.787-.339,7.121-9.155,15.258c-8.816,7.968-7.968,18.819,4.917,21.7,12.885,3.052,21.192,5.764,24.413,18.988C294.379,364.855,304.721,375.706,318.114,373.332Z" transform="translate(-255.665 -267.929)"/><g transform="translate(10.062 14.531)"><path class="c" d="M306.89,367.881s-4.408-17.8-12.207-39.333c-6.273-17.462-14.58-37.3-24.583-52.048" transform="translate(-255.689 -276.5)"/><path class="c" d="M298.39,307.338s-19.836-9.664-36.79-8.816" transform="translate(-261.6 -261.223)"/><path class="c" d="M286,321.731a90.835,90.835,0,0,1,7.121-25.431" transform="translate(-244.633 -262.731)"/></g></g><g transform="translate(17.703 38.765)"><path class="d" d="M355.1,369.809s19.666-8.646,12.376-13.733c-7.46-5.086-21.023,10.172-17.293-1.7,4.238-13.733-4.069-15.6-8.646-10.681s.509-22.04-3.56-29.669c-5.934-11.529-15.428-2.035-17.8,15.767-2.543,17.8-2.882-39.841-22.548-38.994s-.339,34.586,0,45.945-13.224-12.037-27.974-7.8,21.362,33.908,19.666,34.586c-1.7.848-14.411-7.46-21.023-2.374s23.9,8.646,23.9,8.646Z" transform="translate(-266.107 -290.795)"/><g transform="translate(8.804 16.963)"><path class="e" d="M300.65,362.851s-11.529-47.81-14.75-62.051" transform="translate(-261.147 -300.8)"/><path class="e" d="M312.853,307.3S315.4,332.9,292,340.021" transform="translate(-256.906 -296.28)"/><path class="e" d="M271.3,316.2s12.546,23.4,38.485,32.043" transform="translate(-271.3 -290.091)"/></g></g></g><g class="f" transform="translate(144.683)"><g transform="translate(89.728)"><path class="b" d="M380.93,127.311l-4.069-1.7a1.072,1.072,0,0,1-.678-1.356,22.1,22.1,0,0,0-.17-5.764,1.246,1.246,0,0,1,.678-1.356l4.069-1.7a1.254,1.254,0,0,0,.678-1.526l-2.2-4.917a1.254,1.254,0,0,0-1.526-.678l-4.069,1.7a1.318,1.318,0,0,1-1.356-.339,23.108,23.108,0,0,0-4.069-4.069,1.136,1.136,0,0,1-.509-1.356l1.7-4.069c.17-.678,0-1.356-.678-1.526l-5.086-2.034c-.678-.17-1.356,0-1.526.678l-1.7,4.069a1.072,1.072,0,0,1-1.356.678,22.1,22.1,0,0,0-5.764.17,1.246,1.246,0,0,1-1.356-.678l-1.7-4.069a1.254,1.254,0,0,0-1.526-.678L343.8,99a1.254,1.254,0,0,0-.678,1.526l1.7,4.069a1.319,1.319,0,0,1-.339,1.356,23.107,23.107,0,0,0-4.069,4.069,1.136,1.136,0,0,1-1.356.509l-4.069-1.7c-.678-.17-1.356,0-1.526.678l-2.034,5.086c-.17.678,0,1.356.678,1.526l4.069,1.7a1.072,1.072,0,0,1,.678,1.356,22.1,22.1,0,0,0,.17,5.764,1.246,1.246,0,0,1-.678,1.356l-4.069,1.7a1.254,1.254,0,0,0-.678,1.526l2.2,4.917a1.254,1.254,0,0,0,1.526.678l4.069-1.7a1.319,1.319,0,0,1,1.356.339,23.106,23.106,0,0,0,4.069,4.069,1.136,1.136,0,0,1,.509,1.356l-1.7,4.069c-.17.678,0,1.356.678,1.526l5.086,2.034c.678.17,1.356,0,1.526-.678l1.7-4.069a1.072,1.072,0,0,1,1.356-.678,22.1,22.1,0,0,0,5.764-.17,1.246,1.246,0,0,1,1.356.678l1.7,4.069a1.254,1.254,0,0,0,1.526.678l4.917-2.2a1.254,1.254,0,0,0,.678-1.526l-1.7-4.069a1.318,1.318,0,0,1,.339-1.356,23.106,23.106,0,0,0,4.069-4.069,1.136,1.136,0,0,1,1.356-.509l4.069,1.7c.678.17,1.356,0,1.526-.678l2.034-5.086A1.273,1.273,0,0,0,380.93,127.311Zm-19.666,5.595a12,12,0,1,1,6.273-15.767A11.878,11.878,0,0,1,361.264,132.906Z" transform="translate(-331.364 -96.564)"/></g><g transform="translate(0 53.974)"><path class="b" d="M378.909,187.908l-6.442-2.034a2.189,2.189,0,0,1-1.526-2.2,37.464,37.464,0,0,0,0-7.121,1.916,1.916,0,0,1,1.526-2.2l6.442-2.034a2.085,2.085,0,0,0,1.356-2.713l-3.391-10.681a2.085,2.085,0,0,0-2.713-1.356l-6.442,2.034a2.179,2.179,0,0,1-2.543-1.017,36.087,36.087,0,0,0-4.238-5.764,2.283,2.283,0,0,1-.17-2.713l3.9-5.425a2.17,2.17,0,0,0-.509-3.052l-8.986-6.612a2.17,2.17,0,0,0-3.052.509l-3.9,5.425a2.1,2.1,0,0,1-2.543.678,45.281,45.281,0,0,0-6.781-2.2,2.014,2.014,0,0,1-1.7-2.034V130.6a2.244,2.244,0,0,0-2.2-2.2h-11.19a2.244,2.244,0,0,0-2.2,2.2v6.781a2.014,2.014,0,0,1-1.7,2.034,45.28,45.28,0,0,0-6.782,2.2,2.1,2.1,0,0,1-2.543-.678l-3.9-5.425a2.17,2.17,0,0,0-3.052-.509l-8.985,6.612a2.17,2.17,0,0,0-.509,3.052l3.9,5.425a2.3,2.3,0,0,1-.17,2.713,45.749,45.749,0,0,0-4.238,5.764,2.179,2.179,0,0,1-2.543,1.017l-6.442-2.034a2.085,2.085,0,0,0-2.713,1.356L278.542,169.6a2.085,2.085,0,0,0,1.356,2.713l6.442,2.034a2.189,2.189,0,0,1,1.526,2.2,37.464,37.464,0,0,0,0,7.121,1.916,1.916,0,0,1-1.526,2.2l-6.442,2.034a2.085,2.085,0,0,0-1.356,2.713l3.391,10.681a2.085,2.085,0,0,0,2.713,1.356l6.442-2.034a2.179,2.179,0,0,1,2.543,1.017,36.085,36.085,0,0,0,4.238,5.764,2.284,2.284,0,0,1,.17,2.713l-3.9,5.425a2.17,2.17,0,0,0,.509,3.052l8.985,6.612a2.17,2.17,0,0,0,3.052-.509l3.9-5.425a2.1,2.1,0,0,1,2.543-.678,45.282,45.282,0,0,0,6.782,2.2,2.014,2.014,0,0,1,1.7,2.034v6.781a2.244,2.244,0,0,0,2.2,2.2H335a2.244,2.244,0,0,0,2.2-2.2v-6.781a2.014,2.014,0,0,1,1.7-2.034,45.283,45.283,0,0,0,6.781-2.2,2.1,2.1,0,0,1,2.543.678l3.9,5.425a2.17,2.17,0,0,0,3.052.509l8.986-6.612a2.17,2.17,0,0,0,.509-3.052l-3.9-5.425a2.3,2.3,0,0,1,.17-2.713,45.748,45.748,0,0,0,4.238-5.764,2.179,2.179,0,0,1,2.543-1.017l6.442,2.034a2.085,2.085,0,0,0,2.713-1.356l3.391-10.681A2.306,2.306,0,0,0,378.909,187.908ZM329.4,205.879a25.939,25.939,0,1,1,25.939-25.939A25.939,25.939,0,0,1,329.4,205.879Z" transform="translate(-278.439 -128.4)"/></g><g transform="translate(202.658 66.859)"><path class="b" d="M461.594,173.468l-4.069-1.356a1.114,1.114,0,0,1-.848-1.356c0-.678.17-1.526.17-2.2a9.664,9.664,0,0,0-.17-2.2,1.342,1.342,0,0,1,.848-1.356l4.069-1.356a1.4,1.4,0,0,0,.848-1.7l-2.2-6.782a1.4,1.4,0,0,0-1.7-.848l-4.069,1.356a1.19,1.19,0,0,1-1.526-.678,29.987,29.987,0,0,0-2.713-3.73,1.559,1.559,0,0,1-.17-1.7l2.543-3.391a1.2,1.2,0,0,0-.339-1.865l-5.764-4.238a1.2,1.2,0,0,0-1.865.339L442.1,143.8a1.535,1.535,0,0,1-1.7.509,33.488,33.488,0,0,0-4.408-1.356,1.289,1.289,0,0,1-1.017-1.356v-4.238A1.459,1.459,0,0,0,433.621,136h-6.781a1.459,1.459,0,0,0-1.356,1.356v4.238a1.477,1.477,0,0,1-1.017,1.356,43.778,43.778,0,0,0-4.408,1.356,1.72,1.72,0,0,1-1.7-.509l-2.543-3.391a1.38,1.38,0,0,0-1.865-.339l-5.764,4.238a1.38,1.38,0,0,0-.339,1.865l2.543,3.391a1.3,1.3,0,0,1-.17,1.7,29.978,29.978,0,0,0-2.713,3.73,1.476,1.476,0,0,1-1.526.678l-4.069-1.356a1.4,1.4,0,0,0-1.7.848l-2.2,6.782a1.4,1.4,0,0,0,.848,1.7l4.069,1.356a1.114,1.114,0,0,1,.848,1.356c0,.678-.17,1.526-.17,2.2a8.956,8.956,0,0,0,.17,2.2,1.342,1.342,0,0,1-.848,1.356l-4.069,1.356a1.4,1.4,0,0,0-.848,1.7l2.2,6.782a1.4,1.4,0,0,0,1.7.848l4.069-1.356a1.19,1.19,0,0,1,1.526.678,29.975,29.975,0,0,0,2.713,3.73,1.559,1.559,0,0,1,.17,1.7l-2.543,3.391a1.2,1.2,0,0,0,.339,1.865l5.764,4.238a1.2,1.2,0,0,0,1.865-.339l2.543-3.391a1.535,1.535,0,0,1,1.7-.509,33.488,33.488,0,0,0,4.408,1.356,1.289,1.289,0,0,1,1.017,1.356v4.238a1.459,1.459,0,0,0,1.356,1.356h7.121a1.459,1.459,0,0,0,1.356-1.356v-4.238a1.477,1.477,0,0,1,1.017-1.356,43.776,43.776,0,0,0,4.408-1.356,1.72,1.72,0,0,1,1.7.509l2.543,3.391a1.38,1.38,0,0,0,1.865.339l5.764-4.238a1.38,1.38,0,0,0,.339-1.865l-2.543-3.391a1.3,1.3,0,0,1,.17-1.7,29.985,29.985,0,0,0,2.713-3.73,1.475,1.475,0,0,1,1.526-.678l4.069,1.356a1.4,1.4,0,0,0,1.7-.848l2.2-6.782A2.041,2.041,0,0,0,461.594,173.468ZM430.4,184.827a16.276,16.276,0,1,1,16.276-16.276A16.28,16.28,0,0,1,430.4,184.827Z" transform="translate(-397.975 -136)"/></g><g transform="translate(279.944 39.158)"><path class="b" d="M465.667,133.29l-1.865-.678c-.17-.17-.339-.339-.339-.509a6.421,6.421,0,0,0,0-2.543c0-.17,0-.509.339-.509l1.865-.848a.677.677,0,0,0,.339-.678l-1.017-2.2a.677.677,0,0,0-.678-.339l-1.865.848c-.17.17-.509,0-.678-.17A9.715,9.715,0,0,0,459.9,123.8c-.17-.17-.339-.339-.17-.678l.678-1.865c.17-.339,0-.509-.339-.678l-2.2-.848c-.339-.17-.509,0-.678.339l-.678,1.865c-.17.17-.339.339-.509.339a6.421,6.421,0,0,0-2.543,0c-.17,0-.509,0-.509-.339l-.848-1.865a.677.677,0,0,0-.678-.339l-2.2,1.017a.677.677,0,0,0-.339.678l.848,1.865c.17.17,0,.509-.17.678a9.715,9.715,0,0,0-1.865,1.865c-.169.17-.339.339-.678.17l-1.865-.678c-.339-.17-.509,0-.678.339l-.848,2.2c-.17.339,0,.509.339.678l1.865.678c.17.17.339.339.339.509a6.421,6.421,0,0,0,0,2.543c0,.17,0,.509-.339.509l-1.865.848a.677.677,0,0,0-.339.678l1.017,2.2a.677.677,0,0,0,.678.339l1.865-.848c.17-.17.509,0,.678.17a9.718,9.718,0,0,0,1.865,1.865c.17.17.339.339.17.678l-.678,1.865c-.17.339,0,.509.339.678l2.2.848c.339.17.509,0,.678-.339l.678-1.865c.17-.17.339-.339.509-.339a6.421,6.421,0,0,0,2.543,0c.17,0,.509,0,.509.339l.848,1.865a.677.677,0,0,0,.678.339l2.2-1.017a.677.677,0,0,0,.339-.678l-.848-1.865c-.17-.17,0-.509.17-.678A9.714,9.714,0,0,0,461.937,136c.17-.17.339-.339.678-.17l1.865.678c.339.17.509,0,.678-.339l.848-2.2A.881.881,0,0,0,465.667,133.29Zm-8.816,2.543a5.432,5.432,0,1,1,2.882-7.121A5.483,5.483,0,0,1,456.851,135.833Z" transform="translate(-443.561 -119.661)"/></g></g><g transform="translate(137.495 103.31)"><g transform="translate(68.663 226.164)"><path class="g" d="M461.224,353.629H341.7L360.688,290.9h81.548Z" transform="translate(-295.925 -290.9)"/><path class="g" d="M517.807,343.937H322.668a7.959,7.959,0,0,1-7.968-7.968h0A7.959,7.959,0,0,1,322.668,328H517.807a7.959,7.959,0,0,1,7.968,7.968h0A7.853,7.853,0,0,1,517.807,343.937Z" transform="translate(-314.7 -265.101)"/></g><path class="h" d="M274.2,371.966V178.353A20.838,20.838,0,0,1,295.053,157.5H601.747A20.838,20.838,0,0,1,622.6,178.353V371.966a20.838,20.838,0,0,1-20.853,20.853H295.053A20.731,20.731,0,0,1,274.2,371.966Z" transform="translate(-274.2 -157.5)"/><path class="i" d="M593.259,360.195h-298.9A13.6,13.6,0,0,1,280.8,346.632V177.263A13.6,13.6,0,0,1,294.363,163.7H593.428a13.6,13.6,0,0,1,13.563,13.563V346.632A13.749,13.749,0,0,1,593.259,360.195Z" transform="translate(-269.611 -153.189)"/></g><g transform="translate(23.048 140.529)"><path class="j" d="M273.6,223.906l.678-10.681a6.306,6.306,0,0,1,1.7-3.73l5.934-5.595s1.187,1.356-.678,3.56-3.9,5.086-3.9,5.086l.509,13.733Z" transform="translate(-160.17 -162.453)"/><path class="d" d="M251.021,212c2.2-2.543,5.764-1.356,10.172,5.595,4.408,6.782,10.681,19.5,10.681,19.5l18.141-20.684,6.612,4.578s-13.9,26.957-18.649,33.06-11.02,13.563-20.853-10.681C247.122,219.294,248.647,214.717,251.021,212Z" transform="translate(-177.094 -157.673)"/><path class="k" d="M241.971,329.87s-2.034,8.307,0,11.7c1.526,2.543,25.77,1.7,25.77,1.7s.848-4.238-4.917-4.238-9.325-3.052-11.359-4.747a13.558,13.558,0,0,1-3.221-4.578h-6.273Z" transform="translate(-182.793 -74.975)"/><path class="k" d="M229.772,329.8s-1.7,8.646.339,12.037c1.526,2.543,15.6,1.187,15.6,1.187s2.2-7.29-6.442-8.646c-2.543-.339-3.221-4.578-3.221-4.578Z" transform="translate(-191.108 -74.905)"/><path class="l" d="M267.432,254.3s.848,16.615-6.442,55.1c-3.56,18.649-6.442,33.738-9.325,74.427h-11.02s-4.408-107.826.509-128.171Z" transform="translate(-184.35 -127.406)"/><path class="m" d="M256.907,254.3s.848,16.615-6.443,55.1c-3.56,18.649-6.442,33.738-9.325,74.427H230.12s.339-25.261-1.017-53.235c-1.526-29.33-3.221-62.051.678-75.614Z" transform="translate(-192.304 -127.406)"/><path class="d" d="M244.265,208.142s-13.393,3.73-15.6,4.747c-5.764,2.713-1.187,17.123,0,36.959,1.017,18.141-4.238,47.132,2.034,43.741s19.666-6.951,31.365-2.543,15.6-.509,15.258-8.138c-.339-7.46-3.9-33.23-2.882-45.436s1.7-22.888-3.9-24.753C263.253,210.515,257.489,206.616,244.265,208.142Z" transform="translate(-193.395 -159.744)"/><path class="n" d="M221.9,249.881s5.764,7.8,10,7.46c4.917-.339,9.325-8.307,9.325-8.307h7.629s4.408-.848-.17-2.882c-4.747-2.034-7.629-4.578-9.155-4.238-4.238.678-9.494,5.764-9.494,5.764l-4.408-3.56Z" transform="translate(-196.121 -136.042)"/><path class="d" d="M249.088,212.654c3.73,3.56-4.578,17.632-13.224,24.922s-14.072,9.833-12.037,12.376,15.767,17.123,15.767,17.123l-6.442,7.29S207.043,255.547,206.7,248.6c-.509-7.121,21.362-28.991,27.8-33.908C240.95,209.6,245.7,209.6,249.088,212.654Z" transform="translate(-206.695 -157.814)"/><path class="o" d="M254.745,213.642c0,2.713-3.73,5.764-10.172,6.1-5.595.339-10.172-2.713-10.172-7.121,0-2.713,4.577-5.425,10.172-5.425C252.88,207.539,254.745,210.93,254.745,213.642Z" transform="translate(-187.429 -160.159)"/><g transform="translate(35.579)"><path class="n" d="M236.96,203.087s-1.187,12.207-1.356,13.563,2.374,5.425,8.138,4.917,8.646-2.2,8.646-4.917-7.629-14.75-7.629-14.75Z" transform="translate(-222.177 -163.844)"/><path class="k" d="M231.952,189.9a9.545,9.545,0,0,0-3.9,10.511c1.865,6.951,9.664,8.307,14.072,13.224C242.124,213.466,241.276,190.409,231.952,189.9Z" transform="translate(-227.681 -172.189)"/><path class="j" d="M258.492,199.259c0,10.85-5.595,19.666-12.546,19.666S233.4,210.109,233.4,199.259s5.595-11.359,12.546-11.359C252.727,187.9,258.492,188.409,258.492,199.259Z" transform="translate(-223.704 -173.579)"/><path class="j" d="M238.912,197.788c-.17,1.865-2.2,3.391-4.578,3.052-2.2-.339-3.9-2.034-3.73-4.069.17-1.865,2.2-3.391,4.578-3.052C237.386,194.059,239.082,195.923,238.912,197.788Z" transform="translate(-225.656 -169.566)"/><path class="k" d="M235.9,203.607s4.577,4.917,7.29-3.56c0,0,24.244,5.086,22.888-9.664s-14.75-12.207-14.411-6.1c0,0-4.069,4.069-11.19,1.7s-13.563,4.408-9.833,11.19C230.648,197.165,230.818,202.59,235.9,203.607Z" transform="translate(-226.378 -179.453)"/></g></g><g transform="translate(148.685 113.821)"><g class="p"><path class="b" d="M412.861,252.056,387.431,250.7h0L362,252.056l6.1,54.083,19.327,11.7h0l19.158-11.7Z" transform="translate(-224.335 -103.202)"/><path class="d" d="M404.324,252.056,385,250.7h0l-19.5,1.356,4.747,54.083,14.75,11.7h0l14.58-11.7Z" transform="translate(-221.901 -103.202)"/></g><g class="q"><circle class="r" cx="13.563" cy="13.563" r="13.563" transform="translate(54.083 163.265)"/><circle class="r" cx="29.839" cy="29.839" r="29.839" transform="translate(-32.551 123.085)"/><circle class="r" cx="17.293" cy="17.293" r="17.293" transform="translate(68.154 147.498)"/><circle class="r" cx="15.428" cy="15.428" r="15.428" transform="translate(31.195 158.009)"/><circle class="r" cx="15.428" cy="15.428" r="15.428" transform="translate(9.494 148.176)"/><circle class="s" cx="10.003" cy="10.003" r="10.003" transform="translate(93.246 161.231)"/><circle class="s" cx="15.428" cy="15.428" r="15.428" transform="translate(129.866 166.486)"/><circle class="s" cx="15.428" cy="15.428" r="15.428" transform="translate(105.792 162.417)"/><rect class="t" width="160.722" height="36.112" transform="translate(-13.733 174.963)"/></g><g class="q"><path class="u" d="M419.571,269.685a8.985,8.985,0,1,1-8.985-8.985A9.158,9.158,0,0,1,419.571,269.685Z" transform="translate(-196.798 -96.248)"/><circle class="v" cx="22.379" cy="22.379" r="22.379" transform="translate(310.255 121.728)"/><circle class="u" cx="15.428" cy="15.428" r="15.428" transform="translate(174.624 168.86)"/><circle class="v" cx="10.85" cy="10.85" r="10.85" transform="translate(187.848 156.992)"/><circle class="v" cx="18.141" cy="18.141" r="18.141" transform="translate(232.437 152.245)"/><circle class="v" cx="22.549" cy="22.549" r="22.549" transform="translate(274.482 145.803)"/><path class="u" d="M454.518,269.659A11.359,11.359,0,1,1,443.159,258.3,11.36,11.36,0,0,1,454.518,269.659Z" transform="translate(-175.798 -97.917)"/><circle class="w" cx="11.359" cy="11.359" r="11.359" transform="translate(267.022 169.877)"/><path class="v" d="M478.518,257.559A11.359,11.359,0,1,1,467.159,246.2,11.36,11.36,0,0,1,478.518,257.559Z" transform="translate(-159.108 -106.331)"/><path class="u" d="M433.418,273.259A11.359,11.359,0,1,1,422.059,261.9,11.36,11.36,0,0,1,433.418,273.259Z" transform="translate(-190.47 -95.414)"/><rect class="u" width="159.196" height="34.077" transform="translate(181.914 173.437)"/></g><g class="x"><circle class="y" cx="15.428" cy="15.428" r="15.428" transform="translate(56.287 190.222)"/><circle class="z" cx="22.888" cy="22.888" r="22.888" transform="translate(9.833 173.607)"/><circle class="aa" cx="15.428" cy="15.428" r="15.428" transform="translate(38.316 184.627)"/><circle class="ab" cx="15.428" cy="15.428" r="15.428" transform="translate(-10.511 170.216)"/><circle class="ac" cx="22.379" cy="22.379" r="22.379" transform="translate(71.036 166.317)"/><circle class="ad" cx="15.428" cy="15.428" r="15.428" transform="translate(125.119 173.946)"/><path class="ae" d="M370.318,284.259A11.359,11.359,0,1,1,358.959,272.9,11.36,11.36,0,0,1,370.318,284.259Z" transform="translate(-234.349 -87.765)"/></g><g class="x"><circle class="af" cx="15.428" cy="15.428" r="15.428" transform="translate(212.262 181.067)"/><circle class="af" cx="22.379" cy="22.379" r="22.379" transform="translate(301.1 156.992)"/><circle class="af" cx="22.888" cy="22.888" r="22.888" transform="translate(167.164 179.202)"/><circle class="af" cx="15.428" cy="15.428" r="15.428" transform="translate(191.748 171.064)"/><circle class="af" cx="18.141" cy="18.141" r="18.141" transform="translate(236.336 168.86)"/><circle class="ag" cx="15.428" cy="15.428" r="15.428" transform="translate(279.399 171.403)"/><circle class="af" cx="15.428" cy="15.428" r="15.428" transform="translate(287.197 181.067)"/><path class="af" d="M459.018,284.959A11.359,11.359,0,1,1,447.659,273.6,11.36,11.36,0,0,1,459.018,284.959Z" transform="translate(-172.668 -87.278)"/></g><g class="x"><path class="ah" d="M384.263,254.9c-39.841,15.767,0,64.933,0,64.933S424.1,270.837,384.263,254.9Z" transform="translate(-221.167 -100.281)"/><path class="ai" d="M382.5,254.9c-30.178,12.037,0,49.505,0,49.505S412.679,267.107,382.5,254.9Z" transform="translate(-219.406 -100.281)"/><path class="aj" d="M381.3,254.9c-23.566,9.155,0,37.3,0,37.3S404.862,264.055,381.3,254.9Z" transform="translate(-218.2 -100.281)"/></g></g><g transform="translate(220.267 12.268)"><g transform="translate(0 167.843)"><path class="ak" d="M373.846,202.8l11.529,73.24-42.045,16.276a10.163,10.163,0,0,0-5.934,6.442l-3.221,11.02-10.342-27.635a12.393,12.393,0,0,1,2.543-12.885Z" transform="translate(-323.022 -202.8)"/><path class="al" d="M405.629,202.8,394.1,276.04l42.045,16.276a10.163,10.163,0,0,1,5.934,6.442l3.221,11.02,10.342-27.635a12.393,12.393,0,0,0-2.543-12.885Z" transform="translate(-273.595 -202.8)"/></g><g transform="translate(47.36)"><path class="am" d="M395.11,360.072c13.733,0,25.431-5.425,32.212-9.325C467.164,172.393,395.11,103.9,395.11,103.9S323.226,172.393,362.9,350.747C369.68,354.647,381.208,360.072,395.11,360.072Z" transform="translate(-350.956 -103.73)"/><path class="an" d="M351.1,198.9c.17,5.764.509,11.7,1.017,17.632,10.681,5.425,25.6,10.681,42.724,10.681s32.043-5.425,42.724-10.681c.509-6.1.848-12.037,1.017-17.632-11.02,5.425-26.278,10.85-43.741,10.85A97.654,97.654,0,0,1,351.1,198.9Z" transform="translate(-350.856 -37.669)"/><path class="ao" d="M388.682,257.99A63.21,63.21,0,0,1,360.2,250.7c.678,3.221,1.526,6.442,2.2,9.664,0,0,11.189,9.325,26.109,9.325s26.109-9.325,26.109-9.325c.848-3.221,1.526-6.442,2.2-9.664A61.089,61.089,0,0,1,388.682,257.99Z" transform="translate(-344.528 -1.649)"/><path class="ap" d="M390.421,170.259a112.183,112.183,0,0,0,32.721-4.747c-13.054-43.063-32.721-61.712-32.721-61.712s-19.5,18.649-32.721,61.712A112.182,112.182,0,0,0,390.421,170.259Z" transform="translate(-346.267 -103.8)"/></g><g transform="translate(64.388 105.961)"><circle class="aq" cx="27.126" cy="27.126" r="27.126"/><circle class="o" cx="20.175" cy="20.175" r="20.175" transform="translate(3.959 43.722) rotate(-80.782)"/></g><g transform="translate(78.968 72.054)"><circle class="ar" cx="12.546" cy="12.546" r="12.546"/><circle class="o" cx="8.816" cy="8.816" r="8.816" transform="translate(3.73 3.73)"/></g><path class="as" d="M381.39,217.311,379.017,202.9l-2.374,14.411v.678L374.1,266.138v.848l2.374,31.2a1.271,1.271,0,0,0,.169.848l2.374,10.681,2.374-10.681a7.342,7.342,0,0,1,.169-.848l2.374-31.2v-.848l-2.543-48.149Z" transform="translate(-287.503 -34.888)"/></g><g class="at" transform="translate(370.441 19.728)"><path class="o" d="M433.3,119.05a10.85,10.85,0,1,1-10.85-10.85A10.817,10.817,0,0,1,433.3,119.05Z" transform="translate(-411.6 -108.2)"/><path class="b" d="M421.577,126.554a8.5,8.5,0,0,1-8.477-8.477,8.477,8.477,0,1,1,8.477,8.477Z" transform="translate(-410.557 -107.226)"/><path class="o" d="M420.673,123.446a6.273,6.273,0,1,1,6.273-6.273A6.487,6.487,0,0,1,420.673,123.446Z" transform="translate(-409.653 -106.322)"/><path class="d" d="M419.7,120.1a3.9,3.9,0,1,1,3.9-3.9A3.944,3.944,0,0,1,419.7,120.1Z" transform="translate(-408.679 -105.349)"/><path class="o" d="M418.8,116.991a1.7,1.7,0,1,1,1.7-1.7A1.976,1.976,0,0,1,418.8,116.991Z" transform="translate(-407.775 -104.445)"/></g><g transform="translate(430.274 150.574)"><circle class="au" cx="44.249" cy="44.249" r="44.249" transform="translate(10.356 10.379)"/><circle class="av" cx="38.655" cy="38.655" r="38.655" transform="translate(0 54.665) rotate(-45)"/><text class="aw" transform="translate(39.786 71.642)"><tspan x="0" y="0">$</tspan></text></g><g class="ax" transform="translate(0 64.316)"><circle class="ay" cx="3.391" cy="3.391" r="3.391" transform="translate(527.433 57.304)"/><path class="ay" d="M228.982,160.291a3.391,3.391,0,1,1-3.391-3.391A3.3,3.3,0,0,1,228.982,160.291Z" transform="translate(-172.864 -118.923)"/><g transform="translate(483.522)"><line class="az" y2="4.917" transform="translate(2.543)"/><line class="az" x1="4.917" transform="translate(0 2.374)"/></g><g transform="translate(106.3 7.29)"><line class="az" y2="4.917" transform="translate(2.374)"/><line class="az" x1="4.917" transform="translate(0 2.543)"/></g><g transform="translate(0 303.134)"><line class="az" y2="4.747" transform="translate(2.374 0)"/><line class="az" x1="4.747" transform="translate(0 2.374)"/></g><g transform="translate(529.128 223.79)"><line class="ba" y2="4.917" transform="translate(2.543)"/><line class="ba" x1="4.917" transform="translate(0 2.374)"/></g></g><g transform="translate(397.734 304.017)"><g transform="translate(44.518)"><path class="b" d="M459.964,370.343c-3.73-1.526-9.494-15.089-3.221-24.753,6.442-9.664,12.207-5.086,8.986-21.192-3.221-16.276,8.138-22.888,14.58-20.345,6.612,2.543,12.546,2.374,19.327-11.359,6.612-13.733,15.428-20.514,25.092-14.75,9.833,5.934-.339,20.514-1.187,27.3-.848,6.612-1.356,7.121,5.425,16.784,6.781,9.833,3.56,20.005-9.664,20.175-13.224,0-21.87.848-28.143,13.054C484.886,367.291,472.509,375.6,459.964,370.343Z" transform="translate(-453.957 -275.885)"/><g transform="translate(7.024 14.267)"><path class="c" d="M458.1,365.17s8.307-16.445,20.684-35.6c10-15.6,22.718-33.06,35.6-45.267" transform="translate(-458.1 -284.3)"/><path class="c" d="M472.3,308.839s21.531-4.917,37.807-.339" transform="translate(-448.226 -268.828)"/><path class="c" d="M468.487,325.478A93.532,93.532,0,0,0,467.3,299.2" transform="translate(-451.702 -273.939)"/></g></g><g transform="translate(0 3.741)"><path class="d" d="M439.4,378.642s-16.445-11.02-10.342-17.462,17.462,13.054,14.411-2.034c-3.56-17.462,3.391-19.836,7.121-13.733s-.339-27.974,2.882-37.807c4.917-14.58,12.885-2.543,14.919,20.005s2.374-50.692,18.819-49.505c16.445,1.017.339,44.08,0,58.491s11.02-15.428,23.227-9.833c12.376,5.425-17.8,43.063-16.445,44.08s12.037-9.494,17.462-3.052-19.836,11.02-19.836,11.02H439.4Z" transform="translate(-427.699 -278.091)"/><g transform="translate(31.814 21.546)"><path class="bb" d="M454.6,369.8s9.494-60.864,12.376-79" transform="translate(-440.806 -290.8)"/><path class="bb" d="M446.525,299.1s-2.034,32.551,17.293,41.706" transform="translate(-446.464 -285.028)"/><path class="bb" d="M487.143,310.4S476.8,340.239,455.1,351.089" transform="translate(-440.458 -277.171)"/></g></g></g><g transform="translate(14.58 407.97)"><path class="d" d="M673.091,339.774h-460.8a1.159,1.159,0,0,1-1.187-1.187h0a1.159,1.159,0,0,1,1.187-1.187H673.261a1.159,1.159,0,0,1,1.187,1.187h0A1.455,1.455,0,0,1,673.091,339.774Z" transform="translate(-195.163 -337.061)"/><path class="d" d="M203.056,339.913h7.968a1.337,1.337,0,0,0,1.356-1.356h0a1.337,1.337,0,0,0-1.356-1.356h-7.968a1.337,1.337,0,0,0-1.356,1.356h0A1.459,1.459,0,0,0,203.056,339.913Z" transform="translate(-201.7 -337.2)"/><path class="d" d="M489.956,339.913h17.971a1.337,1.337,0,0,0,1.356-1.356h0a1.337,1.337,0,0,0-1.356-1.356H489.956a1.337,1.337,0,0,0-1.356,1.356h0A1.459,1.459,0,0,0,489.956,339.913Z" transform="translate(-2.195 -337.2)"/></g></g></g></g></g></svg>