<svg xmlns="http://www.w3.org/2000/svg" xmlns:xlink="http://www.w3.org/1999/xlink" width="50" height="50" viewBox="0 0 50 50"><defs><style>.a{fill:#fff;stroke:#707070;}.b{clip-path:url(#a);}.c{fill:#2d62fc;}.d{fill:#189afe;}</style><clipPath id="a"><rect class="a" width="50" height="50"/></clipPath></defs><g class="b"><g transform="translate(3.462 0)"><path class="c" d="M287.68,306.124a20.11,20.11,0,0,1-.827,2.274,27.791,27.791,0,0,1-6.615,10.129l-.207.207c-.724.723-1.447,1.344-2.17,1.964a20.178,20.178,0,0,1-2.377,1.757c-.827.517-1.654,1.034-2.584,1.55a15.586,15.586,0,0,1-2.687,1.24c-.413.207-.827.31-1.344.517a1.916,1.916,0,0,1-.723.207c-.1,0-.207.1-.31.1h-.413c-.1,0-.207,0-.207-.1-.1,0-.207-.1-.413-.1a1.916,1.916,0,0,0-.723-.207c-.517-.207-.93-.31-1.447-.517-.93-.413-1.86-.827-2.687-1.24-.93-.517-1.757-1.034-2.584-1.55a20.181,20.181,0,0,1-2.377-1.757c-.724-.62-1.447-1.24-2.17-1.964l-.207-.207a31.82,31.82,0,0,1-6.615-10.129c-.31-.723-.517-1.55-.827-2.274a43.825,43.825,0,0,0,3.1,3.1,37.877,37.877,0,0,0,15.916,8.578l1.24.31,1.24-.31a38.507,38.507,0,0,0,15.916-8.578A42.434,42.434,0,0,0,287.68,306.124Z" transform="translate(-246.132 -276.151)"/><path class="d" d="M288.072,300.288l-.62-1.86a29.668,29.668,0,0,0-6.718-10.542l-.413-.413a.38.38,0,0,0,.1.31,24.185,24.185,0,0,1,.31,3.927v.1a23.929,23.929,0,0,1-.517,4.754,14.7,14.7,0,0,0-3.721-.517h0a12.948,12.948,0,0,0-5.581,1.24,10.323,10.323,0,0,0-3,2.067,19.353,19.353,0,0,0-3-2.067,12.308,12.308,0,0,0-5.581-1.24h0a14.066,14.066,0,0,0-3.721.517,23.922,23.922,0,0,1-.517-4.754v-.1a24.19,24.19,0,0,1,.31-3.927.379.379,0,0,1,.1-.31l-.413.413a30.6,30.6,0,0,0-6.718,10.542l-.62,1.86a29.183,29.183,0,0,0-1.24,8.578h0a12.924,12.924,0,0,0,12.919,12.919h0a13.356,13.356,0,0,0,6.718-1.86,8.909,8.909,0,0,0,1.86-1.447,22.708,22.708,0,0,0,1.86,1.447,12.4,12.4,0,0,0,6.718,1.86h0a12.924,12.924,0,0,0,12.919-12.919h0A38.151,38.151,0,0,0,288.072,300.288Zm-24.495,8.578a4.329,4.329,0,0,1-4.134,4.341h-.1A4.367,4.367,0,0,1,255,308.866v-.1a4.328,4.328,0,0,1,4.341-4.134h0a4.19,4.19,0,0,1,4.237,4.237Zm12.816,4.237h-.1a4.329,4.329,0,0,1-4.134-4.341h0a4.367,4.367,0,0,1,4.341-4.341h0a4.329,4.329,0,0,1,4.341,4.134v.1A4.476,4.476,0,0,1,276.393,313.1Z" transform="translate(-246.524 -287.472)"/></g></g></svg>