<svg xmlns="http://www.w3.org/2000/svg" xmlns:xlink="http://www.w3.org/1999/xlink" width="28" height="28" viewBox="0 0 28 28"><defs><style>.a{fill:#fff;stroke:#707070;}.b{clip-path:url(#a);}.c{fill:#2d62fc;}.d{fill:#189afe;}</style><clipPath id="a"><rect class="a" width="28" height="28" transform="translate(2 -1)"/></clipPath></defs><g class="b" transform="translate(-2 1)"><g transform="translate(3.94 -1)"><path class="c" d="M269.866,306.078a11.268,11.268,0,0,1-.463,1.274,15.571,15.571,0,0,1-3.706,5.675l-.116.116c-.405.405-.811.753-1.216,1.1a11.306,11.306,0,0,1-1.332.984c-.463.29-.927.579-1.448.869a8.733,8.733,0,0,1-1.506.695c-.232.116-.463.174-.753.29a1.074,1.074,0,0,1-.405.116c-.058,0-.116.058-.174.058h-.232c-.058,0-.116,0-.116-.058-.058,0-.116-.058-.232-.058a1.074,1.074,0,0,0-.405-.116c-.29-.116-.521-.174-.811-.29-.521-.232-1.042-.463-1.506-.695-.521-.29-.984-.579-1.448-.869a11.307,11.307,0,0,1-1.332-.984c-.405-.347-.811-.695-1.216-1.1l-.116-.116a17.829,17.829,0,0,1-3.706-5.675c-.174-.405-.29-.869-.463-1.274a24.56,24.56,0,0,0,1.737,1.737,21.223,21.223,0,0,0,8.918,4.806l.695.174.695-.174a21.576,21.576,0,0,0,8.918-4.806A23.783,23.783,0,0,0,269.866,306.078Z" transform="translate(-246.586 -289.285)"/><path class="d" d="M269.8,294.653l-.347-1.042a16.623,16.623,0,0,0-3.764-5.907l-.232-.232a.213.213,0,0,0,.058.174,13.552,13.552,0,0,1,.174,2.2v.058a13.406,13.406,0,0,1-.29,2.664,8.234,8.234,0,0,0-2.085-.29h0a7.255,7.255,0,0,0-3.127.695,5.784,5.784,0,0,0-1.679,1.158,10.842,10.842,0,0,0-1.679-1.158,6.9,6.9,0,0,0-3.127-.695h0a7.881,7.881,0,0,0-2.085.29,13.405,13.405,0,0,1-.29-2.664v-.058a13.552,13.552,0,0,1,.174-2.2.213.213,0,0,1,.058-.174l-.232.232a17.148,17.148,0,0,0-3.764,5.907l-.347,1.042a16.351,16.351,0,0,0-.695,4.806h0a7.241,7.241,0,0,0,7.239,7.239h0a7.483,7.483,0,0,0,3.764-1.042,4.992,4.992,0,0,0,1.042-.811,12.721,12.721,0,0,0,1.042.811,6.945,6.945,0,0,0,3.764,1.042h0a7.241,7.241,0,0,0,7.239-7.239h0A21.376,21.376,0,0,0,269.8,294.653Zm-13.724,4.806a2.425,2.425,0,0,1-2.316,2.432H253.7a2.447,2.447,0,0,1-2.432-2.432V299.4a2.425,2.425,0,0,1,2.432-2.316h0a2.348,2.348,0,0,1,2.374,2.374Zm7.181,2.374H263.2a2.425,2.425,0,0,1-2.316-2.432h0a2.447,2.447,0,0,1,2.432-2.432h0a2.425,2.425,0,0,1,2.432,2.316v.058A2.508,2.508,0,0,1,263.259,301.833Z" transform="translate(-246.524 -287.472)"/></g></g></svg>